<svg width="14" height="14" viewBox="0 0 14 14" fill="none" xmlns="http://www.w3.org/2000/svg">
<path fill-rule="evenodd" clip-rule="evenodd" d="M3.84989 0C3.26999 0 2.79989 0.4701 2.79989 1.05V2.79996H1.05C0.470101 2.79996 0 3.27006 0 3.84996C0 4.42986 0.4701 4.89996 1.05 4.89996H2.79989V9.10006H1.05C0.470101 9.10006 0 9.57016 0 10.1501C0 10.73 0.4701 11.2001 1.05 11.2001H2.79989V12.95C2.79989 13.5299 3.26999 14 3.84989 14C4.42978 14 4.89989 13.5299 4.89989 12.95V11.2001H9.09991V12.95C9.09991 13.5299 9.57002 14 10.1499 14C10.7298 14 11.1999 13.5299 11.1999 12.95V11.2001H12.95C13.5299 11.2001 14 10.73 14 10.1501C14 9.57016 13.5299 9.10006 12.95 9.10006H11.1999V4.89996H12.95C13.5299 4.89996 14 4.42986 14 3.84996C14 3.27006 13.5299 2.79996 12.95 2.79996H11.1999V1.05C11.1999 0.470101 10.7298 0 10.1499 0C9.57002 0 9.09991 0.4701 9.09991 1.05V2.79996H4.89989V1.05C4.89989 0.470101 4.42978 0 3.84989 0ZM9.09991 9.10006V4.89996H4.89989V9.10006H9.09991Z" fill="white" fill-opacity="0.5"/>
</svg>
