<svg width="732" height="175" viewBox="0 0 732 175" fill="none" xmlns="http://www.w3.org/2000/svg">
<path d="M144.5 0C149.194 0 153 3.80558 153 8.5V134.524C152.655 134.559 152.321 134.628 152 134.729V8.5C152 4.35786 148.642 1 144.5 1H8.5C4.35786 1 1 4.35786 1 8.5V166.5C1 170.642 4.35786 174 8.5 174H144.5C148.642 174 152 170.642 152 166.5V150.271C152.321 150.371 152.655 150.44 153 150.475V166.5C153 171.194 149.194 175 144.5 175H8.5C3.80558 175 0 171.194 0 166.5V8.5C0 3.80558 3.80558 3.22128e-08 8.5 0H144.5Z" fill="#969696" fill-opacity="0.9"/>
<path d="M40.8379 33.5V30.02L37.7179 24.86H39.4699L41.5579 28.448H41.6779L43.7899 24.86H45.4699L42.3499 30.02V33.5H40.8379ZM47.7401 33.644C47.1401 33.644 46.6041 33.512 46.1321 33.248C45.6601 32.984 45.2841 32.608 45.0041 32.12C44.7321 31.632 44.5961 31.052 44.5961 30.38C44.5961 29.708 44.7321 29.128 45.0041 28.64C45.2841 28.152 45.6601 27.776 46.1321 27.512C46.6041 27.248 47.1401 27.116 47.7401 27.116C48.3401 27.116 48.8761 27.248 49.3481 27.512C49.8201 27.776 50.1921 28.152 50.4641 28.64C50.7441 29.128 50.8841 29.708 50.8841 30.38C50.8841 31.052 50.7441 31.632 50.4641 32.12C50.1921 32.608 49.8201 32.984 49.3481 33.248C48.8761 33.512 48.3401 33.644 47.7401 33.644ZM47.7401 32.3C48.2601 32.3 48.6601 32.128 48.9401 31.784C49.2281 31.44 49.3721 30.972 49.3721 30.38C49.3721 29.788 49.2281 29.32 48.9401 28.976C48.6601 28.632 48.2601 28.46 47.7401 28.46C47.2201 28.46 46.8161 28.632 46.5281 28.976C46.2481 29.32 46.1081 29.788 46.1081 30.38C46.1081 30.972 46.2481 31.44 46.5281 31.784C46.8161 32.128 47.2201 32.3 47.7401 32.3ZM57.5363 27.26V33.5H56.1323V32.636H56.0603C55.8603 32.948 55.6123 33.196 55.3163 33.38C55.0203 33.556 54.6723 33.644 54.2723 33.644C53.8483 33.644 53.4763 33.556 53.1563 33.38C52.8363 33.196 52.5883 32.928 52.4123 32.576C52.2363 32.224 52.1483 31.8 52.1483 31.304V27.26H53.5883V31.04C53.5883 31.464 53.6843 31.78 53.8763 31.988C54.0683 32.188 54.3323 32.288 54.6683 32.288C54.9483 32.288 55.1923 32.22 55.4003 32.084C55.6163 31.94 55.7843 31.732 55.9043 31.46C56.0323 31.18 56.0963 30.844 56.0963 30.452V27.26H57.5363ZM59.1695 33.5V27.26H60.5735V28.364H60.6455C60.8135 27.996 61.0615 27.696 61.3895 27.464C61.7175 27.232 62.1215 27.116 62.6015 27.116H63.0095V28.58H62.4815C61.8975 28.58 61.4375 28.748 61.1015 29.084C60.7735 29.42 60.6095 29.944 60.6095 30.656V33.5H59.1695ZM68.172 33.5L66.3 27.26H67.848L69.084 31.616H69.18L70.428 27.26H72.18L73.44 31.616H73.536L74.772 27.26H76.224L74.388 33.5H72.6L71.364 29.264H71.232L69.996 33.5H68.172ZM79.8475 33.644C79.2555 33.644 78.7275 33.512 78.2635 33.248C77.7995 32.984 77.4355 32.608 77.1715 32.12C76.9155 31.624 76.7875 31.044 76.7875 30.38C76.7875 29.756 76.9195 29.2 77.1835 28.712C77.4475 28.216 77.8115 27.828 78.2755 27.548C78.7395 27.26 79.2675 27.116 79.8595 27.116C80.4435 27.116 80.9515 27.244 81.3835 27.5C81.8235 27.756 82.1635 28.14 82.4035 28.652C82.6435 29.164 82.7635 29.804 82.7635 30.572V30.86H77.6275V29.804H81.5275L81.2515 30.02C81.2515 29.724 81.1995 29.456 81.0955 29.216C80.9915 28.976 80.8355 28.784 80.6275 28.64C80.4195 28.488 80.1595 28.412 79.8475 28.412C79.5435 28.412 79.2715 28.484 79.0315 28.628C78.7915 28.772 78.6035 28.988 78.4675 29.276C78.3315 29.564 78.2635 29.932 78.2635 30.38C78.2635 30.812 78.3275 31.176 78.4555 31.472C78.5835 31.76 78.7675 31.98 79.0075 32.132C79.2475 32.276 79.5275 32.348 79.8475 32.348C80.2155 32.348 80.4995 32.272 80.6995 32.12C80.9075 31.96 81.0795 31.744 81.2155 31.472L82.5475 31.988C82.3475 32.476 82.0395 32.876 81.6235 33.188C81.2155 33.492 80.6235 33.644 79.8475 33.644ZM87.5039 33.644C87.0559 33.644 86.6719 33.56 86.3519 33.392C86.0319 33.216 85.7639 32.964 85.5479 32.636H85.4759V33.5H84.0719V24.86H85.5119V28.124H85.5839C85.7999 27.82 86.0599 27.576 86.3639 27.392C86.6679 27.208 87.0479 27.116 87.5039 27.116C88.0159 27.116 88.4759 27.248 88.8839 27.512C89.2999 27.776 89.6279 28.152 89.8679 28.64C90.1159 29.128 90.2399 29.708 90.2399 30.38C90.2399 31.052 90.1159 31.632 89.8679 32.12C89.6279 32.608 89.2999 32.984 88.8839 33.248C88.4759 33.512 88.0159 33.644 87.5039 33.644ZM87.1199 32.324C87.5999 32.324 87.9919 32.152 88.2959 31.808C88.5999 31.456 88.7519 30.98 88.7519 30.38C88.7519 29.78 88.5999 29.308 88.2959 28.964C87.9919 28.612 87.5999 28.436 87.1199 28.436C86.6079 28.436 86.2039 28.608 85.9079 28.952C85.6119 29.288 85.4639 29.764 85.4639 30.38C85.4639 30.988 85.6119 31.464 85.9079 31.808C86.2039 32.152 86.6079 32.324 87.1199 32.324ZM96.3239 33.644C95.6919 33.644 95.1879 33.476 94.8119 33.14C94.4439 32.796 94.2599 32.344 94.2599 31.784C94.2599 31.232 94.4439 30.788 94.8119 30.452C95.1799 30.108 95.7039 29.908 96.3839 29.852L98.6159 29.648V30.656L96.6239 30.872C96.3119 30.904 96.0799 30.992 95.9279 31.136C95.7759 31.272 95.6999 31.456 95.6999 31.688C95.6999 31.912 95.7799 32.096 95.9399 32.24C96.1079 32.384 96.3399 32.456 96.6359 32.456C96.9399 32.456 97.2079 32.38 97.4399 32.228C97.6799 32.068 97.8639 31.824 97.9919 31.496C98.1279 31.16 98.1959 30.732 98.1959 30.212V29.456C98.1959 29.152 98.1039 28.9 97.9199 28.7C97.7439 28.5 97.4519 28.4 97.0439 28.4C96.6359 28.4 96.3399 28.484 96.1559 28.652C95.9719 28.82 95.8639 29.012 95.8319 29.228H94.4039C94.4279 28.82 94.5479 28.46 94.7639 28.148C94.9799 27.828 95.2839 27.576 95.6759 27.392C96.0679 27.208 96.5359 27.116 97.0799 27.116C97.8879 27.116 98.5159 27.332 98.9639 27.764C99.4119 28.188 99.6359 28.736 99.6359 29.408V32.132L99.6719 33.5H98.3159L98.2799 32.66H98.1839C97.9599 32.996 97.6919 33.244 97.3799 33.404C97.0759 33.564 96.7239 33.644 96.3239 33.644ZM104.578 27.116C105.09 27.116 105.55 27.248 105.958 27.512C106.374 27.776 106.702 28.152 106.942 28.64C107.19 29.128 107.314 29.708 107.314 30.38C107.314 31.052 107.19 31.632 106.942 32.12C106.702 32.608 106.374 32.984 105.958 33.248C105.55 33.512 105.09 33.644 104.578 33.644C104.122 33.644 103.742 33.552 103.438 33.368C103.134 33.184 102.874 32.94 102.658 32.636H102.586V35.9H101.146V27.26H102.55V28.124H102.622C102.838 27.796 103.106 27.548 103.426 27.38C103.746 27.204 104.13 27.116 104.578 27.116ZM104.194 28.436C103.682 28.436 103.278 28.608 102.982 28.952C102.686 29.296 102.538 29.772 102.538 30.38C102.538 30.988 102.686 31.464 102.982 31.808C103.278 32.152 103.682 32.324 104.194 32.324C104.674 32.324 105.066 32.152 105.37 31.808C105.674 31.456 105.826 30.98 105.826 30.38C105.826 29.78 105.674 29.308 105.37 28.964C105.066 28.612 104.674 28.436 104.194 28.436ZM112.078 27.116C112.59 27.116 113.05 27.248 113.458 27.512C113.874 27.776 114.202 28.152 114.442 28.64C114.69 29.128 114.814 29.708 114.814 30.38C114.814 31.052 114.69 31.632 114.442 32.12C114.202 32.608 113.874 32.984 113.458 33.248C113.05 33.512 112.59 33.644 112.078 33.644C111.622 33.644 111.242 33.552 110.938 33.368C110.634 33.184 110.374 32.94 110.158 32.636H110.086V35.9H108.646V27.26H110.05V28.124H110.122C110.338 27.796 110.606 27.548 110.926 27.38C111.246 27.204 111.63 27.116 112.078 27.116ZM111.694 28.436C111.182 28.436 110.778 28.608 110.482 28.952C110.186 29.296 110.038 29.772 110.038 30.38C110.038 30.988 110.186 31.464 110.482 31.808C110.778 32.152 111.182 32.324 111.694 32.324C112.174 32.324 112.566 32.152 112.87 31.808C113.174 31.456 113.326 30.98 113.326 30.38C113.326 29.78 113.174 29.308 112.87 28.964C112.566 28.612 112.174 28.436 111.694 28.436Z" fill="white"/>
<rect x="291.5" y="0.5" width="152" height="174" rx="8" stroke="#969696" stroke-opacity="0.9"/>
<path d="M336.055 33.5V32.276L339.715 28.544V28.46H336.259V27.26H341.671V28.58L338.071 32.216V32.3H341.839V33.5H336.055ZM345.775 33.644C345.183 33.644 344.655 33.512 344.191 33.248C343.727 32.984 343.363 32.608 343.099 32.12C342.843 31.624 342.715 31.044 342.715 30.38C342.715 29.756 342.847 29.2 343.111 28.712C343.375 28.216 343.739 27.828 344.203 27.548C344.667 27.26 345.195 27.116 345.787 27.116C346.371 27.116 346.879 27.244 347.311 27.5C347.751 27.756 348.091 28.14 348.331 28.652C348.571 29.164 348.691 29.804 348.691 30.572V30.86H343.555V29.804H347.455L347.179 30.02C347.179 29.724 347.127 29.456 347.023 29.216C346.919 28.976 346.763 28.784 346.555 28.64C346.347 28.488 346.087 28.412 345.775 28.412C345.471 28.412 345.199 28.484 344.959 28.628C344.719 28.772 344.531 28.988 344.395 29.276C344.259 29.564 344.191 29.932 344.191 30.38C344.191 30.812 344.255 31.176 344.383 31.472C344.511 31.76 344.695 31.98 344.935 32.132C345.175 32.276 345.455 32.348 345.775 32.348C346.143 32.348 346.427 32.272 346.627 32.12C346.835 31.96 347.007 31.744 347.143 31.472L348.475 31.988C348.275 32.476 347.967 32.876 347.551 33.188C347.143 33.492 346.551 33.644 345.775 33.644ZM350 33.5V27.26H351.404V28.364H351.476C351.644 27.996 351.892 27.696 352.22 27.464C352.548 27.232 352.952 27.116 353.432 27.116H353.84V28.58H353.312C352.728 28.58 352.268 28.748 351.932 29.084C351.604 29.42 351.44 29.944 351.44 30.656V33.5H350ZM357.625 33.644C357.025 33.644 356.489 33.512 356.017 33.248C355.545 32.984 355.169 32.608 354.889 32.12C354.617 31.632 354.481 31.052 354.481 30.38C354.481 29.708 354.617 29.128 354.889 28.64C355.169 28.152 355.545 27.776 356.017 27.512C356.489 27.248 357.025 27.116 357.625 27.116C358.225 27.116 358.761 27.248 359.233 27.512C359.705 27.776 360.077 28.152 360.349 28.64C360.629 29.128 360.769 29.708 360.769 30.38C360.769 31.052 360.629 31.632 360.349 32.12C360.077 32.608 359.705 32.984 359.233 33.248C358.761 33.512 358.225 33.644 357.625 33.644ZM357.625 32.3C358.145 32.3 358.545 32.128 358.825 31.784C359.113 31.44 359.257 30.972 359.257 30.38C359.257 29.788 359.113 29.32 358.825 28.976C358.545 28.632 358.145 28.46 357.625 28.46C357.105 28.46 356.701 28.632 356.413 28.976C356.133 29.32 355.993 29.788 355.993 30.38C355.993 30.972 356.133 31.44 356.413 31.784C356.701 32.128 357.105 32.3 357.625 32.3ZM361.761 30.98V29.78H364.521V30.98H361.761ZM368.676 33.644C368.076 33.644 367.536 33.512 367.056 33.248C366.584 32.984 366.208 32.608 365.928 32.12C365.648 31.632 365.508 31.052 365.508 30.38C365.508 29.708 365.648 29.128 365.928 28.64C366.208 28.152 366.584 27.776 367.056 27.512C367.536 27.248 368.076 27.116 368.676 27.116C369.452 27.116 370.092 27.32 370.596 27.728C371.108 28.128 371.428 28.668 371.556 29.348L370.128 29.66C370.048 29.316 369.884 29.032 369.636 28.808C369.396 28.576 369.076 28.46 368.676 28.46C368.332 28.46 368.036 28.54 367.788 28.7C367.54 28.852 367.348 29.072 367.212 29.36C367.084 29.64 367.02 29.98 367.02 30.38C367.02 30.772 367.084 31.112 367.212 31.4C367.348 31.688 367.54 31.912 367.788 32.072C368.036 32.224 368.332 32.3 368.676 32.3C369.06 32.3 369.372 32.2 369.612 32C369.86 31.792 370.036 31.484 370.14 31.076L371.544 31.508C371.456 31.916 371.288 32.28 371.04 32.6C370.8 32.92 370.484 33.176 370.092 33.368C369.7 33.552 369.228 33.644 368.676 33.644ZM374.463 33.644C373.831 33.644 373.327 33.476 372.951 33.14C372.583 32.796 372.399 32.344 372.399 31.784C372.399 31.232 372.583 30.788 372.951 30.452C373.319 30.108 373.843 29.908 374.523 29.852L376.755 29.648V30.656L374.763 30.872C374.451 30.904 374.219 30.992 374.067 31.136C373.915 31.272 373.839 31.456 373.839 31.688C373.839 31.912 373.919 32.096 374.079 32.24C374.247 32.384 374.479 32.456 374.775 32.456C375.079 32.456 375.347 32.38 375.579 32.228C375.819 32.068 376.003 31.824 376.131 31.496C376.267 31.16 376.335 30.732 376.335 30.212V29.456C376.335 29.152 376.243 28.9 376.059 28.7C375.883 28.5 375.591 28.4 375.183 28.4C374.775 28.4 374.479 28.484 374.295 28.652C374.111 28.82 374.003 29.012 373.971 29.228H372.543C372.567 28.82 372.687 28.46 372.903 28.148C373.119 27.828 373.423 27.576 373.815 27.392C374.207 27.208 374.675 27.116 375.219 27.116C376.027 27.116 376.655 27.332 377.103 27.764C377.551 28.188 377.775 28.736 377.775 29.408V32.132L377.811 33.5H376.455L376.419 32.66H376.323C376.099 32.996 375.831 33.244 375.519 33.404C375.215 33.564 374.863 33.644 374.463 33.644ZM382.153 33.644C381.553 33.644 381.013 33.512 380.533 33.248C380.061 32.984 379.685 32.608 379.405 32.12C379.125 31.632 378.985 31.052 378.985 30.38C378.985 29.708 379.125 29.128 379.405 28.64C379.685 28.152 380.061 27.776 380.533 27.512C381.013 27.248 381.553 27.116 382.153 27.116C382.929 27.116 383.569 27.32 384.073 27.728C384.585 28.128 384.905 28.668 385.033 29.348L383.605 29.66C383.525 29.316 383.361 29.032 383.113 28.808C382.873 28.576 382.553 28.46 382.153 28.46C381.809 28.46 381.513 28.54 381.265 28.7C381.017 28.852 380.825 29.072 380.689 29.36C380.561 29.64 380.497 29.98 380.497 30.38C380.497 30.772 380.561 31.112 380.689 31.4C380.825 31.688 381.017 31.912 381.265 32.072C381.513 32.224 381.809 32.3 382.153 32.3C382.537 32.3 382.849 32.2 383.089 32C383.337 31.792 383.513 31.484 383.617 31.076L385.021 31.508C384.933 31.916 384.765 32.28 384.517 32.6C384.277 32.92 383.961 33.176 383.569 33.368C383.177 33.552 382.705 33.644 382.153 33.644ZM386.187 33.5V24.86H387.627V28.1H387.699C387.883 27.796 388.123 27.556 388.419 27.38C388.715 27.204 389.059 27.116 389.451 27.116C389.867 27.116 390.235 27.208 390.555 27.392C390.875 27.568 391.123 27.832 391.299 28.184C391.483 28.528 391.575 28.952 391.575 29.456V33.5H390.135V29.72C390.135 29.296 390.035 28.984 389.835 28.784C389.635 28.576 389.367 28.472 389.031 28.472C388.767 28.472 388.527 28.544 388.311 28.688C388.103 28.824 387.935 29.028 387.807 29.3C387.687 29.572 387.627 29.908 387.627 30.308V33.5H386.187ZM395.896 33.644C395.304 33.644 394.776 33.512 394.312 33.248C393.848 32.984 393.484 32.608 393.22 32.12C392.964 31.624 392.836 31.044 392.836 30.38C392.836 29.756 392.968 29.2 393.232 28.712C393.496 28.216 393.86 27.828 394.324 27.548C394.788 27.26 395.316 27.116 395.908 27.116C396.492 27.116 397 27.244 397.432 27.5C397.872 27.756 398.212 28.14 398.452 28.652C398.692 29.164 398.812 29.804 398.812 30.572V30.86H393.676V29.804H397.576L397.3 30.02C397.3 29.724 397.248 29.456 397.144 29.216C397.04 28.976 396.884 28.784 396.676 28.64C396.468 28.488 396.208 28.412 395.896 28.412C395.592 28.412 395.32 28.484 395.08 28.628C394.84 28.772 394.652 28.988 394.516 29.276C394.38 29.564 394.312 29.932 394.312 30.38C394.312 30.812 394.376 31.176 394.504 31.472C394.632 31.76 394.816 31.98 395.056 32.132C395.296 32.276 395.576 32.348 395.896 32.348C396.264 32.348 396.548 32.272 396.748 32.12C396.956 31.96 397.128 31.744 397.264 31.472L398.596 31.988C398.396 32.476 398.088 32.876 397.672 33.188C397.264 33.492 396.672 33.644 395.896 33.644Z" fill="white"/>
<rect x="8.5" y="117.5" width="136" height="49" rx="6" fill="#1E1E1E"/>
<path d="M46.9967 146.5V145.276L50.6567 141.544V141.46H47.2007V140.26H52.6127V141.58L49.0127 145.216V145.3H52.7807V146.5H46.9967ZM56.7166 146.644C56.1246 146.644 55.5966 146.512 55.1326 146.248C54.6686 145.984 54.3046 145.608 54.0406 145.12C53.7846 144.624 53.6566 144.044 53.6566 143.38C53.6566 142.756 53.7886 142.2 54.0526 141.712C54.3166 141.216 54.6806 140.828 55.1446 140.548C55.6086 140.26 56.1366 140.116 56.7286 140.116C57.3126 140.116 57.8206 140.244 58.2526 140.5C58.6926 140.756 59.0326 141.14 59.2726 141.652C59.5126 142.164 59.6326 142.804 59.6326 143.572V143.86H54.4966V142.804H58.3966L58.1206 143.02C58.1206 142.724 58.0686 142.456 57.9646 142.216C57.8606 141.976 57.7046 141.784 57.4966 141.64C57.2886 141.488 57.0286 141.412 56.7166 141.412C56.4126 141.412 56.1406 141.484 55.9006 141.628C55.6606 141.772 55.4726 141.988 55.3366 142.276C55.2006 142.564 55.1326 142.932 55.1326 143.38C55.1326 143.812 55.1966 144.176 55.3246 144.472C55.4526 144.76 55.6366 144.98 55.8766 145.132C56.1166 145.276 56.3966 145.348 56.7166 145.348C57.0846 145.348 57.3686 145.272 57.5686 145.12C57.7766 144.96 57.9486 144.744 58.0846 144.472L59.4166 144.988C59.2166 145.476 58.9086 145.876 58.4926 146.188C58.0846 146.492 57.4926 146.644 56.7166 146.644ZM60.941 146.5V140.26H62.345V141.364H62.417C62.585 140.996 62.833 140.696 63.161 140.464C63.489 140.232 63.893 140.116 64.373 140.116H64.781V141.58H64.253C63.669 141.58 63.209 141.748 62.873 142.084C62.545 142.42 62.381 142.944 62.381 143.656V146.5H60.941ZM68.5663 146.644C67.9663 146.644 67.4303 146.512 66.9583 146.248C66.4863 145.984 66.1103 145.608 65.8303 145.12C65.5583 144.632 65.4223 144.052 65.4223 143.38C65.4223 142.708 65.5583 142.128 65.8303 141.64C66.1103 141.152 66.4863 140.776 66.9583 140.512C67.4303 140.248 67.9663 140.116 68.5663 140.116C69.1663 140.116 69.7023 140.248 70.1743 140.512C70.6463 140.776 71.0183 141.152 71.2903 141.64C71.5703 142.128 71.7103 142.708 71.7103 143.38C71.7103 144.052 71.5703 144.632 71.2903 145.12C71.0183 145.608 70.6463 145.984 70.1743 146.248C69.7023 146.512 69.1663 146.644 68.5663 146.644ZM68.5663 145.3C69.0863 145.3 69.4863 145.128 69.7663 144.784C70.0543 144.44 70.1983 143.972 70.1983 143.38C70.1983 142.788 70.0543 142.32 69.7663 141.976C69.4863 141.632 69.0863 141.46 68.5663 141.46C68.0463 141.46 67.6423 141.632 67.3543 141.976C67.0743 142.32 66.9343 142.788 66.9343 143.38C66.9343 143.972 67.0743 144.44 67.3543 144.784C67.6423 145.128 68.0463 145.3 68.5663 145.3ZM72.702 143.98V142.78H75.462V143.98H72.702ZM79.6176 146.644C79.0176 146.644 78.4776 146.512 77.9976 146.248C77.5256 145.984 77.1496 145.608 76.8696 145.12C76.5896 144.632 76.4496 144.052 76.4496 143.38C76.4496 142.708 76.5896 142.128 76.8696 141.64C77.1496 141.152 77.5256 140.776 77.9976 140.512C78.4776 140.248 79.0176 140.116 79.6176 140.116C80.3936 140.116 81.0336 140.32 81.5376 140.728C82.0496 141.128 82.3696 141.668 82.4976 142.348L81.0696 142.66C80.9896 142.316 80.8256 142.032 80.5776 141.808C80.3376 141.576 80.0176 141.46 79.6176 141.46C79.2736 141.46 78.9776 141.54 78.7296 141.7C78.4816 141.852 78.2896 142.072 78.1536 142.36C78.0256 142.64 77.9616 142.98 77.9616 143.38C77.9616 143.772 78.0256 144.112 78.1536 144.4C78.2896 144.688 78.4816 144.912 78.7296 145.072C78.9776 145.224 79.2736 145.3 79.6176 145.3C80.0016 145.3 80.3136 145.2 80.5536 145C80.8016 144.792 80.9776 144.484 81.0816 144.076L82.4856 144.508C82.3976 144.916 82.2296 145.28 81.9816 145.6C81.7416 145.92 81.4256 146.176 81.0336 146.368C80.6416 146.552 80.1696 146.644 79.6176 146.644ZM83.6519 146.5V137.86H85.0919V146.5H83.6519ZM86.7223 146.5V140.26H88.1623V146.5H86.7223ZM86.5663 138.58C86.5663 138.324 86.6463 138.116 86.8063 137.956C86.9743 137.796 87.1863 137.716 87.4423 137.716C87.6983 137.716 87.9063 137.796 88.0663 137.956C88.2343 138.116 88.3183 138.324 88.3183 138.58C88.3183 138.82 88.2343 139.024 88.0663 139.192C87.9063 139.352 87.6983 139.432 87.4423 139.432C87.1863 139.432 86.9743 139.352 86.8063 139.192C86.6463 139.024 86.5663 138.82 86.5663 138.58ZM92.5526 146.644C91.9606 146.644 91.4326 146.512 90.9686 146.248C90.5046 145.984 90.1406 145.608 89.8766 145.12C89.6206 144.624 89.4926 144.044 89.4926 143.38C89.4926 142.756 89.6246 142.2 89.8886 141.712C90.1526 141.216 90.5166 140.828 90.9806 140.548C91.4446 140.26 91.9726 140.116 92.5646 140.116C93.1486 140.116 93.6566 140.244 94.0886 140.5C94.5286 140.756 94.8686 141.14 95.1086 141.652C95.3486 142.164 95.4686 142.804 95.4686 143.572V143.86H90.3326V142.804H94.2326L93.9566 143.02C93.9566 142.724 93.9046 142.456 93.8006 142.216C93.6966 141.976 93.5406 141.784 93.3326 141.64C93.1246 141.488 92.8646 141.412 92.5526 141.412C92.2486 141.412 91.9766 141.484 91.7366 141.628C91.4966 141.772 91.3086 141.988 91.1726 142.276C91.0366 142.564 90.9686 142.932 90.9686 143.38C90.9686 143.812 91.0326 144.176 91.1606 144.472C91.2886 144.76 91.4726 144.98 91.7126 145.132C91.9526 145.276 92.2326 145.348 92.5526 145.348C92.9206 145.348 93.2046 145.272 93.4046 145.12C93.6126 144.96 93.7846 144.744 93.9206 144.472L95.2526 144.988C95.0526 145.476 94.7446 145.876 94.3286 146.188C93.9206 146.492 93.3286 146.644 92.5526 146.644ZM96.7769 146.5V140.26H98.1809V141.124H98.2529C98.4529 140.812 98.7009 140.568 98.9969 140.392C99.3009 140.208 99.6489 140.116 100.041 140.116C100.465 140.116 100.837 140.208 101.157 140.392C101.477 140.568 101.725 140.832 101.901 141.184C102.077 141.528 102.165 141.952 102.165 142.456V146.5H100.725V142.72C100.725 142.296 100.629 141.984 100.437 141.784C100.245 141.576 99.9809 141.472 99.6449 141.472C99.3729 141.472 99.1289 141.544 98.9129 141.688C98.6969 141.824 98.5249 142.028 98.3969 142.3C98.2769 142.572 98.2169 142.908 98.2169 143.308V146.5H96.7769ZM105.898 146.524C105.298 146.524 104.846 146.368 104.542 146.056C104.246 145.736 104.098 145.288 104.098 144.712V138.556H105.538V144.616C105.538 144.992 105.73 145.18 106.114 145.18H107.11V146.524H105.898ZM102.994 141.46V140.26H106.99V141.46H102.994Z" fill="white"/>
<rect x="8.5" y="60.5" width="136" height="49" rx="6" fill="#1E1E1E"/>
<path d="M57.196 82.5001V73.8601H61.18C61.756 73.8601 62.256 73.9721 62.68 74.1961C63.112 74.4201 63.448 74.7281 63.688 75.1201C63.928 75.5121 64.048 75.9681 64.048 76.4881C64.048 77.0081 63.928 77.4681 63.688 77.8681C63.448 78.2601 63.108 78.5681 62.668 78.7921C62.228 79.0161 61.712 79.1281 61.12 79.1281H58.252V77.7721H61.06C61.5 77.7721 61.848 77.6601 62.104 77.4361C62.36 77.2121 62.488 76.8961 62.488 76.4881C62.488 76.0721 62.364 75.7561 62.116 75.5401C61.868 75.3161 61.532 75.2041 61.108 75.2041H58.252L58.708 74.8801V82.5001H57.196ZM62.416 82.5001L59.872 78.5641H61.612L64.252 82.5001H62.416ZM67.9237 82.6441C67.3317 82.6441 66.8037 82.5121 66.3397 82.2481C65.8757 81.9841 65.5117 81.6081 65.2477 81.1201C64.9917 80.6241 64.8637 80.0441 64.8637 79.3801C64.8637 78.7561 64.9957 78.2001 65.2597 77.7121C65.5237 77.2161 65.8877 76.8281 66.3517 76.5481C66.8157 76.2601 67.3437 76.1161 67.9357 76.1161C68.5197 76.1161 69.0277 76.2441 69.4597 76.5001C69.8997 76.7561 70.2397 77.1401 70.4797 77.6521C70.7197 78.1641 70.8397 78.8041 70.8397 79.5721V79.8601H65.7037V78.8041H69.6037L69.3277 79.0201C69.3277 78.7241 69.2757 78.4561 69.1717 78.2161C69.0677 77.9761 68.9117 77.7841 68.7037 77.6401C68.4957 77.4881 68.2357 77.4121 67.9237 77.4121C67.6197 77.4121 67.3477 77.4841 67.1077 77.6281C66.8677 77.7721 66.6797 77.9881 66.5437 78.2761C66.4077 78.5641 66.3397 78.9321 66.3397 79.3801C66.3397 79.8121 66.4037 80.1761 66.5317 80.4721C66.6597 80.7601 66.8437 80.9801 67.0837 81.1321C67.3237 81.2761 67.6037 81.3481 67.9237 81.3481C68.2917 81.3481 68.5757 81.2721 68.7757 81.1201C68.9837 80.9601 69.1557 80.7441 69.2917 80.4721L70.6237 80.9881C70.4237 81.4761 70.1157 81.8761 69.6997 82.1881C69.2917 82.4921 68.6997 82.6441 67.9237 82.6441ZM73.9 82.6441C73.268 82.6441 72.764 82.4761 72.388 82.1401C72.02 81.7961 71.836 81.3441 71.836 80.7841C71.836 80.2321 72.02 79.7881 72.388 79.4521C72.756 79.1081 73.28 78.9081 73.96 78.8521L76.192 78.6481V79.6561L74.2 79.8721C73.888 79.9041 73.656 79.9921 73.504 80.1361C73.352 80.2721 73.276 80.4561 73.276 80.6881C73.276 80.9121 73.356 81.0961 73.516 81.2401C73.684 81.3841 73.916 81.4561 74.212 81.4561C74.516 81.4561 74.784 81.3801 75.016 81.2281C75.256 81.0681 75.44 80.8241 75.568 80.4961C75.704 80.1601 75.772 79.7321 75.772 79.2121V78.4561C75.772 78.1521 75.68 77.9001 75.496 77.7001C75.32 77.5001 75.028 77.4001 74.62 77.4001C74.212 77.4001 73.916 77.4841 73.732 77.6521C73.548 77.8201 73.44 78.0121 73.408 78.2281H71.98C72.004 77.8201 72.124 77.4601 72.34 77.1481C72.556 76.8281 72.86 76.5761 73.252 76.3921C73.644 76.2081 74.112 76.1161 74.656 76.1161C75.464 76.1161 76.092 76.3321 76.54 76.7641C76.988 77.1881 77.212 77.7361 77.212 78.4081V81.1321L77.248 82.5001H75.892L75.856 81.6601H75.76C75.536 81.9961 75.268 82.2441 74.956 82.4041C74.652 82.5641 74.3 82.6441 73.9 82.6441ZM81.5903 82.6441C80.9903 82.6441 80.4503 82.5121 79.9703 82.2481C79.4983 81.9841 79.1223 81.6081 78.8423 81.1201C78.5623 80.6321 78.4223 80.0521 78.4223 79.3801C78.4223 78.7081 78.5623 78.1281 78.8423 77.6401C79.1223 77.1521 79.4983 76.7761 79.9703 76.5121C80.4503 76.2481 80.9903 76.1161 81.5903 76.1161C82.3663 76.1161 83.0063 76.3201 83.5103 76.7281C84.0223 77.1281 84.3423 77.6681 84.4703 78.3481L83.0423 78.6601C82.9623 78.3161 82.7983 78.0321 82.5503 77.8081C82.3103 77.5761 81.9903 77.4601 81.5903 77.4601C81.2463 77.4601 80.9503 77.5401 80.7023 77.7001C80.4543 77.8521 80.2623 78.0721 80.1263 78.3601C79.9983 78.6401 79.9343 78.9801 79.9343 79.3801C79.9343 79.7721 79.9983 80.1121 80.1263 80.4001C80.2623 80.6881 80.4543 80.9121 80.7023 81.0721C80.9503 81.2241 81.2463 81.3001 81.5903 81.3001C81.9743 81.3001 82.2863 81.2001 82.5263 81.0001C82.7743 80.7921 82.9503 80.4841 83.0543 80.0761L84.4583 80.5081C84.3703 80.9161 84.2023 81.2801 83.9543 81.6001C83.7143 81.9201 83.3983 82.1761 83.0063 82.3681C82.6143 82.5521 82.1423 82.6441 81.5903 82.6441ZM87.7966 82.5241C87.1966 82.5241 86.7446 82.3681 86.4406 82.0561C86.1446 81.7361 85.9966 81.2881 85.9966 80.7121V74.5561H87.4366V80.6161C87.4366 80.9921 87.6286 81.1801 88.0126 81.1801H89.0086V82.5241H87.7966ZM84.8926 77.4601V76.2601H88.8886V77.4601H84.8926ZM92.3577 82.5001L95.1177 73.8601H96.5697L93.8217 82.5001H92.3577ZM44.7636 96.6441C43.7956 96.6441 43.0156 96.4561 42.4236 96.0801C41.8316 95.6961 41.3956 95.1361 41.1156 94.4001L42.6756 93.8601C42.8276 94.2921 43.0796 94.6281 43.4316 94.8681C43.7836 95.1081 44.2276 95.2281 44.7636 95.2281C45.3956 95.2281 45.8636 95.1241 46.1676 94.9161C46.4716 94.7081 46.6236 94.4361 46.6236 94.1001C46.6236 93.7561 46.5236 93.4961 46.3236 93.3201C46.1236 93.1361 45.8356 93.0241 45.4596 92.9841L43.7556 92.8041C43.0116 92.7241 42.4116 92.4721 41.9556 92.0481C41.4996 91.6241 41.2716 91.0401 41.2716 90.2961C41.2716 89.8241 41.4036 89.3921 41.6676 89.0001C41.9316 88.6081 42.2996 88.2961 42.7716 88.0641C43.2516 87.8321 43.8036 87.7161 44.4276 87.7161C45.3156 87.7161 46.0436 87.9121 46.6116 88.3041C47.1876 88.6881 47.5876 89.2081 47.8116 89.8641L46.3356 90.3801C46.1836 89.9801 45.9476 89.6721 45.6276 89.4561C45.3076 89.2401 44.9076 89.1321 44.4276 89.1321C43.9076 89.1321 43.5116 89.2401 43.2396 89.4561C42.9676 89.6721 42.8316 89.9401 42.8316 90.2601C42.8316 90.5321 42.9236 90.7641 43.1076 90.9561C43.2916 91.1401 43.5876 91.2521 43.9956 91.2921L45.5316 91.4601C46.3876 91.5561 47.0396 91.8281 47.4876 92.2761C47.9436 92.7241 48.1716 93.3321 48.1716 94.1001C48.1716 94.6201 48.0356 95.0721 47.7636 95.4561C47.4996 95.8321 47.1116 96.1241 46.5996 96.3321C46.0956 96.5401 45.4836 96.6441 44.7636 96.6441ZM52.3338 96.6441C51.7338 96.6441 51.1978 96.5121 50.7258 96.2481C50.2538 95.9841 49.8778 95.6081 49.5978 95.1201C49.3258 94.6321 49.1898 94.0521 49.1898 93.3801C49.1898 92.7081 49.3258 92.1281 49.5978 91.6401C49.8778 91.1521 50.2538 90.7761 50.7258 90.5121C51.1978 90.2481 51.7338 90.1161 52.3338 90.1161C52.9338 90.1161 53.4698 90.2481 53.9418 90.5121C54.4138 90.7761 54.7858 91.1521 55.0578 91.6401C55.3378 92.1281 55.4778 92.7081 55.4778 93.3801C55.4778 94.0521 55.3378 94.6321 55.0578 95.1201C54.7858 95.6081 54.4138 95.9841 53.9418 96.2481C53.4698 96.5121 52.9338 96.6441 52.3338 96.6441ZM52.3338 95.3001C52.8538 95.3001 53.2538 95.1281 53.5338 94.7841C53.8218 94.4401 53.9658 93.9721 53.9658 93.3801C53.9658 92.7881 53.8218 92.3201 53.5338 91.9761C53.2538 91.6321 52.8538 91.4601 52.3338 91.4601C51.8138 91.4601 51.4098 91.6321 51.1218 91.9761C50.8418 92.3201 50.7018 92.7881 50.7018 93.3801C50.7018 93.9721 50.8418 94.4401 51.1218 94.7841C51.4098 95.1281 51.8138 95.3001 52.3338 95.3001ZM56.814 96.5001V87.8601H58.254V96.5001H56.814ZM59.8844 96.5001V90.2601H61.3244V96.5001H59.8844ZM59.7284 88.5801C59.7284 88.3241 59.8084 88.1161 59.9684 87.9561C60.1364 87.7961 60.3484 87.7161 60.6044 87.7161C60.8604 87.7161 61.0684 87.7961 61.2284 87.9561C61.3964 88.1161 61.4804 88.3241 61.4804 88.5801C61.4804 88.8201 61.3964 89.0241 61.2284 89.1921C61.0684 89.3521 60.8604 89.4321 60.6044 89.4321C60.3484 89.4321 60.1364 89.3521 59.9684 89.1921C59.8084 89.0241 59.7284 88.8201 59.7284 88.5801ZM65.3907 96.6441C64.8867 96.6441 64.4267 96.5121 64.0107 96.2481C63.5947 95.9841 63.2627 95.6081 63.0147 95.1201C62.7747 94.6321 62.6547 94.0521 62.6547 93.3801C62.6547 92.7081 62.7747 92.1281 63.0147 91.6401C63.2627 91.1521 63.5947 90.7761 64.0107 90.5121C64.4267 90.2481 64.8867 90.1161 65.3907 90.1161C65.8467 90.1161 66.2267 90.2081 66.5307 90.3921C66.8347 90.5761 67.0947 90.8201 67.3107 91.1241H67.3827V87.8601H68.8227V96.5001H67.4187V95.6361H67.3467C67.1307 95.9641 66.8627 96.2161 66.5427 96.3921C66.2227 96.5601 65.8387 96.6441 65.3907 96.6441ZM65.7747 95.3241C66.2867 95.3241 66.6907 95.1521 66.9867 94.8081C67.2827 94.4641 67.4307 93.9881 67.4307 93.3801C67.4307 92.7641 67.2827 92.2881 66.9867 91.9521C66.6907 91.6081 66.2867 91.4361 65.7747 91.4361C65.2947 91.4361 64.9027 91.6121 64.5987 91.9641C64.2947 92.3081 64.1427 92.7801 64.1427 93.3801C64.1427 93.9801 64.2947 94.4561 64.5987 94.8081C64.9027 95.1521 65.2947 95.3241 65.7747 95.3241ZM72.5307 96.6441C72.0187 96.6441 71.5827 96.5481 71.2227 96.3561C70.8627 96.1561 70.5867 95.8801 70.3947 95.5281C70.2107 95.1761 70.1187 94.7641 70.1187 94.2921V93.1401H71.6187V94.2921C71.6187 94.5801 71.6947 94.8081 71.8467 94.9761C71.9987 95.1441 72.2267 95.2281 72.5307 95.2281C72.8347 95.2281 73.0547 95.1441 73.1907 94.9761C73.3347 94.8001 73.4067 94.5721 73.4067 94.2921V87.8601H74.9187V94.2921C74.9187 94.7641 74.8267 95.1761 74.6427 95.5281C74.4587 95.8801 74.1907 96.1561 73.8387 96.3561C73.4867 96.5481 73.0507 96.6441 72.5307 96.6441ZM79.8613 96.6441C78.8933 96.6441 78.1133 96.4561 77.5213 96.0801C76.9293 95.6961 76.4933 95.1361 76.2133 94.4001L77.7733 93.8601C77.9253 94.2921 78.1773 94.6281 78.5293 94.8681C78.8813 95.1081 79.3253 95.2281 79.8613 95.2281C80.4933 95.2281 80.9613 95.1241 81.2653 94.9161C81.5693 94.7081 81.7213 94.4361 81.7213 94.1001C81.7213 93.7561 81.6213 93.4961 81.4213 93.3201C81.2213 93.1361 80.9333 93.0241 80.5573 92.9841L78.8533 92.8041C78.1093 92.7241 77.5093 92.4721 77.0533 92.0481C76.5973 91.6241 76.3693 91.0401 76.3693 90.2961C76.3693 89.8241 76.5013 89.3921 76.7653 89.0001C77.0293 88.6081 77.3973 88.2961 77.8693 88.0641C78.3493 87.8321 78.9013 87.7161 79.5253 87.7161C80.4133 87.7161 81.1413 87.9121 81.7093 88.3041C82.2853 88.6881 82.6853 89.2081 82.9093 89.8641L81.4333 90.3801C81.2813 89.9801 81.0453 89.6721 80.7253 89.4561C80.4053 89.2401 80.0053 89.1321 79.5253 89.1321C79.0053 89.1321 78.6093 89.2401 78.3373 89.4561C78.0653 89.6721 77.9293 89.9401 77.9293 90.2601C77.9293 90.5321 78.0213 90.7641 78.2053 90.9561C78.3893 91.1401 78.6853 91.2521 79.0933 91.2921L80.6293 91.4601C81.4853 91.5561 82.1373 91.8281 82.5853 92.2761C83.0413 92.7241 83.2693 93.3321 83.2693 94.1001C83.2693 94.6201 83.1333 95.0721 82.8613 95.4561C82.5973 95.8321 82.2093 96.1241 81.6973 96.3321C81.1933 96.5401 80.5813 96.6441 79.8613 96.6441ZM86.8675 96.5001L89.6275 87.8601H91.0795L88.3315 96.5001H86.8675ZM97.7537 96.6441C97.1617 96.6441 96.6337 96.5121 96.1697 96.2481C95.7057 95.9841 95.3417 95.6081 95.0777 95.1201C94.8217 94.6241 94.6937 94.0441 94.6937 93.3801C94.6937 92.7561 94.8257 92.2001 95.0897 91.7121C95.3537 91.2161 95.7177 90.8281 96.1817 90.5481C96.6457 90.2601 97.1737 90.1161 97.7657 90.1161C98.3497 90.1161 98.8577 90.2441 99.2897 90.5001C99.7297 90.7561 100.07 91.1401 100.31 91.6521C100.55 92.1641 100.67 92.8041 100.67 93.5721V93.8601H95.5337V92.8041H99.4337L99.1577 93.0201C99.1577 92.7241 99.1057 92.4561 99.0017 92.2161C98.8977 91.9761 98.7417 91.7841 98.5337 91.6401C98.3257 91.4881 98.0657 91.4121 97.7537 91.4121C97.4497 91.4121 97.1777 91.4841 96.9377 91.6281C96.6977 91.7721 96.5097 91.9881 96.3737 92.2761C96.2377 92.5641 96.1697 92.9321 96.1697 93.3801C96.1697 93.8121 96.2337 94.1761 96.3617 94.4721C96.4897 94.7601 96.6737 94.9801 96.9137 95.1321C97.1537 95.2761 97.4337 95.3481 97.7537 95.3481C98.1217 95.3481 98.4057 95.2721 98.6057 95.1201C98.8137 94.9601 98.9857 94.7441 99.1217 94.4721L100.454 94.9881C100.254 95.4761 99.9457 95.8761 99.5297 96.1881C99.1217 96.4921 98.5297 96.6441 97.7537 96.6441ZM104.15 96.5241C103.55 96.5241 103.098 96.3681 102.794 96.0561C102.498 95.7361 102.35 95.2881 102.35 94.7121V88.5561H103.79V94.6161C103.79 94.9921 103.982 95.1801 104.366 95.1801H105.362V96.5241H104.15ZM101.246 91.4601V90.2601H105.242V91.4601H101.246ZM109.182 96.6441C108.582 96.6441 108.042 96.5121 107.562 96.2481C107.09 95.9841 106.714 95.6081 106.434 95.1201C106.154 94.6321 106.014 94.0521 106.014 93.3801C106.014 92.7081 106.154 92.1281 106.434 91.6401C106.714 91.1521 107.09 90.7761 107.562 90.5121C108.042 90.2481 108.582 90.1161 109.182 90.1161C109.958 90.1161 110.598 90.3201 111.102 90.7281C111.614 91.1281 111.934 91.6681 112.062 92.3481L110.634 92.6601C110.554 92.3161 110.39 92.0321 110.142 91.8081C109.902 91.5761 109.582 91.4601 109.182 91.4601C108.838 91.4601 108.542 91.5401 108.294 91.7001C108.046 91.8521 107.854 92.0721 107.718 92.3601C107.59 92.6401 107.526 92.9801 107.526 93.3801C107.526 93.7721 107.59 94.1121 107.718 94.4001C107.854 94.6881 108.046 94.9121 108.294 95.0721C108.542 95.2241 108.838 95.3001 109.182 95.3001C109.566 95.3001 109.878 95.2001 110.118 95.0001C110.366 94.7921 110.542 94.4841 110.646 94.0761L112.05 94.5081C111.962 94.9161 111.794 95.2801 111.546 95.6001C111.306 95.9201 110.99 96.1761 110.598 96.3681C110.206 96.5521 109.734 96.6441 109.182 96.6441Z" fill="white"/>
<rect x="299.5" y="60.5" width="136" height="106" rx="6" fill="#1E1E1E"/>
<path d="M352.088 117.644C351.12 117.644 350.34 117.456 349.748 117.08C349.156 116.696 348.72 116.136 348.44 115.4L350 114.86C350.152 115.292 350.404 115.628 350.756 115.868C351.108 116.108 351.552 116.228 352.088 116.228C352.72 116.228 353.188 116.124 353.492 115.916C353.796 115.708 353.948 115.436 353.948 115.1C353.948 114.756 353.848 114.496 353.648 114.32C353.448 114.136 353.16 114.024 352.784 113.984L351.08 113.804C350.336 113.724 349.736 113.472 349.28 113.048C348.824 112.624 348.596 112.04 348.596 111.296C348.596 110.824 348.728 110.392 348.992 110C349.256 109.608 349.624 109.296 350.096 109.064C350.576 108.832 351.128 108.716 351.752 108.716C352.64 108.716 353.368 108.912 353.936 109.304C354.512 109.688 354.912 110.208 355.136 110.864L353.66 111.38C353.508 110.98 353.272 110.672 352.952 110.456C352.632 110.24 352.232 110.132 351.752 110.132C351.232 110.132 350.836 110.24 350.564 110.456C350.292 110.672 350.156 110.94 350.156 111.26C350.156 111.532 350.248 111.764 350.432 111.956C350.616 112.14 350.912 112.252 351.32 112.292L352.856 112.46C353.712 112.556 354.364 112.828 354.812 113.276C355.268 113.724 355.496 114.332 355.496 115.1C355.496 115.62 355.36 116.072 355.088 116.456C354.824 116.832 354.436 117.124 353.924 117.332C353.42 117.54 352.808 117.644 352.088 117.644ZM363.99 117.92L360.678 114.044L361.734 113.144L365.058 117.032L363.99 117.92ZM360.918 117.644C360.078 117.644 359.326 117.464 358.662 117.104C357.998 116.744 357.474 116.232 357.09 115.568C356.714 114.896 356.526 114.1 356.526 113.18C356.526 112.492 356.634 111.876 356.85 111.332C357.074 110.78 357.382 110.312 357.774 109.928C358.166 109.536 358.63 109.236 359.166 109.028C359.702 108.82 360.286 108.716 360.918 108.716C361.558 108.716 362.142 108.82 362.67 109.028C363.206 109.236 363.67 109.536 364.062 109.928C364.462 110.312 364.77 110.78 364.986 111.332C365.202 111.876 365.31 112.492 365.31 113.18C365.31 113.868 365.202 114.488 364.986 115.04C364.77 115.592 364.462 116.064 364.062 116.456C363.67 116.84 363.206 117.136 362.67 117.344C362.142 117.544 361.558 117.644 360.918 117.644ZM360.918 116.24C361.518 116.24 362.026 116.112 362.442 115.856C362.858 115.592 363.174 115.232 363.39 114.776C363.614 114.312 363.726 113.78 363.726 113.18C363.726 112.572 363.614 112.04 363.39 111.584C363.174 111.128 362.858 110.772 362.442 110.516C362.026 110.252 361.518 110.12 360.918 110.12C360.326 110.12 359.818 110.252 359.394 110.516C358.978 110.772 358.658 111.128 358.434 111.584C358.218 112.04 358.11 112.572 358.11 113.18C358.11 113.78 358.218 114.312 358.434 114.776C358.658 115.232 358.978 115.592 359.394 115.856C359.818 116.112 360.326 116.24 360.918 116.24ZM366.706 117.5V108.86H368.218V116.756L367.57 116.108H372.37V117.5H366.706ZM373.502 117.5V111.26H374.942V117.5H373.502ZM373.346 109.58C373.346 109.324 373.426 109.116 373.586 108.956C373.754 108.796 373.966 108.716 374.222 108.716C374.478 108.716 374.686 108.796 374.846 108.956C375.014 109.116 375.098 109.324 375.098 109.58C375.098 109.82 375.014 110.024 374.846 110.192C374.686 110.352 374.478 110.432 374.222 110.432C373.966 110.432 373.754 110.352 373.586 110.192C373.426 110.024 373.346 109.82 373.346 109.58ZM378.744 117.524C378.144 117.524 377.692 117.368 377.388 117.056C377.092 116.736 376.944 116.288 376.944 115.712V109.556H378.384V115.616C378.384 115.992 378.576 116.18 378.96 116.18H379.956V117.524H378.744ZM375.84 112.46V111.26H379.836V112.46H375.84ZM383.668 117.644C383.076 117.644 382.548 117.512 382.084 117.248C381.62 116.984 381.256 116.608 380.992 116.12C380.736 115.624 380.608 115.044 380.608 114.38C380.608 113.756 380.74 113.2 381.004 112.712C381.268 112.216 381.632 111.828 382.096 111.548C382.56 111.26 383.088 111.116 383.68 111.116C384.264 111.116 384.772 111.244 385.204 111.5C385.644 111.756 385.984 112.14 386.224 112.652C386.464 113.164 386.584 113.804 386.584 114.572V114.86H381.448V113.804H385.348L385.072 114.02C385.072 113.724 385.02 113.456 384.916 113.216C384.812 112.976 384.656 112.784 384.448 112.64C384.24 112.488 383.98 112.412 383.668 112.412C383.364 112.412 383.092 112.484 382.852 112.628C382.612 112.772 382.424 112.988 382.288 113.276C382.152 113.564 382.084 113.932 382.084 114.38C382.084 114.812 382.148 115.176 382.276 115.472C382.404 115.76 382.588 115.98 382.828 116.132C383.068 116.276 383.348 116.348 383.668 116.348C384.036 116.348 384.32 116.272 384.52 116.12C384.728 115.96 384.9 115.744 385.036 115.472L386.368 115.988C386.168 116.476 385.86 116.876 385.444 117.188C385.036 117.492 384.444 117.644 383.668 117.644Z" fill="white"/>
<path d="M192.108 146.5L189.78 137.86H191.412L193.116 144.58H193.26L195.204 137.86H197.136L199.08 144.58H199.224L200.952 137.86H202.5L200.172 146.5H198.144L196.236 139.9H196.068L194.148 146.5H192.108ZM205.648 146.644C205.056 146.644 204.528 146.512 204.064 146.248C203.6 145.984 203.236 145.608 202.972 145.12C202.716 144.624 202.588 144.044 202.588 143.38C202.588 142.756 202.72 142.2 202.984 141.712C203.248 141.216 203.612 140.828 204.076 140.548C204.54 140.26 205.068 140.116 205.66 140.116C206.244 140.116 206.752 140.244 207.184 140.5C207.624 140.756 207.964 141.14 208.204 141.652C208.444 142.164 208.564 142.804 208.564 143.572V143.86H203.428V142.804H207.328L207.052 143.02C207.052 142.724 207 142.456 206.896 142.216C206.792 141.976 206.636 141.784 206.428 141.64C206.22 141.488 205.96 141.412 205.648 141.412C205.344 141.412 205.072 141.484 204.832 141.628C204.592 141.772 204.404 141.988 204.268 142.276C204.132 142.564 204.064 142.932 204.064 143.38C204.064 143.812 204.128 144.176 204.256 144.472C204.384 144.76 204.568 144.98 204.808 145.132C205.048 145.276 205.328 145.348 205.648 145.348C206.016 145.348 206.3 145.272 206.5 145.12C206.708 144.96 206.88 144.744 207.016 144.472L208.348 144.988C208.148 145.476 207.84 145.876 207.424 146.188C207.016 146.492 206.424 146.644 205.648 146.644ZM213.305 146.644C212.857 146.644 212.473 146.56 212.153 146.392C211.833 146.216 211.565 145.964 211.349 145.636H211.277V146.5H209.873V137.86H211.313V141.124H211.385C211.601 140.82 211.861 140.576 212.165 140.392C212.469 140.208 212.849 140.116 213.305 140.116C213.817 140.116 214.277 140.248 214.685 140.512C215.101 140.776 215.429 141.152 215.669 141.64C215.917 142.128 216.041 142.708 216.041 143.38C216.041 144.052 215.917 144.632 215.669 145.12C215.429 145.608 215.101 145.984 214.685 146.248C214.277 146.512 213.817 146.644 213.305 146.644ZM212.921 145.324C213.401 145.324 213.793 145.152 214.097 144.808C214.401 144.456 214.553 143.98 214.553 143.38C214.553 142.78 214.401 142.308 214.097 141.964C213.793 141.612 213.401 141.436 212.921 141.436C212.409 141.436 212.005 141.608 211.709 141.952C211.413 142.288 211.265 142.764 211.265 143.38C211.265 143.988 211.413 144.464 211.709 144.808C212.005 145.152 212.409 145.324 212.921 145.324ZM219.725 146.644C218.981 146.644 218.373 146.508 217.901 146.236C217.437 145.964 217.089 145.576 216.857 145.072L218.189 144.46C218.325 144.756 218.525 144.98 218.789 145.132C219.061 145.284 219.373 145.36 219.725 145.36C220.077 145.36 220.353 145.3 220.553 145.18C220.753 145.06 220.853 144.9 220.853 144.7C220.853 144.516 220.793 144.372 220.673 144.268C220.553 144.156 220.365 144.088 220.109 144.064L218.945 143.944C218.337 143.88 217.853 143.696 217.493 143.392C217.133 143.088 216.953 142.652 216.953 142.084C216.953 141.716 217.049 141.384 217.241 141.088C217.441 140.792 217.721 140.556 218.081 140.38C218.441 140.204 218.865 140.116 219.353 140.116C220.017 140.116 220.561 140.244 220.985 140.5C221.409 140.756 221.733 141.096 221.957 141.52L220.661 142.144C220.525 141.888 220.341 141.7 220.109 141.58C219.885 141.46 219.633 141.4 219.353 141.4C219.009 141.4 218.761 141.46 218.609 141.58C218.457 141.7 218.381 141.852 218.381 142.036C218.381 142.196 218.437 142.332 218.549 142.444C218.661 142.548 218.829 142.612 219.053 142.636L220.265 142.756C220.929 142.82 221.429 143.016 221.765 143.344C222.109 143.672 222.281 144.12 222.281 144.688C222.281 145.088 222.177 145.436 221.969 145.732C221.769 146.028 221.477 146.256 221.093 146.416C220.717 146.568 220.261 146.644 219.725 146.644ZM226.252 146.644C225.652 146.644 225.116 146.512 224.644 146.248C224.172 145.984 223.796 145.608 223.516 145.12C223.244 144.632 223.108 144.052 223.108 143.38C223.108 142.708 223.244 142.128 223.516 141.64C223.796 141.152 224.172 140.776 224.644 140.512C225.116 140.248 225.652 140.116 226.252 140.116C226.852 140.116 227.388 140.248 227.86 140.512C228.332 140.776 228.704 141.152 228.976 141.64C229.256 142.128 229.396 142.708 229.396 143.38C229.396 144.052 229.256 144.632 228.976 145.12C228.704 145.608 228.332 145.984 227.86 146.248C227.388 146.512 226.852 146.644 226.252 146.644ZM226.252 145.3C226.772 145.3 227.172 145.128 227.452 144.784C227.74 144.44 227.884 143.972 227.884 143.38C227.884 142.788 227.74 142.32 227.452 141.976C227.172 141.632 226.772 141.46 226.252 141.46C225.732 141.46 225.328 141.632 225.04 141.976C224.76 142.32 224.62 142.788 224.62 143.38C224.62 143.972 224.76 144.44 225.04 144.784C225.328 145.128 225.732 145.3 226.252 145.3ZM233.6 146.644C233 146.644 232.46 146.512 231.98 146.248C231.508 145.984 231.132 145.608 230.852 145.12C230.572 144.632 230.432 144.052 230.432 143.38C230.432 142.708 230.572 142.128 230.852 141.64C231.132 141.152 231.508 140.776 231.98 140.512C232.46 140.248 233 140.116 233.6 140.116C234.376 140.116 235.016 140.32 235.52 140.728C236.032 141.128 236.352 141.668 236.48 142.348L235.052 142.66C234.972 142.316 234.808 142.032 234.56 141.808C234.32 141.576 234 141.46 233.6 141.46C233.256 141.46 232.96 141.54 232.712 141.7C232.464 141.852 232.272 142.072 232.136 142.36C232.008 142.64 231.944 142.98 231.944 143.38C231.944 143.772 232.008 144.112 232.136 144.4C232.272 144.688 232.464 144.912 232.712 145.072C232.96 145.224 233.256 145.3 233.6 145.3C233.984 145.3 234.296 145.2 234.536 145C234.784 144.792 234.96 144.484 235.064 144.076L236.468 144.508C236.38 144.916 236.212 145.28 235.964 145.6C235.724 145.92 235.408 146.176 235.016 146.368C234.624 146.552 234.152 146.644 233.6 146.644ZM237.634 146.5V137.86H239.074V142.924H239.146L241.354 140.26H243.178L239.074 144.952V146.5H237.634ZM241.606 146.5L239.734 143.704L240.682 142.648L243.382 146.5H241.606ZM246.406 146.644C245.814 146.644 245.286 146.512 244.822 146.248C244.358 145.984 243.994 145.608 243.73 145.12C243.474 144.624 243.346 144.044 243.346 143.38C243.346 142.756 243.478 142.2 243.742 141.712C244.006 141.216 244.37 140.828 244.834 140.548C245.298 140.26 245.826 140.116 246.418 140.116C247.002 140.116 247.51 140.244 247.942 140.5C248.382 140.756 248.722 141.14 248.962 141.652C249.202 142.164 249.322 142.804 249.322 143.572V143.86H244.186V142.804H248.086L247.81 143.02C247.81 142.724 247.758 142.456 247.654 142.216C247.55 141.976 247.394 141.784 247.186 141.64C246.978 141.488 246.718 141.412 246.406 141.412C246.102 141.412 245.83 141.484 245.59 141.628C245.35 141.772 245.162 141.988 245.026 142.276C244.89 142.564 244.822 142.932 244.822 143.38C244.822 143.812 244.886 144.176 245.014 144.472C245.142 144.76 245.326 144.98 245.566 145.132C245.806 145.276 246.086 145.348 246.406 145.348C246.774 145.348 247.058 145.272 247.258 145.12C247.466 144.96 247.638 144.744 247.774 144.472L249.106 144.988C248.906 145.476 248.598 145.876 248.182 146.188C247.774 146.492 247.182 146.644 246.406 146.644ZM252.802 146.524C252.202 146.524 251.75 146.368 251.446 146.056C251.15 145.736 251.002 145.288 251.002 144.712V138.556H252.442V144.616C252.442 144.992 252.634 145.18 253.018 145.18H254.014V146.524H252.802ZM249.898 141.46V140.26H253.894V141.46H249.898Z" fill="white"/>
<path d="M152.829 138.965C153.024 138.77 153.34 138.77 153.536 138.965C153.731 139.16 153.731 139.477 153.536 139.672L151.207 142H185.496V143H151.207L153.536 145.328C153.731 145.523 153.731 145.84 153.536 146.035C153.34 146.23 153.024 146.23 152.829 146.035L149.647 142.854C149.452 142.658 149.452 142.342 149.647 142.147L152.829 138.965ZM282.465 138.965C282.661 138.77 282.977 138.77 283.172 138.965L286.354 142.147C286.549 142.342 286.549 142.658 286.354 142.854L283.172 146.035C282.977 146.23 282.661 146.23 282.465 146.035C282.27 145.84 282.27 145.523 282.465 145.328L284.793 143H258.496V142H284.793L282.465 139.672C282.27 139.477 282.27 139.16 282.465 138.965Z" fill="white"/>
<rect x="596" y="109.5" width="136" height="65.0498" rx="6" fill="#1E1E1E"/>
<path d="M626.274 138.5V129.86H630.21C630.786 129.86 631.286 129.972 631.71 130.196C632.142 130.412 632.478 130.716 632.718 131.108C632.958 131.5 633.078 131.956 633.078 132.476C633.078 132.996 632.958 133.456 632.718 133.856C632.478 134.248 632.138 134.556 631.698 134.78C631.258 134.996 630.742 135.104 630.15 135.104H627.33V133.748H630.09C630.53 133.748 630.878 133.64 631.134 133.424C631.39 133.2 631.518 132.884 631.518 132.476C631.518 132.06 631.394 131.744 631.146 131.528C630.898 131.312 630.562 131.204 630.138 131.204H627.33L627.786 130.88V138.5H626.274ZM637.097 138.644C636.497 138.644 635.961 138.512 635.489 138.248C635.017 137.984 634.641 137.608 634.361 137.12C634.089 136.632 633.953 136.052 633.953 135.38C633.953 134.708 634.089 134.128 634.361 133.64C634.641 133.152 635.017 132.776 635.489 132.512C635.961 132.248 636.497 132.116 637.097 132.116C637.697 132.116 638.233 132.248 638.705 132.512C639.177 132.776 639.549 133.152 639.821 133.64C640.101 134.128 640.241 134.708 640.241 135.38C640.241 136.052 640.101 136.632 639.821 137.12C639.549 137.608 639.177 137.984 638.705 138.248C638.233 138.512 637.697 138.644 637.097 138.644ZM637.097 137.3C637.617 137.3 638.017 137.128 638.297 136.784C638.585 136.44 638.729 135.972 638.729 135.38C638.729 134.788 638.585 134.32 638.297 133.976C638.017 133.632 637.617 133.46 637.097 133.46C636.577 133.46 636.173 133.632 635.885 133.976C635.605 134.32 635.465 134.788 635.465 135.38C635.465 135.972 635.605 136.44 635.885 136.784C636.173 137.128 636.577 137.3 637.097 137.3ZM643.929 138.644C643.185 138.644 642.577 138.508 642.105 138.236C641.641 137.964 641.293 137.576 641.061 137.072L642.393 136.46C642.529 136.756 642.729 136.98 642.993 137.132C643.265 137.284 643.577 137.36 643.929 137.36C644.281 137.36 644.557 137.3 644.757 137.18C644.957 137.06 645.057 136.9 645.057 136.7C645.057 136.516 644.997 136.372 644.877 136.268C644.757 136.156 644.569 136.088 644.313 136.064L643.149 135.944C642.541 135.88 642.057 135.696 641.697 135.392C641.337 135.088 641.157 134.652 641.157 134.084C641.157 133.716 641.253 133.384 641.445 133.088C641.645 132.792 641.925 132.556 642.285 132.38C642.645 132.204 643.069 132.116 643.557 132.116C644.221 132.116 644.765 132.244 645.189 132.5C645.613 132.756 645.937 133.096 646.161 133.52L644.865 134.144C644.729 133.888 644.545 133.7 644.313 133.58C644.089 133.46 643.837 133.4 643.557 133.4C643.213 133.4 642.965 133.46 642.813 133.58C642.661 133.7 642.585 133.852 642.585 134.036C642.585 134.196 642.641 134.332 642.753 134.444C642.865 134.548 643.033 134.612 643.257 134.636L644.469 134.756C645.133 134.82 645.633 135.016 645.969 135.344C646.313 135.672 646.485 136.12 646.485 136.688C646.485 137.088 646.381 137.436 646.173 137.732C645.973 138.028 645.681 138.256 645.297 138.416C644.921 138.568 644.465 138.644 643.929 138.644ZM649.785 138.524C649.185 138.524 648.733 138.368 648.429 138.056C648.133 137.736 647.985 137.288 647.985 136.712V130.556H649.425V136.616C649.425 136.992 649.617 137.18 650.001 137.18H650.997V138.524H649.785ZM646.881 133.46V132.26H650.877V133.46H646.881ZM654.838 141.044C654.286 141.044 653.806 140.968 653.398 140.816C652.998 140.664 652.67 140.448 652.414 140.168C652.158 139.896 651.97 139.58 651.85 139.22L653.266 138.8C653.378 139.096 653.554 139.324 653.794 139.484C654.042 139.644 654.39 139.724 654.838 139.724C655.358 139.724 655.746 139.588 656.002 139.316C656.266 139.044 656.398 138.692 656.398 138.26V137.444H656.326C656.134 137.74 655.878 137.976 655.558 138.152C655.246 138.32 654.874 138.404 654.442 138.404C653.946 138.404 653.494 138.276 653.086 138.02C652.686 137.756 652.366 137.388 652.126 136.916C651.886 136.444 651.766 135.892 651.766 135.26C651.766 134.62 651.886 134.068 652.126 133.604C652.366 133.132 652.686 132.768 653.086 132.512C653.494 132.248 653.946 132.116 654.442 132.116C654.866 132.116 655.234 132.2 655.546 132.368C655.866 132.536 656.138 132.784 656.362 133.112H656.434V132.26H657.838V138.32C657.838 138.872 657.718 139.352 657.478 139.76C657.246 140.168 656.906 140.484 656.458 140.708C656.01 140.932 655.47 141.044 654.838 141.044ZM654.85 137.06C655.338 137.06 655.726 136.904 656.014 136.592C656.302 136.28 656.446 135.836 656.446 135.26C656.446 134.692 656.302 134.252 656.014 133.94C655.726 133.62 655.338 133.46 654.85 133.46C654.37 133.46 653.982 133.62 653.686 133.94C653.398 134.252 653.254 134.692 653.254 135.26C653.254 135.82 653.398 136.26 653.686 136.58C653.982 136.9 654.37 137.06 654.85 137.06ZM659.472 138.5V132.26H660.876V133.364H660.948C661.116 132.996 661.364 132.696 661.692 132.464C662.02 132.232 662.424 132.116 662.904 132.116H663.312V133.58H662.784C662.2 133.58 661.74 133.748 661.404 134.084C661.076 134.42 660.912 134.944 660.912 135.656V138.5H659.472ZM667.013 138.644C666.421 138.644 665.893 138.512 665.429 138.248C664.965 137.984 664.601 137.608 664.337 137.12C664.081 136.624 663.953 136.044 663.953 135.38C663.953 134.756 664.085 134.2 664.349 133.712C664.613 133.216 664.977 132.828 665.441 132.548C665.905 132.26 666.433 132.116 667.025 132.116C667.609 132.116 668.117 132.244 668.549 132.5C668.989 132.756 669.329 133.14 669.569 133.652C669.809 134.164 669.929 134.804 669.929 135.572V135.86H664.793V134.804H668.693L668.417 135.02C668.417 134.724 668.365 134.456 668.261 134.216C668.157 133.976 668.001 133.784 667.793 133.64C667.585 133.488 667.325 133.412 667.013 133.412C666.709 133.412 666.437 133.484 666.197 133.628C665.957 133.772 665.769 133.988 665.633 134.276C665.497 134.564 665.429 134.932 665.429 135.38C665.429 135.812 665.493 136.176 665.621 136.472C665.749 136.76 665.933 136.98 666.173 137.132C666.413 137.276 666.693 137.348 667.013 137.348C667.381 137.348 667.665 137.272 667.865 137.12C668.073 136.96 668.245 136.744 668.381 136.472L669.713 136.988C669.513 137.476 669.205 137.876 668.789 138.188C668.381 138.492 667.789 138.644 667.013 138.644ZM674.586 138.644C673.618 138.644 672.838 138.456 672.246 138.08C671.654 137.696 671.218 137.136 670.938 136.4L672.498 135.86C672.65 136.292 672.902 136.628 673.254 136.868C673.606 137.108 674.05 137.228 674.586 137.228C675.218 137.228 675.686 137.124 675.99 136.916C676.294 136.708 676.446 136.436 676.446 136.1C676.446 135.756 676.346 135.496 676.146 135.32C675.946 135.136 675.658 135.024 675.282 134.984L673.578 134.804C672.834 134.724 672.234 134.472 671.778 134.048C671.322 133.624 671.094 133.04 671.094 132.296C671.094 131.824 671.226 131.392 671.49 131C671.754 130.608 672.122 130.296 672.594 130.064C673.074 129.832 673.626 129.716 674.25 129.716C675.138 129.716 675.866 129.912 676.434 130.304C677.01 130.688 677.41 131.208 677.634 131.864L676.158 132.38C676.006 131.98 675.77 131.672 675.45 131.456C675.13 131.24 674.73 131.132 674.25 131.132C673.73 131.132 673.334 131.24 673.062 131.456C672.79 131.672 672.654 131.94 672.654 132.26C672.654 132.532 672.746 132.764 672.93 132.956C673.114 133.14 673.41 133.252 673.818 133.292L675.354 133.46C676.21 133.556 676.862 133.828 677.31 134.276C677.766 134.724 677.994 135.332 677.994 136.1C677.994 136.62 677.858 137.072 677.586 137.456C677.322 137.832 676.934 138.124 676.422 138.332C675.918 138.54 675.306 138.644 674.586 138.644ZM686.488 138.92L683.176 135.044L684.232 134.144L687.556 138.032L686.488 138.92ZM683.416 138.644C682.576 138.644 681.824 138.464 681.16 138.104C680.496 137.744 679.972 137.232 679.588 136.568C679.212 135.896 679.024 135.1 679.024 134.18C679.024 133.492 679.132 132.876 679.348 132.332C679.572 131.78 679.88 131.312 680.272 130.928C680.664 130.536 681.128 130.236 681.664 130.028C682.2 129.82 682.784 129.716 683.416 129.716C684.056 129.716 684.64 129.82 685.168 130.028C685.704 130.236 686.168 130.536 686.56 130.928C686.96 131.312 687.268 131.78 687.484 132.332C687.7 132.876 687.808 133.492 687.808 134.18C687.808 134.868 687.7 135.488 687.484 136.04C687.268 136.592 686.96 137.064 686.56 137.456C686.168 137.84 685.704 138.136 685.168 138.344C684.64 138.544 684.056 138.644 683.416 138.644ZM683.416 137.24C684.016 137.24 684.524 137.112 684.94 136.856C685.356 136.592 685.672 136.232 685.888 135.776C686.112 135.312 686.224 134.78 686.224 134.18C686.224 133.572 686.112 133.04 685.888 132.584C685.672 132.128 685.356 131.772 684.94 131.516C684.524 131.252 684.016 131.12 683.416 131.12C682.824 131.12 682.316 131.252 681.892 131.516C681.476 131.772 681.156 132.128 680.932 132.584C680.716 133.04 680.608 133.572 680.608 134.18C680.608 134.78 680.716 135.312 680.932 135.776C681.156 136.232 681.476 136.592 681.892 136.856C682.316 137.112 682.824 137.24 683.416 137.24ZM689.204 138.5V129.86H690.716V137.756L690.068 137.108H694.868V138.5H689.204ZM698.279 138.5L701.039 129.86H702.491L699.743 138.5H698.279ZM629.291 155.5V146.86H631.871L633.911 153.772H634.055L636.083 146.86H638.675V155.5H637.163V148.564H636.995L634.979 155.5H632.927L630.911 148.564H630.731V155.5H629.291ZM641.073 157.9L642.201 155.272V155.848L639.585 149.26H641.205L642.789 153.676H642.885L644.577 149.26H646.137L642.597 157.9H641.073ZM650.345 155.644C649.377 155.644 648.597 155.456 648.005 155.08C647.413 154.696 646.977 154.136 646.697 153.4L648.257 152.86C648.409 153.292 648.661 153.628 649.013 153.868C649.365 154.108 649.809 154.228 650.345 154.228C650.977 154.228 651.445 154.124 651.749 153.916C652.053 153.708 652.205 153.436 652.205 153.1C652.205 152.756 652.105 152.496 651.905 152.32C651.705 152.136 651.417 152.024 651.041 151.984L649.337 151.804C648.593 151.724 647.993 151.472 647.537 151.048C647.081 150.624 646.853 150.04 646.853 149.296C646.853 148.824 646.985 148.392 647.249 148C647.513 147.608 647.881 147.296 648.353 147.064C648.833 146.832 649.385 146.716 650.009 146.716C650.897 146.716 651.625 146.912 652.193 147.304C652.769 147.688 653.169 148.208 653.393 148.864L651.917 149.38C651.765 148.98 651.529 148.672 651.209 148.456C650.889 148.24 650.489 148.132 650.009 148.132C649.489 148.132 649.093 148.24 648.821 148.456C648.549 148.672 648.413 148.94 648.413 149.26C648.413 149.532 648.505 149.764 648.689 149.956C648.873 150.14 649.169 150.252 649.577 150.292L651.113 150.46C651.969 150.556 652.621 150.828 653.069 151.276C653.525 151.724 653.753 152.332 653.753 153.1C653.753 153.62 653.617 154.072 653.345 154.456C653.081 154.832 652.693 155.124 652.181 155.332C651.677 155.54 651.065 155.644 650.345 155.644ZM662.248 155.92L658.936 152.044L659.992 151.144L663.316 155.032L662.248 155.92ZM659.176 155.644C658.336 155.644 657.584 155.464 656.92 155.104C656.256 154.744 655.732 154.232 655.348 153.568C654.972 152.896 654.784 152.1 654.784 151.18C654.784 150.492 654.892 149.876 655.108 149.332C655.332 148.78 655.64 148.312 656.032 147.928C656.424 147.536 656.888 147.236 657.424 147.028C657.96 146.82 658.544 146.716 659.176 146.716C659.816 146.716 660.4 146.82 660.928 147.028C661.464 147.236 661.928 147.536 662.32 147.928C662.72 148.312 663.028 148.78 663.244 149.332C663.46 149.876 663.568 150.492 663.568 151.18C663.568 151.868 663.46 152.488 663.244 153.04C663.028 153.592 662.72 154.064 662.32 154.456C661.928 154.84 661.464 155.136 660.928 155.344C660.4 155.544 659.816 155.644 659.176 155.644ZM659.176 154.24C659.776 154.24 660.284 154.112 660.7 153.856C661.116 153.592 661.432 153.232 661.648 152.776C661.872 152.312 661.984 151.78 661.984 151.18C661.984 150.572 661.872 150.04 661.648 149.584C661.432 149.128 661.116 148.772 660.7 148.516C660.284 148.252 659.776 148.12 659.176 148.12C658.584 148.12 658.076 148.252 657.652 148.516C657.236 148.772 656.916 149.128 656.692 149.584C656.476 150.04 656.368 150.572 656.368 151.18C656.368 151.78 656.476 152.312 656.692 152.776C656.916 153.232 657.236 153.592 657.652 153.856C658.076 154.112 658.584 154.24 659.176 154.24ZM664.963 155.5V146.86H666.475V154.756L665.827 154.108H670.627V155.5H664.963ZM674.039 155.5L676.799 146.86H678.251L675.503 155.5H674.039ZM684.925 155.644C684.333 155.644 683.805 155.512 683.341 155.248C682.877 154.984 682.513 154.608 682.249 154.12C681.993 153.624 681.865 153.044 681.865 152.38C681.865 151.756 681.997 151.2 682.261 150.712C682.525 150.216 682.889 149.828 683.353 149.548C683.817 149.26 684.345 149.116 684.937 149.116C685.521 149.116 686.029 149.244 686.461 149.5C686.901 149.756 687.241 150.14 687.481 150.652C687.721 151.164 687.841 151.804 687.841 152.572V152.86H682.705V151.804H686.605L686.329 152.02C686.329 151.724 686.277 151.456 686.173 151.216C686.069 150.976 685.913 150.784 685.705 150.64C685.497 150.488 685.237 150.412 684.925 150.412C684.621 150.412 684.349 150.484 684.109 150.628C683.869 150.772 683.681 150.988 683.545 151.276C683.409 151.564 683.341 151.932 683.341 152.38C683.341 152.812 683.405 153.176 683.533 153.472C683.661 153.76 683.845 153.98 684.085 154.132C684.325 154.276 684.605 154.348 684.925 154.348C685.293 154.348 685.577 154.272 685.777 154.12C685.985 153.96 686.157 153.744 686.293 153.472L687.625 153.988C687.425 154.476 687.117 154.876 686.701 155.188C686.293 155.492 685.701 155.644 684.925 155.644ZM691.322 155.524C690.722 155.524 690.27 155.368 689.966 155.056C689.67 154.736 689.522 154.288 689.522 153.712V147.556H690.962V153.616C690.962 153.992 691.154 154.18 691.538 154.18H692.534V155.524H691.322ZM688.418 150.46V149.26H692.414V150.46H688.418ZM696.354 155.644C695.754 155.644 695.214 155.512 694.734 155.248C694.262 154.984 693.886 154.608 693.606 154.12C693.326 153.632 693.186 153.052 693.186 152.38C693.186 151.708 693.326 151.128 693.606 150.64C693.886 150.152 694.262 149.776 694.734 149.512C695.214 149.248 695.754 149.116 696.354 149.116C697.13 149.116 697.77 149.32 698.274 149.728C698.786 150.128 699.106 150.668 699.234 151.348L697.806 151.66C697.726 151.316 697.562 151.032 697.314 150.808C697.074 150.576 696.754 150.46 696.354 150.46C696.01 150.46 695.714 150.54 695.466 150.7C695.218 150.852 695.026 151.072 694.89 151.36C694.762 151.64 694.698 151.98 694.698 152.38C694.698 152.772 694.762 153.112 694.89 153.4C695.026 153.688 695.218 153.912 695.466 154.072C695.714 154.224 696.01 154.3 696.354 154.3C696.738 154.3 697.05 154.2 697.29 154C697.538 153.792 697.714 153.484 697.818 153.076L699.222 153.508C699.134 153.916 698.966 154.28 698.718 154.6C698.478 154.92 698.162 155.176 697.77 155.368C697.378 155.552 696.906 155.644 696.354 155.644Z" fill="white"/>
<rect x="596" y="0.5" width="136" height="65.0498" rx="6" fill="#1E1E1E"/>
<path d="M635.119 37.5V34.02L631.999 28.86H633.751L635.839 32.448H635.959L638.071 28.86H639.751L636.631 34.02V37.5H635.119ZM642.021 37.644C641.421 37.644 640.885 37.512 640.413 37.248C639.941 36.984 639.565 36.608 639.285 36.12C639.013 35.632 638.877 35.052 638.877 34.38C638.877 33.708 639.013 33.128 639.285 32.64C639.565 32.152 639.941 31.776 640.413 31.512C640.885 31.248 641.421 31.116 642.021 31.116C642.621 31.116 643.157 31.248 643.629 31.512C644.101 31.776 644.473 32.152 644.745 32.64C645.025 33.128 645.165 33.708 645.165 34.38C645.165 35.052 645.025 35.632 644.745 36.12C644.473 36.608 644.101 36.984 643.629 37.248C643.157 37.512 642.621 37.644 642.021 37.644ZM642.021 36.3C642.541 36.3 642.941 36.128 643.221 35.784C643.509 35.44 643.653 34.972 643.653 34.38C643.653 33.788 643.509 33.32 643.221 32.976C642.941 32.632 642.541 32.46 642.021 32.46C641.501 32.46 641.097 32.632 640.809 32.976C640.529 33.32 640.389 33.788 640.389 34.38C640.389 34.972 640.529 35.44 640.809 35.784C641.097 36.128 641.501 36.3 642.021 36.3ZM651.817 31.26V37.5H650.413V36.636H650.341C650.141 36.948 649.893 37.196 649.597 37.38C649.301 37.556 648.953 37.644 648.553 37.644C648.129 37.644 647.757 37.556 647.437 37.38C647.117 37.196 646.869 36.928 646.693 36.576C646.517 36.224 646.429 35.8 646.429 35.304V31.26H647.869V35.04C647.869 35.464 647.965 35.78 648.157 35.988C648.349 36.188 648.613 36.288 648.949 36.288C649.229 36.288 649.473 36.22 649.681 36.084C649.897 35.94 650.065 35.732 650.185 35.46C650.313 35.18 650.377 34.844 650.377 34.452V31.26H651.817ZM653.451 37.5V31.26H654.855V32.364H654.927C655.095 31.996 655.343 31.696 655.671 31.464C655.999 31.232 656.403 31.116 656.883 31.116H657.291V32.58H656.763C656.179 32.58 655.719 32.748 655.383 33.084C655.055 33.42 654.891 33.944 654.891 34.656V37.5H653.451ZM663.701 37.644C662.957 37.644 662.349 37.508 661.877 37.236C661.413 36.964 661.065 36.576 660.833 36.072L662.165 35.46C662.301 35.756 662.501 35.98 662.765 36.132C663.037 36.284 663.349 36.36 663.701 36.36C664.053 36.36 664.329 36.3 664.529 36.18C664.729 36.06 664.829 35.9 664.829 35.7C664.829 35.516 664.769 35.372 664.649 35.268C664.529 35.156 664.341 35.088 664.085 35.064L662.921 34.944C662.313 34.88 661.829 34.696 661.469 34.392C661.109 34.088 660.929 33.652 660.929 33.084C660.929 32.716 661.025 32.384 661.217 32.088C661.417 31.792 661.697 31.556 662.057 31.38C662.417 31.204 662.841 31.116 663.329 31.116C663.993 31.116 664.537 31.244 664.961 31.5C665.385 31.756 665.709 32.096 665.933 32.52L664.637 33.144C664.501 32.888 664.317 32.7 664.085 32.58C663.861 32.46 663.609 32.4 663.329 32.4C662.985 32.4 662.737 32.46 662.585 32.58C662.433 32.7 662.357 32.852 662.357 33.036C662.357 33.196 662.413 33.332 662.525 33.444C662.637 33.548 662.805 33.612 663.029 33.636L664.241 33.756C664.905 33.82 665.405 34.016 665.741 34.344C666.085 34.672 666.257 35.12 666.257 35.688C666.257 36.088 666.153 36.436 665.945 36.732C665.745 37.028 665.453 37.256 665.069 37.416C664.693 37.568 664.237 37.644 663.701 37.644ZM670.144 37.644C669.552 37.644 669.024 37.512 668.56 37.248C668.096 36.984 667.732 36.608 667.468 36.12C667.212 35.624 667.084 35.044 667.084 34.38C667.084 33.756 667.216 33.2 667.48 32.712C667.744 32.216 668.108 31.828 668.572 31.548C669.036 31.26 669.564 31.116 670.156 31.116C670.74 31.116 671.248 31.244 671.68 31.5C672.12 31.756 672.46 32.14 672.7 32.652C672.94 33.164 673.06 33.804 673.06 34.572V34.86H667.924V33.804H671.824L671.548 34.02C671.548 33.724 671.496 33.456 671.392 33.216C671.288 32.976 671.132 32.784 670.924 32.64C670.716 32.488 670.456 32.412 670.144 32.412C669.84 32.412 669.568 32.484 669.328 32.628C669.088 32.772 668.9 32.988 668.764 33.276C668.628 33.564 668.56 33.932 668.56 34.38C668.56 34.812 668.624 35.176 668.752 35.472C668.88 35.76 669.064 35.98 669.304 36.132C669.544 36.276 669.824 36.348 670.144 36.348C670.512 36.348 670.796 36.272 670.996 36.12C671.204 35.96 671.376 35.744 671.512 35.472L672.844 35.988C672.644 36.476 672.336 36.876 671.92 37.188C671.512 37.492 670.92 37.644 670.144 37.644ZM674.368 37.5V31.26H675.772V32.364H675.844C676.012 31.996 676.26 31.696 676.588 31.464C676.916 31.232 677.32 31.116 677.8 31.116H678.208V32.58H677.68C677.096 32.58 676.636 32.748 676.3 33.084C675.972 33.42 675.808 33.944 675.808 34.656V37.5H674.368ZM681.214 37.5L678.862 31.26H680.482L681.982 35.616H682.102L683.65 31.26H685.21L682.81 37.5H681.214ZM688.742 37.644C688.15 37.644 687.622 37.512 687.158 37.248C686.694 36.984 686.33 36.608 686.066 36.12C685.81 35.624 685.682 35.044 685.682 34.38C685.682 33.756 685.814 33.2 686.078 32.712C686.342 32.216 686.706 31.828 687.17 31.548C687.634 31.26 688.162 31.116 688.754 31.116C689.338 31.116 689.846 31.244 690.278 31.5C690.718 31.756 691.058 32.14 691.298 32.652C691.538 33.164 691.658 33.804 691.658 34.572V34.86H686.522V33.804H690.422L690.146 34.02C690.146 33.724 690.094 33.456 689.99 33.216C689.886 32.976 689.73 32.784 689.522 32.64C689.314 32.488 689.054 32.412 688.742 32.412C688.438 32.412 688.166 32.484 687.926 32.628C687.686 32.772 687.498 32.988 687.362 33.276C687.226 33.564 687.158 33.932 687.158 34.38C687.158 34.812 687.222 35.176 687.35 35.472C687.478 35.76 687.662 35.98 687.902 36.132C688.142 36.276 688.422 36.348 688.742 36.348C689.11 36.348 689.394 36.272 689.594 36.12C689.802 35.96 689.974 35.744 690.11 35.472L691.442 35.988C691.242 36.476 690.934 36.876 690.518 37.188C690.11 37.492 689.518 37.644 688.742 37.644ZM692.966 37.5V31.26H694.37V32.364H694.442C694.61 31.996 694.858 31.696 695.186 31.464C695.514 31.232 695.918 31.116 696.398 31.116H696.806V32.58H696.278C695.694 32.58 695.234 32.748 694.898 33.084C694.57 33.42 694.406 33.944 694.406 34.656V37.5H692.966Z" fill="white"/>
<path d="M488.904 146.5V137.86H492.888C493.464 137.86 493.964 137.972 494.388 138.196C494.82 138.42 495.156 138.728 495.396 139.12C495.636 139.512 495.756 139.968 495.756 140.488C495.756 141.008 495.636 141.468 495.396 141.868C495.156 142.26 494.816 142.568 494.376 142.792C493.936 143.016 493.42 143.128 492.828 143.128H489.96V141.772H492.768C493.208 141.772 493.556 141.66 493.812 141.436C494.068 141.212 494.196 140.896 494.196 140.488C494.196 140.072 494.072 139.756 493.824 139.54C493.576 139.316 493.24 139.204 492.816 139.204H489.96L490.416 138.88V146.5H488.904ZM494.124 146.5L491.58 142.564H493.32L495.96 146.5H494.124ZM499.631 146.644C499.039 146.644 498.511 146.512 498.047 146.248C497.583 145.984 497.219 145.608 496.955 145.12C496.699 144.624 496.571 144.044 496.571 143.38C496.571 142.756 496.703 142.2 496.967 141.712C497.231 141.216 497.595 140.828 498.059 140.548C498.523 140.26 499.051 140.116 499.643 140.116C500.227 140.116 500.735 140.244 501.167 140.5C501.607 140.756 501.947 141.14 502.187 141.652C502.427 142.164 502.547 142.804 502.547 143.572V143.86H497.411V142.804H501.311L501.035 143.02C501.035 142.724 500.983 142.456 500.879 142.216C500.775 141.976 500.619 141.784 500.411 141.64C500.203 141.488 499.943 141.412 499.631 141.412C499.327 141.412 499.055 141.484 498.815 141.628C498.575 141.772 498.387 141.988 498.251 142.276C498.115 142.564 498.047 142.932 498.047 143.38C498.047 143.812 498.111 144.176 498.239 144.472C498.367 144.76 498.551 144.98 498.791 145.132C499.031 145.276 499.311 145.348 499.631 145.348C499.999 145.348 500.283 145.272 500.483 145.12C500.691 144.96 500.863 144.744 500.999 144.472L502.331 144.988C502.131 145.476 501.823 145.876 501.407 146.188C500.999 146.492 500.407 146.644 499.631 146.644ZM507.288 140.116C507.8 140.116 508.26 140.248 508.668 140.512C509.084 140.776 509.412 141.152 509.652 141.64C509.9 142.128 510.024 142.708 510.024 143.38C510.024 144.052 509.9 144.632 509.652 145.12C509.412 145.608 509.084 145.984 508.668 146.248C508.26 146.512 507.8 146.644 507.288 146.644C506.832 146.644 506.452 146.552 506.148 146.368C505.844 146.184 505.584 145.94 505.368 145.636H505.296V148.9H503.856V140.26H505.26V141.124H505.332C505.548 140.796 505.816 140.548 506.136 140.38C506.456 140.204 506.84 140.116 507.288 140.116ZM506.904 141.436C506.392 141.436 505.988 141.608 505.692 141.952C505.396 142.296 505.248 142.772 505.248 143.38C505.248 143.988 505.396 144.464 505.692 144.808C505.988 145.152 506.392 145.324 506.904 145.324C507.384 145.324 507.776 145.152 508.08 144.808C508.384 144.456 508.536 143.98 508.536 143.38C508.536 142.78 508.384 142.308 508.08 141.964C507.776 141.612 507.384 141.436 506.904 141.436ZM511.356 146.5V137.86H512.796V146.5H511.356ZM514.426 146.5V140.26H515.866V146.5H514.426ZM514.27 138.58C514.27 138.324 514.35 138.116 514.51 137.956C514.678 137.796 514.89 137.716 515.146 137.716C515.402 137.716 515.61 137.796 515.77 137.956C515.938 138.116 516.022 138.324 516.022 138.58C516.022 138.82 515.938 139.024 515.77 139.192C515.61 139.352 515.402 139.432 515.146 139.432C514.89 139.432 514.678 139.352 514.51 139.192C514.35 139.024 514.27 138.82 514.27 138.58ZM520.364 146.644C519.764 146.644 519.224 146.512 518.744 146.248C518.272 145.984 517.896 145.608 517.616 145.12C517.336 144.632 517.196 144.052 517.196 143.38C517.196 142.708 517.336 142.128 517.616 141.64C517.896 141.152 518.272 140.776 518.744 140.512C519.224 140.248 519.764 140.116 520.364 140.116C521.14 140.116 521.78 140.32 522.284 140.728C522.796 141.128 523.116 141.668 523.244 142.348L521.816 142.66C521.736 142.316 521.572 142.032 521.324 141.808C521.084 141.576 520.764 141.46 520.364 141.46C520.02 141.46 519.724 141.54 519.476 141.7C519.228 141.852 519.036 142.072 518.9 142.36C518.772 142.64 518.708 142.98 518.708 143.38C518.708 143.772 518.772 144.112 518.9 144.4C519.036 144.688 519.228 144.912 519.476 145.072C519.724 145.224 520.02 145.3 520.364 145.3C520.748 145.3 521.06 145.2 521.3 145C521.548 144.792 521.724 144.484 521.828 144.076L523.232 144.508C523.144 144.916 522.976 145.28 522.728 145.6C522.488 145.92 522.172 146.176 521.78 146.368C521.388 146.552 520.916 146.644 520.364 146.644ZM526.151 146.644C525.519 146.644 525.015 146.476 524.639 146.14C524.271 145.796 524.087 145.344 524.087 144.784C524.087 144.232 524.271 143.788 524.639 143.452C525.007 143.108 525.531 142.908 526.211 142.852L528.443 142.648V143.656L526.451 143.872C526.139 143.904 525.907 143.992 525.755 144.136C525.603 144.272 525.527 144.456 525.527 144.688C525.527 144.912 525.607 145.096 525.767 145.24C525.935 145.384 526.167 145.456 526.463 145.456C526.767 145.456 527.035 145.38 527.267 145.228C527.507 145.068 527.691 144.824 527.819 144.496C527.955 144.16 528.023 143.732 528.023 143.212V142.456C528.023 142.152 527.931 141.9 527.747 141.7C527.571 141.5 527.279 141.4 526.871 141.4C526.463 141.4 526.167 141.484 525.983 141.652C525.799 141.82 525.691 142.012 525.659 142.228H524.231C524.255 141.82 524.375 141.46 524.591 141.148C524.807 140.828 525.111 140.576 525.503 140.392C525.895 140.208 526.363 140.116 526.907 140.116C527.715 140.116 528.343 140.332 528.791 140.764C529.239 141.188 529.463 141.736 529.463 142.408V145.132L529.499 146.5H528.143L528.107 145.66H528.011C527.787 145.996 527.519 146.244 527.207 146.404C526.903 146.564 526.551 146.644 526.151 146.644ZM533.145 146.524C532.545 146.524 532.093 146.368 531.789 146.056C531.493 145.736 531.345 145.288 531.345 144.712V138.556H532.785V144.616C532.785 144.992 532.977 145.18 533.361 145.18H534.357V146.524H533.145ZM530.241 141.46V140.26H534.237V141.46H530.241ZM535.426 146.5V140.26H536.866V146.5H535.426ZM535.27 138.58C535.27 138.324 535.35 138.116 535.51 137.956C535.678 137.796 535.89 137.716 536.146 137.716C536.402 137.716 536.61 137.796 536.77 137.956C536.938 138.116 537.022 138.324 537.022 138.58C537.022 138.82 536.938 139.024 536.77 139.192C536.61 139.352 536.402 139.432 536.146 139.432C535.89 139.432 535.678 139.352 535.51 139.192C535.35 139.024 535.27 138.82 535.27 138.58ZM541.34 146.644C540.74 146.644 540.204 146.512 539.732 146.248C539.26 145.984 538.884 145.608 538.604 145.12C538.332 144.632 538.196 144.052 538.196 143.38C538.196 142.708 538.332 142.128 538.604 141.64C538.884 141.152 539.26 140.776 539.732 140.512C540.204 140.248 540.74 140.116 541.34 140.116C541.94 140.116 542.476 140.248 542.948 140.512C543.42 140.776 543.792 141.152 544.064 141.64C544.344 142.128 544.484 142.708 544.484 143.38C544.484 144.052 544.344 144.632 544.064 145.12C543.792 145.608 543.42 145.984 542.948 146.248C542.476 146.512 541.94 146.644 541.34 146.644ZM541.34 145.3C541.86 145.3 542.26 145.128 542.54 144.784C542.828 144.44 542.972 143.972 542.972 143.38C542.972 142.788 542.828 142.32 542.54 141.976C542.26 141.632 541.86 141.46 541.34 141.46C540.82 141.46 540.416 141.632 540.128 141.976C539.848 142.32 539.708 142.788 539.708 143.38C539.708 143.972 539.848 144.44 540.128 144.784C540.416 145.128 540.82 145.3 541.34 145.3ZM545.821 146.5V140.26H547.225V141.124H547.297C547.497 140.812 547.745 140.568 548.041 140.392C548.345 140.208 548.693 140.116 549.085 140.116C549.509 140.116 549.881 140.208 550.201 140.392C550.521 140.568 550.769 140.832 550.945 141.184C551.121 141.528 551.209 141.952 551.209 142.456V146.5H549.769V142.72C549.769 142.296 549.673 141.984 549.481 141.784C549.289 141.576 549.025 141.472 548.689 141.472C548.417 141.472 548.173 141.544 547.957 141.688C547.741 141.824 547.569 142.028 547.441 142.3C547.321 142.572 547.261 142.908 547.261 143.308V146.5H545.821Z" fill="white"/>
<path d="M452.828 138.965C453.024 138.769 453.34 138.769 453.535 138.965C453.73 139.16 453.73 139.477 453.535 139.672L451.207 142H483.992V143H451.207L453.535 145.328C453.73 145.523 453.73 145.84 453.535 146.035C453.34 146.23 453.024 146.23 452.828 146.035L449.647 142.853C449.451 142.658 449.451 142.342 449.647 142.146L452.828 138.965ZM591 142V143H555.992V142H591Z" fill="white"/>
<path d="M501.161 22.5V13.86H503.741L505.781 20.772H505.925L507.953 13.86H510.545V22.5H509.033V15.564H508.865L506.849 22.5H504.797L502.781 15.564H502.601V22.5H501.161ZM517.538 16.26V22.5H516.134V21.636H516.062C515.862 21.948 515.614 22.196 515.318 22.38C515.022 22.556 514.674 22.644 514.274 22.644C513.85 22.644 513.478 22.556 513.158 22.38C512.838 22.196 512.59 21.928 512.414 21.576C512.238 21.224 512.15 20.8 512.15 20.304V16.26H513.59V20.04C513.59 20.464 513.686 20.78 513.878 20.988C514.07 21.188 514.334 21.288 514.67 21.288C514.95 21.288 515.194 21.22 515.402 21.084C515.618 20.94 515.786 20.732 515.906 20.46C516.034 20.18 516.098 19.844 516.098 19.452V16.26H517.538ZM521.343 22.524C520.743 22.524 520.291 22.368 519.987 22.056C519.691 21.736 519.543 21.288 519.543 20.712V14.556H520.983V20.616C520.983 20.992 521.175 21.18 521.559 21.18H522.555V22.524H521.343ZM518.439 17.46V16.26H522.435V17.46H518.439ZM525.376 22.644C524.744 22.644 524.24 22.476 523.864 22.14C523.496 21.796 523.312 21.344 523.312 20.784C523.312 20.232 523.496 19.788 523.864 19.452C524.232 19.108 524.756 18.908 525.436 18.852L527.668 18.648V19.656L525.676 19.872C525.364 19.904 525.132 19.992 524.98 20.136C524.828 20.272 524.752 20.456 524.752 20.688C524.752 20.912 524.832 21.096 524.992 21.24C525.16 21.384 525.392 21.456 525.688 21.456C525.992 21.456 526.26 21.38 526.492 21.228C526.732 21.068 526.916 20.824 527.044 20.496C527.18 20.16 527.248 19.732 527.248 19.212V18.456C527.248 18.152 527.156 17.9 526.972 17.7C526.796 17.5 526.504 17.4 526.096 17.4C525.688 17.4 525.392 17.484 525.208 17.652C525.024 17.82 524.916 18.012 524.884 18.228H523.456C523.48 17.82 523.6 17.46 523.816 17.148C524.032 16.828 524.336 16.576 524.728 16.392C525.12 16.208 525.588 16.116 526.132 16.116C526.94 16.116 527.568 16.332 528.016 16.764C528.464 17.188 528.688 17.736 528.688 18.408V21.132L528.724 22.5H527.368L527.332 21.66H527.236C527.012 21.996 526.744 22.244 526.432 22.404C526.128 22.564 525.776 22.644 525.376 22.644ZM532.371 22.524C531.771 22.524 531.319 22.368 531.015 22.056C530.719 21.736 530.571 21.288 530.571 20.712V14.556H532.011V20.616C532.011 20.992 532.203 21.18 532.587 21.18H533.583V22.524H532.371ZM529.467 17.46V16.26H533.463V17.46H529.467ZM537.295 22.644C536.703 22.644 536.175 22.512 535.711 22.248C535.247 21.984 534.883 21.608 534.619 21.12C534.363 20.624 534.235 20.044 534.235 19.38C534.235 18.756 534.367 18.2 534.631 17.712C534.895 17.216 535.259 16.828 535.723 16.548C536.187 16.26 536.715 16.116 537.307 16.116C537.891 16.116 538.399 16.244 538.831 16.5C539.271 16.756 539.611 17.14 539.851 17.652C540.091 18.164 540.211 18.804 540.211 19.572V19.86H535.075V18.804H538.975L538.699 19.02C538.699 18.724 538.647 18.456 538.543 18.216C538.439 17.976 538.283 17.784 538.075 17.64C537.867 17.488 537.607 17.412 537.295 17.412C536.991 17.412 536.719 17.484 536.479 17.628C536.239 17.772 536.051 17.988 535.915 18.276C535.779 18.564 535.711 18.932 535.711 19.38C535.711 19.812 535.775 20.176 535.903 20.472C536.031 20.76 536.215 20.98 536.455 21.132C536.695 21.276 536.975 21.348 537.295 21.348C537.663 21.348 537.947 21.272 538.147 21.12C538.355 20.96 538.527 20.744 538.663 20.472L539.995 20.988C539.795 21.476 539.487 21.876 539.071 22.188C538.663 22.492 538.071 22.644 537.295 22.644Z" fill="white"/>
<path d="M586.965 14.9644C587.16 14.7692 587.476 14.7693 587.672 14.9644L590.853 18.146C591.049 18.3413 591.049 18.6578 590.853 18.853L587.672 22.0347C587.476 22.2299 587.16 22.2299 586.965 22.0347C586.77 21.8394 586.769 21.5228 586.965 21.3277L589.293 18.9995H544.996V17.9995H589.293L586.965 15.6714C586.77 15.4761 586.769 15.1596 586.965 14.9644ZM495.996 18.9995H449.5V17.9995H495.996V18.9995Z" fill="white"/>
<path d="M510.15 51.92L506.838 48.044L507.894 47.144L511.218 51.032L510.15 51.92ZM507.078 51.644C506.238 51.644 505.486 51.464 504.822 51.104C504.158 50.744 503.634 50.232 503.25 49.568C502.874 48.896 502.686 48.1 502.686 47.18C502.686 46.492 502.794 45.876 503.01 45.332C503.234 44.78 503.542 44.312 503.934 43.928C504.326 43.536 504.79 43.236 505.326 43.028C505.862 42.82 506.446 42.716 507.078 42.716C507.718 42.716 508.302 42.82 508.83 43.028C509.366 43.236 509.83 43.536 510.222 43.928C510.622 44.312 510.93 44.78 511.146 45.332C511.362 45.876 511.47 46.492 511.47 47.18C511.47 47.868 511.362 48.488 511.146 49.04C510.93 49.592 510.622 50.064 510.222 50.456C509.83 50.84 509.366 51.136 508.83 51.344C508.302 51.544 507.718 51.644 507.078 51.644ZM507.078 50.24C507.678 50.24 508.186 50.112 508.602 49.856C509.018 49.592 509.334 49.232 509.55 48.776C509.774 48.312 509.886 47.78 509.886 47.18C509.886 46.572 509.774 46.04 509.55 45.584C509.334 45.128 509.018 44.772 508.602 44.516C508.186 44.252 507.678 44.12 507.078 44.12C506.486 44.12 505.978 44.252 505.554 44.516C505.138 44.772 504.818 45.128 504.594 45.584C504.378 46.04 504.27 46.572 504.27 47.18C504.27 47.78 504.378 48.312 504.594 48.776C504.818 49.232 505.138 49.592 505.554 49.856C505.978 50.112 506.486 50.24 507.078 50.24ZM518.134 45.26V51.5H516.73V50.636H516.658C516.458 50.948 516.21 51.196 515.914 51.38C515.618 51.556 515.27 51.644 514.87 51.644C514.446 51.644 514.074 51.556 513.754 51.38C513.434 51.196 513.186 50.928 513.01 50.576C512.834 50.224 512.746 49.8 512.746 49.304V45.26H514.186V49.04C514.186 49.464 514.282 49.78 514.474 49.988C514.666 50.188 514.93 50.288 515.266 50.288C515.546 50.288 515.79 50.22 515.998 50.084C516.214 49.94 516.382 49.732 516.502 49.46C516.63 49.18 516.694 48.844 516.694 48.452V45.26H518.134ZM522.527 51.644C521.935 51.644 521.407 51.512 520.943 51.248C520.479 50.984 520.115 50.608 519.851 50.12C519.595 49.624 519.467 49.044 519.467 48.38C519.467 47.756 519.599 47.2 519.863 46.712C520.127 46.216 520.491 45.828 520.955 45.548C521.419 45.26 521.947 45.116 522.539 45.116C523.123 45.116 523.631 45.244 524.063 45.5C524.503 45.756 524.843 46.14 525.083 46.652C525.323 47.164 525.443 47.804 525.443 48.572V48.86H520.307V47.804H524.207L523.931 48.02C523.931 47.724 523.879 47.456 523.775 47.216C523.671 46.976 523.515 46.784 523.307 46.64C523.099 46.488 522.839 46.412 522.527 46.412C522.223 46.412 521.951 46.484 521.711 46.628C521.471 46.772 521.283 46.988 521.147 47.276C521.011 47.564 520.943 47.932 520.943 48.38C520.943 48.812 521.007 49.176 521.135 49.472C521.263 49.76 521.447 49.98 521.687 50.132C521.927 50.276 522.207 50.348 522.527 50.348C522.895 50.348 523.179 50.272 523.379 50.12C523.587 49.96 523.759 49.744 523.895 49.472L525.227 49.988C525.027 50.476 524.719 50.876 524.303 51.188C523.895 51.492 523.303 51.644 522.527 51.644ZM526.751 51.5V45.26H528.155V46.364H528.227C528.395 45.996 528.643 45.696 528.971 45.464C529.299 45.232 529.703 45.116 530.183 45.116H530.591V46.58H530.063C529.479 46.58 529.019 46.748 528.683 47.084C528.355 47.42 528.191 47.944 528.191 48.656V51.5H526.751ZM532.733 53.9L533.861 51.272V51.848L531.245 45.26H532.865L534.449 49.676H534.545L536.237 45.26H537.797L534.257 53.9H532.733Z" fill="white"/>
<path d="M452.328 43.9645C452.523 43.7693 452.84 43.7693 453.035 43.9645C453.23 44.1598 453.23 44.4763 453.035 44.6715L450.707 46.9997H496.995V47.9997H450.707L453.035 50.3278C453.23 50.523 453.23 50.8396 453.035 51.0348C452.84 51.2301 452.523 51.2301 452.328 51.0348L449.146 47.8532C448.951 47.6579 448.951 47.3414 449.146 47.1461L452.328 43.9645ZM586.965 43.9645C587.16 43.7693 587.477 43.7693 587.672 43.9645L590.853 47.1461C591.049 47.3414 591.049 47.6579 590.853 47.8532L587.672 51.0348C587.477 51.2301 587.16 51.2301 586.965 51.0348C586.77 50.8396 586.77 50.523 586.965 50.3278L589.293 47.9997H542.995V46.9997H589.293L586.965 44.6715C586.77 44.4763 586.77 44.1598 586.965 43.9645Z" fill="white"/>
<path d="M656.283 91.6494C655.315 91.6494 654.535 91.4614 653.943 91.0854C653.351 90.7014 652.915 90.1414 652.635 89.4054L654.195 88.8654C654.347 89.2974 654.599 89.6334 654.951 89.8734C655.303 90.1134 655.747 90.2334 656.283 90.2334C656.915 90.2334 657.383 90.1294 657.687 89.9214C657.991 89.7134 658.143 89.4414 658.143 89.1054C658.143 88.7614 658.043 88.5014 657.843 88.3254C657.643 88.1414 657.355 88.0294 656.979 87.9894L655.275 87.8094C654.531 87.7294 653.931 87.4774 653.475 87.0534C653.019 86.6294 652.791 86.0454 652.791 85.3014C652.791 84.8294 652.923 84.3974 653.187 84.0054C653.451 83.6134 653.819 83.3014 654.291 83.0694C654.771 82.8374 655.323 82.7214 655.947 82.7214C656.835 82.7214 657.563 82.9174 658.131 83.3094C658.707 83.6934 659.107 84.2134 659.331 84.8694L657.855 85.3854C657.703 84.9854 657.467 84.6774 657.147 84.4614C656.827 84.2454 656.427 84.1374 655.947 84.1374C655.427 84.1374 655.031 84.2454 654.759 84.4614C654.487 84.6774 654.351 84.9454 654.351 85.2654C654.351 85.5374 654.443 85.7694 654.627 85.9614C654.811 86.1454 655.107 86.2574 655.515 86.2974L657.051 86.4654C657.907 86.5614 658.559 86.8334 659.007 87.2814C659.463 87.7294 659.691 88.3374 659.691 89.1054C659.691 89.6254 659.555 90.0774 659.283 90.4614C659.019 90.8374 658.631 91.1294 658.119 91.3374C657.615 91.5454 657.003 91.6494 656.283 91.6494ZM668.185 91.9254L664.873 88.0494L665.929 87.1494L669.253 91.0374L668.185 91.9254ZM665.113 91.6494C664.273 91.6494 663.521 91.4694 662.857 91.1094C662.193 90.7494 661.669 90.2374 661.285 89.5734C660.909 88.9014 660.721 88.1054 660.721 87.1854C660.721 86.4974 660.829 85.8814 661.045 85.3374C661.269 84.7854 661.577 84.3174 661.969 83.9334C662.361 83.5414 662.825 83.2414 663.361 83.0334C663.897 82.8254 664.481 82.7214 665.113 82.7214C665.753 82.7214 666.337 82.8254 666.865 83.0334C667.401 83.2414 667.865 83.5414 668.257 83.9334C668.657 84.3174 668.965 84.7854 669.181 85.3374C669.397 85.8814 669.505 86.4974 669.505 87.1854C669.505 87.8734 669.397 88.4934 669.181 89.0454C668.965 89.5974 668.657 90.0694 668.257 90.4614C667.865 90.8454 667.401 91.1414 666.865 91.3494C666.337 91.5494 665.753 91.6494 665.113 91.6494ZM665.113 90.2454C665.713 90.2454 666.221 90.1174 666.637 89.8614C667.053 89.5974 667.369 89.2374 667.585 88.7814C667.809 88.3174 667.921 87.7854 667.921 87.1854C667.921 86.5774 667.809 86.0454 667.585 85.5894C667.369 85.1334 667.053 84.7774 666.637 84.5214C666.221 84.2574 665.713 84.1254 665.113 84.1254C664.521 84.1254 664.013 84.2574 663.589 84.5214C663.173 84.7774 662.853 85.1334 662.629 85.5894C662.413 86.0454 662.305 86.5774 662.305 87.1854C662.305 87.7854 662.413 88.3174 662.629 88.7814C662.853 89.2374 663.173 89.5974 663.589 89.8614C664.013 90.1174 664.521 90.2454 665.113 90.2454ZM670.901 91.5054V82.8654H672.413V90.7614L671.765 90.1134H676.565V91.5054H670.901Z" fill="white"/>
<path d="M667.535 101.965C667.73 102.16 667.73 102.477 667.535 102.672L664.353 105.854C664.158 106.049 663.842 106.049 663.646 105.854L660.465 102.672C660.269 102.477 660.269 102.16 660.465 101.965C660.66 101.77 660.976 101.77 661.172 101.965L663.5 104.293L663.5 95.7539L664.5 95.7539L664.5 104.293L666.828 101.965C667.023 101.77 667.34 101.77 667.535 101.965ZM663.5 77.7539L663.5 69.5L664.5 69.5L664.5 77.7539L663.5 77.7539Z" fill="white"/>
</svg>
