<svg width="732" height="73" viewBox="0 0 732 73" fill="none" xmlns="http://www.w3.org/2000/svg">
<rect width="90" height="73" rx="6" fill="#1E1E1E"/>
<path d="M21.6248 34.7911V31.3111L18.5048 26.1511H20.2568L22.3448 29.7391H22.4648L24.5768 26.1511H26.2568L23.1368 31.3111V34.7911H21.6248ZM28.527 34.9351C27.927 34.9351 27.391 34.8031 26.919 34.5391C26.447 34.2751 26.071 33.8991 25.791 33.4111C25.519 32.9231 25.383 32.3431 25.383 31.6711C25.383 30.9991 25.519 30.4191 25.791 29.9311C26.071 29.4431 26.447 29.0671 26.919 28.8031C27.391 28.5391 27.927 28.4071 28.527 28.4071C29.127 28.4071 29.663 28.5391 30.135 28.8031C30.607 29.0671 30.979 29.4431 31.251 29.9311C31.531 30.4191 31.671 30.9991 31.671 31.6711C31.671 32.3431 31.531 32.9231 31.251 33.4111C30.979 33.8991 30.607 34.2751 30.135 34.5391C29.663 34.8031 29.127 34.9351 28.527 34.9351ZM28.527 33.5911C29.047 33.5911 29.447 33.4191 29.727 33.0751C30.015 32.7311 30.159 32.2631 30.159 31.6711C30.159 31.0791 30.015 30.6111 29.727 30.2671C29.447 29.9231 29.047 29.7511 28.527 29.7511C28.007 29.7511 27.603 29.9231 27.315 30.2671C27.035 30.6111 26.895 31.0791 26.895 31.6711C26.895 32.2631 27.035 32.7311 27.315 33.0751C27.603 33.4191 28.007 33.5911 28.527 33.5911ZM38.3232 28.5511V34.7911H36.9192V33.9271H36.8472C36.6472 34.2391 36.3992 34.4871 36.1032 34.6711C35.8072 34.8471 35.4592 34.9351 35.0592 34.9351C34.6352 34.9351 34.2632 34.8471 33.9432 34.6711C33.6232 34.4871 33.3752 34.2191 33.1992 33.8671C33.0232 33.5151 32.9352 33.0911 32.9352 32.5951V28.5511H34.3752V32.3311C34.3752 32.7551 34.4712 33.0711 34.6632 33.2791C34.8552 33.4791 35.1192 33.5791 35.4552 33.5791C35.7352 33.5791 35.9792 33.5111 36.1872 33.3751C36.4032 33.2311 36.5712 33.0231 36.6912 32.7511C36.8192 32.4711 36.8832 32.1351 36.8832 31.7431V28.5511H38.3232ZM39.9564 34.7911V28.5511H41.3604V29.6551H41.4324C41.6004 29.2871 41.8484 28.9871 42.1764 28.7551C42.5044 28.5231 42.9084 28.4071 43.3884 28.4071H43.7964V29.8711H43.2684C42.6844 29.8711 42.2244 30.0391 41.8884 30.3751C41.5604 30.7111 41.3964 31.2351 41.3964 31.9471V34.7911H39.9564ZM48.9589 34.7911L47.0869 28.5511H48.6349L49.8709 32.9071H49.9669L51.2149 28.5511H52.9669L54.2269 32.9071H54.3229L55.5589 28.5511H57.0109L55.1749 34.7911H53.3869L52.1509 30.5551H52.0189L50.7829 34.7911H48.9589ZM60.6344 34.9351C60.0424 34.9351 59.5144 34.8031 59.0504 34.5391C58.5864 34.2751 58.2224 33.8991 57.9584 33.4111C57.7024 32.9151 57.5744 32.3351 57.5744 31.6711C57.5744 31.0471 57.7064 30.4911 57.9704 30.0031C58.2344 29.5071 58.5984 29.1191 59.0624 28.8391C59.5264 28.5511 60.0544 28.4071 60.6464 28.4071C61.2304 28.4071 61.7384 28.5351 62.1704 28.7911C62.6104 29.0471 62.9504 29.4311 63.1904 29.9431C63.4304 30.4551 63.5504 31.0951 63.5504 31.8631V32.1511H58.4144V31.0951H62.3144L62.0384 31.3111C62.0384 31.0151 61.9864 30.7471 61.8824 30.5071C61.7784 30.2671 61.6224 30.0751 61.4144 29.9311C61.2064 29.7791 60.9464 29.7031 60.6344 29.7031C60.3304 29.7031 60.0584 29.7751 59.8184 29.9191C59.5784 30.0631 59.3904 30.2791 59.2544 30.5671C59.1184 30.8551 59.0504 31.2231 59.0504 31.6711C59.0504 32.1031 59.1144 32.4671 59.2424 32.7631C59.3704 33.0511 59.5544 33.2711 59.7944 33.4231C60.0344 33.5671 60.3144 33.6391 60.6344 33.6391C61.0024 33.6391 61.2864 33.5631 61.4864 33.4111C61.6944 33.2511 61.8664 33.0351 62.0024 32.7631L63.3344 33.2791C63.1344 33.7671 62.8264 34.1671 62.4104 34.4791C62.0024 34.7831 61.4104 34.9351 60.6344 34.9351ZM68.2908 34.9351C67.8428 34.9351 67.4588 34.8511 67.1388 34.6831C66.8188 34.5071 66.5508 34.2551 66.3348 33.9271H66.2628V34.7911H64.8588V26.1511H66.2988V29.4151H66.3708C66.5868 29.1111 66.8468 28.8671 67.1508 28.6831C67.4548 28.4991 67.8348 28.4071 68.2908 28.4071C68.8028 28.4071 69.2628 28.5391 69.6708 28.8031C70.0868 29.0671 70.4148 29.4431 70.6548 29.9311C70.9028 30.4191 71.0268 30.9991 71.0268 31.6711C71.0268 32.3431 70.9028 32.9231 70.6548 33.4111C70.4148 33.8991 70.0868 34.2751 69.6708 34.5391C69.2628 34.8031 68.8028 34.9351 68.2908 34.9351ZM67.9068 33.6151C68.3868 33.6151 68.7788 33.4431 69.0828 33.0991C69.3868 32.7471 69.5388 32.2711 69.5388 31.6711C69.5388 31.0711 69.3868 30.5991 69.0828 30.2551C68.7788 29.9031 68.3868 29.7271 67.9068 29.7271C67.3948 29.7271 66.9908 29.8991 66.6948 30.2431C66.3988 30.5791 66.2508 31.0551 66.2508 31.6711C66.2508 32.2791 66.3988 32.7551 66.6948 33.0991C66.9908 33.4431 67.3948 33.6151 67.9068 33.6151ZM36.7807 48.9351C36.1487 48.9351 35.6447 48.7671 35.2687 48.4311C34.9007 48.0871 34.7167 47.6351 34.7167 47.0751C34.7167 46.5231 34.9007 46.0791 35.2687 45.7431C35.6367 45.3991 36.1607 45.1991 36.8407 45.1431L39.0727 44.9391V45.9471L37.0807 46.1631C36.7687 46.1951 36.5367 46.2831 36.3847 46.4271C36.2327 46.5631 36.1567 46.7471 36.1567 46.9791C36.1567 47.2031 36.2367 47.3871 36.3967 47.5311C36.5647 47.6751 36.7967 47.7471 37.0927 47.7471C37.3967 47.7471 37.6647 47.6711 37.8967 47.5191C38.1367 47.3591 38.3207 47.1151 38.4487 46.7871C38.5847 46.4511 38.6527 46.0231 38.6527 45.5031V44.7471C38.6527 44.4431 38.5607 44.1911 38.3767 43.9911C38.2007 43.7911 37.9087 43.6911 37.5007 43.6911C37.0927 43.6911 36.7967 43.7751 36.6127 43.9431C36.4287 44.1111 36.3207 44.3031 36.2887 44.5191H34.8607C34.8847 44.1111 35.0047 43.7511 35.2207 43.4391C35.4367 43.1191 35.7407 42.8671 36.1327 42.6831C36.5247 42.4991 36.9927 42.4071 37.5367 42.4071C38.3447 42.4071 38.9727 42.6231 39.4207 43.0551C39.8687 43.4791 40.0927 44.0271 40.0927 44.6991V47.4231L40.1287 48.7911H38.7727L38.7367 47.9511H38.6407C38.4167 48.2871 38.1487 48.5351 37.8367 48.6951C37.5327 48.8551 37.1807 48.9351 36.7807 48.9351ZM45.0349 42.4071C45.5469 42.4071 46.0069 42.5391 46.4149 42.8031C46.8309 43.0671 47.1589 43.4431 47.3989 43.9311C47.6469 44.4191 47.7709 44.9991 47.7709 45.6711C47.7709 46.3431 47.6469 46.9231 47.3989 47.4111C47.1589 47.8991 46.8309 48.2751 46.4149 48.5391C46.0069 48.8031 45.5469 48.9351 45.0349 48.9351C44.5789 48.9351 44.1989 48.8431 43.8949 48.6591C43.5909 48.4751 43.3309 48.2311 43.1149 47.9271H43.0429V51.1911H41.6029V42.5511H43.0069V43.4151H43.0789C43.2949 43.0871 43.5629 42.8391 43.8829 42.6711C44.2029 42.4951 44.5869 42.4071 45.0349 42.4071ZM44.6509 43.7271C44.1389 43.7271 43.7349 43.8991 43.4389 44.2431C43.1429 44.5871 42.9949 45.0631 42.9949 45.6711C42.9949 46.2791 43.1429 46.7551 43.4389 47.0991C43.7349 47.4431 44.1389 47.6151 44.6509 47.6151C45.1309 47.6151 45.5229 47.4431 45.8269 47.0991C46.1309 46.7471 46.2829 46.2711 46.2829 45.6711C46.2829 45.0711 46.1309 44.5991 45.8269 44.2551C45.5229 43.9031 45.1309 43.7271 44.6509 43.7271ZM52.5349 42.4071C53.0469 42.4071 53.5069 42.5391 53.9149 42.8031C54.3309 43.0671 54.6589 43.4431 54.8989 43.9311C55.1469 44.4191 55.2709 44.9991 55.2709 45.6711C55.2709 46.3431 55.1469 46.9231 54.8989 47.4111C54.6589 47.8991 54.3309 48.2751 53.9149 48.5391C53.5069 48.8031 53.0469 48.9351 52.5349 48.9351C52.0789 48.9351 51.6989 48.8431 51.3949 48.6591C51.0909 48.4751 50.8309 48.2311 50.6149 47.9271H50.5429V51.1911H49.1029V42.5511H50.5069V43.4151H50.5789C50.7949 43.0871 51.0629 42.8391 51.3829 42.6711C51.7029 42.4951 52.0869 42.4071 52.5349 42.4071ZM52.1509 43.7271C51.6389 43.7271 51.2349 43.8991 50.9389 44.2431C50.6429 44.5871 50.4949 45.0631 50.4949 45.6711C50.4949 46.2791 50.6429 46.7551 50.9389 47.0991C51.2349 47.4431 51.6389 47.6151 52.1509 47.6151C52.6309 47.6151 53.0229 47.4431 53.3269 47.0991C53.6309 46.7471 53.7829 46.2711 53.7829 45.6711C53.7829 45.0711 53.6309 44.5991 53.3269 44.2551C53.0229 43.9031 52.6309 43.7271 52.1509 43.7271Z" fill="white"/>
<rect x="642" width="90" height="73" rx="6" fill="#1E1E1E"/>
<path d="M660.137 34V25.36H664.073C664.649 25.36 665.149 25.472 665.573 25.696C666.005 25.912 666.341 26.216 666.581 26.608C666.821 27 666.941 27.456 666.941 27.976C666.941 28.496 666.821 28.956 666.581 29.356C666.341 29.748 666.001 30.056 665.561 30.28C665.121 30.496 664.605 30.604 664.013 30.604H661.193V29.248H663.953C664.393 29.248 664.741 29.14 664.997 28.924C665.253 28.7 665.381 28.384 665.381 27.976C665.381 27.56 665.257 27.244 665.009 27.028C664.761 26.812 664.425 26.704 664.001 26.704H661.193L661.649 26.38V34H660.137ZM670.961 34.144C670.361 34.144 669.825 34.012 669.353 33.748C668.881 33.484 668.505 33.108 668.225 32.62C667.953 32.132 667.817 31.552 667.817 30.88C667.817 30.208 667.953 29.628 668.225 29.14C668.505 28.652 668.881 28.276 669.353 28.012C669.825 27.748 670.361 27.616 670.961 27.616C671.561 27.616 672.097 27.748 672.569 28.012C673.041 28.276 673.413 28.652 673.685 29.14C673.965 29.628 674.105 30.208 674.105 30.88C674.105 31.552 673.965 32.132 673.685 32.62C673.413 33.108 673.041 33.484 672.569 33.748C672.097 34.012 671.561 34.144 670.961 34.144ZM670.961 32.8C671.481 32.8 671.881 32.628 672.161 32.284C672.449 31.94 672.593 31.472 672.593 30.88C672.593 30.288 672.449 29.82 672.161 29.476C671.881 29.132 671.481 28.96 670.961 28.96C670.441 28.96 670.037 29.132 669.749 29.476C669.469 29.82 669.329 30.288 669.329 30.88C669.329 31.472 669.469 31.94 669.749 32.284C670.037 32.628 670.441 32.8 670.961 32.8ZM677.793 34.144C677.049 34.144 676.441 34.008 675.969 33.736C675.505 33.464 675.157 33.076 674.925 32.572L676.257 31.96C676.393 32.256 676.593 32.48 676.857 32.632C677.129 32.784 677.441 32.86 677.793 32.86C678.145 32.86 678.421 32.8 678.621 32.68C678.821 32.56 678.921 32.4 678.921 32.2C678.921 32.016 678.861 31.872 678.741 31.768C678.621 31.656 678.433 31.588 678.177 31.564L677.013 31.444C676.405 31.38 675.921 31.196 675.561 30.892C675.201 30.588 675.021 30.152 675.021 29.584C675.021 29.216 675.117 28.884 675.309 28.588C675.509 28.292 675.789 28.056 676.149 27.88C676.509 27.704 676.933 27.616 677.421 27.616C678.085 27.616 678.629 27.744 679.053 28C679.477 28.256 679.801 28.596 680.025 29.02L678.729 29.644C678.593 29.388 678.409 29.2 678.177 29.08C677.953 28.96 677.701 28.9 677.421 28.9C677.077 28.9 676.829 28.96 676.677 29.08C676.525 29.2 676.449 29.352 676.449 29.536C676.449 29.696 676.505 29.832 676.617 29.944C676.729 30.048 676.897 30.112 677.121 30.136L678.333 30.256C678.997 30.32 679.497 30.516 679.833 30.844C680.177 31.172 680.349 31.62 680.349 32.188C680.349 32.588 680.245 32.936 680.037 33.232C679.837 33.528 679.545 33.756 679.161 33.916C678.785 34.068 678.329 34.144 677.793 34.144ZM683.648 34.024C683.048 34.024 682.596 33.868 682.292 33.556C681.996 33.236 681.848 32.788 681.848 32.212V26.056H683.288V32.116C683.288 32.492 683.48 32.68 683.864 32.68H684.86V34.024H683.648ZM680.744 28.96V27.76H684.74V28.96H680.744ZM688.701 36.544C688.149 36.544 687.669 36.468 687.261 36.316C686.861 36.164 686.533 35.948 686.277 35.668C686.021 35.396 685.833 35.08 685.713 34.72L687.129 34.3C687.241 34.596 687.417 34.824 687.657 34.984C687.905 35.144 688.253 35.224 688.701 35.224C689.221 35.224 689.609 35.088 689.865 34.816C690.129 34.544 690.261 34.192 690.261 33.76V32.944H690.189C689.997 33.24 689.741 33.476 689.421 33.652C689.109 33.82 688.737 33.904 688.305 33.904C687.809 33.904 687.357 33.776 686.949 33.52C686.549 33.256 686.229 32.888 685.989 32.416C685.749 31.944 685.629 31.392 685.629 30.76C685.629 30.12 685.749 29.568 685.989 29.104C686.229 28.632 686.549 28.268 686.949 28.012C687.357 27.748 687.809 27.616 688.305 27.616C688.729 27.616 689.097 27.7 689.409 27.868C689.729 28.036 690.001 28.284 690.225 28.612H690.297V27.76H691.701V33.82C691.701 34.372 691.581 34.852 691.341 35.26C691.109 35.668 690.769 35.984 690.321 36.208C689.873 36.432 689.333 36.544 688.701 36.544ZM688.713 32.56C689.201 32.56 689.589 32.404 689.877 32.092C690.165 31.78 690.309 31.336 690.309 30.76C690.309 30.192 690.165 29.752 689.877 29.44C689.589 29.12 689.201 28.96 688.713 28.96C688.233 28.96 687.845 29.12 687.549 29.44C687.261 29.752 687.117 30.192 687.117 30.76C687.117 31.32 687.261 31.76 687.549 32.08C687.845 32.4 688.233 32.56 688.713 32.56ZM693.336 34V27.76H694.74V28.864H694.812C694.98 28.496 695.228 28.196 695.556 27.964C695.884 27.732 696.288 27.616 696.768 27.616H697.176V29.08H696.648C696.064 29.08 695.604 29.248 695.268 29.584C694.94 29.92 694.776 30.444 694.776 31.156V34H693.336ZM700.877 34.144C700.285 34.144 699.757 34.012 699.293 33.748C698.829 33.484 698.465 33.108 698.201 32.62C697.945 32.124 697.817 31.544 697.817 30.88C697.817 30.256 697.949 29.7 698.213 29.212C698.477 28.716 698.841 28.328 699.305 28.048C699.769 27.76 700.297 27.616 700.889 27.616C701.473 27.616 701.981 27.744 702.413 28C702.853 28.256 703.193 28.64 703.433 29.152C703.673 29.664 703.793 30.304 703.793 31.072V31.36H698.657V30.304H702.557L702.281 30.52C702.281 30.224 702.229 29.956 702.125 29.716C702.021 29.476 701.865 29.284 701.657 29.14C701.449 28.988 701.189 28.912 700.877 28.912C700.573 28.912 700.301 28.984 700.061 29.128C699.821 29.272 699.633 29.488 699.497 29.776C699.361 30.064 699.293 30.432 699.293 30.88C699.293 31.312 699.357 31.676 699.485 31.972C699.613 32.26 699.797 32.48 700.037 32.632C700.277 32.776 700.557 32.848 700.877 32.848C701.245 32.848 701.529 32.772 701.729 32.62C701.937 32.46 702.109 32.244 702.245 31.972L703.577 32.488C703.377 32.976 703.069 33.376 702.653 33.688C702.245 33.992 701.653 34.144 700.877 34.144ZM707.453 34.144C706.709 34.144 706.101 34.008 705.629 33.736C705.165 33.464 704.817 33.076 704.585 32.572L705.917 31.96C706.053 32.256 706.253 32.48 706.517 32.632C706.789 32.784 707.101 32.86 707.453 32.86C707.805 32.86 708.081 32.8 708.281 32.68C708.481 32.56 708.581 32.4 708.581 32.2C708.581 32.016 708.521 31.872 708.401 31.768C708.281 31.656 708.093 31.588 707.837 31.564L706.673 31.444C706.065 31.38 705.581 31.196 705.221 30.892C704.861 30.588 704.681 30.152 704.681 29.584C704.681 29.216 704.777 28.884 704.969 28.588C705.169 28.292 705.449 28.056 705.809 27.88C706.169 27.704 706.593 27.616 707.081 27.616C707.745 27.616 708.289 27.744 708.713 28C709.137 28.256 709.461 28.596 709.685 29.02L708.389 29.644C708.253 29.388 708.069 29.2 707.837 29.08C707.613 28.96 707.361 28.9 707.081 28.9C706.737 28.9 706.489 28.96 706.337 29.08C706.185 29.2 706.109 29.352 706.109 29.536C706.109 29.696 706.165 29.832 706.277 29.944C706.389 30.048 706.557 30.112 706.781 30.136L707.993 30.256C708.657 30.32 709.157 30.516 709.493 30.844C709.837 31.172 710.009 31.62 710.009 32.188C710.009 32.588 709.905 32.936 709.697 33.232C709.497 33.528 709.205 33.756 708.821 33.916C708.445 34.068 707.989 34.144 707.453 34.144ZM710.416 34L713.176 25.36H714.628L711.88 34H710.416ZM655.538 48V39.36H658.118L660.158 46.272H660.302L662.33 39.36H664.922V48H663.41V41.064H663.242L661.226 48H659.174L657.158 41.064H656.978V48H655.538ZM667.319 50.4L668.447 47.772V48.348L665.831 41.76H667.451L669.035 46.176H669.131L670.823 41.76H672.383L668.843 50.4H667.319ZM676.592 48.144C675.624 48.144 674.844 47.956 674.252 47.58C673.66 47.196 673.224 46.636 672.944 45.9L674.504 45.36C674.656 45.792 674.908 46.128 675.26 46.368C675.612 46.608 676.056 46.728 676.592 46.728C677.224 46.728 677.692 46.624 677.996 46.416C678.3 46.208 678.452 45.936 678.452 45.6C678.452 45.256 678.352 44.996 678.152 44.82C677.952 44.636 677.664 44.524 677.288 44.484L675.584 44.304C674.84 44.224 674.24 43.972 673.784 43.548C673.328 43.124 673.1 42.54 673.1 41.796C673.1 41.324 673.232 40.892 673.496 40.5C673.76 40.108 674.128 39.796 674.6 39.564C675.08 39.332 675.632 39.216 676.256 39.216C677.144 39.216 677.872 39.412 678.44 39.804C679.016 40.188 679.416 40.708 679.64 41.364L678.164 41.88C678.012 41.48 677.776 41.172 677.456 40.956C677.136 40.74 676.736 40.632 676.256 40.632C675.736 40.632 675.34 40.74 675.068 40.956C674.796 41.172 674.66 41.44 674.66 41.76C674.66 42.032 674.752 42.264 674.936 42.456C675.12 42.64 675.416 42.752 675.824 42.792L677.36 42.96C678.216 43.056 678.868 43.328 679.316 43.776C679.772 44.224 680 44.832 680 45.6C680 46.12 679.864 46.572 679.592 46.956C679.328 47.332 678.94 47.624 678.428 47.832C677.924 48.04 677.312 48.144 676.592 48.144ZM688.494 48.42L685.182 44.544L686.238 43.644L689.562 47.532L688.494 48.42ZM685.422 48.144C684.582 48.144 683.83 47.964 683.166 47.604C682.502 47.244 681.978 46.732 681.594 46.068C681.218 45.396 681.03 44.6 681.03 43.68C681.03 42.992 681.138 42.376 681.354 41.832C681.578 41.28 681.886 40.812 682.278 40.428C682.67 40.036 683.134 39.736 683.67 39.528C684.206 39.32 684.79 39.216 685.422 39.216C686.062 39.216 686.646 39.32 687.174 39.528C687.71 39.736 688.174 40.036 688.566 40.428C688.966 40.812 689.274 41.28 689.49 41.832C689.706 42.376 689.814 42.992 689.814 43.68C689.814 44.368 689.706 44.988 689.49 45.54C689.274 46.092 688.966 46.564 688.566 46.956C688.174 47.34 687.71 47.636 687.174 47.844C686.646 48.044 686.062 48.144 685.422 48.144ZM685.422 46.74C686.022 46.74 686.53 46.612 686.946 46.356C687.362 46.092 687.678 45.732 687.894 45.276C688.118 44.812 688.23 44.28 688.23 43.68C688.23 43.072 688.118 42.54 687.894 42.084C687.678 41.628 687.362 41.272 686.946 41.016C686.53 40.752 686.022 40.62 685.422 40.62C684.83 40.62 684.322 40.752 683.898 41.016C683.482 41.272 683.162 41.628 682.938 42.084C682.722 42.54 682.614 43.072 682.614 43.68C682.614 44.28 682.722 44.812 682.938 45.276C683.162 45.732 683.482 46.092 683.898 46.356C684.322 46.612 684.83 46.74 685.422 46.74ZM691.21 48V39.36H692.722V47.256L692.074 46.608H696.874V48H691.21ZM697.52 48L700.28 39.36H701.732L698.984 48H697.52ZM704.68 48.144C704.088 48.144 703.56 48.012 703.096 47.748C702.632 47.484 702.268 47.108 702.004 46.62C701.748 46.124 701.62 45.544 701.62 44.88C701.62 44.256 701.752 43.7 702.016 43.212C702.28 42.716 702.644 42.328 703.108 42.048C703.572 41.76 704.1 41.616 704.692 41.616C705.276 41.616 705.784 41.744 706.216 42C706.656 42.256 706.996 42.64 707.236 43.152C707.476 43.664 707.596 44.304 707.596 45.072V45.36H702.46V44.304H706.36L706.084 44.52C706.084 44.224 706.032 43.956 705.928 43.716C705.824 43.476 705.668 43.284 705.46 43.14C705.252 42.988 704.992 42.912 704.68 42.912C704.376 42.912 704.104 42.984 703.864 43.128C703.624 43.272 703.436 43.488 703.3 43.776C703.164 44.064 703.096 44.432 703.096 44.88C703.096 45.312 703.16 45.676 703.288 45.972C703.416 46.26 703.6 46.48 703.84 46.632C704.08 46.776 704.36 46.848 704.68 46.848C705.048 46.848 705.332 46.772 705.532 46.62C705.74 46.46 705.912 46.244 706.048 45.972L707.38 46.488C707.18 46.976 706.872 47.376 706.456 47.688C706.048 47.992 705.456 48.144 704.68 48.144ZM711.076 48.024C710.476 48.024 710.024 47.868 709.72 47.556C709.424 47.236 709.276 46.788 709.276 46.212V40.056H710.716V46.116C710.716 46.492 710.908 46.68 711.292 46.68H712.288V48.024H711.076ZM708.172 42.96V41.76H712.168V42.96H708.172ZM716.108 48.144C715.508 48.144 714.968 48.012 714.488 47.748C714.016 47.484 713.64 47.108 713.36 46.62C713.08 46.132 712.94 45.552 712.94 44.88C712.94 44.208 713.08 43.628 713.36 43.14C713.64 42.652 714.016 42.276 714.488 42.012C714.968 41.748 715.508 41.616 716.108 41.616C716.884 41.616 717.524 41.82 718.028 42.228C718.54 42.628 718.86 43.168 718.988 43.848L717.56 44.16C717.48 43.816 717.316 43.532 717.068 43.308C716.828 43.076 716.508 42.96 716.108 42.96C715.764 42.96 715.468 43.04 715.22 43.2C714.972 43.352 714.78 43.572 714.644 43.86C714.516 44.14 714.452 44.48 714.452 44.88C714.452 45.272 714.516 45.612 714.644 45.9C714.78 46.188 714.972 46.412 715.22 46.572C715.468 46.724 715.764 46.8 716.108 46.8C716.492 46.8 716.804 46.7 717.044 46.5C717.292 46.292 717.468 45.984 717.572 45.576L718.976 46.008C718.888 46.416 718.72 46.78 718.472 47.1C718.232 47.42 717.916 47.676 717.524 47.868C717.132 48.052 716.66 48.144 716.108 48.144Z" fill="white"/>
<rect x="214" width="90" height="73" rx="6" fill="#1E1E1E"/>
<path d="M245.82 34.7911V33.3871L251.052 27.6631V27.5431H246.144V26.1511H252.996V27.6271L247.872 33.2551V33.3991H253.236V34.7911H245.82ZM257.074 34.9351C256.482 34.9351 255.954 34.8031 255.49 34.5391C255.026 34.2751 254.662 33.8991 254.398 33.4111C254.142 32.9151 254.014 32.3351 254.014 31.6711C254.014 31.0471 254.146 30.4911 254.41 30.0031C254.674 29.5071 255.038 29.1191 255.502 28.8391C255.966 28.5511 256.494 28.4071 257.086 28.4071C257.67 28.4071 258.178 28.5351 258.61 28.7911C259.05 29.0471 259.39 29.4311 259.63 29.9431C259.87 30.4551 259.99 31.0951 259.99 31.8631V32.1511H254.854V31.0951H258.754L258.478 31.3111C258.478 31.0151 258.426 30.7471 258.322 30.5071C258.218 30.2671 258.062 30.0751 257.854 29.9311C257.646 29.7791 257.386 29.7031 257.074 29.7031C256.77 29.7031 256.498 29.7751 256.258 29.9191C256.018 30.0631 255.83 30.2791 255.694 30.5671C255.558 30.8551 255.49 31.2231 255.49 31.6711C255.49 32.1031 255.554 32.4671 255.682 32.7631C255.81 33.0511 255.994 33.2711 256.234 33.4231C256.474 33.5671 256.754 33.6391 257.074 33.6391C257.442 33.6391 257.726 33.5631 257.926 33.4111C258.134 33.2511 258.306 33.0351 258.442 32.7631L259.774 33.2791C259.574 33.7671 259.266 34.1671 258.85 34.4791C258.442 34.7831 257.85 34.9351 257.074 34.9351ZM261.298 34.7911V28.5511H262.702V29.6551H262.774C262.942 29.2871 263.19 28.9871 263.518 28.7551C263.846 28.5231 264.25 28.4071 264.73 28.4071H265.138V29.8711H264.61C264.026 29.8711 263.566 30.0391 263.23 30.3751C262.902 30.7111 262.738 31.2351 262.738 31.9471V34.7911H261.298ZM268.923 34.9351C268.323 34.9351 267.787 34.8031 267.315 34.5391C266.843 34.2751 266.467 33.8991 266.187 33.4111C265.915 32.9231 265.779 32.3431 265.779 31.6711C265.779 30.9991 265.915 30.4191 266.187 29.9311C266.467 29.4431 266.843 29.0671 267.315 28.8031C267.787 28.5391 268.323 28.4071 268.923 28.4071C269.523 28.4071 270.059 28.5391 270.531 28.8031C271.003 29.0671 271.375 29.4431 271.647 29.9311C271.927 30.4191 272.067 30.9991 272.067 31.6711C272.067 32.3431 271.927 32.9231 271.647 33.4111C271.375 33.8991 271.003 34.2751 270.531 34.5391C270.059 34.8031 269.523 34.9351 268.923 34.9351ZM268.923 33.5911C269.443 33.5911 269.843 33.4191 270.123 33.0751C270.411 32.7311 270.555 32.2631 270.555 31.6711C270.555 31.0791 270.411 30.6111 270.123 30.2671C269.843 29.9231 269.443 29.7511 268.923 29.7511C268.403 29.7511 267.999 29.9231 267.711 30.2671C267.431 30.6111 267.291 31.0791 267.291 31.6711C267.291 32.2631 267.431 32.7311 267.711 33.0751C267.999 33.4191 268.403 33.5911 268.923 33.5911ZM246.969 48.9351C246.369 48.9351 245.829 48.8031 245.349 48.5391C244.877 48.2751 244.501 47.8991 244.221 47.4111C243.941 46.9231 243.801 46.3431 243.801 45.6711C243.801 44.9991 243.941 44.4191 244.221 43.9311C244.501 43.4431 244.877 43.0671 245.349 42.8031C245.829 42.5391 246.369 42.4071 246.969 42.4071C247.745 42.4071 248.385 42.6111 248.889 43.0191C249.401 43.4191 249.721 43.9591 249.849 44.6391L248.421 44.9511C248.341 44.6071 248.177 44.3231 247.929 44.0991C247.689 43.8671 247.369 43.7511 246.969 43.7511C246.625 43.7511 246.329 43.8311 246.081 43.9911C245.833 44.1431 245.641 44.3631 245.505 44.6511C245.377 44.9311 245.313 45.2711 245.313 45.6711C245.313 46.0631 245.377 46.4031 245.505 46.6911C245.641 46.9791 245.833 47.2031 246.081 47.3631C246.329 47.5151 246.625 47.5911 246.969 47.5911C247.353 47.5911 247.665 47.4911 247.905 47.2911C248.153 47.0831 248.329 46.7751 248.433 46.3671L249.837 46.7991C249.749 47.2071 249.581 47.5711 249.333 47.8911C249.093 48.2111 248.777 48.4671 248.385 48.6591C247.993 48.8431 247.521 48.9351 246.969 48.9351ZM251.003 48.7911V40.1511H252.443V48.7911H251.003ZM254.074 48.7911V42.5511H255.514V48.7911H254.074ZM253.918 40.8711C253.918 40.6151 253.998 40.4071 254.158 40.2471C254.326 40.0871 254.538 40.0071 254.794 40.0071C255.05 40.0071 255.258 40.0871 255.418 40.2471C255.586 40.4071 255.67 40.6151 255.67 40.8711C255.67 41.1111 255.586 41.3151 255.418 41.4831C255.258 41.6431 255.05 41.7231 254.794 41.7231C254.538 41.7231 254.326 41.6431 254.158 41.4831C253.998 41.3151 253.918 41.1111 253.918 40.8711ZM259.904 48.9351C259.312 48.9351 258.784 48.8031 258.32 48.5391C257.856 48.2751 257.492 47.8991 257.228 47.4111C256.972 46.9151 256.844 46.3351 256.844 45.6711C256.844 45.0471 256.976 44.4911 257.24 44.0031C257.504 43.5071 257.868 43.1191 258.332 42.8391C258.796 42.5511 259.324 42.4071 259.916 42.4071C260.5 42.4071 261.008 42.5351 261.44 42.7911C261.88 43.0471 262.22 43.4311 262.46 43.9431C262.7 44.4551 262.82 45.0951 262.82 45.8631V46.1511H257.684V45.0951H261.584L261.308 45.3111C261.308 45.0151 261.256 44.7471 261.152 44.5071C261.048 44.2671 260.892 44.0751 260.684 43.9311C260.476 43.7791 260.216 43.7031 259.904 43.7031C259.6 43.7031 259.328 43.7751 259.088 43.9191C258.848 44.0631 258.66 44.2791 258.524 44.5671C258.388 44.8551 258.32 45.2231 258.32 45.6711C258.32 46.1031 258.384 46.4671 258.512 46.7631C258.64 47.0511 258.824 47.2711 259.064 47.4231C259.304 47.5671 259.584 47.6391 259.904 47.6391C260.272 47.6391 260.556 47.5631 260.756 47.4111C260.964 47.2511 261.136 47.0351 261.272 46.7631L262.604 47.2791C262.404 47.7671 262.096 48.1671 261.68 48.4791C261.272 48.7831 260.68 48.9351 259.904 48.9351ZM264.128 48.7911V42.5511H265.532V43.4151H265.604C265.804 43.1031 266.052 42.8591 266.348 42.6831C266.652 42.4991 267 42.4071 267.392 42.4071C267.816 42.4071 268.188 42.4991 268.508 42.6831C268.828 42.8591 269.076 43.1231 269.252 43.4751C269.428 43.8191 269.516 44.2431 269.516 44.7471V48.7911H268.076V45.0111C268.076 44.5871 267.98 44.2751 267.788 44.0751C267.596 43.8671 267.332 43.7631 266.996 43.7631C266.724 43.7631 266.48 43.8351 266.264 43.9791C266.048 44.1151 265.876 44.3191 265.748 44.5911C265.628 44.8631 265.568 45.1991 265.568 45.5991V48.7911H264.128ZM273.25 48.8151C272.65 48.8151 272.198 48.6591 271.894 48.3471C271.598 48.0271 271.45 47.5791 271.45 47.0031V40.8471H272.89V46.9071C272.89 47.2831 273.082 47.4711 273.466 47.4711H274.462V48.8151H273.25ZM270.346 43.7511V42.5511H274.342V43.7511H270.346Z" fill="white"/>
<rect x="428" width="90" height="73" rx="6" fill="#1E1E1E"/>
<path d="M459.82 34.7911V33.3871L465.052 27.6631V27.5431H460.144V26.1511H466.996V27.6271L461.872 33.2551V33.3991H467.236V34.7911H459.82ZM471.074 34.9351C470.482 34.9351 469.954 34.8031 469.49 34.5391C469.026 34.2751 468.662 33.8991 468.398 33.4111C468.142 32.9151 468.014 32.3351 468.014 31.6711C468.014 31.0471 468.146 30.4911 468.41 30.0031C468.674 29.5071 469.038 29.1191 469.502 28.8391C469.966 28.5511 470.494 28.4071 471.086 28.4071C471.67 28.4071 472.178 28.5351 472.61 28.7911C473.05 29.0471 473.39 29.4311 473.63 29.9431C473.87 30.4551 473.99 31.0951 473.99 31.8631V32.1511H468.854V31.0951H472.754L472.478 31.3111C472.478 31.0151 472.426 30.7471 472.322 30.5071C472.218 30.2671 472.062 30.0751 471.854 29.9311C471.646 29.7791 471.386 29.7031 471.074 29.7031C470.77 29.7031 470.498 29.7751 470.258 29.9191C470.018 30.0631 469.83 30.2791 469.694 30.5671C469.558 30.8551 469.49 31.2231 469.49 31.6711C469.49 32.1031 469.554 32.4671 469.682 32.7631C469.81 33.0511 469.994 33.2711 470.234 33.4231C470.474 33.5671 470.754 33.6391 471.074 33.6391C471.442 33.6391 471.726 33.5631 471.926 33.4111C472.134 33.2511 472.306 33.0351 472.442 32.7631L473.774 33.2791C473.574 33.7671 473.266 34.1671 472.85 34.4791C472.442 34.7831 471.85 34.9351 471.074 34.9351ZM475.298 34.7911V28.5511H476.702V29.6551H476.774C476.942 29.2871 477.19 28.9871 477.518 28.7551C477.846 28.5231 478.25 28.4071 478.73 28.4071H479.138V29.8711H478.61C478.026 29.8711 477.566 30.0391 477.23 30.3751C476.902 30.7111 476.738 31.2351 476.738 31.9471V34.7911H475.298ZM482.923 34.9351C482.323 34.9351 481.787 34.8031 481.315 34.5391C480.843 34.2751 480.467 33.8991 480.187 33.4111C479.915 32.9231 479.779 32.3431 479.779 31.6711C479.779 30.9991 479.915 30.4191 480.187 29.9311C480.467 29.4431 480.843 29.0671 481.315 28.8031C481.787 28.5391 482.323 28.4071 482.923 28.4071C483.523 28.4071 484.059 28.5391 484.531 28.8031C485.003 29.0671 485.375 29.4431 485.647 29.9311C485.927 30.4191 486.067 30.9991 486.067 31.6711C486.067 32.3431 485.927 32.9231 485.647 33.4111C485.375 33.8991 485.003 34.2751 484.531 34.5391C484.059 34.8031 483.523 34.9351 482.923 34.9351ZM482.923 33.5911C483.443 33.5911 483.843 33.4191 484.123 33.0751C484.411 32.7311 484.555 32.2631 484.555 31.6711C484.555 31.0791 484.411 30.6111 484.123 30.2671C483.843 29.9231 483.443 29.7511 482.923 29.7511C482.403 29.7511 481.999 29.9231 481.711 30.2671C481.431 30.6111 481.291 31.0791 481.291 31.6711C481.291 32.2631 481.431 32.7311 481.711 33.0751C481.999 33.4191 482.403 33.5911 482.923 33.5911ZM459.528 48.9351C458.928 48.9351 458.388 48.8031 457.908 48.5391C457.436 48.2751 457.06 47.8991 456.78 47.4111C456.5 46.9231 456.36 46.3431 456.36 45.6711C456.36 44.9991 456.5 44.4191 456.78 43.9311C457.06 43.4431 457.436 43.0671 457.908 42.8031C458.388 42.5391 458.928 42.4071 459.528 42.4071C460.304 42.4071 460.944 42.6111 461.448 43.0191C461.96 43.4191 462.28 43.9591 462.408 44.6391L460.98 44.9511C460.9 44.6071 460.736 44.3231 460.488 44.0991C460.248 43.8671 459.928 43.7511 459.528 43.7511C459.184 43.7511 458.888 43.8311 458.64 43.9911C458.392 44.1431 458.2 44.3631 458.064 44.6511C457.936 44.9311 457.872 45.2711 457.872 45.6711C457.872 46.0631 457.936 46.4031 458.064 46.6911C458.2 46.9791 458.392 47.2031 458.64 47.3631C458.888 47.5151 459.184 47.5911 459.528 47.5911C459.912 47.5911 460.224 47.4911 460.464 47.2911C460.712 47.0831 460.888 46.7751 460.992 46.3671L462.396 46.7991C462.308 47.2071 462.14 47.5711 461.892 47.8911C461.652 48.2111 461.336 48.4671 460.944 48.6591C460.552 48.8431 460.08 48.9351 459.528 48.9351ZM465.314 48.9351C464.682 48.9351 464.178 48.7671 463.802 48.4311C463.434 48.0871 463.25 47.6351 463.25 47.0751C463.25 46.5231 463.434 46.0791 463.802 45.7431C464.17 45.3991 464.694 45.1991 465.374 45.1431L467.606 44.9391V45.9471L465.614 46.1631C465.302 46.1951 465.07 46.2831 464.918 46.4271C464.766 46.5631 464.69 46.7471 464.69 46.9791C464.69 47.2031 464.77 47.3871 464.93 47.5311C465.098 47.6751 465.33 47.7471 465.626 47.7471C465.93 47.7471 466.198 47.6711 466.43 47.5191C466.67 47.3591 466.854 47.1151 466.982 46.7871C467.118 46.4511 467.186 46.0231 467.186 45.5031V44.7471C467.186 44.4431 467.094 44.1911 466.91 43.9911C466.734 43.7911 466.442 43.6911 466.034 43.6911C465.626 43.6911 465.33 43.7751 465.146 43.9431C464.962 44.1111 464.854 44.3031 464.822 44.5191H463.394C463.418 44.1111 463.538 43.7511 463.754 43.4391C463.97 43.1191 464.274 42.8671 464.666 42.6831C465.058 42.4991 465.526 42.4071 466.07 42.4071C466.878 42.4071 467.506 42.6231 467.954 43.0551C468.402 43.4791 468.626 44.0271 468.626 44.6991V47.4231L468.662 48.7911H467.306L467.27 47.9511H467.174C466.95 48.2871 466.682 48.5351 466.37 48.6951C466.066 48.8551 465.714 48.9351 465.314 48.9351ZM473.004 48.9351C472.404 48.9351 471.864 48.8031 471.384 48.5391C470.912 48.2751 470.536 47.8991 470.256 47.4111C469.976 46.9231 469.836 46.3431 469.836 45.6711C469.836 44.9991 469.976 44.4191 470.256 43.9311C470.536 43.4431 470.912 43.0671 471.384 42.8031C471.864 42.5391 472.404 42.4071 473.004 42.4071C473.78 42.4071 474.42 42.6111 474.924 43.0191C475.436 43.4191 475.756 43.9591 475.884 44.6391L474.456 44.9511C474.376 44.6071 474.212 44.3231 473.964 44.0991C473.724 43.8671 473.404 43.7511 473.004 43.7511C472.66 43.7511 472.364 43.8311 472.116 43.9911C471.868 44.1431 471.676 44.3631 471.54 44.6511C471.412 44.9311 471.348 45.2711 471.348 45.6711C471.348 46.0631 471.412 46.4031 471.54 46.6911C471.676 46.9791 471.868 47.2031 472.116 47.3631C472.364 47.5151 472.66 47.5911 473.004 47.5911C473.388 47.5911 473.7 47.4911 473.94 47.2911C474.188 47.0831 474.364 46.7751 474.468 46.3671L475.872 46.7991C475.784 47.2071 475.616 47.5711 475.368 47.8911C475.128 48.2111 474.812 48.4671 474.42 48.6591C474.028 48.8431 473.556 48.9351 473.004 48.9351ZM477.038 48.7911V40.1511H478.478V43.3911H478.55C478.734 43.0871 478.974 42.8471 479.27 42.6711C479.566 42.4951 479.91 42.4071 480.302 42.4071C480.718 42.4071 481.086 42.4991 481.406 42.6831C481.726 42.8591 481.974 43.1231 482.15 43.4751C482.334 43.8191 482.426 44.2431 482.426 44.7471V48.7911H480.986V45.0111C480.986 44.5871 480.886 44.2751 480.686 44.0751C480.486 43.8671 480.218 43.7631 479.882 43.7631C479.618 43.7631 479.378 43.8351 479.162 43.9791C478.954 44.1151 478.786 44.3191 478.658 44.5911C478.538 44.8631 478.478 45.1991 478.478 45.5991V48.7911H477.038ZM486.748 48.9351C486.156 48.9351 485.628 48.8031 485.164 48.5391C484.7 48.2751 484.336 47.8991 484.072 47.4111C483.816 46.9151 483.688 46.3351 483.688 45.6711C483.688 45.0471 483.82 44.4911 484.084 44.0031C484.348 43.5071 484.712 43.1191 485.176 42.8391C485.64 42.5511 486.168 42.4071 486.76 42.4071C487.344 42.4071 487.852 42.5351 488.284 42.7911C488.724 43.0471 489.064 43.4311 489.304 43.9431C489.544 44.4551 489.664 45.0951 489.664 45.8631V46.1511H484.528V45.0951H488.428L488.152 45.3111C488.152 45.0151 488.1 44.7471 487.996 44.5071C487.892 44.2671 487.736 44.0751 487.528 43.9311C487.32 43.7791 487.06 43.7031 486.748 43.7031C486.444 43.7031 486.172 43.7751 485.932 43.9191C485.692 44.0631 485.504 44.2791 485.368 44.5671C485.232 44.8551 485.164 45.2231 485.164 45.6711C485.164 46.1031 485.228 46.4671 485.356 46.7631C485.484 47.0511 485.668 47.2711 485.908 47.4231C486.148 47.5671 486.428 47.6391 486.748 47.6391C487.116 47.6391 487.4 47.5631 487.6 47.4111C487.808 47.2511 487.98 47.0351 488.116 46.7631L489.448 47.2791C489.248 47.7671 488.94 48.1671 488.524 48.4791C488.116 48.7831 487.524 48.9351 486.748 48.9351Z" fill="white"/>
<path d="M550.339 50V41.36H554.119C554.679 41.36 555.163 41.464 555.571 41.672C555.987 41.872 556.311 42.16 556.543 42.536C556.775 42.912 556.891 43.36 556.891 43.88C556.891 44.384 556.775 44.828 556.543 45.212C556.311 45.588 555.983 45.88 555.559 46.088C555.135 46.296 554.635 46.4 554.059 46.4H551.203V45.32H554.023C554.527 45.32 554.923 45.2 555.211 44.96C555.499 44.712 555.643 44.352 555.643 43.88C555.643 43.384 555.503 43.02 555.223 42.788C554.943 42.556 554.559 42.44 554.071 42.44H551.083L551.515 42.02V50H550.339ZM555.583 50L553.099 46.052H554.467L557.059 50H555.583ZM560.679 50.144C560.095 50.144 559.575 50.012 559.119 49.748C558.663 49.476 558.307 49.096 558.051 48.608C557.795 48.112 557.667 47.536 557.667 46.88C557.667 46.232 557.799 45.664 558.063 45.176C558.327 44.68 558.687 44.296 559.143 44.024C559.599 43.752 560.115 43.616 560.691 43.616C561.251 43.616 561.743 43.744 562.167 44C562.599 44.248 562.935 44.616 563.175 45.104C563.423 45.584 563.547 46.172 563.547 46.868V47.204H558.399V46.28H562.515L562.359 46.448C562.359 46.112 562.291 45.808 562.155 45.536C562.019 45.264 561.827 45.048 561.579 44.888C561.331 44.728 561.035 44.648 560.691 44.648C560.347 44.648 560.031 44.728 559.743 44.888C559.463 45.048 559.235 45.296 559.059 45.632C558.891 45.96 558.807 46.376 558.807 46.88C558.807 47.336 558.879 47.732 559.023 48.068C559.175 48.396 559.391 48.652 559.671 48.836C559.951 49.02 560.287 49.112 560.679 49.112C561.103 49.112 561.447 49.02 561.711 48.836C561.975 48.652 562.187 48.376 562.347 48.008L563.391 48.368C563.191 48.928 562.867 49.364 562.419 49.676C561.971 49.988 561.391 50.144 560.679 50.144ZM568.119 43.616C568.671 43.616 569.159 43.752 569.583 44.024C570.007 44.296 570.339 44.676 570.579 45.164C570.827 45.652 570.951 46.224 570.951 46.88C570.951 47.536 570.827 48.108 570.579 48.596C570.339 49.084 570.007 49.464 569.583 49.736C569.167 50.008 568.691 50.144 568.155 50.144C567.691 50.144 567.295 50.056 566.967 49.88C566.647 49.704 566.375 49.472 566.151 49.184H566.079V52.4H564.951V43.76H566.079V44.576H566.151C566.359 44.288 566.627 44.056 566.955 43.88C567.291 43.704 567.679 43.616 568.119 43.616ZM567.915 44.648C567.331 44.648 566.871 44.844 566.535 45.236C566.207 45.628 566.043 46.176 566.043 46.88C566.043 47.592 566.207 48.144 566.535 48.536C566.871 48.92 567.331 49.112 567.915 49.112C568.483 49.112 568.935 48.916 569.271 48.524C569.607 48.124 569.775 47.576 569.775 46.88C569.775 46.184 569.607 45.64 569.271 45.248C568.935 44.848 568.483 44.648 567.915 44.648ZM572.334 50V41.36H573.462V50H572.334ZM575.147 50V43.76H576.275V50H575.147ZM575.015 41.9C575.015 41.7 575.079 41.536 575.207 41.408C575.335 41.28 575.503 41.216 575.711 41.216C575.919 41.216 576.087 41.28 576.215 41.408C576.343 41.536 576.407 41.7 576.407 41.9C576.407 42.092 576.343 42.256 576.215 42.392C576.087 42.52 575.919 42.584 575.711 42.584C575.503 42.584 575.335 42.52 575.207 42.392C575.079 42.256 575.015 42.092 575.015 41.9ZM580.755 50.144C580.163 50.144 579.631 50.012 579.159 49.748C578.695 49.476 578.327 49.096 578.055 48.608C577.791 48.112 577.659 47.536 577.659 46.88C577.659 46.216 577.795 45.64 578.067 45.152C578.339 44.664 578.707 44.288 579.171 44.024C579.643 43.752 580.171 43.616 580.755 43.616C581.515 43.616 582.147 43.828 582.651 44.252C583.163 44.668 583.471 45.228 583.575 45.932L582.471 46.112C582.391 45.688 582.211 45.34 581.931 45.068C581.651 44.788 581.259 44.648 580.755 44.648C580.347 44.648 579.999 44.74 579.711 44.924C579.431 45.1 579.215 45.356 579.063 45.692C578.911 46.02 578.835 46.416 578.835 46.88C578.835 47.336 578.911 47.732 579.063 48.068C579.215 48.404 579.431 48.664 579.711 48.848C579.999 49.024 580.347 49.112 580.755 49.112C581.259 49.112 581.647 48.976 581.919 48.704C582.191 48.424 582.371 48.068 582.459 47.636L583.563 47.9C583.499 48.34 583.339 48.732 583.083 49.076C582.835 49.412 582.511 49.676 582.111 49.868C581.711 50.052 581.259 50.144 580.755 50.144ZM586.555 50.144C585.939 50.144 585.447 49.972 585.079 49.628C584.711 49.284 584.527 48.84 584.527 48.296C584.527 47.744 584.699 47.296 585.043 46.952C585.387 46.608 585.911 46.408 586.615 46.352L588.859 46.16V47.048L586.831 47.24C586.407 47.28 586.099 47.392 585.907 47.576C585.723 47.76 585.631 47.984 585.631 48.248C585.631 48.528 585.723 48.756 585.907 48.932C586.099 49.1 586.379 49.184 586.747 49.184C587.075 49.184 587.383 49.1 587.671 48.932C587.959 48.756 588.191 48.492 588.367 48.14C588.543 47.78 588.631 47.324 588.631 46.772V45.92C588.631 45.52 588.515 45.204 588.283 44.972C588.051 44.74 587.707 44.624 587.251 44.624C586.763 44.624 586.403 44.724 586.171 44.924C585.947 45.116 585.819 45.376 585.787 45.704H584.707C584.723 45.296 584.835 44.936 585.043 44.624C585.251 44.312 585.539 44.068 585.907 43.892C586.283 43.708 586.731 43.616 587.251 43.616C588.043 43.616 588.659 43.824 589.099 44.24C589.539 44.656 589.759 45.208 589.759 45.896V48.668L589.783 50H588.691L588.679 49.124H588.607C588.399 49.468 588.107 49.724 587.731 49.892C587.363 50.06 586.971 50.144 586.555 50.144ZM593.358 50.024C592.822 50.024 592.414 49.888 592.134 49.616C591.862 49.336 591.726 48.956 591.726 48.476V42.056H592.854V48.368C592.854 48.784 593.074 48.992 593.514 48.992H594.486V50.024H593.358ZM590.562 44.744V43.76H594.366V44.744H590.562ZM595.561 50V43.76H596.689V50H595.561ZM595.429 41.9C595.429 41.7 595.493 41.536 595.621 41.408C595.749 41.28 595.917 41.216 596.125 41.216C596.333 41.216 596.501 41.28 596.629 41.408C596.757 41.536 596.821 41.7 596.821 41.9C596.821 42.092 596.757 42.256 596.629 42.392C596.501 42.52 596.333 42.584 596.125 42.584C595.917 42.584 595.749 42.52 595.621 42.392C595.493 42.256 595.429 42.092 595.429 41.9ZM601.133 50.144C600.541 50.144 600.013 50.012 599.549 49.748C599.085 49.476 598.721 49.096 598.457 48.608C598.201 48.112 598.073 47.536 598.073 46.88C598.073 46.216 598.201 45.64 598.457 45.152C598.721 44.664 599.085 44.288 599.549 44.024C600.013 43.752 600.541 43.616 601.133 43.616C601.725 43.616 602.249 43.752 602.705 44.024C603.169 44.288 603.533 44.664 603.797 45.152C604.061 45.64 604.193 46.216 604.193 46.88C604.193 47.536 604.061 48.112 603.797 48.608C603.533 49.096 603.169 49.476 602.705 49.748C602.249 50.012 601.725 50.144 601.133 50.144ZM601.133 49.112C601.741 49.112 602.205 48.912 602.525 48.512C602.853 48.112 603.017 47.568 603.017 46.88C603.017 46.192 602.853 45.648 602.525 45.248C602.205 44.848 601.741 44.648 601.133 44.648C600.517 44.648 600.049 44.848 599.729 45.248C599.409 45.648 599.249 46.192 599.249 46.88C599.249 47.568 599.409 48.112 599.729 48.512C600.049 48.912 600.517 49.112 601.133 49.112ZM605.569 50V43.76H606.697V44.504H606.769C606.993 44.216 607.253 43.996 607.549 43.844C607.853 43.692 608.201 43.616 608.593 43.616C609.041 43.616 609.429 43.708 609.757 43.892C610.085 44.076 610.341 44.344 610.525 44.696C610.709 45.048 610.801 45.476 610.801 45.98V50H609.673V46.196C609.673 45.676 609.557 45.288 609.325 45.032C609.101 44.776 608.789 44.648 608.389 44.648C608.053 44.648 607.757 44.724 607.501 44.876C607.253 45.028 607.057 45.268 606.913 45.596C606.769 45.924 606.697 46.352 606.697 46.88V50H605.569Z" fill="white"/>
<path fill-rule="evenodd" clip-rule="evenodd" d="M616 47H642V46H616V47ZM545 46H523.707L526.036 43.6716C526.231 43.4763 526.231 43.1598 526.036 42.9645C525.84 42.7692 525.524 42.7692 525.328 42.9645L522.147 46.1465C521.951 46.3417 521.951 46.6583 522.147 46.8536L525.328 50.0356C525.524 50.2308 525.84 50.2308 526.036 50.0356C526.231 49.8403 526.231 49.5237 526.036 49.3285L523.707 47H545V46Z" fill="#878787"/>
<path d="M571.475 31.144C570.451 31.144 569.647 30.924 569.063 30.484C568.479 30.044 568.075 29.412 567.851 28.588L569.063 28.324C569.215 28.916 569.491 29.352 569.891 29.632C570.299 29.904 570.827 30.04 571.475 30.04C572.139 30.04 572.651 29.912 573.011 29.656C573.371 29.4 573.551 29.064 573.551 28.648C573.551 28.248 573.423 27.936 573.167 27.712C572.911 27.48 572.567 27.34 572.135 27.292L570.479 27.1C569.671 27.004 569.063 26.74 568.655 26.308C568.247 25.876 568.043 25.332 568.043 24.676C568.043 24.18 568.171 23.748 568.427 23.38C568.683 23.012 569.043 22.728 569.507 22.528C569.971 22.32 570.515 22.216 571.139 22.216C572.003 22.216 572.731 22.416 573.323 22.816C573.923 23.216 574.319 23.796 574.511 24.556L573.311 24.844C573.159 24.348 572.899 23.972 572.531 23.716C572.163 23.452 571.699 23.32 571.139 23.32C570.539 23.32 570.075 23.44 569.747 23.68C569.419 23.92 569.255 24.244 569.255 24.652C569.255 25.02 569.375 25.308 569.615 25.516C569.855 25.724 570.207 25.856 570.671 25.912L572.279 26.104C573.071 26.2 573.683 26.472 574.115 26.92C574.547 27.36 574.763 27.936 574.763 28.648C574.763 29.152 574.631 29.592 574.367 29.968C574.111 30.344 573.739 30.636 573.251 30.844C572.763 31.044 572.171 31.144 571.475 31.144ZM583.116 31.492L579.804 27.364L580.656 26.68L583.956 30.772L583.116 31.492ZM580.128 31.144C579.288 31.144 578.548 30.96 577.908 30.592C577.268 30.224 576.768 29.708 576.408 29.044C576.056 28.372 575.88 27.584 575.88 26.68C575.88 26 575.98 25.388 576.18 24.844C576.388 24.292 576.68 23.82 577.056 23.428C577.432 23.036 577.88 22.736 578.4 22.528C578.92 22.32 579.496 22.216 580.128 22.216C580.752 22.216 581.32 22.32 581.832 22.528C582.352 22.736 582.8 23.036 583.176 23.428C583.56 23.82 583.856 24.292 584.064 24.844C584.272 25.388 584.376 26 584.376 26.68C584.376 27.36 584.272 27.976 584.064 28.528C583.856 29.072 583.56 29.54 583.176 29.932C582.8 30.324 582.352 30.624 581.832 30.832C581.32 31.04 580.752 31.144 580.128 31.144ZM580.128 30.04C580.768 30.04 581.308 29.896 581.748 29.608C582.196 29.32 582.536 28.924 582.768 28.42C583.008 27.916 583.128 27.336 583.128 26.68C583.128 26.024 583.008 25.444 582.768 24.94C582.536 24.436 582.196 24.04 581.748 23.752C581.308 23.464 580.768 23.32 580.128 23.32C579.472 23.32 578.92 23.464 578.472 23.752C578.032 24.04 577.696 24.436 577.464 24.94C577.24 25.444 577.128 26.024 577.128 26.68C577.128 27.336 577.24 27.916 577.464 28.42C577.696 28.924 578.032 29.32 578.472 29.608C578.92 29.896 579.472 30.04 580.128 30.04ZM585.826 31V22.36H587.002V30.34L586.57 29.908H591.25V31H585.826Z" fill="white"/>
<path fill-rule="evenodd" clip-rule="evenodd" d="M563 28L518 28V27L563 27V28ZM596 27L636.289 27L633.96 24.6716C633.765 24.4763 633.765 24.1598 633.96 23.9645C634.156 23.7692 634.472 23.7692 634.667 23.9645L637.849 27.1465C638.045 27.3417 638.045 27.6583 637.849 27.8536L634.667 31.0356C634.472 31.2308 634.156 31.2308 633.96 31.0356C633.765 30.8403 633.765 30.5237 633.96 30.3285L636.289 28L596 28V27Z" fill="#878787"/>
<path d="M144.475 41.144C143.451 41.144 142.647 40.924 142.063 40.484C141.479 40.044 141.075 39.412 140.851 38.588L142.063 38.324C142.215 38.916 142.491 39.352 142.891 39.632C143.299 39.904 143.827 40.04 144.475 40.04C145.139 40.04 145.651 39.912 146.011 39.656C146.371 39.4 146.551 39.064 146.551 38.648C146.551 38.248 146.423 37.936 146.167 37.712C145.911 37.48 145.567 37.34 145.135 37.292L143.479 37.1C142.671 37.004 142.063 36.74 141.655 36.308C141.247 35.876 141.043 35.332 141.043 34.676C141.043 34.18 141.171 33.748 141.427 33.38C141.683 33.012 142.043 32.728 142.507 32.528C142.971 32.32 143.515 32.216 144.139 32.216C145.003 32.216 145.731 32.416 146.323 32.816C146.923 33.216 147.319 33.796 147.511 34.556L146.311 34.844C146.159 34.348 145.899 33.972 145.531 33.716C145.163 33.452 144.699 33.32 144.139 33.32C143.539 33.32 143.075 33.44 142.747 33.68C142.419 33.92 142.255 34.244 142.255 34.652C142.255 35.02 142.375 35.308 142.615 35.516C142.855 35.724 143.207 35.856 143.671 35.912L145.279 36.104C146.071 36.2 146.683 36.472 147.115 36.92C147.547 37.36 147.763 37.936 147.763 38.648C147.763 39.152 147.631 39.592 147.367 39.968C147.111 40.344 146.739 40.636 146.251 40.844C145.763 41.044 145.171 41.144 144.475 41.144ZM156.116 41.492L152.804 37.364L153.656 36.68L156.956 40.772L156.116 41.492ZM153.128 41.144C152.288 41.144 151.548 40.96 150.908 40.592C150.268 40.224 149.768 39.708 149.408 39.044C149.056 38.372 148.88 37.584 148.88 36.68C148.88 36 148.98 35.388 149.18 34.844C149.388 34.292 149.68 33.82 150.056 33.428C150.432 33.036 150.88 32.736 151.4 32.528C151.92 32.32 152.496 32.216 153.128 32.216C153.752 32.216 154.32 32.32 154.832 32.528C155.352 32.736 155.8 33.036 156.176 33.428C156.56 33.82 156.856 34.292 157.064 34.844C157.272 35.388 157.376 36 157.376 36.68C157.376 37.36 157.272 37.976 157.064 38.528C156.856 39.072 156.56 39.54 156.176 39.932C155.8 40.324 155.352 40.624 154.832 40.832C154.32 41.04 153.752 41.144 153.128 41.144ZM153.128 40.04C153.768 40.04 154.308 39.896 154.748 39.608C155.196 39.32 155.536 38.924 155.768 38.42C156.008 37.916 156.128 37.336 156.128 36.68C156.128 36.024 156.008 35.444 155.768 34.94C155.536 34.436 155.196 34.04 154.748 33.752C154.308 33.464 153.768 33.32 153.128 33.32C152.472 33.32 151.92 33.464 151.472 33.752C151.032 34.04 150.696 34.436 150.464 34.94C150.24 35.444 150.128 36.024 150.128 36.68C150.128 37.336 150.24 37.916 150.464 38.42C150.696 38.924 151.032 39.32 151.472 39.608C151.92 39.896 152.472 40.04 153.128 40.04ZM158.826 41V32.36H160.002V40.34L159.57 39.908H164.25V41H158.826Z" fill="white"/>
<path fill-rule="evenodd" clip-rule="evenodd" d="M136 36.5001H95.7071L98.0355 34.1717C98.2308 33.9764 98.2308 33.6598 98.0355 33.4646C97.8403 33.2693 97.5237 33.2693 97.3284 33.4646L94.1464 36.6465C93.9512 36.8418 93.9512 37.1584 94.1464 37.3536L97.3284 40.5356C97.5237 40.7309 97.8403 40.7309 98.0355 40.5356C98.2308 40.3404 98.2308 40.0238 98.0355 39.8285L95.7071 37.5001H136V36.5001ZM169 37.5001H208.291L205.963 39.8285C205.767 40.0238 205.767 40.3404 205.963 40.5356C206.158 40.7309 206.474 40.7309 206.67 40.5356L209.852 37.3536C210.047 37.1584 210.047 36.8418 209.852 36.6465L206.67 33.4646C206.474 33.2693 206.158 33.2693 205.963 33.4646C205.767 33.6598 205.767 33.9764 205.963 34.1717L208.291 36.5001H169V37.5001Z" fill="#878787"/>
<path d="M336.771 41L334.455 32.36H335.691L337.551 39.584H337.683L339.831 32.36H341.343L343.467 39.584H343.587L345.471 32.36H346.671L344.355 41H342.735L340.623 33.92H340.491L338.379 41H336.771ZM349.818 41.144C349.234 41.144 348.714 41.012 348.258 40.748C347.802 40.476 347.446 40.096 347.19 39.608C346.934 39.112 346.806 38.536 346.806 37.88C346.806 37.232 346.938 36.664 347.202 36.176C347.466 35.68 347.826 35.296 348.282 35.024C348.738 34.752 349.254 34.616 349.83 34.616C350.39 34.616 350.882 34.744 351.306 35C351.738 35.248 352.074 35.616 352.314 36.104C352.562 36.584 352.686 37.172 352.686 37.868V38.204H347.538V37.28H351.654L351.498 37.448C351.498 37.112 351.43 36.808 351.294 36.536C351.158 36.264 350.966 36.048 350.718 35.888C350.47 35.728 350.174 35.648 349.83 35.648C349.486 35.648 349.17 35.728 348.882 35.888C348.602 36.048 348.374 36.296 348.198 36.632C348.03 36.96 347.946 37.376 347.946 37.88C347.946 38.336 348.018 38.732 348.162 39.068C348.314 39.396 348.53 39.652 348.81 39.836C349.09 40.02 349.426 40.112 349.818 40.112C350.242 40.112 350.586 40.02 350.85 39.836C351.114 39.652 351.326 39.376 351.486 39.008L352.53 39.368C352.33 39.928 352.006 40.364 351.558 40.676C351.11 40.988 350.53 41.144 349.818 41.144ZM357.258 41.144C356.818 41.144 356.43 41.056 356.094 40.88C355.766 40.704 355.498 40.472 355.29 40.184H355.218V41H354.09V32.36H355.218V35.576H355.29C355.514 35.288 355.786 35.056 356.106 34.88C356.434 34.704 356.83 34.616 357.294 34.616C357.83 34.616 358.306 34.752 358.722 35.024C359.146 35.296 359.478 35.676 359.718 36.164C359.966 36.652 360.09 37.224 360.09 37.88C360.09 38.536 359.966 39.108 359.718 39.596C359.478 40.084 359.146 40.464 358.722 40.736C358.298 41.008 357.81 41.144 357.258 41.144ZM357.054 40.112C357.622 40.112 358.074 39.916 358.41 39.524C358.746 39.124 358.914 38.576 358.914 37.88C358.914 37.184 358.746 36.64 358.41 36.248C358.074 35.848 357.622 35.648 357.054 35.648C356.47 35.648 356.01 35.844 355.674 36.236C355.346 36.62 355.182 37.168 355.182 37.88C355.182 38.584 355.346 39.132 355.674 39.524C356.01 39.916 356.47 40.112 357.054 40.112ZM363.717 41.144C362.949 41.144 362.341 40.98 361.893 40.652C361.453 40.324 361.141 39.868 360.957 39.284L362.073 38.96C362.185 39.328 362.365 39.612 362.613 39.812C362.869 40.012 363.237 40.112 363.717 40.112C364.221 40.112 364.581 40.036 364.797 39.884C365.013 39.724 365.121 39.52 365.121 39.272C365.121 39.048 365.045 38.86 364.893 38.708C364.749 38.548 364.541 38.452 364.269 38.42L362.985 38.252C362.401 38.172 361.953 37.988 361.641 37.7C361.329 37.404 361.173 36.992 361.173 36.464C361.173 36.128 361.261 35.82 361.437 35.54C361.613 35.26 361.873 35.036 362.217 34.868C362.561 34.7 362.989 34.616 363.501 34.616C364.173 34.616 364.725 34.764 365.157 35.06C365.589 35.356 365.881 35.756 366.033 36.26L364.953 36.608C364.833 36.304 364.661 36.068 364.437 35.9C364.213 35.732 363.901 35.648 363.501 35.648C363.061 35.648 362.745 35.732 362.553 35.9C362.361 36.06 362.265 36.248 362.265 36.464C362.265 36.688 362.341 36.864 362.493 36.992C362.645 37.12 362.857 37.204 363.129 37.244L364.401 37.424C365.017 37.504 365.473 37.708 365.769 38.036C366.065 38.364 366.213 38.776 366.213 39.272C366.213 39.632 366.117 39.956 365.925 40.244C365.733 40.524 365.449 40.744 365.073 40.904C364.705 41.064 364.253 41.144 363.717 41.144ZM370.151 41.144C369.559 41.144 369.031 41.012 368.567 40.748C368.103 40.476 367.739 40.096 367.475 39.608C367.219 39.112 367.091 38.536 367.091 37.88C367.091 37.216 367.219 36.64 367.475 36.152C367.739 35.664 368.103 35.288 368.567 35.024C369.031 34.752 369.559 34.616 370.151 34.616C370.743 34.616 371.267 34.752 371.723 35.024C372.187 35.288 372.551 35.664 372.815 36.152C373.079 36.64 373.211 37.216 373.211 37.88C373.211 38.536 373.079 39.112 372.815 39.608C372.551 40.096 372.187 40.476 371.723 40.748C371.267 41.012 370.743 41.144 370.151 41.144ZM370.151 40.112C370.759 40.112 371.223 39.912 371.543 39.512C371.871 39.112 372.035 38.568 372.035 37.88C372.035 37.192 371.871 36.648 371.543 36.248C371.223 35.848 370.759 35.648 370.151 35.648C369.535 35.648 369.067 35.848 368.747 36.248C368.427 36.648 368.267 37.192 368.267 37.88C368.267 38.568 368.427 39.112 368.747 39.512C369.067 39.912 369.535 40.112 370.151 40.112ZM377.382 41.144C376.79 41.144 376.258 41.012 375.786 40.748C375.322 40.476 374.954 40.096 374.682 39.608C374.418 39.112 374.286 38.536 374.286 37.88C374.286 37.216 374.422 36.64 374.694 36.152C374.966 35.664 375.334 35.288 375.798 35.024C376.27 34.752 376.798 34.616 377.382 34.616C378.142 34.616 378.774 34.828 379.278 35.252C379.79 35.668 380.098 36.228 380.202 36.932L379.098 37.112C379.018 36.688 378.838 36.34 378.558 36.068C378.278 35.788 377.886 35.648 377.382 35.648C376.974 35.648 376.626 35.74 376.338 35.924C376.058 36.1 375.842 36.356 375.69 36.692C375.538 37.02 375.462 37.416 375.462 37.88C375.462 38.336 375.538 38.732 375.69 39.068C375.842 39.404 376.058 39.664 376.338 39.848C376.626 40.024 376.974 40.112 377.382 40.112C377.886 40.112 378.274 39.976 378.546 39.704C378.818 39.424 378.998 39.068 379.086 38.636L380.19 38.9C380.126 39.34 379.966 39.732 379.71 40.076C379.462 40.412 379.138 40.676 378.738 40.868C378.338 41.052 377.886 41.144 377.382 41.144ZM381.442 41V32.36H382.57V37.904H382.642L385.33 34.76H386.758L382.57 39.524V41H381.442ZM385.51 41L383.494 38.12L384.214 37.34L386.938 41H385.51ZM389.966 41.144C389.382 41.144 388.862 41.012 388.406 40.748C387.95 40.476 387.594 40.096 387.338 39.608C387.082 39.112 386.954 38.536 386.954 37.88C386.954 37.232 387.086 36.664 387.35 36.176C387.614 35.68 387.974 35.296 388.43 35.024C388.886 34.752 389.402 34.616 389.978 34.616C390.538 34.616 391.03 34.744 391.454 35C391.886 35.248 392.222 35.616 392.462 36.104C392.71 36.584 392.834 37.172 392.834 37.868V38.204H387.686V37.28H391.802L391.646 37.448C391.646 37.112 391.578 36.808 391.442 36.536C391.306 36.264 391.114 36.048 390.866 35.888C390.618 35.728 390.322 35.648 389.978 35.648C389.634 35.648 389.318 35.728 389.03 35.888C388.75 36.048 388.522 36.296 388.346 36.632C388.178 36.96 388.094 37.376 388.094 37.88C388.094 38.336 388.166 38.732 388.31 39.068C388.462 39.396 388.678 39.652 388.958 39.836C389.238 40.02 389.574 40.112 389.966 40.112C390.39 40.112 390.734 40.02 390.998 39.836C391.262 39.652 391.474 39.376 391.634 39.008L392.678 39.368C392.478 39.928 392.154 40.364 391.706 40.676C391.258 40.988 390.678 41.144 389.966 41.144ZM396.254 41.024C395.718 41.024 395.31 40.888 395.03 40.616C394.758 40.336 394.622 39.956 394.622 39.476V33.056H395.75V39.368C395.75 39.784 395.97 39.992 396.41 39.992H397.382V41.024H396.254ZM393.458 35.744V34.76H397.262V35.744H393.458Z" fill="white"/>
<path fill-rule="evenodd" clip-rule="evenodd" d="M330 36.5001H309.707L312.036 34.1717C312.231 33.9764 312.231 33.6598 312.036 33.4646C311.84 33.2693 311.524 33.2693 311.328 33.4646L308.146 36.6465C307.951 36.8418 307.951 37.1584 308.146 37.3536L311.328 40.5356C311.524 40.7309 311.84 40.7309 312.036 40.5356C312.231 40.3404 312.231 40.0238 312.036 39.8285L309.707 37.5001H330V36.5001ZM402 37.5001H422.291L419.963 39.8285C419.767 40.0238 419.767 40.3404 419.963 40.5356C420.158 40.7309 420.474 40.7309 420.67 40.5356L423.852 37.3536C424.047 37.1584 424.047 36.8418 423.852 36.6465L420.67 33.4646C420.474 33.2693 420.158 33.2693 419.963 33.4646C419.767 33.6598 419.767 33.9764 419.963 34.1717L422.291 36.5001H402V37.5001Z" fill="#878787"/>
</svg>
