<svg width="731" height="176" viewBox="0 0 731 176" fill="none" xmlns="http://www.w3.org/2000/svg">
<path d="M145 0.5C149.694 0.5 153.5 4.30558 153.5 9V135.024C153.155 135.059 152.821 135.128 152.5 135.229V9C152.5 4.85786 149.142 1.5 145 1.5H9C4.85786 1.5 1.5 4.85786 1.5 9V167C1.5 171.142 4.85786 174.5 9 174.5H145C149.142 174.5 152.5 171.142 152.5 167V150.771C152.821 150.871 153.155 150.94 153.5 150.975V167C153.5 171.694 149.694 175.5 145 175.5H9C4.30558 175.5 0.5 171.694 0.5 167V9C0.5 4.30558 4.30558 0.5 9 0.5H145Z" fill="#969696" fill-opacity="0.9"/>
<path d="M41.3379 34V30.52L38.2179 25.36H39.9699L42.0579 28.948H42.1779L44.2899 25.36H45.9699L42.8499 30.52V34H41.3379ZM48.2401 34.144C47.6401 34.144 47.1041 34.012 46.6321 33.748C46.1601 33.484 45.7841 33.108 45.5041 32.62C45.2321 32.132 45.0961 31.552 45.0961 30.88C45.0961 30.208 45.2321 29.628 45.5041 29.14C45.7841 28.652 46.1601 28.276 46.6321 28.012C47.1041 27.748 47.6401 27.616 48.2401 27.616C48.8401 27.616 49.3761 27.748 49.8481 28.012C50.3201 28.276 50.6921 28.652 50.9641 29.14C51.2441 29.628 51.3841 30.208 51.3841 30.88C51.3841 31.552 51.2441 32.132 50.9641 32.62C50.6921 33.108 50.3201 33.484 49.8481 33.748C49.3761 34.012 48.8401 34.144 48.2401 34.144ZM48.2401 32.8C48.7601 32.8 49.1601 32.628 49.4401 32.284C49.7281 31.94 49.8721 31.472 49.8721 30.88C49.8721 30.288 49.7281 29.82 49.4401 29.476C49.1601 29.132 48.7601 28.96 48.2401 28.96C47.7201 28.96 47.3161 29.132 47.0281 29.476C46.7481 29.82 46.6081 30.288 46.6081 30.88C46.6081 31.472 46.7481 31.94 47.0281 32.284C47.3161 32.628 47.7201 32.8 48.2401 32.8ZM58.0363 27.76V34H56.6323V33.136H56.5603C56.3603 33.448 56.1123 33.696 55.8163 33.88C55.5203 34.056 55.1723 34.144 54.7723 34.144C54.3483 34.144 53.9763 34.056 53.6563 33.88C53.3363 33.696 53.0883 33.428 52.9123 33.076C52.7363 32.724 52.6483 32.3 52.6483 31.804V27.76H54.0883V31.54C54.0883 31.964 54.1843 32.28 54.3763 32.488C54.5683 32.688 54.8323 32.788 55.1683 32.788C55.4483 32.788 55.6923 32.72 55.9003 32.584C56.1163 32.44 56.2843 32.232 56.4043 31.96C56.5323 31.68 56.5963 31.344 56.5963 30.952V27.76H58.0363ZM59.6695 34V27.76H61.0735V28.864H61.1455C61.3135 28.496 61.5615 28.196 61.8895 27.964C62.2175 27.732 62.6215 27.616 63.1015 27.616H63.5095V29.08H62.9815C62.3975 29.08 61.9375 29.248 61.6015 29.584C61.2735 29.92 61.1095 30.444 61.1095 31.156V34H59.6695ZM68.672 34L66.8 27.76H68.348L69.584 32.116H69.68L70.928 27.76H72.68L73.94 32.116H74.036L75.272 27.76H76.724L74.888 34H73.1L71.864 29.764H71.732L70.496 34H68.672ZM80.3475 34.144C79.7555 34.144 79.2275 34.012 78.7635 33.748C78.2995 33.484 77.9355 33.108 77.6715 32.62C77.4155 32.124 77.2875 31.544 77.2875 30.88C77.2875 30.256 77.4195 29.7 77.6835 29.212C77.9475 28.716 78.3115 28.328 78.7755 28.048C79.2395 27.76 79.7675 27.616 80.3595 27.616C80.9435 27.616 81.4515 27.744 81.8835 28C82.3235 28.256 82.6635 28.64 82.9035 29.152C83.1435 29.664 83.2635 30.304 83.2635 31.072V31.36H78.1275V30.304H82.0275L81.7515 30.52C81.7515 30.224 81.6995 29.956 81.5955 29.716C81.4915 29.476 81.3355 29.284 81.1275 29.14C80.9195 28.988 80.6595 28.912 80.3475 28.912C80.0435 28.912 79.7715 28.984 79.5315 29.128C79.2915 29.272 79.1035 29.488 78.9675 29.776C78.8315 30.064 78.7635 30.432 78.7635 30.88C78.7635 31.312 78.8275 31.676 78.9555 31.972C79.0835 32.26 79.2675 32.48 79.5075 32.632C79.7475 32.776 80.0275 32.848 80.3475 32.848C80.7155 32.848 80.9995 32.772 81.1995 32.62C81.4075 32.46 81.5795 32.244 81.7155 31.972L83.0475 32.488C82.8475 32.976 82.5395 33.376 82.1235 33.688C81.7155 33.992 81.1235 34.144 80.3475 34.144ZM88.0039 34.144C87.5559 34.144 87.1719 34.06 86.8519 33.892C86.5319 33.716 86.2639 33.464 86.0479 33.136H85.9759V34H84.5719V25.36H86.0119V28.624H86.0839C86.2999 28.32 86.5599 28.076 86.8639 27.892C87.1679 27.708 87.5479 27.616 88.0039 27.616C88.5159 27.616 88.9759 27.748 89.3839 28.012C89.7999 28.276 90.1279 28.652 90.3679 29.14C90.6159 29.628 90.7399 30.208 90.7399 30.88C90.7399 31.552 90.6159 32.132 90.3679 32.62C90.1279 33.108 89.7999 33.484 89.3839 33.748C88.9759 34.012 88.5159 34.144 88.0039 34.144ZM87.6199 32.824C88.0999 32.824 88.4919 32.652 88.7959 32.308C89.0999 31.956 89.2519 31.48 89.2519 30.88C89.2519 30.28 89.0999 29.808 88.7959 29.464C88.4919 29.112 88.0999 28.936 87.6199 28.936C87.1079 28.936 86.7039 29.108 86.4079 29.452C86.1119 29.788 85.9639 30.264 85.9639 30.88C85.9639 31.488 86.1119 31.964 86.4079 32.308C86.7039 32.652 87.1079 32.824 87.6199 32.824ZM96.8239 34.144C96.1919 34.144 95.6879 33.976 95.3119 33.64C94.9439 33.296 94.7599 32.844 94.7599 32.284C94.7599 31.732 94.9439 31.288 95.3119 30.952C95.6799 30.608 96.2039 30.408 96.8839 30.352L99.1159 30.148V31.156L97.1239 31.372C96.8119 31.404 96.5799 31.492 96.4279 31.636C96.2759 31.772 96.1999 31.956 96.1999 32.188C96.1999 32.412 96.2799 32.596 96.4399 32.74C96.6079 32.884 96.8399 32.956 97.1359 32.956C97.4399 32.956 97.7079 32.88 97.9399 32.728C98.1799 32.568 98.3639 32.324 98.4919 31.996C98.6279 31.66 98.6959 31.232 98.6959 30.712V29.956C98.6959 29.652 98.6039 29.4 98.4199 29.2C98.2439 29 97.9519 28.9 97.5439 28.9C97.1359 28.9 96.8399 28.984 96.6559 29.152C96.4719 29.32 96.3639 29.512 96.3319 29.728H94.9039C94.9279 29.32 95.0479 28.96 95.2639 28.648C95.4799 28.328 95.7839 28.076 96.1759 27.892C96.5679 27.708 97.0359 27.616 97.5799 27.616C98.3879 27.616 99.0159 27.832 99.4639 28.264C99.9119 28.688 100.136 29.236 100.136 29.908V32.632L100.172 34H98.8159L98.7799 33.16H98.6839C98.4599 33.496 98.1919 33.744 97.8799 33.904C97.5759 34.064 97.2239 34.144 96.8239 34.144ZM105.078 27.616C105.59 27.616 106.05 27.748 106.458 28.012C106.874 28.276 107.202 28.652 107.442 29.14C107.69 29.628 107.814 30.208 107.814 30.88C107.814 31.552 107.69 32.132 107.442 32.62C107.202 33.108 106.874 33.484 106.458 33.748C106.05 34.012 105.59 34.144 105.078 34.144C104.622 34.144 104.242 34.052 103.938 33.868C103.634 33.684 103.374 33.44 103.158 33.136H103.086V36.4H101.646V27.76H103.05V28.624H103.122C103.338 28.296 103.606 28.048 103.926 27.88C104.246 27.704 104.63 27.616 105.078 27.616ZM104.694 28.936C104.182 28.936 103.778 29.108 103.482 29.452C103.186 29.796 103.038 30.272 103.038 30.88C103.038 31.488 103.186 31.964 103.482 32.308C103.778 32.652 104.182 32.824 104.694 32.824C105.174 32.824 105.566 32.652 105.87 32.308C106.174 31.956 106.326 31.48 106.326 30.88C106.326 30.28 106.174 29.808 105.87 29.464C105.566 29.112 105.174 28.936 104.694 28.936ZM112.578 27.616C113.09 27.616 113.55 27.748 113.958 28.012C114.374 28.276 114.702 28.652 114.942 29.14C115.19 29.628 115.314 30.208 115.314 30.88C115.314 31.552 115.19 32.132 114.942 32.62C114.702 33.108 114.374 33.484 113.958 33.748C113.55 34.012 113.09 34.144 112.578 34.144C112.122 34.144 111.742 34.052 111.438 33.868C111.134 33.684 110.874 33.44 110.658 33.136H110.586V36.4H109.146V27.76H110.55V28.624H110.622C110.838 28.296 111.106 28.048 111.426 27.88C111.746 27.704 112.13 27.616 112.578 27.616ZM112.194 28.936C111.682 28.936 111.278 29.108 110.982 29.452C110.686 29.796 110.538 30.272 110.538 30.88C110.538 31.488 110.686 31.964 110.982 32.308C111.278 32.652 111.682 32.824 112.194 32.824C112.674 32.824 113.066 32.652 113.37 32.308C113.674 31.956 113.826 31.48 113.826 30.88C113.826 30.28 113.674 29.808 113.37 29.464C113.066 29.112 112.674 28.936 112.194 28.936Z" fill="white"/>
<rect x="292" y="1" width="152" height="174" rx="8" stroke="#969696" stroke-opacity="0.9"/>
<path d="M336.555 34V32.776L340.215 29.044V28.96H336.759V27.76H342.171V29.08L338.571 32.716V32.8H342.339V34H336.555ZM346.275 34.144C345.683 34.144 345.155 34.012 344.691 33.748C344.227 33.484 343.863 33.108 343.599 32.62C343.343 32.124 343.215 31.544 343.215 30.88C343.215 30.256 343.347 29.7 343.611 29.212C343.875 28.716 344.239 28.328 344.703 28.048C345.167 27.76 345.695 27.616 346.287 27.616C346.871 27.616 347.379 27.744 347.811 28C348.251 28.256 348.591 28.64 348.831 29.152C349.071 29.664 349.191 30.304 349.191 31.072V31.36H344.055V30.304H347.955L347.679 30.52C347.679 30.224 347.627 29.956 347.523 29.716C347.419 29.476 347.263 29.284 347.055 29.14C346.847 28.988 346.587 28.912 346.275 28.912C345.971 28.912 345.699 28.984 345.459 29.128C345.219 29.272 345.031 29.488 344.895 29.776C344.759 30.064 344.691 30.432 344.691 30.88C344.691 31.312 344.755 31.676 344.883 31.972C345.011 32.26 345.195 32.48 345.435 32.632C345.675 32.776 345.955 32.848 346.275 32.848C346.643 32.848 346.927 32.772 347.127 32.62C347.335 32.46 347.507 32.244 347.643 31.972L348.975 32.488C348.775 32.976 348.467 33.376 348.051 33.688C347.643 33.992 347.051 34.144 346.275 34.144ZM350.5 34V27.76H351.904V28.864H351.976C352.144 28.496 352.392 28.196 352.72 27.964C353.048 27.732 353.452 27.616 353.932 27.616H354.34V29.08H353.812C353.228 29.08 352.768 29.248 352.432 29.584C352.104 29.92 351.94 30.444 351.94 31.156V34H350.5ZM358.125 34.144C357.525 34.144 356.989 34.012 356.517 33.748C356.045 33.484 355.669 33.108 355.389 32.62C355.117 32.132 354.981 31.552 354.981 30.88C354.981 30.208 355.117 29.628 355.389 29.14C355.669 28.652 356.045 28.276 356.517 28.012C356.989 27.748 357.525 27.616 358.125 27.616C358.725 27.616 359.261 27.748 359.733 28.012C360.205 28.276 360.577 28.652 360.849 29.14C361.129 29.628 361.269 30.208 361.269 30.88C361.269 31.552 361.129 32.132 360.849 32.62C360.577 33.108 360.205 33.484 359.733 33.748C359.261 34.012 358.725 34.144 358.125 34.144ZM358.125 32.8C358.645 32.8 359.045 32.628 359.325 32.284C359.613 31.94 359.757 31.472 359.757 30.88C359.757 30.288 359.613 29.82 359.325 29.476C359.045 29.132 358.645 28.96 358.125 28.96C357.605 28.96 357.201 29.132 356.913 29.476C356.633 29.82 356.493 30.288 356.493 30.88C356.493 31.472 356.633 31.94 356.913 32.284C357.201 32.628 357.605 32.8 358.125 32.8ZM362.261 31.48V30.28H365.021V31.48H362.261ZM369.176 34.144C368.576 34.144 368.036 34.012 367.556 33.748C367.084 33.484 366.708 33.108 366.428 32.62C366.148 32.132 366.008 31.552 366.008 30.88C366.008 30.208 366.148 29.628 366.428 29.14C366.708 28.652 367.084 28.276 367.556 28.012C368.036 27.748 368.576 27.616 369.176 27.616C369.952 27.616 370.592 27.82 371.096 28.228C371.608 28.628 371.928 29.168 372.056 29.848L370.628 30.16C370.548 29.816 370.384 29.532 370.136 29.308C369.896 29.076 369.576 28.96 369.176 28.96C368.832 28.96 368.536 29.04 368.288 29.2C368.04 29.352 367.848 29.572 367.712 29.86C367.584 30.14 367.52 30.48 367.52 30.88C367.52 31.272 367.584 31.612 367.712 31.9C367.848 32.188 368.04 32.412 368.288 32.572C368.536 32.724 368.832 32.8 369.176 32.8C369.56 32.8 369.872 32.7 370.112 32.5C370.36 32.292 370.536 31.984 370.64 31.576L372.044 32.008C371.956 32.416 371.788 32.78 371.54 33.1C371.3 33.42 370.984 33.676 370.592 33.868C370.2 34.052 369.728 34.144 369.176 34.144ZM374.963 34.144C374.331 34.144 373.827 33.976 373.451 33.64C373.083 33.296 372.899 32.844 372.899 32.284C372.899 31.732 373.083 31.288 373.451 30.952C373.819 30.608 374.343 30.408 375.023 30.352L377.255 30.148V31.156L375.263 31.372C374.951 31.404 374.719 31.492 374.567 31.636C374.415 31.772 374.339 31.956 374.339 32.188C374.339 32.412 374.419 32.596 374.579 32.74C374.747 32.884 374.979 32.956 375.275 32.956C375.579 32.956 375.847 32.88 376.079 32.728C376.319 32.568 376.503 32.324 376.631 31.996C376.767 31.66 376.835 31.232 376.835 30.712V29.956C376.835 29.652 376.743 29.4 376.559 29.2C376.383 29 376.091 28.9 375.683 28.9C375.275 28.9 374.979 28.984 374.795 29.152C374.611 29.32 374.503 29.512 374.471 29.728H373.043C373.067 29.32 373.187 28.96 373.403 28.648C373.619 28.328 373.923 28.076 374.315 27.892C374.707 27.708 375.175 27.616 375.719 27.616C376.527 27.616 377.155 27.832 377.603 28.264C378.051 28.688 378.275 29.236 378.275 29.908V32.632L378.311 34H376.955L376.919 33.16H376.823C376.599 33.496 376.331 33.744 376.019 33.904C375.715 34.064 375.363 34.144 374.963 34.144ZM382.653 34.144C382.053 34.144 381.513 34.012 381.033 33.748C380.561 33.484 380.185 33.108 379.905 32.62C379.625 32.132 379.485 31.552 379.485 30.88C379.485 30.208 379.625 29.628 379.905 29.14C380.185 28.652 380.561 28.276 381.033 28.012C381.513 27.748 382.053 27.616 382.653 27.616C383.429 27.616 384.069 27.82 384.573 28.228C385.085 28.628 385.405 29.168 385.533 29.848L384.105 30.16C384.025 29.816 383.861 29.532 383.613 29.308C383.373 29.076 383.053 28.96 382.653 28.96C382.309 28.96 382.013 29.04 381.765 29.2C381.517 29.352 381.325 29.572 381.189 29.86C381.061 30.14 380.997 30.48 380.997 30.88C380.997 31.272 381.061 31.612 381.189 31.9C381.325 32.188 381.517 32.412 381.765 32.572C382.013 32.724 382.309 32.8 382.653 32.8C383.037 32.8 383.349 32.7 383.589 32.5C383.837 32.292 384.013 31.984 384.117 31.576L385.521 32.008C385.433 32.416 385.265 32.78 385.017 33.1C384.777 33.42 384.461 33.676 384.069 33.868C383.677 34.052 383.205 34.144 382.653 34.144ZM386.687 34V25.36H388.127V28.6H388.199C388.383 28.296 388.623 28.056 388.919 27.88C389.215 27.704 389.559 27.616 389.951 27.616C390.367 27.616 390.735 27.708 391.055 27.892C391.375 28.068 391.623 28.332 391.799 28.684C391.983 29.028 392.075 29.452 392.075 29.956V34H390.635V30.22C390.635 29.796 390.535 29.484 390.335 29.284C390.135 29.076 389.867 28.972 389.531 28.972C389.267 28.972 389.027 29.044 388.811 29.188C388.603 29.324 388.435 29.528 388.307 29.8C388.187 30.072 388.127 30.408 388.127 30.808V34H386.687ZM396.396 34.144C395.804 34.144 395.276 34.012 394.812 33.748C394.348 33.484 393.984 33.108 393.72 32.62C393.464 32.124 393.336 31.544 393.336 30.88C393.336 30.256 393.468 29.7 393.732 29.212C393.996 28.716 394.36 28.328 394.824 28.048C395.288 27.76 395.816 27.616 396.408 27.616C396.992 27.616 397.5 27.744 397.932 28C398.372 28.256 398.712 28.64 398.952 29.152C399.192 29.664 399.312 30.304 399.312 31.072V31.36H394.176V30.304H398.076L397.8 30.52C397.8 30.224 397.748 29.956 397.644 29.716C397.54 29.476 397.384 29.284 397.176 29.14C396.968 28.988 396.708 28.912 396.396 28.912C396.092 28.912 395.82 28.984 395.58 29.128C395.34 29.272 395.152 29.488 395.016 29.776C394.88 30.064 394.812 30.432 394.812 30.88C394.812 31.312 394.876 31.676 395.004 31.972C395.132 32.26 395.316 32.48 395.556 32.632C395.796 32.776 396.076 32.848 396.396 32.848C396.764 32.848 397.048 32.772 397.248 32.62C397.456 32.46 397.628 32.244 397.764 31.972L399.096 32.488C398.896 32.976 398.588 33.376 398.172 33.688C397.764 33.992 397.172 34.144 396.396 34.144Z" fill="white"/>
<rect x="9" y="118" width="136" height="49" rx="6" fill="#1E1E1E"/>
<path d="M47.4967 147V145.776L51.1567 142.044V141.96H47.7007V140.76H53.1127V142.08L49.5127 145.716V145.8H53.2807V147H47.4967ZM57.2166 147.144C56.6246 147.144 56.0966 147.012 55.6326 146.748C55.1686 146.484 54.8046 146.108 54.5406 145.62C54.2846 145.124 54.1566 144.544 54.1566 143.88C54.1566 143.256 54.2886 142.7 54.5526 142.212C54.8166 141.716 55.1806 141.328 55.6446 141.048C56.1086 140.76 56.6366 140.616 57.2286 140.616C57.8126 140.616 58.3206 140.744 58.7526 141C59.1926 141.256 59.5326 141.64 59.7726 142.152C60.0126 142.664 60.1326 143.304 60.1326 144.072V144.36H54.9966V143.304H58.8966L58.6206 143.52C58.6206 143.224 58.5686 142.956 58.4646 142.716C58.3606 142.476 58.2046 142.284 57.9966 142.14C57.7886 141.988 57.5286 141.912 57.2166 141.912C56.9126 141.912 56.6406 141.984 56.4006 142.128C56.1606 142.272 55.9726 142.488 55.8366 142.776C55.7006 143.064 55.6326 143.432 55.6326 143.88C55.6326 144.312 55.6966 144.676 55.8246 144.972C55.9526 145.26 56.1366 145.48 56.3766 145.632C56.6166 145.776 56.8966 145.848 57.2166 145.848C57.5846 145.848 57.8686 145.772 58.0686 145.62C58.2766 145.46 58.4486 145.244 58.5846 144.972L59.9166 145.488C59.7166 145.976 59.4086 146.376 58.9926 146.688C58.5846 146.992 57.9926 147.144 57.2166 147.144ZM61.441 147V140.76H62.845V141.864H62.917C63.085 141.496 63.333 141.196 63.661 140.964C63.989 140.732 64.393 140.616 64.873 140.616H65.281V142.08H64.753C64.169 142.08 63.709 142.248 63.373 142.584C63.045 142.92 62.881 143.444 62.881 144.156V147H61.441ZM69.0663 147.144C68.4663 147.144 67.9303 147.012 67.4583 146.748C66.9863 146.484 66.6103 146.108 66.3303 145.62C66.0583 145.132 65.9223 144.552 65.9223 143.88C65.9223 143.208 66.0583 142.628 66.3303 142.14C66.6103 141.652 66.9863 141.276 67.4583 141.012C67.9303 140.748 68.4663 140.616 69.0663 140.616C69.6663 140.616 70.2023 140.748 70.6743 141.012C71.1463 141.276 71.5183 141.652 71.7903 142.14C72.0703 142.628 72.2103 143.208 72.2103 143.88C72.2103 144.552 72.0703 145.132 71.7903 145.62C71.5183 146.108 71.1463 146.484 70.6743 146.748C70.2023 147.012 69.6663 147.144 69.0663 147.144ZM69.0663 145.8C69.5863 145.8 69.9863 145.628 70.2663 145.284C70.5543 144.94 70.6983 144.472 70.6983 143.88C70.6983 143.288 70.5543 142.82 70.2663 142.476C69.9863 142.132 69.5863 141.96 69.0663 141.96C68.5463 141.96 68.1423 142.132 67.8543 142.476C67.5743 142.82 67.4343 143.288 67.4343 143.88C67.4343 144.472 67.5743 144.94 67.8543 145.284C68.1423 145.628 68.5463 145.8 69.0663 145.8ZM73.202 144.48V143.28H75.962V144.48H73.202ZM80.1176 147.144C79.5176 147.144 78.9776 147.012 78.4976 146.748C78.0256 146.484 77.6496 146.108 77.3696 145.62C77.0896 145.132 76.9496 144.552 76.9496 143.88C76.9496 143.208 77.0896 142.628 77.3696 142.14C77.6496 141.652 78.0256 141.276 78.4976 141.012C78.9776 140.748 79.5176 140.616 80.1176 140.616C80.8936 140.616 81.5336 140.82 82.0376 141.228C82.5496 141.628 82.8696 142.168 82.9976 142.848L81.5696 143.16C81.4896 142.816 81.3256 142.532 81.0776 142.308C80.8376 142.076 80.5176 141.96 80.1176 141.96C79.7736 141.96 79.4776 142.04 79.2296 142.2C78.9816 142.352 78.7896 142.572 78.6536 142.86C78.5256 143.14 78.4616 143.48 78.4616 143.88C78.4616 144.272 78.5256 144.612 78.6536 144.9C78.7896 145.188 78.9816 145.412 79.2296 145.572C79.4776 145.724 79.7736 145.8 80.1176 145.8C80.5016 145.8 80.8136 145.7 81.0536 145.5C81.3016 145.292 81.4776 144.984 81.5816 144.576L82.9856 145.008C82.8976 145.416 82.7296 145.78 82.4816 146.1C82.2416 146.42 81.9256 146.676 81.5336 146.868C81.1416 147.052 80.6696 147.144 80.1176 147.144ZM84.1519 147V138.36H85.5919V147H84.1519ZM87.2223 147V140.76H88.6623V147H87.2223ZM87.0663 139.08C87.0663 138.824 87.1463 138.616 87.3063 138.456C87.4743 138.296 87.6863 138.216 87.9423 138.216C88.1983 138.216 88.4063 138.296 88.5663 138.456C88.7343 138.616 88.8183 138.824 88.8183 139.08C88.8183 139.32 88.7343 139.524 88.5663 139.692C88.4063 139.852 88.1983 139.932 87.9423 139.932C87.6863 139.932 87.4743 139.852 87.3063 139.692C87.1463 139.524 87.0663 139.32 87.0663 139.08ZM93.0526 147.144C92.4606 147.144 91.9326 147.012 91.4686 146.748C91.0046 146.484 90.6406 146.108 90.3766 145.62C90.1206 145.124 89.9926 144.544 89.9926 143.88C89.9926 143.256 90.1246 142.7 90.3886 142.212C90.6526 141.716 91.0166 141.328 91.4806 141.048C91.9446 140.76 92.4726 140.616 93.0646 140.616C93.6486 140.616 94.1566 140.744 94.5886 141C95.0286 141.256 95.3686 141.64 95.6086 142.152C95.8486 142.664 95.9686 143.304 95.9686 144.072V144.36H90.8326V143.304H94.7326L94.4566 143.52C94.4566 143.224 94.4046 142.956 94.3006 142.716C94.1966 142.476 94.0406 142.284 93.8326 142.14C93.6246 141.988 93.3646 141.912 93.0526 141.912C92.7486 141.912 92.4766 141.984 92.2366 142.128C91.9966 142.272 91.8086 142.488 91.6726 142.776C91.5366 143.064 91.4686 143.432 91.4686 143.88C91.4686 144.312 91.5326 144.676 91.6606 144.972C91.7886 145.26 91.9726 145.48 92.2126 145.632C92.4526 145.776 92.7326 145.848 93.0526 145.848C93.4206 145.848 93.7046 145.772 93.9046 145.62C94.1126 145.46 94.2846 145.244 94.4206 144.972L95.7526 145.488C95.5526 145.976 95.2446 146.376 94.8286 146.688C94.4206 146.992 93.8286 147.144 93.0526 147.144ZM97.2769 147V140.76H98.6809V141.624H98.7529C98.9529 141.312 99.2009 141.068 99.4969 140.892C99.8009 140.708 100.149 140.616 100.541 140.616C100.965 140.616 101.337 140.708 101.657 140.892C101.977 141.068 102.225 141.332 102.401 141.684C102.577 142.028 102.665 142.452 102.665 142.956V147H101.225V143.22C101.225 142.796 101.129 142.484 100.937 142.284C100.745 142.076 100.481 141.972 100.145 141.972C99.8729 141.972 99.6289 142.044 99.4129 142.188C99.1969 142.324 99.0249 142.528 98.8969 142.8C98.7769 143.072 98.7169 143.408 98.7169 143.808V147H97.2769ZM106.398 147.024C105.798 147.024 105.346 146.868 105.042 146.556C104.746 146.236 104.598 145.788 104.598 145.212V139.056H106.038V145.116C106.038 145.492 106.23 145.68 106.614 145.68H107.61V147.024H106.398ZM103.494 141.96V140.76H107.49V141.96H103.494Z" fill="white"/>
<rect x="595" y="110" width="136" height="65.0498" rx="6" fill="#1E1E1E"/>
<path d="M625.274 139V130.36H629.21C629.786 130.36 630.286 130.472 630.71 130.696C631.142 130.912 631.478 131.216 631.718 131.608C631.958 132 632.078 132.456 632.078 132.976C632.078 133.496 631.958 133.956 631.718 134.356C631.478 134.748 631.138 135.056 630.698 135.28C630.258 135.496 629.742 135.604 629.15 135.604H626.33V134.248H629.09C629.53 134.248 629.878 134.14 630.134 133.924C630.39 133.7 630.518 133.384 630.518 132.976C630.518 132.56 630.394 132.244 630.146 132.028C629.898 131.812 629.562 131.704 629.138 131.704H626.33L626.786 131.38V139H625.274ZM636.098 139.144C635.498 139.144 634.962 139.012 634.49 138.748C634.018 138.484 633.642 138.108 633.362 137.62C633.09 137.132 632.954 136.552 632.954 135.88C632.954 135.208 633.09 134.628 633.362 134.14C633.642 133.652 634.018 133.276 634.49 133.012C634.962 132.748 635.498 132.616 636.098 132.616C636.698 132.616 637.234 132.748 637.706 133.012C638.178 133.276 638.55 133.652 638.822 134.14C639.102 134.628 639.242 135.208 639.242 135.88C639.242 136.552 639.102 137.132 638.822 137.62C638.55 138.108 638.178 138.484 637.706 138.748C637.234 139.012 636.698 139.144 636.098 139.144ZM636.098 137.8C636.618 137.8 637.018 137.628 637.298 137.284C637.586 136.94 637.73 136.472 637.73 135.88C637.73 135.288 637.586 134.82 637.298 134.476C637.018 134.132 636.618 133.96 636.098 133.96C635.578 133.96 635.174 134.132 634.886 134.476C634.606 134.82 634.466 135.288 634.466 135.88C634.466 136.472 634.606 136.94 634.886 137.284C635.174 137.628 635.578 137.8 636.098 137.8ZM642.93 139.144C642.186 139.144 641.578 139.008 641.106 138.736C640.642 138.464 640.294 138.076 640.062 137.572L641.394 136.96C641.53 137.256 641.73 137.48 641.994 137.632C642.266 137.784 642.578 137.86 642.93 137.86C643.282 137.86 643.558 137.8 643.758 137.68C643.958 137.56 644.058 137.4 644.058 137.2C644.058 137.016 643.998 136.872 643.878 136.768C643.758 136.656 643.57 136.588 643.314 136.564L642.15 136.444C641.542 136.38 641.058 136.196 640.698 135.892C640.338 135.588 640.158 135.152 640.158 134.584C640.158 134.216 640.254 133.884 640.446 133.588C640.646 133.292 640.926 133.056 641.286 132.88C641.646 132.704 642.07 132.616 642.558 132.616C643.222 132.616 643.766 132.744 644.19 133C644.614 133.256 644.938 133.596 645.162 134.02L643.866 134.644C643.73 134.388 643.546 134.2 643.314 134.08C643.09 133.96 642.838 133.9 642.558 133.9C642.214 133.9 641.966 133.96 641.814 134.08C641.662 134.2 641.586 134.352 641.586 134.536C641.586 134.696 641.642 134.832 641.754 134.944C641.866 135.048 642.034 135.112 642.258 135.136L643.47 135.256C644.134 135.32 644.634 135.516 644.97 135.844C645.314 136.172 645.486 136.62 645.486 137.188C645.486 137.588 645.382 137.936 645.174 138.232C644.974 138.528 644.682 138.756 644.298 138.916C643.922 139.068 643.466 139.144 642.93 139.144ZM648.785 139.024C648.185 139.024 647.733 138.868 647.429 138.556C647.133 138.236 646.985 137.788 646.985 137.212V131.056H648.425V137.116C648.425 137.492 648.617 137.68 649.001 137.68H649.997V139.024H648.785ZM645.881 133.96V132.76H649.877V133.96H645.881ZM653.838 141.544C653.286 141.544 652.806 141.468 652.398 141.316C651.998 141.164 651.67 140.948 651.414 140.668C651.158 140.396 650.97 140.08 650.85 139.72L652.266 139.3C652.378 139.596 652.554 139.824 652.794 139.984C653.042 140.144 653.39 140.224 653.838 140.224C654.358 140.224 654.746 140.088 655.002 139.816C655.266 139.544 655.398 139.192 655.398 138.76V137.944H655.326C655.134 138.24 654.878 138.476 654.558 138.652C654.246 138.82 653.874 138.904 653.442 138.904C652.946 138.904 652.494 138.776 652.086 138.52C651.686 138.256 651.366 137.888 651.126 137.416C650.886 136.944 650.766 136.392 650.766 135.76C650.766 135.12 650.886 134.568 651.126 134.104C651.366 133.632 651.686 133.268 652.086 133.012C652.494 132.748 652.946 132.616 653.442 132.616C653.866 132.616 654.234 132.7 654.546 132.868C654.866 133.036 655.138 133.284 655.362 133.612H655.434V132.76H656.838V138.82C656.838 139.372 656.718 139.852 656.478 140.26C656.246 140.668 655.906 140.984 655.458 141.208C655.01 141.432 654.47 141.544 653.838 141.544ZM653.85 137.56C654.338 137.56 654.726 137.404 655.014 137.092C655.302 136.78 655.446 136.336 655.446 135.76C655.446 135.192 655.302 134.752 655.014 134.44C654.726 134.12 654.338 133.96 653.85 133.96C653.37 133.96 652.982 134.12 652.686 134.44C652.398 134.752 652.254 135.192 652.254 135.76C652.254 136.32 652.398 136.76 652.686 137.08C652.982 137.4 653.37 137.56 653.85 137.56ZM658.472 139V132.76H659.876V133.864H659.948C660.116 133.496 660.364 133.196 660.692 132.964C661.02 132.732 661.424 132.616 661.904 132.616H662.312V134.08H661.784C661.2 134.08 660.74 134.248 660.404 134.584C660.076 134.92 659.912 135.444 659.912 136.156V139H658.472ZM666.014 139.144C665.422 139.144 664.894 139.012 664.43 138.748C663.966 138.484 663.602 138.108 663.338 137.62C663.082 137.124 662.954 136.544 662.954 135.88C662.954 135.256 663.086 134.7 663.35 134.212C663.614 133.716 663.978 133.328 664.442 133.048C664.906 132.76 665.434 132.616 666.026 132.616C666.61 132.616 667.118 132.744 667.55 133C667.99 133.256 668.33 133.64 668.57 134.152C668.81 134.664 668.93 135.304 668.93 136.072V136.36H663.794V135.304H667.694L667.418 135.52C667.418 135.224 667.366 134.956 667.262 134.716C667.158 134.476 667.002 134.284 666.794 134.14C666.586 133.988 666.326 133.912 666.014 133.912C665.71 133.912 665.438 133.984 665.198 134.128C664.958 134.272 664.77 134.488 664.634 134.776C664.498 135.064 664.43 135.432 664.43 135.88C664.43 136.312 664.494 136.676 664.622 136.972C664.75 137.26 664.934 137.48 665.174 137.632C665.414 137.776 665.694 137.848 666.014 137.848C666.382 137.848 666.666 137.772 666.866 137.62C667.074 137.46 667.246 137.244 667.382 136.972L668.714 137.488C668.514 137.976 668.206 138.376 667.79 138.688C667.382 138.992 666.79 139.144 666.014 139.144ZM673.586 139.144C672.618 139.144 671.838 138.956 671.246 138.58C670.654 138.196 670.218 137.636 669.938 136.9L671.498 136.36C671.65 136.792 671.902 137.128 672.254 137.368C672.606 137.608 673.05 137.728 673.586 137.728C674.218 137.728 674.686 137.624 674.99 137.416C675.294 137.208 675.446 136.936 675.446 136.6C675.446 136.256 675.346 135.996 675.146 135.82C674.946 135.636 674.658 135.524 674.282 135.484L672.578 135.304C671.834 135.224 671.234 134.972 670.778 134.548C670.322 134.124 670.094 133.54 670.094 132.796C670.094 132.324 670.226 131.892 670.49 131.5C670.754 131.108 671.122 130.796 671.594 130.564C672.074 130.332 672.626 130.216 673.25 130.216C674.138 130.216 674.866 130.412 675.434 130.804C676.01 131.188 676.41 131.708 676.634 132.364L675.158 132.88C675.006 132.48 674.77 132.172 674.45 131.956C674.13 131.74 673.73 131.632 673.25 131.632C672.73 131.632 672.334 131.74 672.062 131.956C671.79 132.172 671.654 132.44 671.654 132.76C671.654 133.032 671.746 133.264 671.93 133.456C672.114 133.64 672.41 133.752 672.818 133.792L674.354 133.96C675.21 134.056 675.862 134.328 676.31 134.776C676.766 135.224 676.994 135.832 676.994 136.6C676.994 137.12 676.858 137.572 676.586 137.956C676.322 138.332 675.934 138.624 675.422 138.832C674.918 139.04 674.306 139.144 673.586 139.144ZM685.488 139.42L682.176 135.544L683.232 134.644L686.556 138.532L685.488 139.42ZM682.416 139.144C681.576 139.144 680.824 138.964 680.16 138.604C679.496 138.244 678.972 137.732 678.588 137.068C678.212 136.396 678.024 135.6 678.024 134.68C678.024 133.992 678.132 133.376 678.348 132.832C678.572 132.28 678.88 131.812 679.272 131.428C679.664 131.036 680.128 130.736 680.664 130.528C681.2 130.32 681.784 130.216 682.416 130.216C683.056 130.216 683.64 130.32 684.168 130.528C684.704 130.736 685.168 131.036 685.56 131.428C685.96 131.812 686.268 132.28 686.484 132.832C686.7 133.376 686.808 133.992 686.808 134.68C686.808 135.368 686.7 135.988 686.484 136.54C686.268 137.092 685.96 137.564 685.56 137.956C685.168 138.34 684.704 138.636 684.168 138.844C683.64 139.044 683.056 139.144 682.416 139.144ZM682.416 137.74C683.016 137.74 683.524 137.612 683.94 137.356C684.356 137.092 684.672 136.732 684.888 136.276C685.112 135.812 685.224 135.28 685.224 134.68C685.224 134.072 685.112 133.54 684.888 133.084C684.672 132.628 684.356 132.272 683.94 132.016C683.524 131.752 683.016 131.62 682.416 131.62C681.824 131.62 681.316 131.752 680.892 132.016C680.476 132.272 680.156 132.628 679.932 133.084C679.716 133.54 679.608 134.072 679.608 134.68C679.608 135.28 679.716 135.812 679.932 136.276C680.156 136.732 680.476 137.092 680.892 137.356C681.316 137.612 681.824 137.74 682.416 137.74ZM688.204 139V130.36H689.716V138.256L689.068 137.608H693.868V139H688.204ZM697.28 139L700.04 130.36H701.492L698.744 139H697.28ZM628.292 156V147.36H630.872L632.912 154.272H633.056L635.084 147.36H637.676V156H636.164V149.064H635.996L633.98 156H631.928L629.912 149.064H629.732V156H628.292ZM640.073 158.4L641.201 155.772V156.348L638.585 149.76H640.205L641.789 154.176H641.885L643.577 149.76H645.137L641.597 158.4H640.073ZM649.346 156.144C648.378 156.144 647.598 155.956 647.006 155.58C646.414 155.196 645.978 154.636 645.698 153.9L647.258 153.36C647.41 153.792 647.662 154.128 648.014 154.368C648.366 154.608 648.81 154.728 649.346 154.728C649.978 154.728 650.446 154.624 650.75 154.416C651.054 154.208 651.206 153.936 651.206 153.6C651.206 153.256 651.106 152.996 650.906 152.82C650.706 152.636 650.418 152.524 650.042 152.484L648.338 152.304C647.594 152.224 646.994 151.972 646.538 151.548C646.082 151.124 645.854 150.54 645.854 149.796C645.854 149.324 645.986 148.892 646.25 148.5C646.514 148.108 646.882 147.796 647.354 147.564C647.834 147.332 648.386 147.216 649.01 147.216C649.898 147.216 650.626 147.412 651.194 147.804C651.77 148.188 652.17 148.708 652.394 149.364L650.918 149.88C650.766 149.48 650.53 149.172 650.21 148.956C649.89 148.74 649.49 148.632 649.01 148.632C648.49 148.632 648.094 148.74 647.822 148.956C647.55 149.172 647.414 149.44 647.414 149.76C647.414 150.032 647.506 150.264 647.69 150.456C647.874 150.64 648.17 150.752 648.578 150.792L650.114 150.96C650.97 151.056 651.622 151.328 652.07 151.776C652.526 152.224 652.754 152.832 652.754 153.6C652.754 154.12 652.618 154.572 652.346 154.956C652.082 155.332 651.694 155.624 651.182 155.832C650.678 156.04 650.066 156.144 649.346 156.144ZM661.248 156.42L657.936 152.544L658.992 151.644L662.316 155.532L661.248 156.42ZM658.176 156.144C657.336 156.144 656.584 155.964 655.92 155.604C655.256 155.244 654.732 154.732 654.348 154.068C653.972 153.396 653.784 152.6 653.784 151.68C653.784 150.992 653.892 150.376 654.108 149.832C654.332 149.28 654.64 148.812 655.032 148.428C655.424 148.036 655.888 147.736 656.424 147.528C656.96 147.32 657.544 147.216 658.176 147.216C658.816 147.216 659.4 147.32 659.928 147.528C660.464 147.736 660.928 148.036 661.32 148.428C661.72 148.812 662.028 149.28 662.244 149.832C662.46 150.376 662.568 150.992 662.568 151.68C662.568 152.368 662.46 152.988 662.244 153.54C662.028 154.092 661.72 154.564 661.32 154.956C660.928 155.34 660.464 155.636 659.928 155.844C659.4 156.044 658.816 156.144 658.176 156.144ZM658.176 154.74C658.776 154.74 659.284 154.612 659.7 154.356C660.116 154.092 660.432 153.732 660.648 153.276C660.872 152.812 660.984 152.28 660.984 151.68C660.984 151.072 660.872 150.54 660.648 150.084C660.432 149.628 660.116 149.272 659.7 149.016C659.284 148.752 658.776 148.62 658.176 148.62C657.584 148.62 657.076 148.752 656.652 149.016C656.236 149.272 655.916 149.628 655.692 150.084C655.476 150.54 655.368 151.072 655.368 151.68C655.368 152.28 655.476 152.812 655.692 153.276C655.916 153.732 656.236 154.092 656.652 154.356C657.076 154.612 657.584 154.74 658.176 154.74ZM663.964 156V147.36H665.476V155.256L664.828 154.608H669.628V156H663.964ZM673.039 156L675.799 147.36H677.251L674.503 156H673.039ZM683.926 156.144C683.334 156.144 682.806 156.012 682.342 155.748C681.878 155.484 681.514 155.108 681.25 154.62C680.994 154.124 680.866 153.544 680.866 152.88C680.866 152.256 680.998 151.7 681.262 151.212C681.526 150.716 681.89 150.328 682.354 150.048C682.818 149.76 683.346 149.616 683.938 149.616C684.522 149.616 685.03 149.744 685.462 150C685.902 150.256 686.242 150.64 686.482 151.152C686.722 151.664 686.842 152.304 686.842 153.072V153.36H681.706V152.304H685.606L685.33 152.52C685.33 152.224 685.278 151.956 685.174 151.716C685.07 151.476 684.914 151.284 684.706 151.14C684.498 150.988 684.238 150.912 683.926 150.912C683.622 150.912 683.35 150.984 683.11 151.128C682.87 151.272 682.682 151.488 682.546 151.776C682.41 152.064 682.342 152.432 682.342 152.88C682.342 153.312 682.406 153.676 682.534 153.972C682.662 154.26 682.846 154.48 683.086 154.632C683.326 154.776 683.606 154.848 683.926 154.848C684.294 154.848 684.578 154.772 684.778 154.62C684.986 154.46 685.158 154.244 685.294 153.972L686.626 154.488C686.426 154.976 686.118 155.376 685.702 155.688C685.294 155.992 684.702 156.144 683.926 156.144ZM690.322 156.024C689.722 156.024 689.27 155.868 688.966 155.556C688.67 155.236 688.522 154.788 688.522 154.212V148.056H689.962V154.116C689.962 154.492 690.154 154.68 690.538 154.68H691.534V156.024H690.322ZM687.418 150.96V149.76H691.414V150.96H687.418ZM695.354 156.144C694.754 156.144 694.214 156.012 693.734 155.748C693.262 155.484 692.886 155.108 692.606 154.62C692.326 154.132 692.186 153.552 692.186 152.88C692.186 152.208 692.326 151.628 692.606 151.14C692.886 150.652 693.262 150.276 693.734 150.012C694.214 149.748 694.754 149.616 695.354 149.616C696.13 149.616 696.77 149.82 697.274 150.228C697.786 150.628 698.106 151.168 698.234 151.848L696.806 152.16C696.726 151.816 696.562 151.532 696.314 151.308C696.074 151.076 695.754 150.96 695.354 150.96C695.01 150.96 694.714 151.04 694.466 151.2C694.218 151.352 694.026 151.572 693.89 151.86C693.762 152.14 693.698 152.48 693.698 152.88C693.698 153.272 693.762 153.612 693.89 153.9C694.026 154.188 694.218 154.412 694.466 154.572C694.714 154.724 695.01 154.8 695.354 154.8C695.738 154.8 696.05 154.7 696.29 154.5C696.538 154.292 696.714 153.984 696.818 153.576L698.222 154.008C698.134 154.416 697.966 154.78 697.718 155.1C697.478 155.42 697.162 155.676 696.77 155.868C696.378 156.052 695.906 156.144 695.354 156.144Z" fill="white"/>
<rect x="595" y="1" width="136" height="65.0498" rx="6" fill="#1E1E1E"/>
<path d="M634.119 38V34.52L630.999 29.36H632.751L634.839 32.948H634.959L637.071 29.36H638.751L635.631 34.52V38H634.119ZM641.021 38.144C640.421 38.144 639.885 38.012 639.413 37.748C638.941 37.484 638.565 37.108 638.285 36.62C638.013 36.132 637.877 35.552 637.877 34.88C637.877 34.208 638.013 33.628 638.285 33.14C638.565 32.652 638.941 32.276 639.413 32.012C639.885 31.748 640.421 31.616 641.021 31.616C641.621 31.616 642.157 31.748 642.629 32.012C643.101 32.276 643.473 32.652 643.745 33.14C644.025 33.628 644.165 34.208 644.165 34.88C644.165 35.552 644.025 36.132 643.745 36.62C643.473 37.108 643.101 37.484 642.629 37.748C642.157 38.012 641.621 38.144 641.021 38.144ZM641.021 36.8C641.541 36.8 641.941 36.628 642.221 36.284C642.509 35.94 642.653 35.472 642.653 34.88C642.653 34.288 642.509 33.82 642.221 33.476C641.941 33.132 641.541 32.96 641.021 32.96C640.501 32.96 640.097 33.132 639.809 33.476C639.529 33.82 639.389 34.288 639.389 34.88C639.389 35.472 639.529 35.94 639.809 36.284C640.097 36.628 640.501 36.8 641.021 36.8ZM650.818 31.76V38H649.414V37.136H649.342C649.142 37.448 648.894 37.696 648.598 37.88C648.302 38.056 647.954 38.144 647.554 38.144C647.13 38.144 646.758 38.056 646.438 37.88C646.118 37.696 645.87 37.428 645.694 37.076C645.518 36.724 645.43 36.3 645.43 35.804V31.76H646.87V35.54C646.87 35.964 646.966 36.28 647.158 36.488C647.35 36.688 647.614 36.788 647.95 36.788C648.23 36.788 648.474 36.72 648.682 36.584C648.898 36.44 649.066 36.232 649.186 35.96C649.314 35.68 649.378 35.344 649.378 34.952V31.76H650.818ZM652.451 38V31.76H653.855V32.864H653.927C654.095 32.496 654.343 32.196 654.671 31.964C654.999 31.732 655.403 31.616 655.883 31.616H656.291V33.08H655.763C655.179 33.08 654.719 33.248 654.383 33.584C654.055 33.92 653.891 34.444 653.891 35.156V38H652.451ZM662.701 38.144C661.957 38.144 661.349 38.008 660.877 37.736C660.413 37.464 660.065 37.076 659.833 36.572L661.165 35.96C661.301 36.256 661.501 36.48 661.765 36.632C662.037 36.784 662.349 36.86 662.701 36.86C663.053 36.86 663.329 36.8 663.529 36.68C663.729 36.56 663.829 36.4 663.829 36.2C663.829 36.016 663.769 35.872 663.649 35.768C663.529 35.656 663.341 35.588 663.085 35.564L661.921 35.444C661.313 35.38 660.829 35.196 660.469 34.892C660.109 34.588 659.929 34.152 659.929 33.584C659.929 33.216 660.025 32.884 660.217 32.588C660.417 32.292 660.697 32.056 661.057 31.88C661.417 31.704 661.841 31.616 662.329 31.616C662.993 31.616 663.537 31.744 663.961 32C664.385 32.256 664.709 32.596 664.933 33.02L663.637 33.644C663.501 33.388 663.317 33.2 663.085 33.08C662.861 32.96 662.609 32.9 662.329 32.9C661.985 32.9 661.737 32.96 661.585 33.08C661.433 33.2 661.357 33.352 661.357 33.536C661.357 33.696 661.413 33.832 661.525 33.944C661.637 34.048 661.805 34.112 662.029 34.136L663.241 34.256C663.905 34.32 664.405 34.516 664.741 34.844C665.085 35.172 665.257 35.62 665.257 36.188C665.257 36.588 665.153 36.936 664.945 37.232C664.745 37.528 664.453 37.756 664.069 37.916C663.693 38.068 663.237 38.144 662.701 38.144ZM669.144 38.144C668.552 38.144 668.024 38.012 667.56 37.748C667.096 37.484 666.732 37.108 666.468 36.62C666.212 36.124 666.084 35.544 666.084 34.88C666.084 34.256 666.216 33.7 666.48 33.212C666.744 32.716 667.108 32.328 667.572 32.048C668.036 31.76 668.564 31.616 669.156 31.616C669.74 31.616 670.248 31.744 670.68 32C671.12 32.256 671.46 32.64 671.7 33.152C671.94 33.664 672.06 34.304 672.06 35.072V35.36H666.924V34.304H670.824L670.548 34.52C670.548 34.224 670.496 33.956 670.392 33.716C670.288 33.476 670.132 33.284 669.924 33.14C669.716 32.988 669.456 32.912 669.144 32.912C668.84 32.912 668.568 32.984 668.328 33.128C668.088 33.272 667.9 33.488 667.764 33.776C667.628 34.064 667.56 34.432 667.56 34.88C667.56 35.312 667.624 35.676 667.752 35.972C667.88 36.26 668.064 36.48 668.304 36.632C668.544 36.776 668.824 36.848 669.144 36.848C669.512 36.848 669.796 36.772 669.996 36.62C670.204 36.46 670.376 36.244 670.512 35.972L671.844 36.488C671.644 36.976 671.336 37.376 670.92 37.688C670.512 37.992 669.92 38.144 669.144 38.144ZM673.369 38V31.76H674.773V32.864H674.845C675.013 32.496 675.261 32.196 675.589 31.964C675.917 31.732 676.321 31.616 676.801 31.616H677.209V33.08H676.681C676.097 33.08 675.637 33.248 675.301 33.584C674.973 33.92 674.809 34.444 674.809 35.156V38H673.369ZM680.214 38L677.862 31.76H679.482L680.982 36.116H681.102L682.65 31.76H684.21L681.81 38H680.214ZM687.742 38.144C687.15 38.144 686.622 38.012 686.158 37.748C685.694 37.484 685.33 37.108 685.066 36.62C684.81 36.124 684.682 35.544 684.682 34.88C684.682 34.256 684.814 33.7 685.078 33.212C685.342 32.716 685.706 32.328 686.17 32.048C686.634 31.76 687.162 31.616 687.754 31.616C688.338 31.616 688.846 31.744 689.278 32C689.718 32.256 690.058 32.64 690.298 33.152C690.538 33.664 690.658 34.304 690.658 35.072V35.36H685.522V34.304H689.422L689.146 34.52C689.146 34.224 689.094 33.956 688.99 33.716C688.886 33.476 688.73 33.284 688.522 33.14C688.314 32.988 688.054 32.912 687.742 32.912C687.438 32.912 687.166 32.984 686.926 33.128C686.686 33.272 686.498 33.488 686.362 33.776C686.226 34.064 686.158 34.432 686.158 34.88C686.158 35.312 686.222 35.676 686.35 35.972C686.478 36.26 686.662 36.48 686.902 36.632C687.142 36.776 687.422 36.848 687.742 36.848C688.11 36.848 688.394 36.772 688.594 36.62C688.802 36.46 688.974 36.244 689.11 35.972L690.442 36.488C690.242 36.976 689.934 37.376 689.518 37.688C689.11 37.992 688.518 38.144 687.742 38.144ZM691.966 38V31.76H693.37V32.864H693.442C693.61 32.496 693.858 32.196 694.186 31.964C694.514 31.732 694.918 31.616 695.398 31.616H695.806V33.08H695.278C694.694 33.08 694.234 33.248 693.898 33.584C693.57 33.92 693.406 34.444 693.406 35.156V38H691.966Z" fill="white"/>
<rect x="9" y="61" width="136" height="49" rx="6" fill="#1E1E1E"/>
<path d="M57.696 83V74.36H61.68C62.256 74.36 62.756 74.472 63.18 74.696C63.612 74.92 63.948 75.228 64.188 75.62C64.428 76.012 64.548 76.468 64.548 76.988C64.548 77.508 64.428 77.968 64.188 78.368C63.948 78.76 63.608 79.068 63.168 79.292C62.728 79.516 62.212 79.628 61.62 79.628H58.752V78.272H61.56C62 78.272 62.348 78.16 62.604 77.936C62.86 77.712 62.988 77.396 62.988 76.988C62.988 76.572 62.864 76.256 62.616 76.04C62.368 75.816 62.032 75.704 61.608 75.704H58.752L59.208 75.38V83H57.696ZM62.916 83L60.372 79.064H62.112L64.752 83H62.916ZM68.4237 83.144C67.8317 83.144 67.3037 83.012 66.8397 82.748C66.3757 82.484 66.0117 82.108 65.7477 81.62C65.4917 81.124 65.3637 80.544 65.3637 79.88C65.3637 79.256 65.4957 78.7 65.7597 78.212C66.0237 77.716 66.3877 77.328 66.8517 77.048C67.3157 76.76 67.8437 76.616 68.4357 76.616C69.0197 76.616 69.5277 76.744 69.9597 77C70.3997 77.256 70.7397 77.64 70.9797 78.152C71.2197 78.664 71.3397 79.304 71.3397 80.072V80.36H66.2037V79.304H70.1037L69.8277 79.52C69.8277 79.224 69.7757 78.956 69.6717 78.716C69.5677 78.476 69.4117 78.284 69.2037 78.14C68.9957 77.988 68.7357 77.912 68.4237 77.912C68.1197 77.912 67.8477 77.984 67.6077 78.128C67.3677 78.272 67.1797 78.488 67.0437 78.776C66.9077 79.064 66.8397 79.432 66.8397 79.88C66.8397 80.312 66.9037 80.676 67.0317 80.972C67.1597 81.26 67.3437 81.48 67.5837 81.632C67.8237 81.776 68.1037 81.848 68.4237 81.848C68.7917 81.848 69.0757 81.772 69.2757 81.62C69.4837 81.46 69.6557 81.244 69.7917 80.972L71.1237 81.488C70.9237 81.976 70.6157 82.376 70.1997 82.688C69.7917 82.992 69.1997 83.144 68.4237 83.144ZM74.4 83.144C73.768 83.144 73.264 82.976 72.888 82.64C72.52 82.296 72.336 81.844 72.336 81.284C72.336 80.732 72.52 80.288 72.888 79.952C73.256 79.608 73.78 79.408 74.46 79.352L76.692 79.148V80.156L74.7 80.372C74.388 80.404 74.156 80.492 74.004 80.636C73.852 80.772 73.776 80.956 73.776 81.188C73.776 81.412 73.856 81.596 74.016 81.74C74.184 81.884 74.416 81.956 74.712 81.956C75.016 81.956 75.284 81.88 75.516 81.728C75.756 81.568 75.94 81.324 76.068 80.996C76.204 80.66 76.272 80.232 76.272 79.712V78.956C76.272 78.652 76.18 78.4 75.996 78.2C75.82 78 75.528 77.9 75.12 77.9C74.712 77.9 74.416 77.984 74.232 78.152C74.048 78.32 73.94 78.512 73.908 78.728H72.48C72.504 78.32 72.624 77.96 72.84 77.648C73.056 77.328 73.36 77.076 73.752 76.892C74.144 76.708 74.612 76.616 75.156 76.616C75.964 76.616 76.592 76.832 77.04 77.264C77.488 77.688 77.712 78.236 77.712 78.908V81.632L77.748 83H76.392L76.356 82.16H76.26C76.036 82.496 75.768 82.744 75.456 82.904C75.152 83.064 74.8 83.144 74.4 83.144ZM82.0903 83.144C81.4903 83.144 80.9503 83.012 80.4703 82.748C79.9983 82.484 79.6223 82.108 79.3423 81.62C79.0623 81.132 78.9223 80.552 78.9223 79.88C78.9223 79.208 79.0623 78.628 79.3423 78.14C79.6223 77.652 79.9983 77.276 80.4703 77.012C80.9503 76.748 81.4903 76.616 82.0903 76.616C82.8663 76.616 83.5063 76.82 84.0103 77.228C84.5223 77.628 84.8423 78.168 84.9703 78.848L83.5423 79.16C83.4623 78.816 83.2983 78.532 83.0503 78.308C82.8103 78.076 82.4903 77.96 82.0903 77.96C81.7463 77.96 81.4503 78.04 81.2023 78.2C80.9543 78.352 80.7623 78.572 80.6263 78.86C80.4983 79.14 80.4343 79.48 80.4343 79.88C80.4343 80.272 80.4983 80.612 80.6263 80.9C80.7623 81.188 80.9543 81.412 81.2023 81.572C81.4503 81.724 81.7463 81.8 82.0903 81.8C82.4743 81.8 82.7863 81.7 83.0263 81.5C83.2743 81.292 83.4503 80.984 83.5543 80.576L84.9583 81.008C84.8703 81.416 84.7023 81.78 84.4543 82.1C84.2143 82.42 83.8983 82.676 83.5063 82.868C83.1143 83.052 82.6423 83.144 82.0903 83.144ZM88.2966 83.024C87.6966 83.024 87.2446 82.868 86.9406 82.556C86.6446 82.236 86.4966 81.788 86.4966 81.212V75.056H87.9366V81.116C87.9366 81.492 88.1286 81.68 88.5126 81.68H89.5086V83.024H88.2966ZM85.3926 77.96V76.76H89.3886V77.96H85.3926ZM92.8577 83L95.6177 74.36H97.0697L94.3217 83H92.8577ZM45.2636 97.144C44.2956 97.144 43.5156 96.956 42.9236 96.58C42.3316 96.196 41.8956 95.636 41.6156 94.9L43.1756 94.36C43.3276 94.792 43.5796 95.128 43.9316 95.368C44.2836 95.608 44.7276 95.728 45.2636 95.728C45.8956 95.728 46.3636 95.624 46.6676 95.416C46.9716 95.208 47.1236 94.936 47.1236 94.6C47.1236 94.256 47.0236 93.996 46.8236 93.82C46.6236 93.636 46.3356 93.524 45.9596 93.484L44.2556 93.304C43.5116 93.224 42.9116 92.972 42.4556 92.548C41.9996 92.124 41.7716 91.54 41.7716 90.796C41.7716 90.324 41.9036 89.892 42.1676 89.5C42.4316 89.108 42.7996 88.796 43.2716 88.564C43.7516 88.332 44.3036 88.216 44.9276 88.216C45.8156 88.216 46.5436 88.412 47.1116 88.804C47.6876 89.188 48.0876 89.708 48.3116 90.364L46.8356 90.88C46.6836 90.48 46.4476 90.172 46.1276 89.956C45.8076 89.74 45.4076 89.632 44.9276 89.632C44.4076 89.632 44.0116 89.74 43.7396 89.956C43.4676 90.172 43.3316 90.44 43.3316 90.76C43.3316 91.032 43.4236 91.264 43.6076 91.456C43.7916 91.64 44.0876 91.752 44.4956 91.792L46.0316 91.96C46.8876 92.056 47.5396 92.328 47.9876 92.776C48.4436 93.224 48.6716 93.832 48.6716 94.6C48.6716 95.12 48.5356 95.572 48.2636 95.956C47.9996 96.332 47.6116 96.624 47.0996 96.832C46.5956 97.04 45.9836 97.144 45.2636 97.144ZM52.8338 97.144C52.2338 97.144 51.6978 97.012 51.2258 96.748C50.7538 96.484 50.3778 96.108 50.0978 95.62C49.8258 95.132 49.6898 94.552 49.6898 93.88C49.6898 93.208 49.8258 92.628 50.0978 92.14C50.3778 91.652 50.7538 91.276 51.2258 91.012C51.6978 90.748 52.2338 90.616 52.8338 90.616C53.4338 90.616 53.9698 90.748 54.4418 91.012C54.9138 91.276 55.2858 91.652 55.5578 92.14C55.8378 92.628 55.9778 93.208 55.9778 93.88C55.9778 94.552 55.8378 95.132 55.5578 95.62C55.2858 96.108 54.9138 96.484 54.4418 96.748C53.9698 97.012 53.4338 97.144 52.8338 97.144ZM52.8338 95.8C53.3538 95.8 53.7538 95.628 54.0338 95.284C54.3218 94.94 54.4658 94.472 54.4658 93.88C54.4658 93.288 54.3218 92.82 54.0338 92.476C53.7538 92.132 53.3538 91.96 52.8338 91.96C52.3138 91.96 51.9098 92.132 51.6218 92.476C51.3418 92.82 51.2018 93.288 51.2018 93.88C51.2018 94.472 51.3418 94.94 51.6218 95.284C51.9098 95.628 52.3138 95.8 52.8338 95.8ZM57.314 97V88.36H58.754V97H57.314ZM60.3844 97V90.76H61.8244V97H60.3844ZM60.2284 89.08C60.2284 88.824 60.3084 88.616 60.4684 88.456C60.6364 88.296 60.8484 88.216 61.1044 88.216C61.3604 88.216 61.5684 88.296 61.7284 88.456C61.8964 88.616 61.9804 88.824 61.9804 89.08C61.9804 89.32 61.8964 89.524 61.7284 89.692C61.5684 89.852 61.3604 89.932 61.1044 89.932C60.8484 89.932 60.6364 89.852 60.4684 89.692C60.3084 89.524 60.2284 89.32 60.2284 89.08ZM65.8907 97.144C65.3867 97.144 64.9267 97.012 64.5107 96.748C64.0947 96.484 63.7627 96.108 63.5147 95.62C63.2747 95.132 63.1547 94.552 63.1547 93.88C63.1547 93.208 63.2747 92.628 63.5147 92.14C63.7627 91.652 64.0947 91.276 64.5107 91.012C64.9267 90.748 65.3867 90.616 65.8907 90.616C66.3467 90.616 66.7267 90.708 67.0307 90.892C67.3347 91.076 67.5947 91.32 67.8107 91.624H67.8827V88.36H69.3227V97H67.9187V96.136H67.8467C67.6307 96.464 67.3627 96.716 67.0427 96.892C66.7227 97.06 66.3387 97.144 65.8907 97.144ZM66.2747 95.824C66.7867 95.824 67.1907 95.652 67.4867 95.308C67.7827 94.964 67.9307 94.488 67.9307 93.88C67.9307 93.264 67.7827 92.788 67.4867 92.452C67.1907 92.108 66.7867 91.936 66.2747 91.936C65.7947 91.936 65.4027 92.112 65.0987 92.464C64.7947 92.808 64.6427 93.28 64.6427 93.88C64.6427 94.48 64.7947 94.956 65.0987 95.308C65.4027 95.652 65.7947 95.824 66.2747 95.824ZM73.0307 97.144C72.5187 97.144 72.0827 97.048 71.7227 96.856C71.3627 96.656 71.0867 96.38 70.8947 96.028C70.7107 95.676 70.6187 95.264 70.6187 94.792V93.64H72.1187V94.792C72.1187 95.08 72.1947 95.308 72.3467 95.476C72.4987 95.644 72.7267 95.728 73.0307 95.728C73.3347 95.728 73.5547 95.644 73.6907 95.476C73.8347 95.3 73.9067 95.072 73.9067 94.792V88.36H75.4187V94.792C75.4187 95.264 75.3267 95.676 75.1427 96.028C74.9587 96.38 74.6907 96.656 74.3387 96.856C73.9867 97.048 73.5507 97.144 73.0307 97.144ZM80.3613 97.144C79.3933 97.144 78.6133 96.956 78.0213 96.58C77.4293 96.196 76.9933 95.636 76.7133 94.9L78.2733 94.36C78.4253 94.792 78.6773 95.128 79.0293 95.368C79.3813 95.608 79.8253 95.728 80.3613 95.728C80.9933 95.728 81.4613 95.624 81.7653 95.416C82.0693 95.208 82.2213 94.936 82.2213 94.6C82.2213 94.256 82.1213 93.996 81.9213 93.82C81.7213 93.636 81.4333 93.524 81.0573 93.484L79.3533 93.304C78.6093 93.224 78.0093 92.972 77.5533 92.548C77.0973 92.124 76.8693 91.54 76.8693 90.796C76.8693 90.324 77.0013 89.892 77.2653 89.5C77.5293 89.108 77.8973 88.796 78.3693 88.564C78.8493 88.332 79.4013 88.216 80.0253 88.216C80.9133 88.216 81.6413 88.412 82.2093 88.804C82.7853 89.188 83.1853 89.708 83.4093 90.364L81.9333 90.88C81.7813 90.48 81.5453 90.172 81.2253 89.956C80.9053 89.74 80.5053 89.632 80.0253 89.632C79.5053 89.632 79.1093 89.74 78.8373 89.956C78.5653 90.172 78.4293 90.44 78.4293 90.76C78.4293 91.032 78.5213 91.264 78.7053 91.456C78.8893 91.64 79.1853 91.752 79.5933 91.792L81.1293 91.96C81.9853 92.056 82.6373 92.328 83.0853 92.776C83.5413 93.224 83.7693 93.832 83.7693 94.6C83.7693 95.12 83.6333 95.572 83.3613 95.956C83.0973 96.332 82.7093 96.624 82.1973 96.832C81.6933 97.04 81.0813 97.144 80.3613 97.144ZM87.3675 97L90.1275 88.36H91.5795L88.8315 97H87.3675ZM98.2537 97.144C97.6617 97.144 97.1337 97.012 96.6697 96.748C96.2057 96.484 95.8417 96.108 95.5777 95.62C95.3217 95.124 95.1937 94.544 95.1937 93.88C95.1937 93.256 95.3257 92.7 95.5897 92.212C95.8537 91.716 96.2177 91.328 96.6817 91.048C97.1457 90.76 97.6737 90.616 98.2657 90.616C98.8497 90.616 99.3577 90.744 99.7897 91C100.23 91.256 100.57 91.64 100.81 92.152C101.05 92.664 101.17 93.304 101.17 94.072V94.36H96.0337V93.304H99.9337L99.6577 93.52C99.6577 93.224 99.6057 92.956 99.5017 92.716C99.3977 92.476 99.2417 92.284 99.0337 92.14C98.8257 91.988 98.5657 91.912 98.2537 91.912C97.9497 91.912 97.6777 91.984 97.4377 92.128C97.1977 92.272 97.0097 92.488 96.8737 92.776C96.7377 93.064 96.6697 93.432 96.6697 93.88C96.6697 94.312 96.7337 94.676 96.8617 94.972C96.9897 95.26 97.1737 95.48 97.4137 95.632C97.6537 95.776 97.9337 95.848 98.2537 95.848C98.6217 95.848 98.9057 95.772 99.1057 95.62C99.3137 95.46 99.4857 95.244 99.6217 94.972L100.954 95.488C100.754 95.976 100.446 96.376 100.03 96.688C99.6217 96.992 99.0297 97.144 98.2537 97.144ZM104.65 97.024C104.05 97.024 103.598 96.868 103.294 96.556C102.998 96.236 102.85 95.788 102.85 95.212V89.056H104.29V95.116C104.29 95.492 104.482 95.68 104.866 95.68H105.862V97.024H104.65ZM101.746 91.96V90.76H105.742V91.96H101.746ZM109.682 97.144C109.082 97.144 108.542 97.012 108.062 96.748C107.59 96.484 107.214 96.108 106.934 95.62C106.654 95.132 106.514 94.552 106.514 93.88C106.514 93.208 106.654 92.628 106.934 92.14C107.214 91.652 107.59 91.276 108.062 91.012C108.542 90.748 109.082 90.616 109.682 90.616C110.458 90.616 111.098 90.82 111.602 91.228C112.114 91.628 112.434 92.168 112.562 92.848L111.134 93.16C111.054 92.816 110.89 92.532 110.642 92.308C110.402 92.076 110.082 91.96 109.682 91.96C109.338 91.96 109.042 92.04 108.794 92.2C108.546 92.352 108.354 92.572 108.218 92.86C108.09 93.14 108.026 93.48 108.026 93.88C108.026 94.272 108.09 94.612 108.218 94.9C108.354 95.188 108.546 95.412 108.794 95.572C109.042 95.724 109.338 95.8 109.682 95.8C110.066 95.8 110.378 95.7 110.618 95.5C110.866 95.292 111.042 94.984 111.146 94.576L112.55 95.008C112.462 95.416 112.294 95.78 112.046 96.1C111.806 96.42 111.49 96.676 111.098 96.868C110.706 97.052 110.234 97.144 109.682 97.144Z" fill="white"/>
<rect x="300" y="61" width="136" height="106" rx="6" fill="#1E1E1E"/>
<path d="M352.588 118.144C351.62 118.144 350.84 117.956 350.248 117.58C349.656 117.196 349.22 116.636 348.94 115.9L350.5 115.36C350.652 115.792 350.904 116.128 351.256 116.368C351.608 116.608 352.052 116.728 352.588 116.728C353.22 116.728 353.688 116.624 353.992 116.416C354.296 116.208 354.448 115.936 354.448 115.6C354.448 115.256 354.348 114.996 354.148 114.82C353.948 114.636 353.66 114.524 353.284 114.484L351.58 114.304C350.836 114.224 350.236 113.972 349.78 113.548C349.324 113.124 349.096 112.54 349.096 111.796C349.096 111.324 349.228 110.892 349.492 110.5C349.756 110.108 350.124 109.796 350.596 109.564C351.076 109.332 351.628 109.216 352.252 109.216C353.14 109.216 353.868 109.412 354.436 109.804C355.012 110.188 355.412 110.708 355.636 111.364L354.16 111.88C354.008 111.48 353.772 111.172 353.452 110.956C353.132 110.74 352.732 110.632 352.252 110.632C351.732 110.632 351.336 110.74 351.064 110.956C350.792 111.172 350.656 111.44 350.656 111.76C350.656 112.032 350.748 112.264 350.932 112.456C351.116 112.64 351.412 112.752 351.82 112.792L353.356 112.96C354.212 113.056 354.864 113.328 355.312 113.776C355.768 114.224 355.996 114.832 355.996 115.6C355.996 116.12 355.86 116.572 355.588 116.956C355.324 117.332 354.936 117.624 354.424 117.832C353.92 118.04 353.308 118.144 352.588 118.144ZM364.49 118.42L361.178 114.544L362.234 113.644L365.558 117.532L364.49 118.42ZM361.418 118.144C360.578 118.144 359.826 117.964 359.162 117.604C358.498 117.244 357.974 116.732 357.59 116.068C357.214 115.396 357.026 114.6 357.026 113.68C357.026 112.992 357.134 112.376 357.35 111.832C357.574 111.28 357.882 110.812 358.274 110.428C358.666 110.036 359.13 109.736 359.666 109.528C360.202 109.32 360.786 109.216 361.418 109.216C362.058 109.216 362.642 109.32 363.17 109.528C363.706 109.736 364.17 110.036 364.562 110.428C364.962 110.812 365.27 111.28 365.486 111.832C365.702 112.376 365.81 112.992 365.81 113.68C365.81 114.368 365.702 114.988 365.486 115.54C365.27 116.092 364.962 116.564 364.562 116.956C364.17 117.34 363.706 117.636 363.17 117.844C362.642 118.044 362.058 118.144 361.418 118.144ZM361.418 116.74C362.018 116.74 362.526 116.612 362.942 116.356C363.358 116.092 363.674 115.732 363.89 115.276C364.114 114.812 364.226 114.28 364.226 113.68C364.226 113.072 364.114 112.54 363.89 112.084C363.674 111.628 363.358 111.272 362.942 111.016C362.526 110.752 362.018 110.62 361.418 110.62C360.826 110.62 360.318 110.752 359.894 111.016C359.478 111.272 359.158 111.628 358.934 112.084C358.718 112.54 358.61 113.072 358.61 113.68C358.61 114.28 358.718 114.812 358.934 115.276C359.158 115.732 359.478 116.092 359.894 116.356C360.318 116.612 360.826 116.74 361.418 116.74ZM367.206 118V109.36H368.718V117.256L368.07 116.608H372.87V118H367.206ZM374.002 118V111.76H375.442V118H374.002ZM373.846 110.08C373.846 109.824 373.926 109.616 374.086 109.456C374.254 109.296 374.466 109.216 374.722 109.216C374.978 109.216 375.186 109.296 375.346 109.456C375.514 109.616 375.598 109.824 375.598 110.08C375.598 110.32 375.514 110.524 375.346 110.692C375.186 110.852 374.978 110.932 374.722 110.932C374.466 110.932 374.254 110.852 374.086 110.692C373.926 110.524 373.846 110.32 373.846 110.08ZM379.244 118.024C378.644 118.024 378.192 117.868 377.888 117.556C377.592 117.236 377.444 116.788 377.444 116.212V110.056H378.884V116.116C378.884 116.492 379.076 116.68 379.46 116.68H380.456V118.024H379.244ZM376.34 112.96V111.76H380.336V112.96H376.34ZM384.168 118.144C383.576 118.144 383.048 118.012 382.584 117.748C382.12 117.484 381.756 117.108 381.492 116.62C381.236 116.124 381.108 115.544 381.108 114.88C381.108 114.256 381.24 113.7 381.504 113.212C381.768 112.716 382.132 112.328 382.596 112.048C383.06 111.76 383.588 111.616 384.18 111.616C384.764 111.616 385.272 111.744 385.704 112C386.144 112.256 386.484 112.64 386.724 113.152C386.964 113.664 387.084 114.304 387.084 115.072V115.36H381.948V114.304H385.848L385.572 114.52C385.572 114.224 385.52 113.956 385.416 113.716C385.312 113.476 385.156 113.284 384.948 113.14C384.74 112.988 384.48 112.912 384.168 112.912C383.864 112.912 383.592 112.984 383.352 113.128C383.112 113.272 382.924 113.488 382.788 113.776C382.652 114.064 382.584 114.432 382.584 114.88C382.584 115.312 382.648 115.676 382.776 115.972C382.904 116.26 383.088 116.48 383.328 116.632C383.568 116.776 383.848 116.848 384.168 116.848C384.536 116.848 384.82 116.772 385.02 116.62C385.228 116.46 385.4 116.244 385.536 115.972L386.868 116.488C386.668 116.976 386.36 117.376 385.944 117.688C385.536 117.992 384.944 118.144 384.168 118.144Z" fill="white"/>
<path d="M192.608 147L190.28 138.36H191.912L193.616 145.08H193.76L195.704 138.36H197.636L199.58 145.08H199.724L201.452 138.36H203L200.672 147H198.644L196.736 140.4H196.568L194.648 147H192.608ZM206.148 147.144C205.556 147.144 205.028 147.012 204.564 146.748C204.1 146.484 203.736 146.108 203.472 145.62C203.216 145.124 203.088 144.544 203.088 143.88C203.088 143.256 203.22 142.7 203.484 142.212C203.748 141.716 204.112 141.328 204.576 141.048C205.04 140.76 205.568 140.616 206.16 140.616C206.744 140.616 207.252 140.744 207.684 141C208.124 141.256 208.464 141.64 208.704 142.152C208.944 142.664 209.064 143.304 209.064 144.072V144.36H203.928V143.304H207.828L207.552 143.52C207.552 143.224 207.5 142.956 207.396 142.716C207.292 142.476 207.136 142.284 206.928 142.14C206.72 141.988 206.46 141.912 206.148 141.912C205.844 141.912 205.572 141.984 205.332 142.128C205.092 142.272 204.904 142.488 204.768 142.776C204.632 143.064 204.564 143.432 204.564 143.88C204.564 144.312 204.628 144.676 204.756 144.972C204.884 145.26 205.068 145.48 205.308 145.632C205.548 145.776 205.828 145.848 206.148 145.848C206.516 145.848 206.8 145.772 207 145.62C207.208 145.46 207.38 145.244 207.516 144.972L208.848 145.488C208.648 145.976 208.34 146.376 207.924 146.688C207.516 146.992 206.924 147.144 206.148 147.144ZM213.805 147.144C213.357 147.144 212.973 147.06 212.653 146.892C212.333 146.716 212.065 146.464 211.849 146.136H211.777V147H210.373V138.36H211.813V141.624H211.885C212.101 141.32 212.361 141.076 212.665 140.892C212.969 140.708 213.349 140.616 213.805 140.616C214.317 140.616 214.777 140.748 215.185 141.012C215.601 141.276 215.929 141.652 216.169 142.14C216.417 142.628 216.541 143.208 216.541 143.88C216.541 144.552 216.417 145.132 216.169 145.62C215.929 146.108 215.601 146.484 215.185 146.748C214.777 147.012 214.317 147.144 213.805 147.144ZM213.421 145.824C213.901 145.824 214.293 145.652 214.597 145.308C214.901 144.956 215.053 144.48 215.053 143.88C215.053 143.28 214.901 142.808 214.597 142.464C214.293 142.112 213.901 141.936 213.421 141.936C212.909 141.936 212.505 142.108 212.209 142.452C211.913 142.788 211.765 143.264 211.765 143.88C211.765 144.488 211.913 144.964 212.209 145.308C212.505 145.652 212.909 145.824 213.421 145.824ZM220.225 147.144C219.481 147.144 218.873 147.008 218.401 146.736C217.937 146.464 217.589 146.076 217.357 145.572L218.689 144.96C218.825 145.256 219.025 145.48 219.289 145.632C219.561 145.784 219.873 145.86 220.225 145.86C220.577 145.86 220.853 145.8 221.053 145.68C221.253 145.56 221.353 145.4 221.353 145.2C221.353 145.016 221.293 144.872 221.173 144.768C221.053 144.656 220.865 144.588 220.609 144.564L219.445 144.444C218.837 144.38 218.353 144.196 217.993 143.892C217.633 143.588 217.453 143.152 217.453 142.584C217.453 142.216 217.549 141.884 217.741 141.588C217.941 141.292 218.221 141.056 218.581 140.88C218.941 140.704 219.365 140.616 219.853 140.616C220.517 140.616 221.061 140.744 221.485 141C221.909 141.256 222.233 141.596 222.457 142.02L221.161 142.644C221.025 142.388 220.841 142.2 220.609 142.08C220.385 141.96 220.133 141.9 219.853 141.9C219.509 141.9 219.261 141.96 219.109 142.08C218.957 142.2 218.881 142.352 218.881 142.536C218.881 142.696 218.937 142.832 219.049 142.944C219.161 143.048 219.329 143.112 219.553 143.136L220.765 143.256C221.429 143.32 221.929 143.516 222.265 143.844C222.609 144.172 222.781 144.62 222.781 145.188C222.781 145.588 222.677 145.936 222.469 146.232C222.269 146.528 221.977 146.756 221.593 146.916C221.217 147.068 220.761 147.144 220.225 147.144ZM226.752 147.144C226.152 147.144 225.616 147.012 225.144 146.748C224.672 146.484 224.296 146.108 224.016 145.62C223.744 145.132 223.608 144.552 223.608 143.88C223.608 143.208 223.744 142.628 224.016 142.14C224.296 141.652 224.672 141.276 225.144 141.012C225.616 140.748 226.152 140.616 226.752 140.616C227.352 140.616 227.888 140.748 228.36 141.012C228.832 141.276 229.204 141.652 229.476 142.14C229.756 142.628 229.896 143.208 229.896 143.88C229.896 144.552 229.756 145.132 229.476 145.62C229.204 146.108 228.832 146.484 228.36 146.748C227.888 147.012 227.352 147.144 226.752 147.144ZM226.752 145.8C227.272 145.8 227.672 145.628 227.952 145.284C228.24 144.94 228.384 144.472 228.384 143.88C228.384 143.288 228.24 142.82 227.952 142.476C227.672 142.132 227.272 141.96 226.752 141.96C226.232 141.96 225.828 142.132 225.54 142.476C225.26 142.82 225.12 143.288 225.12 143.88C225.12 144.472 225.26 144.94 225.54 145.284C225.828 145.628 226.232 145.8 226.752 145.8ZM234.1 147.144C233.5 147.144 232.96 147.012 232.48 146.748C232.008 146.484 231.632 146.108 231.352 145.62C231.072 145.132 230.932 144.552 230.932 143.88C230.932 143.208 231.072 142.628 231.352 142.14C231.632 141.652 232.008 141.276 232.48 141.012C232.96 140.748 233.5 140.616 234.1 140.616C234.876 140.616 235.516 140.82 236.02 141.228C236.532 141.628 236.852 142.168 236.98 142.848L235.552 143.16C235.472 142.816 235.308 142.532 235.06 142.308C234.82 142.076 234.5 141.96 234.1 141.96C233.756 141.96 233.46 142.04 233.212 142.2C232.964 142.352 232.772 142.572 232.636 142.86C232.508 143.14 232.444 143.48 232.444 143.88C232.444 144.272 232.508 144.612 232.636 144.9C232.772 145.188 232.964 145.412 233.212 145.572C233.46 145.724 233.756 145.8 234.1 145.8C234.484 145.8 234.796 145.7 235.036 145.5C235.284 145.292 235.46 144.984 235.564 144.576L236.968 145.008C236.88 145.416 236.712 145.78 236.464 146.1C236.224 146.42 235.908 146.676 235.516 146.868C235.124 147.052 234.652 147.144 234.1 147.144ZM238.134 147V138.36H239.574V143.424H239.646L241.854 140.76H243.678L239.574 145.452V147H238.134ZM242.106 147L240.234 144.204L241.182 143.148L243.882 147H242.106ZM246.906 147.144C246.314 147.144 245.786 147.012 245.322 146.748C244.858 146.484 244.494 146.108 244.23 145.62C243.974 145.124 243.846 144.544 243.846 143.88C243.846 143.256 243.978 142.7 244.242 142.212C244.506 141.716 244.87 141.328 245.334 141.048C245.798 140.76 246.326 140.616 246.918 140.616C247.502 140.616 248.01 140.744 248.442 141C248.882 141.256 249.222 141.64 249.462 142.152C249.702 142.664 249.822 143.304 249.822 144.072V144.36H244.686V143.304H248.586L248.31 143.52C248.31 143.224 248.258 142.956 248.154 142.716C248.05 142.476 247.894 142.284 247.686 142.14C247.478 141.988 247.218 141.912 246.906 141.912C246.602 141.912 246.33 141.984 246.09 142.128C245.85 142.272 245.662 142.488 245.526 142.776C245.39 143.064 245.322 143.432 245.322 143.88C245.322 144.312 245.386 144.676 245.514 144.972C245.642 145.26 245.826 145.48 246.066 145.632C246.306 145.776 246.586 145.848 246.906 145.848C247.274 145.848 247.558 145.772 247.758 145.62C247.966 145.46 248.138 145.244 248.274 144.972L249.606 145.488C249.406 145.976 249.098 146.376 248.682 146.688C248.274 146.992 247.682 147.144 246.906 147.144ZM253.302 147.024C252.702 147.024 252.25 146.868 251.946 146.556C251.65 146.236 251.502 145.788 251.502 145.212V139.056H252.942V145.116C252.942 145.492 253.134 145.68 253.518 145.68H254.514V147.024H253.302ZM250.398 141.96V140.76H254.394V141.96H250.398Z" fill="white"/>
<path d="M153.329 139.465C153.524 139.27 153.84 139.27 154.036 139.465C154.231 139.66 154.231 139.977 154.036 140.172L151.707 142.5H185.996V143.5H151.707L154.036 145.828C154.231 146.023 154.231 146.34 154.036 146.535C153.84 146.73 153.524 146.73 153.329 146.535L150.147 143.353C149.952 143.158 149.952 142.842 150.147 142.646L153.329 139.465ZM282.965 139.465C283.161 139.27 283.477 139.27 283.672 139.465L286.854 142.646C287.049 142.842 287.049 143.158 286.854 143.353L283.672 146.535C283.477 146.73 283.161 146.73 282.965 146.535C282.77 146.34 282.77 146.023 282.965 145.828L285.293 143.5H258.996V142.5H285.293L282.965 140.172C282.77 139.977 282.77 139.66 282.965 139.465Z" fill="white"/>
<path d="M487.904 147V138.36H491.888C492.464 138.36 492.964 138.472 493.388 138.696C493.82 138.92 494.156 139.228 494.396 139.62C494.636 140.012 494.756 140.468 494.756 140.988C494.756 141.508 494.636 141.968 494.396 142.368C494.156 142.76 493.816 143.068 493.376 143.292C492.936 143.516 492.42 143.628 491.828 143.628H488.96V142.272H491.768C492.208 142.272 492.556 142.16 492.812 141.936C493.068 141.712 493.196 141.396 493.196 140.988C493.196 140.572 493.072 140.256 492.824 140.04C492.576 139.816 492.24 139.704 491.816 139.704H488.96L489.416 139.38V147H487.904ZM493.124 147L490.58 143.064H492.32L494.96 147H493.124ZM498.632 147.144C498.04 147.144 497.512 147.012 497.048 146.748C496.584 146.484 496.22 146.108 495.956 145.62C495.7 145.124 495.572 144.544 495.572 143.88C495.572 143.256 495.704 142.7 495.968 142.212C496.232 141.716 496.596 141.328 497.06 141.048C497.524 140.76 498.052 140.616 498.644 140.616C499.228 140.616 499.736 140.744 500.168 141C500.608 141.256 500.948 141.64 501.188 142.152C501.428 142.664 501.548 143.304 501.548 144.072V144.36H496.412V143.304H500.312L500.036 143.52C500.036 143.224 499.984 142.956 499.88 142.716C499.776 142.476 499.62 142.284 499.412 142.14C499.204 141.988 498.944 141.912 498.632 141.912C498.328 141.912 498.056 141.984 497.816 142.128C497.576 142.272 497.388 142.488 497.252 142.776C497.116 143.064 497.048 143.432 497.048 143.88C497.048 144.312 497.112 144.676 497.24 144.972C497.368 145.26 497.552 145.48 497.792 145.632C498.032 145.776 498.312 145.848 498.632 145.848C499 145.848 499.284 145.772 499.484 145.62C499.692 145.46 499.864 145.244 500 144.972L501.332 145.488C501.132 145.976 500.824 146.376 500.408 146.688C500 146.992 499.408 147.144 498.632 147.144ZM506.288 140.616C506.8 140.616 507.26 140.748 507.668 141.012C508.084 141.276 508.412 141.652 508.652 142.14C508.9 142.628 509.024 143.208 509.024 143.88C509.024 144.552 508.9 145.132 508.652 145.62C508.412 146.108 508.084 146.484 507.668 146.748C507.26 147.012 506.8 147.144 506.288 147.144C505.832 147.144 505.452 147.052 505.148 146.868C504.844 146.684 504.584 146.44 504.368 146.136H504.296V149.4H502.856V140.76H504.26V141.624H504.332C504.548 141.296 504.816 141.048 505.136 140.88C505.456 140.704 505.84 140.616 506.288 140.616ZM505.904 141.936C505.392 141.936 504.988 142.108 504.692 142.452C504.396 142.796 504.248 143.272 504.248 143.88C504.248 144.488 504.396 144.964 504.692 145.308C504.988 145.652 505.392 145.824 505.904 145.824C506.384 145.824 506.776 145.652 507.08 145.308C507.384 144.956 507.536 144.48 507.536 143.88C507.536 143.28 507.384 142.808 507.08 142.464C506.776 142.112 506.384 141.936 505.904 141.936ZM510.356 147V138.36H511.796V147H510.356ZM513.426 147V140.76H514.866V147H513.426ZM513.27 139.08C513.27 138.824 513.35 138.616 513.51 138.456C513.678 138.296 513.89 138.216 514.146 138.216C514.402 138.216 514.61 138.296 514.77 138.456C514.938 138.616 515.022 138.824 515.022 139.08C515.022 139.32 514.938 139.524 514.77 139.692C514.61 139.852 514.402 139.932 514.146 139.932C513.89 139.932 513.678 139.852 513.51 139.692C513.35 139.524 513.27 139.32 513.27 139.08ZM519.365 147.144C518.765 147.144 518.225 147.012 517.745 146.748C517.273 146.484 516.897 146.108 516.617 145.62C516.337 145.132 516.197 144.552 516.197 143.88C516.197 143.208 516.337 142.628 516.617 142.14C516.897 141.652 517.273 141.276 517.745 141.012C518.225 140.748 518.765 140.616 519.365 140.616C520.141 140.616 520.781 140.82 521.285 141.228C521.797 141.628 522.117 142.168 522.245 142.848L520.817 143.16C520.737 142.816 520.573 142.532 520.325 142.308C520.085 142.076 519.765 141.96 519.365 141.96C519.021 141.96 518.725 142.04 518.477 142.2C518.229 142.352 518.037 142.572 517.901 142.86C517.773 143.14 517.709 143.48 517.709 143.88C517.709 144.272 517.773 144.612 517.901 144.9C518.037 145.188 518.229 145.412 518.477 145.572C518.725 145.724 519.021 145.8 519.365 145.8C519.749 145.8 520.061 145.7 520.301 145.5C520.549 145.292 520.725 144.984 520.829 144.576L522.233 145.008C522.145 145.416 521.977 145.78 521.729 146.1C521.489 146.42 521.173 146.676 520.781 146.868C520.389 147.052 519.917 147.144 519.365 147.144ZM525.151 147.144C524.519 147.144 524.015 146.976 523.639 146.64C523.271 146.296 523.087 145.844 523.087 145.284C523.087 144.732 523.271 144.288 523.639 143.952C524.007 143.608 524.531 143.408 525.211 143.352L527.443 143.148V144.156L525.451 144.372C525.139 144.404 524.907 144.492 524.755 144.636C524.603 144.772 524.527 144.956 524.527 145.188C524.527 145.412 524.607 145.596 524.767 145.74C524.935 145.884 525.167 145.956 525.463 145.956C525.767 145.956 526.035 145.88 526.267 145.728C526.507 145.568 526.691 145.324 526.819 144.996C526.955 144.66 527.023 144.232 527.023 143.712V142.956C527.023 142.652 526.931 142.4 526.747 142.2C526.571 142 526.279 141.9 525.871 141.9C525.463 141.9 525.167 141.984 524.983 142.152C524.799 142.32 524.691 142.512 524.659 142.728H523.231C523.255 142.32 523.375 141.96 523.591 141.648C523.807 141.328 524.111 141.076 524.503 140.892C524.895 140.708 525.363 140.616 525.907 140.616C526.715 140.616 527.343 140.832 527.791 141.264C528.239 141.688 528.463 142.236 528.463 142.908V145.632L528.499 147H527.143L527.107 146.16H527.011C526.787 146.496 526.519 146.744 526.207 146.904C525.903 147.064 525.551 147.144 525.151 147.144ZM532.145 147.024C531.545 147.024 531.093 146.868 530.789 146.556C530.493 146.236 530.345 145.788 530.345 145.212V139.056H531.785V145.116C531.785 145.492 531.977 145.68 532.361 145.68H533.357V147.024H532.145ZM529.241 141.96V140.76H533.237V141.96H529.241ZM534.426 147V140.76H535.866V147H534.426ZM534.27 139.08C534.27 138.824 534.35 138.616 534.51 138.456C534.678 138.296 534.89 138.216 535.146 138.216C535.402 138.216 535.61 138.296 535.77 138.456C535.938 138.616 536.022 138.824 536.022 139.08C536.022 139.32 535.938 139.524 535.77 139.692C535.61 139.852 535.402 139.932 535.146 139.932C534.89 139.932 534.678 139.852 534.51 139.692C534.35 139.524 534.27 139.32 534.27 139.08ZM540.341 147.144C539.741 147.144 539.205 147.012 538.733 146.748C538.261 146.484 537.885 146.108 537.605 145.62C537.333 145.132 537.197 144.552 537.197 143.88C537.197 143.208 537.333 142.628 537.605 142.14C537.885 141.652 538.261 141.276 538.733 141.012C539.205 140.748 539.741 140.616 540.341 140.616C540.941 140.616 541.477 140.748 541.949 141.012C542.421 141.276 542.793 141.652 543.065 142.14C543.345 142.628 543.485 143.208 543.485 143.88C543.485 144.552 543.345 145.132 543.065 145.62C542.793 146.108 542.421 146.484 541.949 146.748C541.477 147.012 540.941 147.144 540.341 147.144ZM540.341 145.8C540.861 145.8 541.261 145.628 541.541 145.284C541.829 144.94 541.973 144.472 541.973 143.88C541.973 143.288 541.829 142.82 541.541 142.476C541.261 142.132 540.861 141.96 540.341 141.96C539.821 141.96 539.417 142.132 539.129 142.476C538.849 142.82 538.709 143.288 538.709 143.88C538.709 144.472 538.849 144.94 539.129 145.284C539.417 145.628 539.821 145.8 540.341 145.8ZM544.821 147V140.76H546.225V141.624H546.297C546.497 141.312 546.745 141.068 547.041 140.892C547.345 140.708 547.693 140.616 548.085 140.616C548.509 140.616 548.881 140.708 549.201 140.892C549.521 141.068 549.769 141.332 549.945 141.684C550.121 142.028 550.209 142.452 550.209 142.956V147H548.769V143.22C548.769 142.796 548.673 142.484 548.481 142.284C548.289 142.076 548.025 141.972 547.689 141.972C547.417 141.972 547.173 142.044 546.957 142.188C546.741 142.324 546.569 142.528 546.441 142.8C546.321 143.072 546.261 143.408 546.261 143.808V147H544.821Z" fill="white"/>
<path d="M451.829 139.465C452.024 139.27 452.34 139.27 452.536 139.465C452.73 139.66 452.731 139.977 452.536 140.172L450.207 142.5H482.993V143.5H450.207L452.536 145.828C452.73 146.023 452.731 146.34 452.536 146.535C452.34 146.73 452.024 146.73 451.829 146.535L448.647 143.353C448.452 143.158 448.452 142.842 448.647 142.646L451.829 139.465ZM590 142.5V143.5H554.993V142.5H590Z" fill="white"/>
<path d="M500.161 23V14.36H502.741L504.781 21.272H504.925L506.953 14.36H509.545V23H508.033V16.064H507.865L505.849 23H503.797L501.781 16.064H501.601V23H500.161ZM516.538 16.76V23H515.134V22.136H515.062C514.862 22.448 514.614 22.696 514.318 22.88C514.022 23.056 513.674 23.144 513.274 23.144C512.85 23.144 512.478 23.056 512.158 22.88C511.838 22.696 511.59 22.428 511.414 22.076C511.238 21.724 511.15 21.3 511.15 20.804V16.76H512.59V20.54C512.59 20.964 512.686 21.28 512.878 21.488C513.07 21.688 513.334 21.788 513.67 21.788C513.95 21.788 514.194 21.72 514.402 21.584C514.618 21.44 514.786 21.232 514.906 20.96C515.034 20.68 515.098 20.344 515.098 19.952V16.76H516.538ZM520.343 23.024C519.743 23.024 519.291 22.868 518.987 22.556C518.691 22.236 518.543 21.788 518.543 21.212V15.056H519.983V21.116C519.983 21.492 520.175 21.68 520.559 21.68H521.555V23.024H520.343ZM517.439 17.96V16.76H521.435V17.96H517.439ZM524.377 23.144C523.745 23.144 523.241 22.976 522.865 22.64C522.497 22.296 522.313 21.844 522.313 21.284C522.313 20.732 522.497 20.288 522.865 19.952C523.233 19.608 523.757 19.408 524.437 19.352L526.669 19.148V20.156L524.677 20.372C524.365 20.404 524.133 20.492 523.981 20.636C523.829 20.772 523.753 20.956 523.753 21.188C523.753 21.412 523.833 21.596 523.993 21.74C524.161 21.884 524.393 21.956 524.689 21.956C524.993 21.956 525.261 21.88 525.493 21.728C525.733 21.568 525.917 21.324 526.045 20.996C526.181 20.66 526.249 20.232 526.249 19.712V18.956C526.249 18.652 526.157 18.4 525.973 18.2C525.797 18 525.505 17.9 525.097 17.9C524.689 17.9 524.393 17.984 524.209 18.152C524.025 18.32 523.917 18.512 523.885 18.728H522.457C522.481 18.32 522.601 17.96 522.817 17.648C523.033 17.328 523.337 17.076 523.729 16.892C524.121 16.708 524.589 16.616 525.133 16.616C525.941 16.616 526.569 16.832 527.017 17.264C527.465 17.688 527.689 18.236 527.689 18.908V21.632L527.725 23H526.369L526.333 22.16H526.237C526.013 22.496 525.745 22.744 525.433 22.904C525.129 23.064 524.777 23.144 524.377 23.144ZM531.371 23.024C530.771 23.024 530.319 22.868 530.015 22.556C529.719 22.236 529.571 21.788 529.571 21.212V15.056H531.011V21.116C531.011 21.492 531.203 21.68 531.587 21.68H532.583V23.024H531.371ZM528.467 17.96V16.76H532.463V17.96H528.467ZM536.295 23.144C535.703 23.144 535.175 23.012 534.711 22.748C534.247 22.484 533.883 22.108 533.619 21.62C533.363 21.124 533.235 20.544 533.235 19.88C533.235 19.256 533.367 18.7 533.631 18.212C533.895 17.716 534.259 17.328 534.723 17.048C535.187 16.76 535.715 16.616 536.307 16.616C536.891 16.616 537.399 16.744 537.831 17C538.271 17.256 538.611 17.64 538.851 18.152C539.091 18.664 539.211 19.304 539.211 20.072V20.36H534.075V19.304H537.975L537.699 19.52C537.699 19.224 537.647 18.956 537.543 18.716C537.439 18.476 537.283 18.284 537.075 18.14C536.867 17.988 536.607 17.912 536.295 17.912C535.991 17.912 535.719 17.984 535.479 18.128C535.239 18.272 535.051 18.488 534.915 18.776C534.779 19.064 534.711 19.432 534.711 19.88C534.711 20.312 534.775 20.676 534.903 20.972C535.031 21.26 535.215 21.48 535.455 21.632C535.695 21.776 535.975 21.848 536.295 21.848C536.663 21.848 536.947 21.772 537.147 21.62C537.355 21.46 537.527 21.244 537.663 20.972L538.995 21.488C538.795 21.976 538.487 22.376 538.071 22.688C537.663 22.992 537.071 23.144 536.295 23.144Z" fill="white"/>
<path d="M585.965 15.4644C586.16 15.2692 586.477 15.2693 586.672 15.4644L589.854 18.646C590.049 18.8413 590.049 19.1578 589.854 19.353L586.672 22.5347C586.477 22.7299 586.16 22.7299 585.965 22.5347C585.77 22.3394 585.77 22.0228 585.965 21.8276L588.293 19.4995H543.996V18.4995H588.293L585.965 16.1714C585.77 15.9761 585.77 15.6596 585.965 15.4644ZM494.996 19.4995H448.5V18.4995H494.996V19.4995Z" fill="white"/>
<path d="M495.241 52.144C494.617 52.144 494.041 52.036 493.513 51.82C492.993 51.596 492.541 51.284 492.157 50.884C491.781 50.484 491.489 50.012 491.281 49.468C491.073 48.924 490.969 48.328 490.969 47.68C490.969 47.032 491.073 46.436 491.281 45.892C491.497 45.348 491.797 44.876 492.181 44.476C492.565 44.076 493.017 43.768 493.537 43.552C494.065 43.328 494.641 43.216 495.265 43.216C495.985 43.216 496.597 43.328 497.101 43.552C497.605 43.776 498.013 44.08 498.325 44.464C498.637 44.84 498.865 45.268 499.009 45.748L497.485 46.12C497.309 45.648 497.041 45.284 496.681 45.028C496.329 44.764 495.849 44.632 495.241 44.632C494.361 44.632 493.693 44.904 493.237 45.448C492.781 45.992 492.553 46.736 492.553 47.68C492.553 48.304 492.653 48.844 492.853 49.3C493.053 49.756 493.353 50.108 493.753 50.356C494.153 50.604 494.649 50.728 495.241 50.728C495.993 50.728 496.577 50.548 496.993 50.188C497.409 49.82 497.617 49.26 497.617 48.508V48.136L498.205 48.748H495.025V47.356H499.177V48.52C499.177 49.288 499.005 49.944 498.661 50.488C498.317 51.024 497.849 51.436 497.257 51.724C496.665 52.004 495.993 52.144 495.241 52.144ZM503.357 52.144C502.765 52.144 502.237 52.012 501.773 51.748C501.309 51.484 500.945 51.108 500.681 50.62C500.425 50.124 500.297 49.544 500.297 48.88C500.297 48.256 500.429 47.7 500.693 47.212C500.957 46.716 501.321 46.328 501.785 46.048C502.249 45.76 502.777 45.616 503.369 45.616C503.953 45.616 504.461 45.744 504.893 46C505.333 46.256 505.673 46.64 505.913 47.152C506.153 47.664 506.273 48.304 506.273 49.072V49.36H501.137V48.304H505.037L504.761 48.52C504.761 48.224 504.709 47.956 504.605 47.716C504.501 47.476 504.345 47.284 504.137 47.14C503.929 46.988 503.669 46.912 503.357 46.912C503.053 46.912 502.781 46.984 502.541 47.128C502.301 47.272 502.113 47.488 501.977 47.776C501.841 48.064 501.773 48.432 501.773 48.88C501.773 49.312 501.837 49.676 501.965 49.972C502.093 50.26 502.277 50.48 502.517 50.632C502.757 50.776 503.037 50.848 503.357 50.848C503.725 50.848 504.009 50.772 504.209 50.62C504.417 50.46 504.589 50.244 504.725 49.972L506.057 50.488C505.857 50.976 505.549 51.376 505.133 51.688C504.725 51.992 504.133 52.144 503.357 52.144ZM509.754 52.024C509.154 52.024 508.702 51.868 508.398 51.556C508.102 51.236 507.954 50.788 507.954 50.212V44.056H509.394V50.116C509.394 50.492 509.586 50.68 509.97 50.68H510.966V52.024H509.754ZM506.85 46.96V45.76H510.846V46.96H506.85ZM517.471 45.616C517.919 45.616 518.303 45.704 518.623 45.88C518.943 46.048 519.211 46.296 519.427 46.624H519.499V45.76H520.903V54.4H519.463V51.136H519.391C519.175 51.44 518.915 51.684 518.611 51.868C518.307 52.052 517.927 52.144 517.471 52.144C516.967 52.144 516.507 52.012 516.091 51.748C515.675 51.484 515.343 51.108 515.095 50.62C514.855 50.132 514.735 49.552 514.735 48.88C514.735 48.208 514.855 47.628 515.095 47.14C515.343 46.652 515.675 46.276 516.091 46.012C516.507 45.748 516.967 45.616 517.471 45.616ZM517.855 46.936C517.375 46.936 516.983 47.112 516.679 47.464C516.375 47.808 516.223 48.28 516.223 48.88C516.223 49.48 516.375 49.956 516.679 50.308C516.983 50.652 517.375 50.824 517.855 50.824C518.367 50.824 518.771 50.652 519.067 50.308C519.363 49.964 519.511 49.488 519.511 48.88C519.511 48.272 519.363 47.796 519.067 47.452C518.771 47.108 518.367 46.936 517.855 46.936ZM527.851 45.76V52H526.447V51.136H526.375C526.175 51.448 525.927 51.696 525.631 51.88C525.335 52.056 524.987 52.144 524.587 52.144C524.163 52.144 523.791 52.056 523.471 51.88C523.151 51.696 522.903 51.428 522.727 51.076C522.551 50.724 522.463 50.3 522.463 49.804V45.76H523.903V49.54C523.903 49.964 523.999 50.28 524.191 50.488C524.383 50.688 524.647 50.788 524.983 50.788C525.263 50.788 525.507 50.72 525.715 50.584C525.931 50.44 526.099 50.232 526.219 49.96C526.347 49.68 526.411 49.344 526.411 48.952V45.76H527.851ZM532.244 52.144C531.652 52.144 531.124 52.012 530.66 51.748C530.196 51.484 529.832 51.108 529.568 50.62C529.312 50.124 529.184 49.544 529.184 48.88C529.184 48.256 529.316 47.7 529.58 47.212C529.844 46.716 530.208 46.328 530.672 46.048C531.136 45.76 531.664 45.616 532.256 45.616C532.84 45.616 533.348 45.744 533.78 46C534.22 46.256 534.56 46.64 534.8 47.152C535.04 47.664 535.16 48.304 535.16 49.072V49.36H530.024V48.304H533.924L533.648 48.52C533.648 48.224 533.596 47.956 533.492 47.716C533.388 47.476 533.232 47.284 533.024 47.14C532.816 46.988 532.556 46.912 532.244 46.912C531.94 46.912 531.668 46.984 531.428 47.128C531.188 47.272 531 47.488 530.864 47.776C530.728 48.064 530.66 48.432 530.66 48.88C530.66 49.312 530.724 49.676 530.852 49.972C530.98 50.26 531.164 50.48 531.404 50.632C531.644 50.776 531.924 50.848 532.244 50.848C532.612 50.848 532.896 50.772 533.096 50.62C533.304 50.46 533.476 50.244 533.612 49.972L534.944 50.488C534.744 50.976 534.436 51.376 534.02 51.688C533.612 51.992 533.02 52.144 532.244 52.144ZM536.468 52V45.76H537.872V46.864H537.944C538.112 46.496 538.36 46.196 538.688 45.964C539.016 45.732 539.42 45.616 539.9 45.616H540.308V47.08H539.78C539.196 47.08 538.736 47.248 538.4 47.584C538.072 47.92 537.908 48.444 537.908 49.156V52H536.468ZM542.45 54.4L543.578 51.772V52.348L540.962 45.76H542.582L544.166 50.176H544.262L545.954 45.76H547.514L543.974 54.4H542.45Z" fill="white"/>
<path d="M585.965 44.4642C586.16 44.269 586.477 44.2692 586.672 44.4642L589.854 47.6459C590.049 47.8411 590.049 48.1576 589.854 48.3529L586.672 51.5345C586.477 51.7298 586.16 51.7298 585.965 51.5345C585.77 51.3393 585.77 51.0227 585.965 50.8275L588.293 48.4994H551.996V47.4994H588.293L585.965 45.1712C585.77 44.976 585.77 44.6594 585.965 44.4642ZM485.996 48.4994H448.5V47.4994H485.996V48.4994Z" fill="white"/>
<path d="M655.283 92.1494C654.315 92.1494 653.535 91.9614 652.943 91.5854C652.351 91.2014 651.915 90.6414 651.635 89.9054L653.195 89.3654C653.347 89.7974 653.599 90.1334 653.951 90.3734C654.303 90.6134 654.747 90.7334 655.283 90.7334C655.915 90.7334 656.383 90.6294 656.687 90.4214C656.991 90.2134 657.143 89.9414 657.143 89.6054C657.143 89.2614 657.043 89.0014 656.843 88.8254C656.643 88.6414 656.355 88.5294 655.979 88.4894L654.275 88.3094C653.531 88.2294 652.931 87.9774 652.475 87.5534C652.019 87.1294 651.791 86.5454 651.791 85.8014C651.791 85.3294 651.923 84.8974 652.187 84.5054C652.451 84.1134 652.819 83.8014 653.291 83.5694C653.771 83.3374 654.323 83.2214 654.947 83.2214C655.835 83.2214 656.563 83.4174 657.131 83.8094C657.707 84.1934 658.107 84.7134 658.331 85.3694L656.855 85.8854C656.703 85.4854 656.467 85.1774 656.147 84.9614C655.827 84.7454 655.427 84.6374 654.947 84.6374C654.427 84.6374 654.031 84.7454 653.759 84.9614C653.487 85.1774 653.351 85.4454 653.351 85.7654C653.351 86.0374 653.443 86.2694 653.627 86.4614C653.811 86.6454 654.107 86.7574 654.515 86.7974L656.051 86.9654C656.907 87.0614 657.559 87.3334 658.007 87.7814C658.463 88.2294 658.691 88.8374 658.691 89.6054C658.691 90.1254 658.555 90.5774 658.283 90.9614C658.019 91.3374 657.631 91.6294 657.119 91.8374C656.615 92.0454 656.003 92.1494 655.283 92.1494ZM667.185 92.4254L663.873 88.5494L664.929 87.6494L668.253 91.5374L667.185 92.4254ZM664.113 92.1494C663.273 92.1494 662.521 91.9694 661.857 91.6094C661.193 91.2494 660.669 90.7374 660.285 90.0734C659.909 89.4014 659.721 88.6054 659.721 87.6854C659.721 86.9974 659.829 86.3814 660.045 85.8374C660.269 85.2854 660.577 84.8174 660.969 84.4334C661.361 84.0414 661.825 83.7414 662.361 83.5334C662.897 83.3254 663.481 83.2214 664.113 83.2214C664.753 83.2214 665.337 83.3254 665.865 83.5334C666.401 83.7414 666.865 84.0414 667.257 84.4334C667.657 84.8174 667.965 85.2854 668.181 85.8374C668.397 86.3814 668.505 86.9974 668.505 87.6854C668.505 88.3734 668.397 88.9934 668.181 89.5454C667.965 90.0974 667.657 90.5694 667.257 90.9614C666.865 91.3454 666.401 91.6414 665.865 91.8494C665.337 92.0494 664.753 92.1494 664.113 92.1494ZM664.113 90.7454C664.713 90.7454 665.221 90.6174 665.637 90.3614C666.053 90.0974 666.369 89.7374 666.585 89.2814C666.809 88.8174 666.921 88.2854 666.921 87.6854C666.921 87.0774 666.809 86.5454 666.585 86.0894C666.369 85.6334 666.053 85.2774 665.637 85.0214C665.221 84.7574 664.713 84.6254 664.113 84.6254C663.521 84.6254 663.013 84.7574 662.589 85.0214C662.173 85.2774 661.853 85.6334 661.629 86.0894C661.413 86.5454 661.305 87.0774 661.305 87.6854C661.305 88.2854 661.413 88.8174 661.629 89.2814C661.853 89.7374 662.173 90.0974 662.589 90.3614C663.013 90.6174 663.521 90.7454 664.113 90.7454ZM669.901 92.0054V83.3654H671.413V91.2614L670.765 90.6134H675.565V92.0054H669.901Z" fill="white"/>
<path d="M666.535 102.465C666.73 102.66 666.73 102.977 666.535 103.172L663.354 106.354C663.158 106.549 662.842 106.549 662.647 106.354L659.465 103.172C659.27 102.977 659.27 102.66 659.465 102.465C659.66 102.27 659.977 102.27 660.172 102.465L662.5 104.793L662.5 96.2539L663.5 96.2539L663.5 104.793L665.828 102.465C666.023 102.27 666.34 102.27 666.535 102.465ZM662.5 78.2539L662.5 70L663.5 70L663.5 78.2539L662.5 78.2539Z" fill="white"/>
</svg>
