<svg width="48" height="48" viewBox="0 0 48 48" fill="none" xmlns="http://www.w3.org/2000/svg">
<path d="M14.545 38.3037C21.2011 42.7136 30.2574 41.9863 36.1218 36.1218C39.5128 32.7309 41.1862 28.2728 41.142 23.8286L47.1855 17.7851C49.3237 25.7919 47.252 34.6891 40.9705 40.9706C31.598 50.3431 16.402 50.3431 7.02943 40.9706C6.20631 40.1474 5.45548 39.2794 4.77693 38.3743L12.7873 30.364H22.4848L14.545 38.3037Z" fill="#1E1E1E"/>
<path d="M7.02943 7.02944C0.747934 13.3109 -1.32371 22.2081 0.814515 30.2149L6.85799 24.1714C6.81382 19.7272 8.48721 15.2691 11.8782 11.8782C17.7426 6.01373 26.7988 5.28643 33.455 9.69629L25.5152 17.636H35.2127L43.223 9.62566C42.5445 8.7206 41.7937 7.85256 40.9705 7.02944C31.598 -2.34315 16.402 -2.34315 7.02943 7.02944Z" fill="#1E1E1E"/>
</svg>
