<svg width="107" height="24" viewBox="0 0 107 24" fill="none" xmlns="http://www.w3.org/2000/svg">
<path d="M82.9651 11.9824C82.9651 5.86823 87.1817 1.90735e-06 94.5961 1.90735e-06C102.01 1.90735e-06 106.227 5.86823 106.227 11.9824C106.227 18.0966 102.01 24 94.5961 24C87.1817 24 82.9651 18.0966 82.9651 11.9824ZM100.71 11.9824C100.71 8.5388 98.5668 5.13031 94.5961 5.13031C90.6254 5.13031 88.517 8.5388 88.517 11.9824C88.517 15.4612 90.6605 18.7994 94.5961 18.7994C98.5317 18.7994 100.71 15.4612 100.71 11.9824Z" fill="#1E1E1E"/>
<path d="M55.7439 23.543V0.456644H71.6619C76.3003 0.456644 78.5843 3.83 78.5843 7.55474C78.5843 10.6821 76.8273 13.5635 73.3486 14.2663C73.454 14.442 73.5946 14.5826 73.6648 14.7583L78.9357 23.543H72.9269L67.5155 14.442H61.085V23.543H55.7439ZM61.085 9.52253H71.6619C72.6809 9.52253 73.2432 8.78461 73.2432 7.76557V7.13307C73.2432 6.0789 72.6809 5.37612 71.6619 5.37612H61.085V9.52253Z" fill="#1E1E1E"/>
<path d="M27.8797 0.456644H49.8768V5.37612H33.2208V9.52253H45.5898V14.442H33.2208V18.6236H49.8768V23.543H27.8797V0.456644Z" fill="#1E1E1E"/>
<path d="M0 19.3615L13.634 5.37612H0.421669V0.456644H21.5754V4.63819L7.9063 18.6236H21.9971V23.543H0V19.3615Z" fill="#1E1E1E"/>
</svg>
