<svg width="424" height="80" viewBox="0 0 424 80" fill="none" xmlns="http://www.w3.org/2000/svg">
<path d="M393.299 46.35V45.7H400.849V46.35C400.849 47.75 401.899 48.7 403.549 49.3C405.149 49.9 407.199 50.1 408.599 50.1C410.249 50.1 412.249 49.95 413.849 49.35C415.399 48.75 416.399 47.8 416.399 46.2C416.399 44.85 415.349 44.1 413.599 43.7C412.699 43.45 411.749 43.35 410.849 43.3C409.899 43.25 409.049 43.25 408.349 43.25C401.199 43.25 393.899 41.95 393.899 33.55C393.899 25.35 401.199 23 408.599 23C415.599 23 423.349 26.1 423.349 33.75V34.45H415.799V33.75C415.799 32.4 414.849 31.45 413.399 30.85C411.899 30.25 410.049 30 408.599 30C407.099 30 405.249 30.15 403.799 30.7C402.399 31.2 401.499 32.1 401.499 33.55C401.499 34.8 402.449 35.5 404.099 35.85C404.899 36.05 405.799 36.15 406.649 36.2C407.499 36.25 408.349 36.25 408.949 36.25C416.299 36.25 423.999 37.55 423.999 46.2C423.999 54.7 416.299 57.15 408.599 57.15C401.699 57.15 393.299 54.2 393.299 46.35Z" fill="white"/>
<path d="M355.59 40.05C355.59 31.35 361.59 23 372.14 23C381.34 23 387.29 29.4 388.49 37.1L388.59 37.85H380.64L380.54 37.35C379.64 33.4 376.59 30.3 372.14 30.3C366.49 30.3 363.49 35.15 363.49 40.05C363.49 45 366.54 49.75 372.14 49.75C376.59 49.75 379.64 46.7 380.54 42.75L380.64 42.2H388.59L388.49 42.95C387.29 50.7 381.34 57.15 372.14 57.15C361.59 57.15 355.59 48.75 355.59 40.05Z" fill="white"/>
<path d="M317.783 40.05C317.783 31.35 323.783 23 334.333 23C344.883 23 350.883 31.35 350.883 40.05C350.883 48.75 344.883 57.15 334.333 57.15C323.783 57.15 317.783 48.75 317.783 40.05ZM343.033 40.05C343.033 35.15 339.983 30.3 334.333 30.3C328.683 30.3 325.683 35.15 325.683 40.05C325.683 45 328.733 49.75 334.333 49.75C339.933 49.75 343.033 45 343.033 40.05Z" fill="white"/>
<path d="M280.599 23.65H296.549C306.849 23.65 313.099 31.35 313.099 40.05C313.099 48.75 306.799 56.5 296.549 56.5H280.599V23.65ZM296.549 49.5C302.099 49.5 305.249 44.95 305.249 40.05C305.249 35.2 302.099 30.65 296.549 30.65H288.199V49.5H296.549Z" fill="white"/>
<path d="M227.312 40.05C227.312 31.35 233.312 23 243.862 23C254.412 23 260.412 31.35 260.412 40.05C260.412 48.75 254.412 57.15 243.862 57.15C233.312 57.15 227.312 48.75 227.312 40.05ZM252.563 40.05C252.563 35.15 249.512 30.3 243.862 30.3C238.212 30.3 235.213 35.15 235.213 40.05C235.213 45 238.262 49.75 243.862 49.75C249.462 49.75 252.563 45 252.563 40.05Z" fill="white"/>
<path d="M190.079 56.5V23.65H212.729C219.329 23.65 222.579 28.45 222.579 33.75C222.579 38.2 220.079 42.3 215.129 43.3C215.279 43.55 215.479 43.75 215.579 44L223.079 56.5H214.529L206.829 43.55H197.679V56.5H190.079ZM197.679 36.55H212.729C214.179 36.55 214.979 35.5 214.979 34.05V33.15C214.979 31.65 214.179 30.65 212.729 30.65H197.679V36.55Z" fill="white"/>
<path d="M151.931 23.65H183.231V30.65H159.531V36.55H177.131V43.55H159.531V49.5H183.231V56.5H151.931V23.65Z" fill="white"/>
<path d="M113.76 50.55L133.16 30.65H114.36V23.65H144.46V29.6L125.01 49.5H145.06V56.5H113.76V50.55Z" fill="white"/>
<path d="M24.2417 63.8396C35.3352 71.1893 50.429 69.9771 60.203 60.2031C65.8546 54.5515 68.6436 47.1213 68.57 39.7143L78.6425 29.6418C82.2062 42.9865 78.7534 57.8151 68.2843 68.2843C52.6633 83.9053 27.3367 83.9053 11.7157 68.2843C10.3439 66.9124 9.09246 65.4657 7.96155 63.9573L21.3122 50.6066H37.4746L24.2417 63.8396Z" fill="white"/>
<path d="M11.7157 11.7157C1.24656 22.1849 -2.20618 37.0135 1.35753 50.3582L11.43 40.2858C11.3564 32.8787 14.1454 25.4486 19.7969 19.797C29.571 10.0229 44.6648 8.81073 55.7583 16.1605L42.5254 29.3934H58.6878L72.0384 16.0428C70.9075 14.5343 69.6561 13.0876 68.2843 11.7157C52.6633 -3.90524 27.3367 -3.90524 11.7157 11.7157Z" fill="white"/>
</svg>
