<svg width="409" height="112" viewBox="0 0 409 112" fill="none" xmlns="http://www.w3.org/2000/svg">
<path d="M33.9384 89.3753C49.4693 99.665 70.6006 97.968 84.2843 84.2843C92.1965 76.372 96.1011 65.9698 95.998 55.6L110.099 41.4985C115.089 60.1811 110.255 80.9411 95.598 95.598C73.7286 117.467 38.2714 117.467 16.402 95.598C14.4814 93.6774 12.7295 91.6519 11.1462 89.5401L29.837 70.8492H52.4645L33.9384 89.3753Z" fill="white"/>
<path d="M16.402 16.402C1.74518 31.0589 -3.08865 51.8189 1.90054 70.5015L16.002 56.4C15.8989 46.0302 19.8035 35.628 27.7157 27.7157C41.3994 14.032 62.5307 12.335 78.0616 22.6247L59.5355 41.1508H82.1629L100.854 22.4599C99.2706 20.3481 97.5186 18.3226 95.598 16.402C73.7286 -5.46734 38.2714 -5.46734 16.402 16.402Z" fill="white"/>
<path d="M355.804 55.9599C355.804 42.0399 365.404 28.6799 382.284 28.6799C399.164 28.6799 408.764 42.0399 408.764 55.9599C408.764 69.8799 399.164 83.3199 382.284 83.3199C365.404 83.3199 355.804 69.8799 355.804 55.9599ZM396.204 55.9599C396.204 48.1199 391.324 40.3599 382.284 40.3599C373.244 40.3599 368.444 48.1199 368.444 55.9599C368.444 63.8799 373.324 71.4799 382.284 71.4799C391.244 71.4799 396.204 63.8799 396.204 55.9599Z" fill="white"/>
<path d="M293.83 82.28V29.72H330.07C340.63 29.72 345.83 37.4 345.83 45.88C345.83 53 341.83 59.56 333.91 61.16C334.15 61.56 334.47 61.88 334.63 62.28L346.63 82.28H332.95L320.63 61.56H305.99V82.28H293.83ZM305.99 50.36H330.07C332.39 50.36 333.67 48.68 333.67 46.36V44.92C333.67 42.52 332.39 40.92 330.07 40.92H305.99V50.36Z" fill="white"/>
<path d="M230.393 29.72H280.473V40.92H242.553V50.36H270.713V61.56H242.553V71.08H280.473V82.28H230.393V29.72Z" fill="white"/>
<path d="M166.92 72.76L197.96 40.92H167.88V29.72H216.04V39.24L184.92 71.08H217V82.28H166.92V72.76Z" fill="white"/>
</svg>
