<svg width="173" height="32" viewBox="0 0 173 32" fill="none" xmlns="http://www.w3.org/2000/svg">
<path d="M9.69668 25.5358C14.1341 28.4757 20.1716 27.9908 24.0812 24.0812C26.3419 21.8206 27.4575 18.8485 27.428 15.8857L31.457 11.8567C32.8825 17.1946 31.5014 23.126 27.3137 27.3137C21.0653 33.5621 10.9347 33.5621 4.68629 27.3137C4.13754 26.765 3.63699 26.1863 3.18462 25.5829L8.52487 20.2426H14.9898L9.69668 25.5358Z" fill="white"/>
<path d="M4.68629 4.68629C0.498623 8.87396 -0.882472 14.8054 0.54301 20.1433L4.572 16.1143C4.54255 13.1515 5.65814 10.1794 7.91878 7.91878C11.8284 4.00915 17.8659 3.52429 22.3033 6.46419L17.0102 11.7574H23.4751L28.8154 6.41711C28.363 5.81373 27.8625 5.23504 27.3137 4.68629C21.0653 -1.5621 10.9347 -1.5621 4.68629 4.68629Z" fill="white"/>
<path d="M101.658 16.0801C101.658 12.1029 104.401 8.28577 109.224 8.28577C114.047 8.28577 116.79 12.1029 116.79 16.0801C116.79 20.0572 114.047 23.8972 109.224 23.8972C104.401 23.8972 101.658 20.0572 101.658 16.0801ZM113.201 16.0801C113.201 13.8401 111.807 11.6229 109.224 11.6229C106.641 11.6229 105.27 13.8401 105.27 16.0801C105.27 18.3429 106.664 20.5143 109.224 20.5143C111.784 20.5143 113.201 18.3429 113.201 16.0801Z" fill="white"/>
<path d="M83.9517 23.6V8.58289H94.3059C97.3231 8.58289 98.8088 10.7772 98.8088 13.2C98.8088 15.2343 97.6659 17.1086 95.4031 17.5657C95.4717 17.68 95.5631 17.7715 95.6088 17.8857L99.0374 23.6H95.1288L91.6088 17.68H87.4259V23.6H83.9517ZM87.4259 14.48H94.3059C94.9688 14.48 95.3345 14 95.3345 13.3372V12.9257C95.3345 12.24 94.9688 11.7829 94.3059 11.7829H87.4259V14.48Z" fill="white"/>
<path d="M65.8267 8.58289H80.1352V11.7829H69.3009V14.48H77.3467V17.68H69.3009V20.4H80.1352V23.6H65.8267V8.58289Z" fill="white"/>
<path d="M47.6914 20.88L56.56 11.7829H47.9657V8.58289H61.7257V11.3029L52.8343 20.4H62V23.6H47.6914V20.88Z" fill="white"/>
<path fill-rule="evenodd" clip-rule="evenodd" d="M128.43 8.28577C127.325 8.28577 126.43 9.1812 126.43 10.2858V22.0001C126.43 23.1046 127.325 24.0001 128.43 24.0001H171.001C172.106 24.0001 173.001 23.1046 173.001 22.0001V10.2858C173.001 9.1812 172.106 8.28577 171.001 8.28577H128.43ZM163.022 13.1429L160.635 19.1497H162.107L162.674 17.6777H165.188L165.764 19.1497H167.255L164.878 13.1429H163.022ZM164.713 16.3977H163.15L163.918 14.4777L164.713 16.3977ZM153.62 13.1429H155.01V15.5017H158.073V13.1429H159.454V19.1497H158.073V16.7817H155.01V19.1497H153.62V13.1429ZM146.263 13.1429V19.1497H147.653V16.7817H150.405C151.566 16.7817 152.206 15.9589 152.206 14.9897C152.206 14.0206 151.612 13.1429 150.405 13.1429H146.263ZM150.405 15.5017H147.653V14.4229H150.405C150.67 14.4229 150.816 14.6057 150.816 14.88V15.0446C150.816 15.3097 150.67 15.5017 150.405 15.5017ZM140.237 13.1429H141.626V17.8697H144.954V19.1497H140.237V13.1429ZM134.816 13.1429L132.43 19.1497H133.902L134.469 17.6777H136.983L137.559 19.1497H139.049L136.672 13.1429H134.816ZM136.508 16.3977H134.953L135.712 14.4869L136.508 16.3977Z" fill="#FC218A"/>
</svg>
