<svg width="701" height="209" viewBox="0 0 701 209" fill="none" xmlns="http://www.w3.org/2000/svg">
<rect y="86" width="136" height="122" rx="6" fill="#1E1E1E"/>
<path d="M32.3839 151.012L35.6119 142.372H37.4119L40.6279 151.012H38.9719L36.5359 144.292H36.4159L34.0039 151.012H32.3839ZM33.9199 149.14V147.748H38.9839V149.14H33.9199ZM44.2465 151.156C43.6465 151.156 43.1065 151.024 42.6265 150.76C42.1545 150.496 41.7785 150.12 41.4985 149.632C41.2185 149.144 41.0785 148.564 41.0785 147.892C41.0785 147.22 41.2185 146.64 41.4985 146.152C41.7785 145.664 42.1545 145.288 42.6265 145.024C43.1065 144.76 43.6465 144.628 44.2465 144.628C45.0225 144.628 45.6625 144.832 46.1665 145.24C46.6785 145.64 46.9985 146.18 47.1265 146.86L45.6985 147.172C45.6185 146.828 45.4545 146.544 45.2065 146.32C44.9665 146.088 44.6465 145.972 44.2465 145.972C43.9025 145.972 43.6065 146.052 43.3585 146.212C43.1105 146.364 42.9185 146.584 42.7825 146.872C42.6545 147.152 42.5905 147.492 42.5905 147.892C42.5905 148.284 42.6545 148.624 42.7825 148.912C42.9185 149.2 43.1105 149.424 43.3585 149.584C43.6065 149.736 43.9025 149.812 44.2465 149.812C44.6305 149.812 44.9425 149.712 45.1825 149.512C45.4305 149.304 45.6065 148.996 45.7105 148.588L47.1145 149.02C47.0265 149.428 46.8585 149.792 46.6105 150.112C46.3705 150.432 46.0545 150.688 45.6625 150.88C45.2705 151.064 44.7985 151.156 44.2465 151.156ZM50.4528 151.036C49.8528 151.036 49.4008 150.88 49.0968 150.568C48.8008 150.248 48.6528 149.8 48.6528 149.224V143.068H50.0928V149.128C50.0928 149.504 50.2848 149.692 50.6688 149.692H51.6648V151.036H50.4528ZM47.5488 145.972V144.772H51.5448V145.972H47.5488ZM52.734 151.012V144.772H54.174V151.012H52.734ZM52.578 143.092C52.578 142.836 52.658 142.628 52.818 142.468C52.986 142.308 53.198 142.228 53.454 142.228C53.71 142.228 53.918 142.308 54.078 142.468C54.246 142.628 54.33 142.836 54.33 143.092C54.33 143.332 54.246 143.536 54.078 143.704C53.918 143.864 53.71 143.944 53.454 143.944C53.198 143.944 52.986 143.864 52.818 143.704C52.658 143.536 52.578 143.332 52.578 143.092ZM57.3883 151.012L55.0363 144.772H56.6563L58.1563 149.128H58.2763L59.8243 144.772H61.3843L58.9843 151.012H57.3883ZM64.9158 151.156C64.3238 151.156 63.7958 151.024 63.3318 150.76C62.8678 150.496 62.5038 150.12 62.2398 149.632C61.9838 149.136 61.8558 148.556 61.8558 147.892C61.8558 147.268 61.9878 146.712 62.2518 146.224C62.5158 145.728 62.8798 145.34 63.3438 145.06C63.8078 144.772 64.3358 144.628 64.9278 144.628C65.5118 144.628 66.0198 144.756 66.4518 145.012C66.8918 145.268 67.2318 145.652 67.4718 146.164C67.7118 146.676 67.8318 147.316 67.8318 148.084V148.372H62.6958V147.316H66.5958L66.3198 147.532C66.3198 147.236 66.2678 146.968 66.1638 146.728C66.0598 146.488 65.9038 146.296 65.6958 146.152C65.4878 146 65.2278 145.924 64.9158 145.924C64.6118 145.924 64.3398 145.996 64.0998 146.14C63.8598 146.284 63.6718 146.5 63.5358 146.788C63.3998 147.076 63.3318 147.444 63.3318 147.892C63.3318 148.324 63.3958 148.688 63.5238 148.984C63.6518 149.272 63.8358 149.492 64.0758 149.644C64.3158 149.788 64.5958 149.86 64.9158 149.86C65.2838 149.86 65.5678 149.784 65.7678 149.632C65.9758 149.472 66.1478 149.256 66.2838 148.984L67.6158 149.5C67.4158 149.988 67.1078 150.388 66.6918 150.7C66.2838 151.004 65.6918 151.156 64.9158 151.156ZM74.5762 144.628C75.0242 144.628 75.4082 144.716 75.7282 144.892C76.0482 145.06 76.3162 145.308 76.5322 145.636H76.6042V144.772H78.0082V153.412H76.5682V150.148H76.4962C76.2802 150.452 76.0202 150.696 75.7162 150.88C75.4122 151.064 75.0322 151.156 74.5762 151.156C74.0722 151.156 73.6122 151.024 73.1962 150.76C72.7802 150.496 72.4482 150.12 72.2002 149.632C71.9602 149.144 71.8402 148.564 71.8402 147.892C71.8402 147.22 71.9602 146.64 72.2002 146.152C72.4482 145.664 72.7802 145.288 73.1962 145.024C73.6122 144.76 74.0722 144.628 74.5762 144.628ZM74.9602 145.948C74.4802 145.948 74.0882 146.124 73.7842 146.476C73.4802 146.82 73.3282 147.292 73.3282 147.892C73.3282 148.492 73.4802 148.968 73.7842 149.32C74.0882 149.664 74.4802 149.836 74.9602 149.836C75.4722 149.836 75.8762 149.664 76.1722 149.32C76.4682 148.976 76.6162 148.5 76.6162 147.892C76.6162 147.284 76.4682 146.808 76.1722 146.464C75.8762 146.12 75.4722 145.948 74.9602 145.948ZM84.9562 144.772V151.012H83.5522V150.148H83.4802C83.2802 150.46 83.0322 150.708 82.7362 150.892C82.4402 151.068 82.0922 151.156 81.6922 151.156C81.2682 151.156 80.8962 151.068 80.5762 150.892C80.2562 150.708 80.0082 150.44 79.8322 150.088C79.6562 149.736 79.5682 149.312 79.5682 148.816V144.772H81.0082V148.552C81.0082 148.976 81.1042 149.292 81.2962 149.5C81.4882 149.7 81.7522 149.8 82.0882 149.8C82.3682 149.8 82.6122 149.732 82.8202 149.596C83.0362 149.452 83.2042 149.244 83.3242 148.972C83.4522 148.692 83.5162 148.356 83.5162 147.964V144.772H84.9562ZM89.3494 151.156C88.7574 151.156 88.2294 151.024 87.7654 150.76C87.3014 150.496 86.9374 150.12 86.6734 149.632C86.4174 149.136 86.2894 148.556 86.2894 147.892C86.2894 147.268 86.4214 146.712 86.6854 146.224C86.9494 145.728 87.3134 145.34 87.7774 145.06C88.2414 144.772 88.7694 144.628 89.3614 144.628C89.9454 144.628 90.4534 144.756 90.8854 145.012C91.3254 145.268 91.6654 145.652 91.9054 146.164C92.1454 146.676 92.2654 147.316 92.2654 148.084V148.372H87.1294V147.316H91.0294L90.7534 147.532C90.7534 147.236 90.7014 146.968 90.5974 146.728C90.4934 146.488 90.3374 146.296 90.1294 146.152C89.9214 146 89.6614 145.924 89.3494 145.924C89.0454 145.924 88.7734 145.996 88.5334 146.14C88.2934 146.284 88.1054 146.5 87.9694 146.788C87.8334 147.076 87.7654 147.444 87.7654 147.892C87.7654 148.324 87.8294 148.688 87.9574 148.984C88.0854 149.272 88.2694 149.492 88.5094 149.644C88.7494 149.788 89.0294 149.86 89.3494 149.86C89.7174 149.86 90.0014 149.784 90.2014 149.632C90.4094 149.472 90.5814 149.256 90.7174 148.984L92.0494 149.5C91.8494 149.988 91.5414 150.388 91.1254 150.7C90.7174 151.004 90.1254 151.156 89.3494 151.156ZM93.5738 151.012V144.772H94.9778V145.876H95.0498C95.2178 145.508 95.4658 145.208 95.7938 144.976C96.1218 144.744 96.5258 144.628 97.0058 144.628H97.4138V146.092H96.8858C96.3018 146.092 95.8418 146.26 95.5058 146.596C95.1778 146.932 95.0138 147.456 95.0138 148.168V151.012H93.5738ZM99.5555 153.412L100.684 150.784V151.36L98.0675 144.772H99.6875L101.272 149.188H101.368L103.06 144.772H104.62L101.08 153.412H99.5555Z" fill="white"/>
<rect x="282" y="86" width="136" height="122" rx="6" fill="#1E1E1E"/>
<path d="M315.116 151.144C314.324 151.144 313.608 150.964 312.968 150.604C312.328 150.244 311.82 149.732 311.444 149.068C311.068 148.396 310.88 147.604 310.88 146.692C310.88 146.004 310.988 145.384 311.204 144.832C311.42 144.28 311.72 143.812 312.104 143.428C312.488 143.036 312.936 142.736 313.448 142.528C313.968 142.32 314.524 142.216 315.116 142.216C315.836 142.216 316.464 142.34 317 142.588C317.536 142.828 317.972 143.18 318.308 143.644C318.652 144.1 318.888 144.648 319.016 145.288L317.492 145.612C317.396 145.212 317.244 144.864 317.036 144.568C316.836 144.272 316.58 144.044 316.268 143.884C315.956 143.716 315.584 143.632 315.152 143.632C314.592 143.632 314.108 143.756 313.7 144.004C313.3 144.252 312.992 144.604 312.776 145.06C312.568 145.516 312.464 146.06 312.464 146.692C312.464 147.316 312.572 147.856 312.788 148.312C313.004 148.768 313.312 149.12 313.712 149.368C314.12 149.608 314.6 149.728 315.152 149.728C315.576 149.728 315.94 149.66 316.244 149.524C316.556 149.38 316.816 149.164 317.024 148.876C317.24 148.58 317.408 148.212 317.528 147.772L319.016 148.168C318.888 148.768 318.656 149.292 318.32 149.74C317.984 150.18 317.548 150.524 317.012 150.772C316.476 151.02 315.844 151.144 315.116 151.144ZM321.966 151.144C321.334 151.144 320.83 150.976 320.454 150.64C320.086 150.296 319.902 149.844 319.902 149.284C319.902 148.732 320.086 148.288 320.454 147.952C320.822 147.608 321.346 147.408 322.026 147.352L324.258 147.148V148.156L322.266 148.372C321.954 148.404 321.722 148.492 321.57 148.636C321.418 148.772 321.342 148.956 321.342 149.188C321.342 149.412 321.422 149.596 321.582 149.74C321.75 149.884 321.982 149.956 322.278 149.956C322.582 149.956 322.85 149.88 323.082 149.728C323.322 149.568 323.506 149.324 323.634 148.996C323.77 148.66 323.838 148.232 323.838 147.712V146.956C323.838 146.652 323.746 146.4 323.562 146.2C323.386 146 323.094 145.9 322.686 145.9C322.278 145.9 321.982 145.984 321.798 146.152C321.614 146.32 321.506 146.512 321.474 146.728H320.046C320.07 146.32 320.19 145.96 320.406 145.648C320.622 145.328 320.926 145.076 321.318 144.892C321.71 144.708 322.178 144.616 322.722 144.616C323.53 144.616 324.158 144.832 324.606 145.264C325.054 145.688 325.278 146.236 325.278 146.908V149.632L325.314 151H323.958L323.922 150.16H323.826C323.602 150.496 323.334 150.744 323.022 150.904C322.718 151.064 322.366 151.144 321.966 151.144ZM329.657 151.144C329.057 151.144 328.517 151.012 328.037 150.748C327.565 150.484 327.189 150.108 326.909 149.62C326.629 149.132 326.489 148.552 326.489 147.88C326.489 147.208 326.629 146.628 326.909 146.14C327.189 145.652 327.565 145.276 328.037 145.012C328.517 144.748 329.057 144.616 329.657 144.616C330.433 144.616 331.073 144.82 331.577 145.228C332.089 145.628 332.409 146.168 332.537 146.848L331.109 147.16C331.029 146.816 330.865 146.532 330.617 146.308C330.377 146.076 330.057 145.96 329.657 145.96C329.313 145.96 329.017 146.04 328.769 146.2C328.521 146.352 328.329 146.572 328.193 146.86C328.065 147.14 328.001 147.48 328.001 147.88C328.001 148.272 328.065 148.612 328.193 148.9C328.329 149.188 328.521 149.412 328.769 149.572C329.017 149.724 329.313 149.8 329.657 149.8C330.041 149.8 330.353 149.7 330.593 149.5C330.841 149.292 331.017 148.984 331.121 148.576L332.525 149.008C332.437 149.416 332.269 149.78 332.021 150.1C331.781 150.42 331.465 150.676 331.073 150.868C330.681 151.052 330.209 151.144 329.657 151.144ZM333.691 151V142.36H335.131V145.6H335.203C335.387 145.296 335.627 145.056 335.923 144.88C336.219 144.704 336.563 144.616 336.955 144.616C337.371 144.616 337.739 144.708 338.059 144.892C338.379 145.068 338.627 145.332 338.803 145.684C338.987 146.028 339.079 146.452 339.079 146.956V151H337.639V147.22C337.639 146.796 337.539 146.484 337.339 146.284C337.139 146.076 336.871 145.972 336.535 145.972C336.271 145.972 336.031 146.044 335.815 146.188C335.607 146.324 335.439 146.528 335.311 146.8C335.191 147.072 335.131 147.408 335.131 147.808V151H333.691ZM343.4 151.144C342.808 151.144 342.28 151.012 341.816 150.748C341.352 150.484 340.988 150.108 340.724 149.62C340.468 149.124 340.34 148.544 340.34 147.88C340.34 147.256 340.472 146.7 340.736 146.212C341 145.716 341.364 145.328 341.828 145.048C342.292 144.76 342.82 144.616 343.412 144.616C343.996 144.616 344.504 144.744 344.936 145C345.376 145.256 345.716 145.64 345.956 146.152C346.196 146.664 346.316 147.304 346.316 148.072V148.36H341.18V147.304H345.08L344.804 147.52C344.804 147.224 344.752 146.956 344.648 146.716C344.544 146.476 344.388 146.284 344.18 146.14C343.972 145.988 343.712 145.912 343.4 145.912C343.096 145.912 342.824 145.984 342.584 146.128C342.344 146.272 342.156 146.488 342.02 146.776C341.884 147.064 341.816 147.432 341.816 147.88C341.816 148.312 341.88 148.676 342.008 148.972C342.136 149.26 342.32 149.48 342.56 149.632C342.8 149.776 343.08 149.848 343.4 149.848C343.768 149.848 344.052 149.772 344.252 149.62C344.46 149.46 344.632 149.244 344.768 148.972L346.1 149.488C345.9 149.976 345.592 150.376 345.176 150.688C344.768 150.992 344.176 151.144 343.4 151.144ZM350.061 151.144C349.557 151.144 349.097 151.012 348.681 150.748C348.265 150.484 347.933 150.108 347.685 149.62C347.445 149.132 347.325 148.552 347.325 147.88C347.325 147.208 347.445 146.628 347.685 146.14C347.933 145.652 348.265 145.276 348.681 145.012C349.097 144.748 349.557 144.616 350.061 144.616C350.517 144.616 350.897 144.708 351.201 144.892C351.505 145.076 351.765 145.32 351.981 145.624H352.053V142.36H353.493V151H352.089V150.136H352.017C351.801 150.464 351.533 150.716 351.213 150.892C350.893 151.06 350.509 151.144 350.061 151.144ZM350.445 149.824C350.957 149.824 351.361 149.652 351.657 149.308C351.953 148.964 352.101 148.488 352.101 147.88C352.101 147.264 351.953 146.788 351.657 146.452C351.361 146.108 350.957 145.936 350.445 145.936C349.965 145.936 349.573 146.112 349.269 146.464C348.965 146.808 348.813 147.28 348.813 147.88C348.813 148.48 348.965 148.956 349.269 149.308C349.573 149.652 349.965 149.824 350.445 149.824ZM360.561 144.616C361.009 144.616 361.393 144.704 361.713 144.88C362.033 145.048 362.301 145.296 362.517 145.624H362.589V144.76H363.993V153.4H362.553V150.136H362.481C362.265 150.44 362.005 150.684 361.701 150.868C361.397 151.052 361.017 151.144 360.561 151.144C360.057 151.144 359.597 151.012 359.181 150.748C358.765 150.484 358.433 150.108 358.185 149.62C357.945 149.132 357.825 148.552 357.825 147.88C357.825 147.208 357.945 146.628 358.185 146.14C358.433 145.652 358.765 145.276 359.181 145.012C359.597 144.748 360.057 144.616 360.561 144.616ZM360.945 145.936C360.465 145.936 360.073 146.112 359.769 146.464C359.465 146.808 359.313 147.28 359.313 147.88C359.313 148.48 359.465 148.956 359.769 149.308C360.073 149.652 360.465 149.824 360.945 149.824C361.457 149.824 361.861 149.652 362.157 149.308C362.453 148.964 362.601 148.488 362.601 147.88C362.601 147.272 362.453 146.796 362.157 146.452C361.861 146.108 361.457 145.936 360.945 145.936ZM370.941 144.76V151H369.537V150.136H369.465C369.265 150.448 369.017 150.696 368.721 150.88C368.425 151.056 368.077 151.144 367.677 151.144C367.253 151.144 366.881 151.056 366.561 150.88C366.241 150.696 365.993 150.428 365.817 150.076C365.641 149.724 365.553 149.3 365.553 148.804V144.76H366.993V148.54C366.993 148.964 367.089 149.28 367.281 149.488C367.473 149.688 367.737 149.788 368.073 149.788C368.353 149.788 368.597 149.72 368.805 149.584C369.021 149.44 369.189 149.232 369.309 148.96C369.437 148.68 369.501 148.344 369.501 147.952V144.76H370.941ZM375.334 151.144C374.742 151.144 374.214 151.012 373.75 150.748C373.286 150.484 372.922 150.108 372.658 149.62C372.402 149.124 372.274 148.544 372.274 147.88C372.274 147.256 372.406 146.7 372.67 146.212C372.934 145.716 373.298 145.328 373.762 145.048C374.226 144.76 374.754 144.616 375.346 144.616C375.93 144.616 376.438 144.744 376.87 145C377.31 145.256 377.65 145.64 377.89 146.152C378.13 146.664 378.25 147.304 378.25 148.072V148.36H373.114V147.304H377.014L376.738 147.52C376.738 147.224 376.686 146.956 376.582 146.716C376.478 146.476 376.322 146.284 376.114 146.14C375.906 145.988 375.646 145.912 375.334 145.912C375.03 145.912 374.758 145.984 374.518 146.128C374.278 146.272 374.09 146.488 373.954 146.776C373.818 147.064 373.75 147.432 373.75 147.88C373.75 148.312 373.814 148.676 373.942 148.972C374.07 149.26 374.254 149.48 374.494 149.632C374.734 149.776 375.014 149.848 375.334 149.848C375.702 149.848 375.986 149.772 376.186 149.62C376.394 149.46 376.566 149.244 376.702 148.972L378.034 149.488C377.834 149.976 377.526 150.376 377.11 150.688C376.702 150.992 376.11 151.144 375.334 151.144ZM379.558 151V144.76H380.962V145.864H381.034C381.202 145.496 381.45 145.196 381.778 144.964C382.106 144.732 382.51 144.616 382.99 144.616H383.398V146.08H382.87C382.286 146.08 381.826 146.248 381.49 146.584C381.162 146.92 380.998 147.444 380.998 148.156V151H379.558ZM385.54 153.4L386.668 150.772V151.348L384.052 144.76H385.672L387.256 149.176H387.352L389.044 144.76H390.604L387.064 153.4H385.54Z" fill="white"/>
<rect x="564" y="86" width="136" height="122" rx="6" stroke="#464646" stroke-width="2" stroke-dasharray="4 4"/>
<path d="M585.487 151V142.36H588.619C589.539 142.36 590.327 142.54 590.983 142.9C591.639 143.252 592.139 143.752 592.483 144.4C592.835 145.04 593.011 145.8 593.011 146.68C593.011 147.552 592.835 148.312 592.483 148.96C592.131 149.608 591.619 150.112 590.947 150.472C590.283 150.824 589.475 151 588.523 151H585.487ZM586.999 150.34L586.387 149.608H588.487C589.167 149.608 589.723 149.488 590.155 149.248C590.595 149 590.919 148.656 591.127 148.216C591.343 147.776 591.451 147.264 591.451 146.68C591.451 145.784 591.215 145.072 590.743 144.544C590.279 144.016 589.559 143.752 588.583 143.752H586.387L586.999 143.02V150.34ZM597.117 151.144C596.525 151.144 595.997 151.012 595.533 150.748C595.069 150.484 594.705 150.108 594.441 149.62C594.185 149.124 594.057 148.544 594.057 147.88C594.057 147.256 594.189 146.7 594.453 146.212C594.717 145.716 595.081 145.328 595.545 145.048C596.009 144.76 596.537 144.616 597.129 144.616C597.713 144.616 598.221 144.744 598.653 145C599.093 145.256 599.433 145.64 599.673 146.152C599.913 146.664 600.033 147.304 600.033 148.072V148.36H594.897V147.304H598.797L598.521 147.52C598.521 147.224 598.469 146.956 598.365 146.716C598.261 146.476 598.105 146.284 597.897 146.14C597.689 145.988 597.429 145.912 597.117 145.912C596.813 145.912 596.541 145.984 596.301 146.128C596.061 146.272 595.873 146.488 595.737 146.776C595.601 147.064 595.533 147.432 595.533 147.88C595.533 148.312 595.597 148.676 595.725 148.972C595.853 149.26 596.037 149.48 596.277 149.632C596.517 149.776 596.797 149.848 597.117 149.848C597.485 149.848 597.769 149.772 597.969 149.62C598.177 149.46 598.349 149.244 598.485 148.972L599.817 149.488C599.617 149.976 599.309 150.376 598.893 150.688C598.485 150.992 597.893 151.144 597.117 151.144ZM603.693 151.144C602.949 151.144 602.341 151.008 601.869 150.736C601.405 150.464 601.057 150.076 600.825 149.572L602.157 148.96C602.293 149.256 602.493 149.48 602.757 149.632C603.029 149.784 603.341 149.86 603.693 149.86C604.045 149.86 604.321 149.8 604.521 149.68C604.721 149.56 604.821 149.4 604.821 149.2C604.821 149.016 604.761 148.872 604.641 148.768C604.521 148.656 604.333 148.588 604.077 148.564L602.913 148.444C602.305 148.38 601.821 148.196 601.461 147.892C601.101 147.588 600.921 147.152 600.921 146.584C600.921 146.216 601.017 145.884 601.209 145.588C601.409 145.292 601.689 145.056 602.049 144.88C602.409 144.704 602.833 144.616 603.321 144.616C603.985 144.616 604.529 144.744 604.953 145C605.377 145.256 605.701 145.596 605.925 146.02L604.629 146.644C604.493 146.388 604.309 146.2 604.077 146.08C603.853 145.96 603.601 145.9 603.321 145.9C602.977 145.9 602.729 145.96 602.577 146.08C602.425 146.2 602.349 146.352 602.349 146.536C602.349 146.696 602.405 146.832 602.517 146.944C602.629 147.048 602.797 147.112 603.021 147.136L604.233 147.256C604.897 147.32 605.397 147.516 605.733 147.844C606.077 148.172 606.249 148.62 606.249 149.188C606.249 149.588 606.145 149.936 605.937 150.232C605.737 150.528 605.445 150.756 605.061 150.916C604.685 151.068 604.229 151.144 603.693 151.144ZM609.549 151.024C608.949 151.024 608.497 150.868 608.193 150.556C607.897 150.236 607.749 149.788 607.749 149.212V143.056H609.189V149.116C609.189 149.492 609.381 149.68 609.765 149.68H610.761V151.024H609.549ZM606.645 145.96V144.76H610.641V145.96H606.645ZM611.83 151V144.76H613.234V145.864H613.306C613.474 145.496 613.722 145.196 614.05 144.964C614.378 144.732 614.782 144.616 615.262 144.616H615.67V146.08H615.142C614.558 146.08 614.098 146.248 613.762 146.584C613.434 146.92 613.27 147.444 613.27 148.156V151H611.83ZM619.455 151.144C618.855 151.144 618.319 151.012 617.847 150.748C617.375 150.484 616.999 150.108 616.719 149.62C616.447 149.132 616.311 148.552 616.311 147.88C616.311 147.208 616.447 146.628 616.719 146.14C616.999 145.652 617.375 145.276 617.847 145.012C618.319 144.748 618.855 144.616 619.455 144.616C620.055 144.616 620.591 144.748 621.063 145.012C621.535 145.276 621.907 145.652 622.179 146.14C622.459 146.628 622.599 147.208 622.599 147.88C622.599 148.552 622.459 149.132 622.179 149.62C621.907 150.108 621.535 150.484 621.063 150.748C620.591 151.012 620.055 151.144 619.455 151.144ZM619.455 149.8C619.975 149.8 620.375 149.628 620.655 149.284C620.943 148.94 621.087 148.472 621.087 147.88C621.087 147.288 620.943 146.82 620.655 146.476C620.375 146.132 619.975 145.96 619.455 145.96C618.935 145.96 618.531 146.132 618.243 146.476C617.963 146.82 617.823 147.288 617.823 147.88C617.823 148.472 617.963 148.94 618.243 149.284C618.531 149.628 618.935 149.8 619.455 149.8ZM624.538 153.4L625.666 150.772V151.348L623.05 144.76H624.67L626.254 149.176H626.35L628.042 144.76H629.602L626.062 153.4H624.538ZM633.129 151.144C632.537 151.144 632.009 151.012 631.545 150.748C631.081 150.484 630.717 150.108 630.453 149.62C630.197 149.124 630.069 148.544 630.069 147.88C630.069 147.256 630.201 146.7 630.465 146.212C630.729 145.716 631.093 145.328 631.557 145.048C632.021 144.76 632.549 144.616 633.141 144.616C633.725 144.616 634.233 144.744 634.665 145C635.105 145.256 635.445 145.64 635.685 146.152C635.925 146.664 636.045 147.304 636.045 148.072V148.36H630.909V147.304H634.809L634.533 147.52C634.533 147.224 634.481 146.956 634.377 146.716C634.273 146.476 634.117 146.284 633.909 146.14C633.701 145.988 633.441 145.912 633.129 145.912C632.825 145.912 632.553 145.984 632.313 146.128C632.073 146.272 631.885 146.488 631.749 146.776C631.613 147.064 631.545 147.432 631.545 147.88C631.545 148.312 631.609 148.676 631.737 148.972C631.865 149.26 632.049 149.48 632.289 149.632C632.529 149.776 632.809 149.848 633.129 149.848C633.497 149.848 633.781 149.772 633.981 149.62C634.189 149.46 634.361 149.244 634.497 148.972L635.829 149.488C635.629 149.976 635.321 150.376 634.905 150.688C634.497 150.992 633.905 151.144 633.129 151.144ZM639.789 151.144C639.285 151.144 638.825 151.012 638.409 150.748C637.993 150.484 637.661 150.108 637.413 149.62C637.173 149.132 637.053 148.552 637.053 147.88C637.053 147.208 637.173 146.628 637.413 146.14C637.661 145.652 637.993 145.276 638.409 145.012C638.825 144.748 639.285 144.616 639.789 144.616C640.245 144.616 640.625 144.708 640.929 144.892C641.233 145.076 641.493 145.32 641.709 145.624H641.781V142.36H643.221V151H641.817V150.136H641.745C641.529 150.464 641.261 150.716 640.941 150.892C640.621 151.06 640.237 151.144 639.789 151.144ZM640.173 149.824C640.685 149.824 641.089 149.652 641.385 149.308C641.681 148.964 641.829 148.488 641.829 147.88C641.829 147.264 641.681 146.788 641.385 146.452C641.089 146.108 640.685 145.936 640.173 145.936C639.693 145.936 639.301 146.112 638.997 146.464C638.693 146.808 638.541 147.28 638.541 147.88C638.541 148.48 638.693 148.956 638.997 149.308C639.301 149.652 639.693 149.824 640.173 149.824ZM650.289 144.616C650.737 144.616 651.121 144.704 651.441 144.88C651.761 145.048 652.029 145.296 652.245 145.624H652.317V144.76H653.721V153.4H652.281V150.136H652.209C651.993 150.44 651.733 150.684 651.429 150.868C651.125 151.052 650.745 151.144 650.289 151.144C649.785 151.144 649.325 151.012 648.909 150.748C648.493 150.484 648.161 150.108 647.913 149.62C647.673 149.132 647.553 148.552 647.553 147.88C647.553 147.208 647.673 146.628 647.913 146.14C648.161 145.652 648.493 145.276 648.909 145.012C649.325 144.748 649.785 144.616 650.289 144.616ZM650.673 145.936C650.193 145.936 649.801 146.112 649.497 146.464C649.193 146.808 649.041 147.28 649.041 147.88C649.041 148.48 649.193 148.956 649.497 149.308C649.801 149.652 650.193 149.824 650.673 149.824C651.185 149.824 651.589 149.652 651.885 149.308C652.181 148.964 652.329 148.488 652.329 147.88C652.329 147.272 652.181 146.796 651.885 146.452C651.589 146.108 651.185 145.936 650.673 145.936ZM660.669 144.76V151H659.265V150.136H659.193C658.993 150.448 658.745 150.696 658.449 150.88C658.153 151.056 657.805 151.144 657.405 151.144C656.981 151.144 656.609 151.056 656.289 150.88C655.969 150.696 655.721 150.428 655.545 150.076C655.369 149.724 655.281 149.3 655.281 148.804V144.76H656.721V148.54C656.721 148.964 656.817 149.28 657.009 149.488C657.201 149.688 657.465 149.788 657.801 149.788C658.081 149.788 658.325 149.72 658.533 149.584C658.749 149.44 658.917 149.232 659.037 148.96C659.165 148.68 659.229 148.344 659.229 147.952V144.76H660.669ZM665.062 151.144C664.47 151.144 663.942 151.012 663.478 150.748C663.014 150.484 662.65 150.108 662.386 149.62C662.13 149.124 662.002 148.544 662.002 147.88C662.002 147.256 662.134 146.7 662.398 146.212C662.662 145.716 663.026 145.328 663.49 145.048C663.954 144.76 664.482 144.616 665.074 144.616C665.658 144.616 666.166 144.744 666.598 145C667.038 145.256 667.378 145.64 667.618 146.152C667.858 146.664 667.978 147.304 667.978 148.072V148.36H662.842V147.304H666.742L666.466 147.52C666.466 147.224 666.414 146.956 666.31 146.716C666.206 146.476 666.05 146.284 665.842 146.14C665.634 145.988 665.374 145.912 665.062 145.912C664.758 145.912 664.486 145.984 664.246 146.128C664.006 146.272 663.818 146.488 663.682 146.776C663.546 147.064 663.478 147.432 663.478 147.88C663.478 148.312 663.542 148.676 663.67 148.972C663.798 149.26 663.982 149.48 664.222 149.632C664.462 149.776 664.742 149.848 665.062 149.848C665.43 149.848 665.714 149.772 665.914 149.62C666.122 149.46 666.294 149.244 666.43 148.972L667.762 149.488C667.562 149.976 667.254 150.376 666.838 150.688C666.43 150.992 665.838 151.144 665.062 151.144ZM669.287 151V144.76H670.691V145.864H670.763C670.931 145.496 671.179 145.196 671.507 144.964C671.835 144.732 672.239 144.616 672.719 144.616H673.127V146.08H672.599C672.015 146.08 671.555 146.248 671.219 146.584C670.891 146.92 670.727 147.444 670.727 148.156V151H669.287ZM675.268 153.4L676.396 150.772V151.348L673.78 144.76H675.4L676.984 149.176H677.08L678.772 144.76H680.332L676.792 153.4H675.268Z" fill="white"/>
<path d="M178.36 151V142.36H181.492C182.412 142.36 183.2 142.54 183.856 142.9C184.512 143.252 185.012 143.752 185.356 144.4C185.708 145.04 185.884 145.8 185.884 146.68C185.884 147.552 185.708 148.312 185.356 148.96C185.004 149.608 184.492 150.112 183.82 150.472C183.156 150.824 182.348 151 181.396 151H178.36ZM179.872 150.34L179.26 149.608H181.36C182.04 149.608 182.596 149.488 183.028 149.248C183.468 149 183.792 148.656 184 148.216C184.216 147.776 184.324 147.264 184.324 146.68C184.324 145.784 184.088 145.072 183.616 144.544C183.152 144.016 182.432 143.752 181.456 143.752H179.26L179.872 143.02V150.34ZM189.99 151.144C189.398 151.144 188.87 151.012 188.406 150.748C187.942 150.484 187.578 150.108 187.314 149.62C187.058 149.124 186.93 148.544 186.93 147.88C186.93 147.256 187.062 146.7 187.326 146.212C187.59 145.716 187.954 145.328 188.418 145.048C188.882 144.76 189.41 144.616 190.002 144.616C190.586 144.616 191.094 144.744 191.526 145C191.966 145.256 192.306 145.64 192.546 146.152C192.786 146.664 192.906 147.304 192.906 148.072V148.36H187.77V147.304H191.67L191.394 147.52C191.394 147.224 191.342 146.956 191.238 146.716C191.134 146.476 190.978 146.284 190.77 146.14C190.562 145.988 190.302 145.912 189.99 145.912C189.686 145.912 189.414 145.984 189.174 146.128C188.934 146.272 188.746 146.488 188.61 146.776C188.474 147.064 188.406 147.432 188.406 147.88C188.406 148.312 188.47 148.676 188.598 148.972C188.726 149.26 188.91 149.48 189.15 149.632C189.39 149.776 189.67 149.848 189.99 149.848C190.358 149.848 190.642 149.772 190.842 149.62C191.05 149.46 191.222 149.244 191.358 148.972L192.69 149.488C192.49 149.976 192.182 150.376 191.766 150.688C191.358 150.992 190.766 151.144 189.99 151.144ZM195.966 151.144C195.334 151.144 194.83 150.976 194.454 150.64C194.086 150.296 193.902 149.844 193.902 149.284C193.902 148.732 194.086 148.288 194.454 147.952C194.822 147.608 195.346 147.408 196.026 147.352L198.258 147.148V148.156L196.266 148.372C195.954 148.404 195.722 148.492 195.57 148.636C195.418 148.772 195.342 148.956 195.342 149.188C195.342 149.412 195.422 149.596 195.582 149.74C195.75 149.884 195.982 149.956 196.278 149.956C196.582 149.956 196.85 149.88 197.082 149.728C197.322 149.568 197.506 149.324 197.634 148.996C197.77 148.66 197.838 148.232 197.838 147.712V146.956C197.838 146.652 197.746 146.4 197.562 146.2C197.386 146 197.094 145.9 196.686 145.9C196.278 145.9 195.982 145.984 195.798 146.152C195.614 146.32 195.506 146.512 195.474 146.728H194.046C194.07 146.32 194.19 145.96 194.406 145.648C194.622 145.328 194.926 145.076 195.318 144.892C195.71 144.708 196.178 144.616 196.722 144.616C197.53 144.616 198.158 144.832 198.606 145.264C199.054 145.688 199.278 146.236 199.278 146.908V149.632L199.314 151H197.958L197.922 150.16H197.826C197.602 150.496 197.334 150.744 197.022 150.904C196.718 151.064 196.366 151.144 195.966 151.144ZM203.657 151.144C203.057 151.144 202.517 151.012 202.037 150.748C201.565 150.484 201.189 150.108 200.909 149.62C200.629 149.132 200.489 148.552 200.489 147.88C200.489 147.208 200.629 146.628 200.909 146.14C201.189 145.652 201.565 145.276 202.037 145.012C202.517 144.748 203.057 144.616 203.657 144.616C204.433 144.616 205.073 144.82 205.577 145.228C206.089 145.628 206.409 146.168 206.537 146.848L205.109 147.16C205.029 146.816 204.865 146.532 204.617 146.308C204.377 146.076 204.057 145.96 203.657 145.96C203.313 145.96 203.017 146.04 202.769 146.2C202.521 146.352 202.329 146.572 202.193 146.86C202.065 147.14 202.001 147.48 202.001 147.88C202.001 148.272 202.065 148.612 202.193 148.9C202.329 149.188 202.521 149.412 202.769 149.572C203.017 149.724 203.313 149.8 203.657 149.8C204.041 149.8 204.353 149.7 204.593 149.5C204.841 149.292 205.017 148.984 205.121 148.576L206.525 149.008C206.437 149.416 206.269 149.78 206.021 150.1C205.781 150.42 205.465 150.676 205.073 150.868C204.681 151.052 204.209 151.144 203.657 151.144ZM209.863 151.024C209.263 151.024 208.811 150.868 208.507 150.556C208.211 150.236 208.063 149.788 208.063 149.212V143.056H209.503V149.116C209.503 149.492 209.695 149.68 210.079 149.68H211.075V151.024H209.863ZM206.959 145.96V144.76H210.955V145.96H206.959ZM212.144 151V144.76H213.584V151H212.144ZM211.988 143.08C211.988 142.824 212.068 142.616 212.228 142.456C212.396 142.296 212.608 142.216 212.864 142.216C213.12 142.216 213.328 142.296 213.488 142.456C213.656 142.616 213.74 142.824 213.74 143.08C213.74 143.32 213.656 143.524 213.488 143.692C213.328 143.852 213.12 143.932 212.864 143.932C212.608 143.932 212.396 143.852 212.228 143.692C212.068 143.524 211.988 143.32 211.988 143.08ZM216.798 151L214.446 144.76H216.066L217.566 149.116H217.686L219.234 144.76H220.794L218.394 151H216.798ZM223.177 151.144C222.545 151.144 222.041 150.976 221.665 150.64C221.297 150.296 221.113 149.844 221.113 149.284C221.113 148.732 221.297 148.288 221.665 147.952C222.033 147.608 222.557 147.408 223.237 147.352L225.469 147.148V148.156L223.477 148.372C223.165 148.404 222.933 148.492 222.781 148.636C222.629 148.772 222.553 148.956 222.553 149.188C222.553 149.412 222.633 149.596 222.793 149.74C222.961 149.884 223.193 149.956 223.489 149.956C223.793 149.956 224.061 149.88 224.293 149.728C224.533 149.568 224.717 149.324 224.845 148.996C224.981 148.66 225.049 148.232 225.049 147.712V146.956C225.049 146.652 224.957 146.4 224.773 146.2C224.597 146 224.305 145.9 223.897 145.9C223.489 145.9 223.193 145.984 223.009 146.152C222.825 146.32 222.717 146.512 222.685 146.728H221.257C221.281 146.32 221.401 145.96 221.617 145.648C221.833 145.328 222.137 145.076 222.529 144.892C222.921 144.708 223.389 144.616 223.933 144.616C224.741 144.616 225.369 144.832 225.817 145.264C226.265 145.688 226.489 146.236 226.489 146.908V149.632L226.525 151H225.169L225.133 150.16H225.037C224.813 150.496 224.545 150.744 224.233 150.904C223.929 151.064 223.577 151.144 223.177 151.144ZM230.172 151.024C229.572 151.024 229.12 150.868 228.816 150.556C228.52 150.236 228.372 149.788 228.372 149.212V143.056H229.812V149.116C229.812 149.492 230.004 149.68 230.388 149.68H231.384V151.024H230.172ZM227.268 145.96V144.76H231.264V145.96H227.268ZM235.096 151.144C234.504 151.144 233.976 151.012 233.512 150.748C233.048 150.484 232.684 150.108 232.42 149.62C232.164 149.124 232.036 148.544 232.036 147.88C232.036 147.256 232.168 146.7 232.432 146.212C232.696 145.716 233.06 145.328 233.524 145.048C233.988 144.76 234.516 144.616 235.108 144.616C235.692 144.616 236.2 144.744 236.632 145C237.072 145.256 237.412 145.64 237.652 146.152C237.892 146.664 238.012 147.304 238.012 148.072V148.36H232.876V147.304H236.776L236.5 147.52C236.5 147.224 236.448 146.956 236.344 146.716C236.24 146.476 236.084 146.284 235.876 146.14C235.668 145.988 235.408 145.912 235.096 145.912C234.792 145.912 234.52 145.984 234.28 146.128C234.04 146.272 233.852 146.488 233.716 146.776C233.58 147.064 233.512 147.432 233.512 147.88C233.512 148.312 233.576 148.676 233.704 148.972C233.832 149.26 234.016 149.48 234.256 149.632C234.496 149.776 234.776 149.848 235.096 149.848C235.464 149.848 235.748 149.772 235.948 149.62C236.156 149.46 236.328 149.244 236.464 148.972L237.796 149.488C237.596 149.976 237.288 150.376 236.872 150.688C236.464 150.992 235.872 151.144 235.096 151.144Z" fill="white"/>
<path d="M273.965 143.465C274.16 143.27 274.477 143.27 274.672 143.465L277.854 146.646C278.049 146.842 278.049 147.158 277.854 147.353L274.672 150.535C274.477 150.73 274.16 150.73 273.965 150.535C273.77 150.34 273.77 150.023 273.965 149.828L276.293 147.5H242V146.5H276.293L273.965 144.172C273.77 143.976 273.77 143.66 273.965 143.465ZM174 147.5H140.5C140.224 147.5 140 147.276 140 147C140 146.724 140.224 146.5 140.5 146.5H174V147.5Z" fill="white"/>
<path d="M175.061 11V2.36H179.045C179.621 2.36 180.121 2.472 180.545 2.696C180.977 2.92 181.313 3.228 181.553 3.62C181.793 4.012 181.913 4.468 181.913 4.988C181.913 5.508 181.793 5.968 181.553 6.368C181.313 6.76 180.973 7.068 180.533 7.292C180.093 7.516 179.577 7.628 178.985 7.628H176.117V6.272H178.925C179.365 6.272 179.713 6.16 179.969 5.936C180.225 5.712 180.353 5.396 180.353 4.988C180.353 4.572 180.229 4.256 179.981 4.04C179.733 3.816 179.397 3.704 178.973 3.704H176.117L176.573 3.38V11H175.061ZM180.281 11L177.737 7.064H179.477L182.117 11H180.281ZM185.789 11.144C185.197 11.144 184.669 11.012 184.205 10.748C183.741 10.484 183.377 10.108 183.113 9.62C182.857 9.124 182.729 8.544 182.729 7.88C182.729 7.256 182.861 6.7 183.125 6.212C183.389 5.716 183.753 5.328 184.217 5.048C184.681 4.76 185.209 4.616 185.801 4.616C186.385 4.616 186.893 4.744 187.325 5C187.765 5.256 188.105 5.64 188.345 6.152C188.585 6.664 188.705 7.304 188.705 8.072V8.36H183.569V7.304H187.469L187.193 7.52C187.193 7.224 187.141 6.956 187.037 6.716C186.933 6.476 186.777 6.284 186.569 6.14C186.361 5.988 186.101 5.912 185.789 5.912C185.485 5.912 185.213 5.984 184.973 6.128C184.733 6.272 184.545 6.488 184.409 6.776C184.273 7.064 184.205 7.432 184.205 7.88C184.205 8.312 184.269 8.676 184.397 8.972C184.525 9.26 184.709 9.48 184.949 9.632C185.189 9.776 185.469 9.848 185.789 9.848C186.157 9.848 186.441 9.772 186.641 9.62C186.849 9.46 187.021 9.244 187.157 8.972L188.489 9.488C188.289 9.976 187.981 10.376 187.565 10.688C187.157 10.992 186.565 11.144 185.789 11.144ZM191.765 11.144C191.133 11.144 190.629 10.976 190.253 10.64C189.885 10.296 189.701 9.844 189.701 9.284C189.701 8.732 189.885 8.288 190.253 7.952C190.621 7.608 191.145 7.408 191.825 7.352L194.057 7.148V8.156L192.065 8.372C191.753 8.404 191.521 8.492 191.369 8.636C191.217 8.772 191.141 8.956 191.141 9.188C191.141 9.412 191.221 9.596 191.381 9.74C191.549 9.884 191.781 9.956 192.077 9.956C192.381 9.956 192.649 9.88 192.881 9.728C193.121 9.568 193.305 9.324 193.433 8.996C193.569 8.66 193.637 8.232 193.637 7.712V6.956C193.637 6.652 193.545 6.4 193.361 6.2C193.185 6 192.893 5.9 192.485 5.9C192.077 5.9 191.781 5.984 191.597 6.152C191.413 6.32 191.305 6.512 191.273 6.728H189.845C189.869 6.32 189.989 5.96 190.205 5.648C190.421 5.328 190.725 5.076 191.117 4.892C191.509 4.708 191.977 4.616 192.521 4.616C193.329 4.616 193.957 4.832 194.405 5.264C194.853 5.688 195.077 6.236 195.077 6.908V9.632L195.113 11H193.757L193.721 10.16H193.625C193.401 10.496 193.133 10.744 192.821 10.904C192.517 11.064 192.165 11.144 191.765 11.144ZM199.455 11.144C198.855 11.144 198.315 11.012 197.835 10.748C197.363 10.484 196.987 10.108 196.707 9.62C196.427 9.132 196.287 8.552 196.287 7.88C196.287 7.208 196.427 6.628 196.707 6.14C196.987 5.652 197.363 5.276 197.835 5.012C198.315 4.748 198.855 4.616 199.455 4.616C200.231 4.616 200.871 4.82 201.375 5.228C201.887 5.628 202.207 6.168 202.335 6.848L200.907 7.16C200.827 6.816 200.663 6.532 200.415 6.308C200.175 6.076 199.855 5.96 199.455 5.96C199.111 5.96 198.815 6.04 198.567 6.2C198.319 6.352 198.127 6.572 197.991 6.86C197.863 7.14 197.799 7.48 197.799 7.88C197.799 8.272 197.863 8.612 197.991 8.9C198.127 9.188 198.319 9.412 198.567 9.572C198.815 9.724 199.111 9.8 199.455 9.8C199.839 9.8 200.151 9.7 200.391 9.5C200.639 9.292 200.815 8.984 200.919 8.576L202.323 9.008C202.235 9.416 202.067 9.78 201.819 10.1C201.579 10.42 201.263 10.676 200.871 10.868C200.479 11.052 200.007 11.144 199.455 11.144ZM205.662 11.024C205.062 11.024 204.61 10.868 204.306 10.556C204.01 10.236 203.862 9.788 203.862 9.212V3.056H205.302V9.116C205.302 9.492 205.494 9.68 205.878 9.68H206.874V11.024H205.662ZM202.758 5.96V4.76H206.754V5.96H202.758ZM207.943 11V4.76H209.383V11H207.943ZM207.787 3.08C207.787 2.824 207.867 2.616 208.027 2.456C208.195 2.296 208.407 2.216 208.663 2.216C208.919 2.216 209.127 2.296 209.287 2.456C209.455 2.616 209.539 2.824 209.539 3.08C209.539 3.32 209.455 3.524 209.287 3.692C209.127 3.852 208.919 3.932 208.663 3.932C208.407 3.932 208.195 3.852 208.027 3.692C207.867 3.524 207.787 3.32 207.787 3.08ZM212.597 11L210.245 4.76H211.865L213.365 9.116H213.485L215.033 4.76H216.593L214.193 11H212.597ZM218.976 11.144C218.344 11.144 217.84 10.976 217.464 10.64C217.096 10.296 216.912 9.844 216.912 9.284C216.912 8.732 217.096 8.288 217.464 7.952C217.832 7.608 218.356 7.408 219.036 7.352L221.268 7.148V8.156L219.276 8.372C218.964 8.404 218.732 8.492 218.58 8.636C218.428 8.772 218.352 8.956 218.352 9.188C218.352 9.412 218.432 9.596 218.592 9.74C218.76 9.884 218.992 9.956 219.288 9.956C219.592 9.956 219.86 9.88 220.092 9.728C220.332 9.568 220.516 9.324 220.644 8.996C220.78 8.66 220.848 8.232 220.848 7.712V6.956C220.848 6.652 220.756 6.4 220.572 6.2C220.396 6 220.104 5.9 219.696 5.9C219.288 5.9 218.992 5.984 218.808 6.152C218.624 6.32 218.516 6.512 218.484 6.728H217.056C217.08 6.32 217.2 5.96 217.416 5.648C217.632 5.328 217.936 5.076 218.328 4.892C218.72 4.708 219.188 4.616 219.732 4.616C220.54 4.616 221.168 4.832 221.616 5.264C222.064 5.688 222.288 6.236 222.288 6.908V9.632L222.324 11H220.968L220.932 10.16H220.836C220.612 10.496 220.344 10.744 220.032 10.904C219.728 11.064 219.376 11.144 218.976 11.144ZM225.97 11.024C225.37 11.024 224.918 10.868 224.614 10.556C224.318 10.236 224.17 9.788 224.17 9.212V3.056H225.61V9.116C225.61 9.492 225.802 9.68 226.186 9.68H227.182V11.024H225.97ZM223.066 5.96V4.76H227.062V5.96H223.066ZM230.894 11.144C230.302 11.144 229.774 11.012 229.31 10.748C228.846 10.484 228.482 10.108 228.218 9.62C227.962 9.124 227.834 8.544 227.834 7.88C227.834 7.256 227.966 6.7 228.23 6.212C228.494 5.716 228.858 5.328 229.322 5.048C229.786 4.76 230.314 4.616 230.906 4.616C231.49 4.616 231.998 4.744 232.43 5C232.87 5.256 233.21 5.64 233.45 6.152C233.69 6.664 233.81 7.304 233.81 8.072V8.36H228.674V7.304H232.574L232.298 7.52C232.298 7.224 232.246 6.956 232.142 6.716C232.038 6.476 231.882 6.284 231.674 6.14C231.466 5.988 231.206 5.912 230.894 5.912C230.59 5.912 230.318 5.984 230.078 6.128C229.838 6.272 229.65 6.488 229.514 6.776C229.378 7.064 229.31 7.432 229.31 7.88C229.31 8.312 229.374 8.676 229.502 8.972C229.63 9.26 229.814 9.48 230.054 9.632C230.294 9.776 230.574 9.848 230.894 9.848C231.262 9.848 231.546 9.772 231.746 9.62C231.954 9.46 232.126 9.244 232.262 8.972L233.594 9.488C233.394 9.976 233.086 10.376 232.67 10.688C232.262 10.992 231.67 11.144 230.894 11.144ZM237.555 11.144C237.051 11.144 236.591 11.012 236.175 10.748C235.759 10.484 235.427 10.108 235.179 9.62C234.939 9.132 234.819 8.552 234.819 7.88C234.819 7.208 234.939 6.628 235.179 6.14C235.427 5.652 235.759 5.276 236.175 5.012C236.591 4.748 237.051 4.616 237.555 4.616C238.011 4.616 238.391 4.708 238.695 4.892C238.999 5.076 239.259 5.32 239.475 5.624H239.547V2.36H240.987V11H239.583V10.136H239.511C239.295 10.464 239.027 10.716 238.707 10.892C238.387 11.06 238.003 11.144 237.555 11.144ZM237.939 9.824C238.451 9.824 238.855 9.652 239.151 9.308C239.447 8.964 239.595 8.488 239.595 7.88C239.595 7.264 239.447 6.788 239.151 6.452C238.855 6.108 238.451 5.936 237.939 5.936C237.459 5.936 237.067 6.112 236.763 6.464C236.459 6.808 236.307 7.28 236.307 7.88C236.307 8.48 236.459 8.956 236.763 9.308C237.067 9.652 237.459 9.824 237.939 9.824Z" fill="white"/>
<path d="M246 7.46387C282.25 13.5983 306.702 28.3535 322.776 43.1318C333.286 52.7953 340.207 62.4614 344.501 69.7148C346.648 73.3414 348.139 76.3657 349.094 78.4863C349.572 79.5464 349.915 80.3811 350.14 80.9521C350.252 81.2374 350.335 81.4574 350.39 81.6064C350.417 81.6809 350.438 81.7387 350.452 81.7773C350.458 81.7964 350.464 81.8112 350.467 81.8213C350.469 81.8262 350.47 81.8303 350.471 81.833C350.472 81.8342 350.473 81.8353 350.473 81.8359C350.473 81.8369 350.459 81.8421 350 82L350.473 81.8379C350.563 82.0988 350.424 82.3836 350.163 82.4736C349.935 82.5523 349.688 82.4552 349.57 82.2549L349.528 82.1631L349.527 82.1611C349.526 82.1592 349.525 82.1555 349.524 82.1514C349.521 82.1429 349.516 82.1297 349.51 82.1123C349.498 82.077 349.478 82.0232 349.452 81.9521C349.399 81.8099 349.319 81.5974 349.209 81.3193C348.99 80.7625 348.653 79.9424 348.182 78.8975C347.241 76.8073 345.766 73.8155 343.64 70.2236C339.387 63.0397 332.526 53.4546 322.099 43.8682C306.193 29.244 281.969 14.5989 246 8.47949V7.46387ZM170 8.8291C135.131 15.1434 111.51 29.5165 95.9008 43.8682C85.4739 53.4548 78.6126 63.0396 74.3598 70.2236C72.2334 73.8155 70.7601 76.8072 69.8187 78.8975C69.4329 79.7541 69.1383 80.46 68.9232 80.9932L71.8256 79.5781C72.0736 79.4572 72.3724 79.5598 72.4936 79.8076C72.6145 80.0557 72.512 80.3554 72.2641 80.4766L68.2201 82.4502C67.972 82.5713 67.6723 82.4677 67.5512 82.2197L65.5775 78.1758C65.4564 77.9276 65.5598 77.6279 65.808 77.5068C66.0561 77.386 66.3549 77.4892 66.476 77.7373L67.9457 80.7451C68.169 80.1866 68.4842 79.4242 68.9066 78.4863C69.8617 76.3657 71.3526 73.3415 73.4994 69.7148C77.7933 62.4613 84.7136 52.7953 95.224 43.1318C111.001 28.6267 134.848 14.1435 170 7.8125V8.8291Z" fill="white"/>
<path d="M458.611 151V142.66H460.123V151H458.611ZM455.731 143.752V142.36H463.015V143.752H455.731ZM466.732 151V142.66H468.244V151H466.732ZM463.852 143.752V142.36H471.136V143.752H463.852ZM472.36 151V142.36H473.872V150.256L473.224 149.608H478.024V151H472.36ZM484.916 151.144C484.324 151.144 483.796 151.012 483.332 150.748C482.868 150.484 482.504 150.108 482.24 149.62C481.984 149.124 481.856 148.544 481.856 147.88C481.856 147.256 481.988 146.7 482.252 146.212C482.516 145.716 482.88 145.328 483.344 145.048C483.808 144.76 484.336 144.616 484.928 144.616C485.512 144.616 486.02 144.744 486.452 145C486.892 145.256 487.232 145.64 487.472 146.152C487.712 146.664 487.832 147.304 487.832 148.072V148.36H482.696V147.304H486.596L486.32 147.52C486.32 147.224 486.268 146.956 486.164 146.716C486.06 146.476 485.904 146.284 485.696 146.14C485.488 145.988 485.228 145.912 484.916 145.912C484.612 145.912 484.34 145.984 484.1 146.128C483.86 146.272 483.672 146.488 483.536 146.776C483.4 147.064 483.332 147.432 483.332 147.88C483.332 148.312 483.396 148.676 483.524 148.972C483.652 149.26 483.836 149.48 484.076 149.632C484.316 149.776 484.596 149.848 484.916 149.848C485.284 149.848 485.568 149.772 485.768 149.62C485.976 149.46 486.148 149.244 486.284 148.972L487.616 149.488C487.416 149.976 487.108 150.376 486.692 150.688C486.284 150.992 485.692 151.144 484.916 151.144ZM492.953 151L491.261 148.708L490.565 147.88L488.213 144.76H490.001L491.561 146.872L492.113 147.508L494.729 151H492.953ZM488.021 151L490.553 147.508L491.321 148.684L489.785 151H488.021ZM492.101 147.952L491.261 146.86L492.749 144.76H494.501L492.101 147.952ZM499.041 144.616C499.553 144.616 500.013 144.748 500.421 145.012C500.837 145.276 501.165 145.652 501.405 146.14C501.653 146.628 501.777 147.208 501.777 147.88C501.777 148.552 501.653 149.132 501.405 149.62C501.165 150.108 500.837 150.484 500.421 150.748C500.013 151.012 499.553 151.144 499.041 151.144C498.585 151.144 498.205 151.052 497.901 150.868C497.597 150.684 497.337 150.44 497.121 150.136H497.049V153.4H495.609V144.76H497.013V145.624H497.085C497.301 145.296 497.569 145.048 497.889 144.88C498.209 144.704 498.593 144.616 499.041 144.616ZM498.657 145.936C498.145 145.936 497.741 146.108 497.445 146.452C497.149 146.796 497.001 147.272 497.001 147.88C497.001 148.488 497.149 148.964 497.445 149.308C497.741 149.652 498.145 149.824 498.657 149.824C499.137 149.824 499.529 149.652 499.833 149.308C500.137 148.956 500.289 148.48 500.289 147.88C500.289 147.28 500.137 146.808 499.833 146.464C499.529 146.112 499.137 145.936 498.657 145.936ZM503.109 151V144.76H504.549V151H503.109ZM502.953 143.08C502.953 142.824 503.033 142.616 503.193 142.456C503.361 142.296 503.573 142.216 503.829 142.216C504.085 142.216 504.293 142.296 504.453 142.456C504.621 142.616 504.705 142.824 504.705 143.08C504.705 143.32 504.621 143.524 504.453 143.692C504.293 143.852 504.085 143.932 503.829 143.932C503.573 143.932 503.361 143.852 503.193 143.692C503.033 143.524 502.953 143.32 502.953 143.08ZM506.179 151V144.76H507.583V145.864H507.655C507.823 145.496 508.071 145.196 508.399 144.964C508.727 144.732 509.131 144.616 509.611 144.616H510.019V146.08H509.491C508.907 146.08 508.447 146.248 508.111 146.584C507.783 146.92 507.619 147.444 507.619 148.156V151H506.179ZM513.721 151.144C513.129 151.144 512.601 151.012 512.137 150.748C511.673 150.484 511.309 150.108 511.045 149.62C510.789 149.124 510.661 148.544 510.661 147.88C510.661 147.256 510.793 146.7 511.057 146.212C511.321 145.716 511.685 145.328 512.149 145.048C512.613 144.76 513.141 144.616 513.733 144.616C514.317 144.616 514.825 144.744 515.257 145C515.697 145.256 516.037 145.64 516.277 146.152C516.517 146.664 516.637 147.304 516.637 148.072V148.36H511.501V147.304H515.401L515.125 147.52C515.125 147.224 515.073 146.956 514.969 146.716C514.865 146.476 514.709 146.284 514.501 146.14C514.293 145.988 514.033 145.912 513.721 145.912C513.417 145.912 513.145 145.984 512.905 146.128C512.665 146.272 512.477 146.488 512.341 146.776C512.205 147.064 512.137 147.432 512.137 147.88C512.137 148.312 512.201 148.676 512.329 148.972C512.457 149.26 512.641 149.48 512.881 149.632C513.121 149.776 513.401 149.848 513.721 149.848C514.089 149.848 514.373 149.772 514.573 149.62C514.781 149.46 514.953 149.244 515.089 148.972L516.421 149.488C516.221 149.976 515.913 150.376 515.497 150.688C515.089 150.992 514.497 151.144 513.721 151.144ZM520.381 151.144C519.877 151.144 519.417 151.012 519.001 150.748C518.585 150.484 518.253 150.108 518.005 149.62C517.765 149.132 517.645 148.552 517.645 147.88C517.645 147.208 517.765 146.628 518.005 146.14C518.253 145.652 518.585 145.276 519.001 145.012C519.417 144.748 519.877 144.616 520.381 144.616C520.837 144.616 521.217 144.708 521.521 144.892C521.825 145.076 522.085 145.32 522.301 145.624H522.373V142.36H523.813V151H522.409V150.136H522.337C522.121 150.464 521.853 150.716 521.533 150.892C521.213 151.06 520.829 151.144 520.381 151.144ZM520.765 149.824C521.277 149.824 521.681 149.652 521.977 149.308C522.273 148.964 522.421 148.488 522.421 147.88C522.421 147.264 522.273 146.788 521.977 146.452C521.681 146.108 521.277 145.936 520.765 145.936C520.285 145.936 519.893 146.112 519.589 146.464C519.285 146.808 519.133 147.28 519.133 147.88C519.133 148.48 519.285 148.956 519.589 149.308C519.893 149.652 520.285 149.824 520.765 149.824Z" fill="white"/>
<path d="M555.965 143.465C556.16 143.27 556.477 143.27 556.672 143.465L559.854 146.646C560.049 146.842 560.049 147.158 559.854 147.353L556.672 150.535C556.477 150.73 556.16 150.73 555.965 150.535C555.77 150.34 555.77 150.023 555.965 149.828L558.293 147.5H528V146.5H558.293L555.965 144.172C555.77 143.976 555.77 143.66 555.965 143.465ZM452 147.5H422.5C422.224 147.5 422 147.276 422 147C422 146.724 422.224 146.5 422.5 146.5H452V147.5Z" fill="white"/>
</svg>
