<svg width="16" height="16" viewBox="0 0 16 16" fill="none" xmlns="http://www.w3.org/2000/svg">
<g clip-path="url(#clip0_3_9)">
<g clip-path="url(#clip1_3_9)">
<mask id="mask0_3_9" style="mask-type:luminance" maskUnits="userSpaceOnUse" x="0" y="0" width="16" height="16">
<path d="M16 0H0V16H16V0Z" fill="white"/>
</mask>
<g mask="url(#mask0_3_9)">
<path d="M3.46822 1.89849C5.30258 3.27591 7.27565 6.06875 8.00006 7.56754C8.72452 6.06886 10.6975 3.27588 12.5319 1.89849C13.8555 0.904597 16 0.135581 16 2.58264C16 3.07134 15.7199 6.68805 15.5556 7.27521C14.9845 9.31657 12.9034 9.83724 11.0522 9.5221C14.288 10.073 15.1112 11.8976 13.3334 13.7222C9.95719 17.1875 8.48078 12.8527 8.10229 11.742C8.03294 11.5384 8.00049 11.4431 8.00001 11.5241C7.99954 11.4431 7.96709 11.5384 7.89774 11.742C7.51942 12.8527 6.04304 17.1876 2.66658 13.7222C0.888823 11.8976 1.71197 10.0729 4.94787 9.5221C3.09662 9.83724 1.01547 9.31657 0.44444 7.27521C0.280132 6.68799 0 3.07129 0 2.58264C0 0.135581 2.1447 0.904597 3.46822 1.89849Z" fill="white"/>
</g>
</g>
</g>
<defs>
<clipPath id="clip0_3_9">
<rect width="16" height="16" fill="white"/>
</clipPath>
<clipPath id="clip1_3_9">
<rect width="16" height="16" fill="white"/>
</clipPath>
</defs>
</svg>
