<svg width="36" height="36" viewBox="0 0 36 36" fill="none" xmlns="http://www.w3.org/2000/svg">
<path d="M24.8818 11.76C23.5796 11.1623 22.2045 10.7386 20.7918 10.5C20.5985 10.8432 20.4249 11.1971 20.2718 11.56C18.7698 11.34 17.2437 11.34 15.7418 11.56C15.6018 11.23 15.3918 10.81 15.2218 10.5C13.8015 10.734 12.4191 11.1578 11.1118 11.76C8.80837 15.0252 7.77058 19.0164 8.19176 22.99C9.70512 24.1024 11.3956 24.951 13.1918 25.5C13.5995 24.9566 13.9576 24.3776 14.2618 23.77C13.6777 23.5529 13.1153 23.2817 12.5818 22.96L12.9918 22.64C14.555 23.3789 16.2626 23.7622 17.9918 23.7622C19.7209 23.7622 21.4285 23.3789 22.9918 22.64C23.1318 22.75 23.2618 22.86 23.4118 22.96C22.8702 23.2799 22.3013 23.551 21.7118 23.77C22.0257 24.3785 22.3939 24.9575 22.8118 25.5C24.6079 24.951 26.2984 24.1024 27.8118 22.99C28.2291 19.0152 27.1878 15.0242 24.8818 11.76ZM14.7218 20.76C14.4734 20.746 14.2303 20.6831 14.0063 20.5749C13.7823 20.4667 13.5819 20.3153 13.4165 20.1295C13.2512 19.9437 13.1241 19.7271 13.0426 19.4921C12.9612 19.2571 12.9269 19.0083 12.9418 18.76C12.9255 18.5114 12.9589 18.2621 13.0398 18.0265C13.1208 17.7909 13.2478 17.5738 13.4134 17.3877C13.579 17.2016 13.78 17.0503 14.0046 16.9425C14.2292 16.8348 14.473 16.7727 14.7218 16.76C14.971 16.7714 15.2154 16.8325 15.4407 16.9398C15.6659 17.0472 15.8674 17.1984 16.0333 17.3848C16.1992 17.5712 16.3261 17.7889 16.4065 18.0251C16.487 18.2612 16.5194 18.5111 16.5018 18.76C16.5209 19.2547 16.3452 19.7372 16.0123 20.1038C15.6794 20.4703 15.216 20.6916 14.7218 20.72V20.76ZM21.2918 20.76C20.7912 20.7291 20.3231 20.5015 19.9896 20.1268C19.6562 19.7521 19.4844 19.2608 19.5118 18.76C19.4969 18.5117 19.5312 18.2629 19.6126 18.0279C19.6941 17.7929 19.8212 17.5763 19.9865 17.3905C20.1519 17.2047 20.3523 17.0533 20.5763 16.9451C20.8003 16.8369 21.0434 16.774 21.2918 16.76C21.541 16.7714 21.7854 16.8325 22.0107 16.9398C22.2359 17.0472 22.4374 17.1984 22.6033 17.3848C22.7692 17.5712 22.8961 17.7889 22.9765 18.0251C23.057 18.2612 23.0894 18.5111 23.0718 18.76C23.0935 19.2554 22.9187 19.7394 22.5853 20.1065C22.2519 20.4736 21.787 20.6941 21.2918 20.72V20.76Z" fill="white"/>
</svg>
