<svg width="16" height="16" viewBox="0 0 16 16" fill="none" xmlns="http://www.w3.org/2000/svg">
<path d="M13.5597 3.20717C12.5076 2.74836 11.3965 2.42318 10.255 2.23999C10.0988 2.50343 9.95855 2.77509 9.83483 3.05365C8.62122 2.88479 7.38819 2.88479 6.17458 3.05365C6.06146 2.80034 5.89178 2.47795 5.75442 2.23999C4.60685 2.41964 3.4899 2.74494 2.43353 3.20717C0.572381 5.71352 -0.266154 8.77719 0.0741581 11.8273C1.29696 12.6812 2.66286 13.3326 4.11417 13.754C4.44365 13.3369 4.733 12.8924 4.97873 12.4261C4.50685 12.2594 4.05239 12.0513 3.62129 11.8043L3.95257 11.5587C5.21569 12.1259 6.59545 12.4201 7.99258 12.4201C9.38971 12.4201 10.7695 12.1259 12.0326 11.5587C12.1457 11.6431 12.2508 11.7276 12.372 11.8043C11.9344 12.0499 11.4747 12.2579 10.9984 12.4261C11.252 12.8932 11.5495 13.3376 11.8872 13.754C13.3385 13.3326 14.7044 12.6812 15.9272 11.8273C16.2644 8.77629 15.423 5.71279 13.5597 3.20717ZM5.35041 10.1156C5.14975 10.1048 4.95331 10.0565 4.77233 9.97348C4.59136 9.89043 4.42942 9.77427 4.2958 9.63164C4.16219 9.48902 4.05952 9.32274 3.99369 9.14234C3.92785 8.96194 3.90015 8.77098 3.91217 8.58039C3.89906 8.38957 3.926 8.19818 3.99142 8.01735C4.05684 7.83651 4.15945 7.66982 4.29327 7.52698C4.42709 7.38414 4.58946 7.26799 4.77094 7.18528C4.95242 7.10257 5.14939 7.05495 5.35041 7.04518C5.5518 7.05392 5.74931 7.10086 5.93131 7.18323C6.11331 7.2656 6.27612 7.38173 6.41015 7.5248C6.54417 7.66786 6.64671 7.83496 6.71172 8.01624C6.77672 8.19753 6.80288 8.38935 6.78866 8.58039C6.80414 8.96015 6.66213 9.33052 6.39318 9.61186C6.12423 9.8932 5.7498 10.0631 5.35041 10.0849V10.1156ZM10.659 10.1156C10.2545 10.0918 9.8763 9.91713 9.60687 9.62954C9.33744 9.34194 9.19865 8.96481 9.22075 8.58039C9.20873 8.3898 9.23643 8.19883 9.30226 8.01843C9.3681 7.83803 9.47076 7.67175 9.60438 7.52913C9.738 7.3865 9.89994 7.27034 10.0809 7.18729C10.2619 7.10424 10.4583 7.05595 10.659 7.04518C10.8604 7.05392 11.0579 7.10086 11.2399 7.18323C11.4219 7.2656 11.5847 7.38173 11.7187 7.5248C11.8528 7.66786 11.9553 7.83496 12.0203 8.01624C12.0853 8.19753 12.1115 8.38935 12.0972 8.58039C12.1148 8.96067 11.9736 9.33216 11.7042 9.61395C11.4348 9.89574 11.0591 10.065 10.659 10.0849V10.1156Z" fill="white"/>
</svg>
