<svg width="36" height="36" viewBox="0 0 36 36" fill="none" xmlns="http://www.w3.org/2000/svg">
<path fill-rule="evenodd" clip-rule="evenodd" d="M18.0078 8C12.3797 8 7.82996 12.5833 7.82996 18.2535C7.82996 22.786 10.7452 26.6226 14.7893 27.9805C15.2949 28.0826 15.4801 27.7599 15.4801 27.4885C15.4801 27.2508 15.4635 26.436 15.4635 25.587C12.6322 26.1983 12.0426 24.3647 12.0426 24.3647C11.5876 23.1764 10.9135 22.871 10.9135 22.871C9.98682 22.2429 10.981 22.2429 10.981 22.2429C12.0089 22.3108 12.5483 23.2954 12.5483 23.2954C13.4581 24.857 14.9241 24.4158 15.5139 24.1441C15.598 23.482 15.8678 23.0237 16.1543 22.7691C13.8962 22.5314 11.5204 21.6487 11.5204 17.7102C11.5204 16.5898 11.9245 15.6731 12.5649 14.9602C12.4639 14.7056 12.1099 13.6529 12.6662 12.2439C12.6662 12.2439 13.5256 11.9723 15.4633 13.2964C16.2929 13.072 17.1484 12.9578 18.0078 12.9569C18.8672 12.9569 19.7432 13.0758 20.5522 13.2964C22.4901 11.9723 23.3495 12.2439 23.3495 12.2439C23.9057 13.6529 23.5516 14.7056 23.4505 14.9602C24.1078 15.6731 24.4953 16.5898 24.4953 17.7102C24.4953 21.6487 22.1195 22.5143 19.8445 22.7691C20.2153 23.0916 20.5353 23.7026 20.5353 24.6703C20.5353 26.0453 20.5187 27.1489 20.5187 27.4883C20.5187 27.7599 20.7041 28.0826 21.2095 27.9808C25.2536 26.6224 28.1688 22.786 28.1688 18.2535C28.1855 12.5833 23.6191 8 18.0078 8Z" fill="white"/>
</svg>
