<svg width="19" height="94" viewBox="0 0 19 94" fill="none" xmlns="http://www.w3.org/2000/svg">
<path d="M16 71C16 71.5523 15.5523 72 15 72H14L14.0146 72.5449C14.3079 78.0063 18.9998 78.2192 19 85L18.9873 85.4648C18.7189 90.2454 14.3439 94 9.5 94L9.0332 93.9883C4.37836 93.7568 0.272463 90.0914 0.0126953 85.4648L0 85C0.000197076 78.2192 4.69205 78.0063 4.98535 72.5449L5 72H4C3.44772 72 3 71.5523 3 71V70H16V71ZM6 72C5.99987 75.367 4.54562 77.106 3.29297 78.7344C2.67222 79.5413 2.11393 80.3019 1.69824 81.2578C1.28806 82.2013 1.00005 83.3776 1 85C1.00027 89.379 4.98136 93 9.5 93C14.0186 93 17.9997 89.379 18 85C17.9999 83.3776 17.7119 82.2013 17.3018 81.2578C16.8861 80.3019 16.3278 79.5413 15.707 78.7344C14.4935 77.1568 13.0904 75.4754 13.0039 72.3105L13 72H6ZM9.5 59C13.0899 59 16 61.9101 16 65.5V68H3V65.5C3 61.9101 5.91015 59 9.5 59Z" fill="#D9D9D9"/>
<rect x="9" width="1" height="60" fill="url(#paint0_linear_24_40)"/>
<defs>
<linearGradient id="paint0_linear_24_40" x1="9.5" y1="0" x2="9.5" y2="60" gradientUnits="userSpaceOnUse">
<stop stop-color="#D9D9D9" stop-opacity="0"/>
<stop offset="1" stop-color="#D9D9D9"/>
</linearGradient>
</defs>
</svg>
