<svg width="12" height="12" viewBox="0 0 12 12" xmlns="http://www.w3.org/2000/svg">
  <path 
    class="icon-fill"
    fill="currentColor"
    d="M6.73625 2.76178C6.86832 2.27979 7.54852 2.27979 7.68059 2.76178L8.47063 5.58795C8.53664 5.76341 8.64649 5.89581 8.82219 5.93951L11.6542 6.72858C12.1153 6.85968 12.1152 7.53891 11.6542 7.67096L8.82219 8.461C8.64654 8.5056 8.51435 8.6362 8.47063 8.81158L7.68059 11.6387C7.54848 12.1205 6.8685 12.1204 6.73625 11.6387L5.94524 8.81158C5.87921 8.63615 5.76939 8.50468 5.59367 8.461L2.76164 7.67096C2.27949 7.5388 2.2794 6.86063 2.76164 6.72858L5.59367 5.93951C5.76948 5.87359 5.9015 5.76346 5.94524 5.58795L6.73625 2.76178ZM2.16789 0.180725C2.23394 -0.0602577 2.57452 -0.0602673 2.64055 0.180725L3.03508 1.59381C3.06805 1.68145 3.12316 1.74767 3.21086 1.76959L4.62688 2.16412C4.85756 2.22962 4.85756 2.56988 4.62688 2.6358L3.21086 3.03033C3.12312 3.05268 3.05692 3.11847 3.03508 3.20612L2.64055 4.6192C2.57451 4.8602 2.23392 4.8602 2.16789 4.6192L1.77238 3.20612C1.73937 3.11836 1.6845 3.05217 1.5966 3.03033L0.180588 2.6358C-0.0602961 2.56965 -0.0603136 2.23025 0.180588 2.16412L1.5966 1.76959C1.68451 1.73663 1.75052 1.68156 1.77238 1.59381L2.16789 0.180725Z"/>
</svg>