<svg width="12" height="12" viewBox="0 0 12 12" xmlns="http://www.w3.org/2000/svg">
  <path 
    class="icon-fill"
    fill="currentColor"
    fill-rule="evenodd" 
    clip-rule="evenodd" 
    d="M6.42737 11.5726V10.2428C6.42737 10.0072 6.2361 9.81542 5.99995 9.81542C5.76379 9.81542 5.57252 10.0072 5.57252 10.2428V11.5726C5.57252 11.8087 5.76379 12 5.99995 12C6.2361 12 6.42737 11.8087 6.42737 11.5726ZM8.69812 9.30249L9.63846 10.2422C9.80516 10.4095 10.076 10.4095 10.2433 10.2422C10.41 10.0756 10.41 9.80469 10.2433 9.638L9.30293 8.6977C9.13623 8.53101 8.86482 8.53101 8.69812 8.6977C8.53142 8.86493 8.53142 9.13526 8.69812 9.30249ZM2.36157 10.2422L3.30191 9.30249C3.46861 9.13526 3.46861 8.86493 3.30191 8.6977C3.1352 8.53101 2.86433 8.53101 2.69763 8.6977L1.7573 9.638C1.59059 9.80469 1.59059 10.0756 1.7573 10.2422C1.924 10.4095 2.19487 10.4095 2.36157 10.2422ZM5.98887 3.02449C4.32458 3.02449 2.97282 4.37616 2.97282 6.04095C2.97282 7.70517 4.32455 9.05631 5.98887 9.05631C7.6537 9.05631 9.00546 7.70518 9.00546 6.04095C9.00546 4.37619 7.65373 3.02449 5.98887 3.02449ZM10.2433 6.42773H11.5726C11.8087 6.42773 12 6.23594 12 6.00033C12 5.76418 11.8087 5.57292 11.5726 5.57292H10.2433C10.0071 5.57292 9.81585 5.76418 9.81585 6.00033C9.81585 6.23594 10.0071 6.42773 10.2433 6.42773ZM0.427425 6.42773H1.75672C1.99288 6.42773 2.18415 6.23594 2.18415 6.00033C2.18415 5.76418 1.99288 5.57292 1.75672 5.57292H0.427425C0.191267 5.57292 0 5.76418 0 6.00033C0 6.23594 0.191267 6.42773 0.427425 6.42773ZM1.75725 2.36198L2.69759 3.30227C2.86429 3.46896 3.13516 3.46896 3.30186 3.30227C3.46857 3.13504 3.46857 2.86471 3.30186 2.69749L2.36153 1.75773C2.19483 1.5905 1.92396 1.5905 1.75725 1.75773C1.59055 1.92442 1.59055 2.19528 1.75725 2.36198ZM9.3029 3.30227L10.2432 2.36198C10.4099 2.19528 10.4099 1.92442 10.2432 1.75773C10.076 1.5905 9.80513 1.5905 9.63843 1.75773L8.6981 2.69749C8.53139 2.86471 8.53139 3.13504 8.6981 3.30227C8.8648 3.46896 9.1362 3.46896 9.3029 3.30227ZM6.42747 1.75718V0.427406C6.42747 0.191792 6.2362 0 6.00004 0C5.76388 0 5.57262 0.191792 5.57262 0.427406V1.75718C5.57262 1.99333 5.76388 2.18458 6.00004 2.18458C6.2362 2.18458 6.42747 1.99333 6.42747 1.75718Z"/>
</svg>