<svg width="12" height="12" viewBox="0 0 12 12" xmlns="http://www.w3.org/2000/svg">
  <path 
    class="icon-fill"
    fill="currentColor"
    d="M11.9992 6.59459C11.8449 8.11204 11.1195 9.51348 9.97081 10.5164C8.82207 11.5193 7.33552 12.0485 5.81114 11.9965C4.28677 11.9451 2.8396 11.3162 1.76118 10.2378C0.683252 9.15937 0.0548495 7.71177 0.00341931 6.18747C-0.0479854 4.66371 0.481801 3.17673 1.48523 2.02854C2.48816 0.879854 3.89023 0.15553 5.40776 0.00124663C5.5006 -0.00924367 5.58767 0.0474039 5.61705 0.136046C5.6459 0.22469 5.60918 0.321723 5.52788 0.36841C4.34818 1.07179 3.55876 2.28023 3.38929 3.64353C3.21935 5.00616 3.68829 6.37148 4.65973 7.34243C5.63118 8.31383 6.99651 8.78227 8.35989 8.61175C9.72258 8.44181 10.9311 7.65242 11.6341 6.4722C11.6818 6.39352 11.7773 6.35838 11.8644 6.38723C11.9514 6.41608 12.0076 6.50105 11.9992 6.59283L11.9992 6.59459Z"/>
</svg>