<svg width="863" height="205" viewBox="0 0 863 205" fill="none" xmlns="http://www.w3.org/2000/svg">
<rect x="675" y="125" width="120" height="80" rx="6" fill="#1E1E1E"/>
<path d="M710.341 170V161.36H714.277C714.853 161.36 715.353 161.472 715.777 161.696C716.209 161.912 716.545 162.216 716.785 162.608C717.025 163 717.145 163.456 717.145 163.976C717.145 164.496 717.025 164.956 716.785 165.356C716.545 165.748 716.205 166.056 715.765 166.28C715.325 166.496 714.809 166.604 714.217 166.604H711.397V165.248H714.157C714.597 165.248 714.945 165.14 715.201 164.924C715.457 164.7 715.585 164.384 715.585 163.976C715.585 163.56 715.461 163.244 715.213 163.028C714.965 162.812 714.629 162.704 714.205 162.704H711.397L711.853 162.38V170H710.341ZM721.164 170.144C720.564 170.144 720.028 170.012 719.556 169.748C719.084 169.484 718.708 169.108 718.428 168.62C718.156 168.132 718.02 167.552 718.02 166.88C718.02 166.208 718.156 165.628 718.428 165.14C718.708 164.652 719.084 164.276 719.556 164.012C720.028 163.748 720.564 163.616 721.164 163.616C721.764 163.616 722.3 163.748 722.772 164.012C723.244 164.276 723.616 164.652 723.888 165.14C724.168 165.628 724.308 166.208 724.308 166.88C724.308 167.552 724.168 168.132 723.888 168.62C723.616 169.108 723.244 169.484 722.772 169.748C722.3 170.012 721.764 170.144 721.164 170.144ZM721.164 168.8C721.684 168.8 722.084 168.628 722.364 168.284C722.652 167.94 722.796 167.472 722.796 166.88C722.796 166.288 722.652 165.82 722.364 165.476C722.084 165.132 721.684 164.96 721.164 164.96C720.644 164.96 720.24 165.132 719.952 165.476C719.672 165.82 719.532 166.288 719.532 166.88C719.532 167.472 719.672 167.94 719.952 168.284C720.24 168.628 720.644 168.8 721.164 168.8ZM727.996 170.144C727.252 170.144 726.644 170.008 726.172 169.736C725.708 169.464 725.36 169.076 725.128 168.572L726.46 167.96C726.596 168.256 726.796 168.48 727.06 168.632C727.332 168.784 727.644 168.86 727.996 168.86C728.348 168.86 728.624 168.8 728.824 168.68C729.024 168.56 729.124 168.4 729.124 168.2C729.124 168.016 729.064 167.872 728.944 167.768C728.824 167.656 728.636 167.588 728.38 167.564L727.216 167.444C726.608 167.38 726.124 167.196 725.764 166.892C725.404 166.588 725.224 166.152 725.224 165.584C725.224 165.216 725.32 164.884 725.512 164.588C725.712 164.292 725.992 164.056 726.352 163.88C726.712 163.704 727.136 163.616 727.624 163.616C728.288 163.616 728.832 163.744 729.256 164C729.68 164.256 730.004 164.596 730.228 165.02L728.932 165.644C728.796 165.388 728.612 165.2 728.38 165.08C728.156 164.96 727.904 164.9 727.624 164.9C727.28 164.9 727.032 164.96 726.88 165.08C726.728 165.2 726.652 165.352 726.652 165.536C726.652 165.696 726.708 165.832 726.82 165.944C726.932 166.048 727.1 166.112 727.324 166.136L728.536 166.256C729.2 166.32 729.7 166.516 730.036 166.844C730.38 167.172 730.552 167.62 730.552 168.188C730.552 168.588 730.448 168.936 730.24 169.232C730.04 169.528 729.748 169.756 729.364 169.916C728.988 170.068 728.532 170.144 727.996 170.144ZM733.851 170.024C733.251 170.024 732.799 169.868 732.495 169.556C732.199 169.236 732.051 168.788 732.051 168.212V162.056H733.491V168.116C733.491 168.492 733.683 168.68 734.067 168.68H735.063V170.024H733.851ZM730.947 164.96V163.76H734.943V164.96H730.947ZM738.904 172.544C738.352 172.544 737.872 172.468 737.464 172.316C737.064 172.164 736.736 171.948 736.48 171.668C736.224 171.396 736.036 171.08 735.916 170.72L737.332 170.3C737.444 170.596 737.62 170.824 737.86 170.984C738.108 171.144 738.456 171.224 738.904 171.224C739.424 171.224 739.812 171.088 740.068 170.816C740.332 170.544 740.464 170.192 740.464 169.76V168.944H740.392C740.2 169.24 739.944 169.476 739.624 169.652C739.312 169.82 738.94 169.904 738.508 169.904C738.012 169.904 737.56 169.776 737.152 169.52C736.752 169.256 736.432 168.888 736.192 168.416C735.952 167.944 735.832 167.392 735.832 166.76C735.832 166.12 735.952 165.568 736.192 165.104C736.432 164.632 736.752 164.268 737.152 164.012C737.56 163.748 738.012 163.616 738.508 163.616C738.932 163.616 739.3 163.7 739.612 163.868C739.932 164.036 740.204 164.284 740.428 164.612H740.5V163.76H741.904V169.82C741.904 170.372 741.784 170.852 741.544 171.26C741.312 171.668 740.972 171.984 740.524 172.208C740.076 172.432 739.536 172.544 738.904 172.544ZM738.916 168.56C739.404 168.56 739.792 168.404 740.08 168.092C740.368 167.78 740.512 167.336 740.512 166.76C740.512 166.192 740.368 165.752 740.08 165.44C739.792 165.12 739.404 164.96 738.916 164.96C738.436 164.96 738.048 165.12 737.752 165.44C737.464 165.752 737.32 166.192 737.32 166.76C737.32 167.32 737.464 167.76 737.752 168.08C738.048 168.4 738.436 168.56 738.916 168.56ZM743.539 170V163.76H744.943V164.864H745.015C745.183 164.496 745.431 164.196 745.759 163.964C746.087 163.732 746.491 163.616 746.971 163.616H747.379V165.08H746.851C746.267 165.08 745.807 165.248 745.471 165.584C745.143 165.92 744.979 166.444 744.979 167.156V170H743.539ZM751.08 170.144C750.488 170.144 749.96 170.012 749.496 169.748C749.032 169.484 748.668 169.108 748.404 168.62C748.148 168.124 748.02 167.544 748.02 166.88C748.02 166.256 748.152 165.7 748.416 165.212C748.68 164.716 749.044 164.328 749.508 164.048C749.972 163.76 750.5 163.616 751.092 163.616C751.676 163.616 752.184 163.744 752.616 164C753.056 164.256 753.396 164.64 753.636 165.152C753.876 165.664 753.996 166.304 753.996 167.072V167.36H748.86V166.304H752.76L752.484 166.52C752.484 166.224 752.432 165.956 752.328 165.716C752.224 165.476 752.068 165.284 751.86 165.14C751.652 164.988 751.392 164.912 751.08 164.912C750.776 164.912 750.504 164.984 750.264 165.128C750.024 165.272 749.836 165.488 749.7 165.776C749.564 166.064 749.496 166.432 749.496 166.88C749.496 167.312 749.56 167.676 749.688 167.972C749.816 168.26 750 168.48 750.24 168.632C750.48 168.776 750.76 168.848 751.08 168.848C751.448 168.848 751.732 168.772 751.932 168.62C752.14 168.46 752.312 168.244 752.448 167.972L753.78 168.488C753.58 168.976 753.272 169.376 752.856 169.688C752.448 169.992 751.856 170.144 751.08 170.144ZM757.656 170.144C756.912 170.144 756.304 170.008 755.832 169.736C755.368 169.464 755.02 169.076 754.788 168.572L756.12 167.96C756.256 168.256 756.456 168.48 756.72 168.632C756.992 168.784 757.304 168.86 757.656 168.86C758.008 168.86 758.284 168.8 758.484 168.68C758.684 168.56 758.784 168.4 758.784 168.2C758.784 168.016 758.724 167.872 758.604 167.768C758.484 167.656 758.296 167.588 758.04 167.564L756.876 167.444C756.268 167.38 755.784 167.196 755.424 166.892C755.064 166.588 754.884 166.152 754.884 165.584C754.884 165.216 754.98 164.884 755.172 164.588C755.372 164.292 755.652 164.056 756.012 163.88C756.372 163.704 756.796 163.616 757.284 163.616C757.948 163.616 758.492 163.744 758.916 164C759.34 164.256 759.664 164.596 759.888 165.02L758.592 165.644C758.456 165.388 758.272 165.2 758.04 165.08C757.816 164.96 757.564 164.9 757.284 164.9C756.94 164.9 756.692 164.96 756.54 165.08C756.388 165.2 756.312 165.352 756.312 165.536C756.312 165.696 756.368 165.832 756.48 165.944C756.592 166.048 756.76 166.112 756.984 166.136L758.196 166.256C758.86 166.32 759.36 166.516 759.696 166.844C760.04 167.172 760.212 167.62 760.212 168.188C760.212 168.588 760.108 168.936 759.9 169.232C759.7 169.528 759.408 169.756 759.024 169.916C758.648 170.068 758.192 170.144 757.656 170.144Z" fill="white"/>
<rect x="675" width="120" height="80" rx="6" fill="#1E1E1E"/>
<path d="M705.619 44V40.52L702.499 35.36H704.251L706.339 38.948H706.459L708.571 35.36H710.251L707.131 40.52V44H705.619ZM712.521 44.144C711.921 44.144 711.385 44.012 710.913 43.748C710.441 43.484 710.065 43.108 709.785 42.62C709.513 42.132 709.377 41.552 709.377 40.88C709.377 40.208 709.513 39.628 709.785 39.14C710.065 38.652 710.441 38.276 710.913 38.012C711.385 37.748 711.921 37.616 712.521 37.616C713.121 37.616 713.657 37.748 714.129 38.012C714.601 38.276 714.973 38.652 715.245 39.14C715.525 39.628 715.665 40.208 715.665 40.88C715.665 41.552 715.525 42.132 715.245 42.62C714.973 43.108 714.601 43.484 714.129 43.748C713.657 44.012 713.121 44.144 712.521 44.144ZM712.521 42.8C713.041 42.8 713.441 42.628 713.721 42.284C714.009 41.94 714.153 41.472 714.153 40.88C714.153 40.288 714.009 39.82 713.721 39.476C713.441 39.132 713.041 38.96 712.521 38.96C712.001 38.96 711.597 39.132 711.309 39.476C711.029 39.82 710.889 40.288 710.889 40.88C710.889 41.472 711.029 41.94 711.309 42.284C711.597 42.628 712.001 42.8 712.521 42.8ZM722.318 37.76V44H720.914V43.136H720.842C720.642 43.448 720.394 43.696 720.098 43.88C719.802 44.056 719.454 44.144 719.054 44.144C718.63 44.144 718.258 44.056 717.938 43.88C717.618 43.696 717.37 43.428 717.194 43.076C717.018 42.724 716.93 42.3 716.93 41.804V37.76H718.37V41.54C718.37 41.964 718.466 42.28 718.658 42.488C718.85 42.688 719.114 42.788 719.45 42.788C719.73 42.788 719.974 42.72 720.182 42.584C720.398 42.44 720.566 42.232 720.686 41.96C720.814 41.68 720.878 41.344 720.878 40.952V37.76H722.318ZM723.951 44V37.76H725.355V38.864H725.427C725.595 38.496 725.843 38.196 726.171 37.964C726.499 37.732 726.903 37.616 727.383 37.616H727.791V39.08H727.263C726.679 39.08 726.219 39.248 725.883 39.584C725.555 39.92 725.391 40.444 725.391 41.156V44H723.951ZM734.201 44.144C733.457 44.144 732.849 44.008 732.377 43.736C731.913 43.464 731.565 43.076 731.333 42.572L732.665 41.96C732.801 42.256 733.001 42.48 733.265 42.632C733.537 42.784 733.849 42.86 734.201 42.86C734.553 42.86 734.829 42.8 735.029 42.68C735.229 42.56 735.329 42.4 735.329 42.2C735.329 42.016 735.269 41.872 735.149 41.768C735.029 41.656 734.841 41.588 734.585 41.564L733.421 41.444C732.813 41.38 732.329 41.196 731.969 40.892C731.609 40.588 731.429 40.152 731.429 39.584C731.429 39.216 731.525 38.884 731.717 38.588C731.917 38.292 732.197 38.056 732.557 37.88C732.917 37.704 733.341 37.616 733.829 37.616C734.493 37.616 735.037 37.744 735.461 38C735.885 38.256 736.209 38.596 736.433 39.02L735.137 39.644C735.001 39.388 734.817 39.2 734.585 39.08C734.361 38.96 734.109 38.9 733.829 38.9C733.485 38.9 733.237 38.96 733.085 39.08C732.933 39.2 732.857 39.352 732.857 39.536C732.857 39.696 732.913 39.832 733.025 39.944C733.137 40.048 733.305 40.112 733.529 40.136L734.741 40.256C735.405 40.32 735.905 40.516 736.241 40.844C736.585 41.172 736.757 41.62 736.757 42.188C736.757 42.588 736.653 42.936 736.445 43.232C736.245 43.528 735.953 43.756 735.569 43.916C735.193 44.068 734.737 44.144 734.201 44.144ZM740.644 44.144C740.052 44.144 739.524 44.012 739.06 43.748C738.596 43.484 738.232 43.108 737.968 42.62C737.712 42.124 737.584 41.544 737.584 40.88C737.584 40.256 737.716 39.7 737.98 39.212C738.244 38.716 738.608 38.328 739.072 38.048C739.536 37.76 740.064 37.616 740.656 37.616C741.24 37.616 741.748 37.744 742.18 38C742.62 38.256 742.96 38.64 743.2 39.152C743.44 39.664 743.56 40.304 743.56 41.072V41.36H738.424V40.304H742.324L742.048 40.52C742.048 40.224 741.996 39.956 741.892 39.716C741.788 39.476 741.632 39.284 741.424 39.14C741.216 38.988 740.956 38.912 740.644 38.912C740.34 38.912 740.068 38.984 739.828 39.128C739.588 39.272 739.4 39.488 739.264 39.776C739.128 40.064 739.06 40.432 739.06 40.88C739.06 41.312 739.124 41.676 739.252 41.972C739.38 42.26 739.564 42.48 739.804 42.632C740.044 42.776 740.324 42.848 740.644 42.848C741.012 42.848 741.296 42.772 741.496 42.62C741.704 42.46 741.876 42.244 742.012 41.972L743.344 42.488C743.144 42.976 742.836 43.376 742.42 43.688C742.012 43.992 741.42 44.144 740.644 44.144ZM744.869 44V37.76H746.273V38.864H746.345C746.513 38.496 746.761 38.196 747.089 37.964C747.417 37.732 747.821 37.616 748.301 37.616H748.709V39.08H748.181C747.597 39.08 747.137 39.248 746.801 39.584C746.473 39.92 746.309 40.444 746.309 41.156V44H744.869ZM751.714 44L749.362 37.76H750.982L752.482 42.116H752.602L754.15 37.76H755.71L753.31 44H751.714ZM759.242 44.144C758.65 44.144 758.122 44.012 757.658 43.748C757.194 43.484 756.83 43.108 756.566 42.62C756.31 42.124 756.182 41.544 756.182 40.88C756.182 40.256 756.314 39.7 756.578 39.212C756.842 38.716 757.206 38.328 757.67 38.048C758.134 37.76 758.662 37.616 759.254 37.616C759.838 37.616 760.346 37.744 760.778 38C761.218 38.256 761.558 38.64 761.798 39.152C762.038 39.664 762.158 40.304 762.158 41.072V41.36H757.022V40.304H760.922L760.646 40.52C760.646 40.224 760.594 39.956 760.49 39.716C760.386 39.476 760.23 39.284 760.022 39.14C759.814 38.988 759.554 38.912 759.242 38.912C758.938 38.912 758.666 38.984 758.426 39.128C758.186 39.272 757.998 39.488 757.862 39.776C757.726 40.064 757.658 40.432 757.658 40.88C757.658 41.312 757.722 41.676 757.85 41.972C757.978 42.26 758.162 42.48 758.402 42.632C758.642 42.776 758.922 42.848 759.242 42.848C759.61 42.848 759.894 42.772 760.094 42.62C760.302 42.46 760.474 42.244 760.61 41.972L761.942 42.488C761.742 42.976 761.434 43.376 761.018 43.688C760.61 43.992 760.018 44.144 759.242 44.144ZM763.466 44V37.76H764.87V38.864H764.942C765.11 38.496 765.358 38.196 765.686 37.964C766.014 37.732 766.418 37.616 766.898 37.616H767.306V39.08H766.778C766.194 39.08 765.734 39.248 765.398 39.584C765.07 39.92 764.906 40.444 764.906 41.156V44H763.466Z" fill="white"/>
<rect x="372" width="152" height="205" rx="6" fill="#1E1E1E"/>
<path d="M416.555 107V105.776L420.215 102.044V101.96H416.759V100.76H422.171V102.08L418.571 105.716V105.8H422.339V107H416.555ZM426.275 107.144C425.683 107.144 425.155 107.012 424.691 106.748C424.227 106.484 423.863 106.108 423.599 105.62C423.343 105.124 423.215 104.544 423.215 103.88C423.215 103.256 423.347 102.7 423.611 102.212C423.875 101.716 424.239 101.328 424.703 101.048C425.167 100.76 425.695 100.616 426.287 100.616C426.871 100.616 427.379 100.744 427.811 101C428.251 101.256 428.591 101.64 428.831 102.152C429.071 102.664 429.191 103.304 429.191 104.072V104.36H424.055V103.304H427.955L427.679 103.52C427.679 103.224 427.627 102.956 427.523 102.716C427.419 102.476 427.263 102.284 427.055 102.14C426.847 101.988 426.587 101.912 426.275 101.912C425.971 101.912 425.699 101.984 425.459 102.128C425.219 102.272 425.031 102.488 424.895 102.776C424.759 103.064 424.691 103.432 424.691 103.88C424.691 104.312 424.755 104.676 424.883 104.972C425.011 105.26 425.195 105.48 425.435 105.632C425.675 105.776 425.955 105.848 426.275 105.848C426.643 105.848 426.927 105.772 427.127 105.62C427.335 105.46 427.507 105.244 427.643 104.972L428.975 105.488C428.775 105.976 428.467 106.376 428.051 106.688C427.643 106.992 427.051 107.144 426.275 107.144ZM430.5 107V100.76H431.904V101.864H431.976C432.144 101.496 432.392 101.196 432.72 100.964C433.048 100.732 433.452 100.616 433.932 100.616H434.34V102.08H433.812C433.228 102.08 432.768 102.248 432.432 102.584C432.104 102.92 431.94 103.444 431.94 104.156V107H430.5ZM438.125 107.144C437.525 107.144 436.989 107.012 436.517 106.748C436.045 106.484 435.669 106.108 435.389 105.62C435.117 105.132 434.981 104.552 434.981 103.88C434.981 103.208 435.117 102.628 435.389 102.14C435.669 101.652 436.045 101.276 436.517 101.012C436.989 100.748 437.525 100.616 438.125 100.616C438.725 100.616 439.261 100.748 439.733 101.012C440.205 101.276 440.577 101.652 440.849 102.14C441.129 102.628 441.269 103.208 441.269 103.88C441.269 104.552 441.129 105.132 440.849 105.62C440.577 106.108 440.205 106.484 439.733 106.748C439.261 107.012 438.725 107.144 438.125 107.144ZM438.125 105.8C438.645 105.8 439.045 105.628 439.325 105.284C439.613 104.94 439.757 104.472 439.757 103.88C439.757 103.288 439.613 102.82 439.325 102.476C439.045 102.132 438.645 101.96 438.125 101.96C437.605 101.96 437.201 102.132 436.913 102.476C436.633 102.82 436.493 103.288 436.493 103.88C436.493 104.472 436.633 104.94 436.913 105.284C437.201 105.628 437.605 105.8 438.125 105.8ZM442.261 104.48V103.28H445.021V104.48H442.261ZM449.176 107.144C448.576 107.144 448.036 107.012 447.556 106.748C447.084 106.484 446.708 106.108 446.428 105.62C446.148 105.132 446.008 104.552 446.008 103.88C446.008 103.208 446.148 102.628 446.428 102.14C446.708 101.652 447.084 101.276 447.556 101.012C448.036 100.748 448.576 100.616 449.176 100.616C449.952 100.616 450.592 100.82 451.096 101.228C451.608 101.628 451.928 102.168 452.056 102.848L450.628 103.16C450.548 102.816 450.384 102.532 450.136 102.308C449.896 102.076 449.576 101.96 449.176 101.96C448.832 101.96 448.536 102.04 448.288 102.2C448.04 102.352 447.848 102.572 447.712 102.86C447.584 103.14 447.52 103.48 447.52 103.88C447.52 104.272 447.584 104.612 447.712 104.9C447.848 105.188 448.04 105.412 448.288 105.572C448.536 105.724 448.832 105.8 449.176 105.8C449.56 105.8 449.872 105.7 450.112 105.5C450.36 105.292 450.536 104.984 450.64 104.576L452.044 105.008C451.956 105.416 451.788 105.78 451.54 106.1C451.3 106.42 450.984 106.676 450.592 106.868C450.2 107.052 449.728 107.144 449.176 107.144ZM454.963 107.144C454.331 107.144 453.827 106.976 453.451 106.64C453.083 106.296 452.899 105.844 452.899 105.284C452.899 104.732 453.083 104.288 453.451 103.952C453.819 103.608 454.343 103.408 455.023 103.352L457.255 103.148V104.156L455.263 104.372C454.951 104.404 454.719 104.492 454.567 104.636C454.415 104.772 454.339 104.956 454.339 105.188C454.339 105.412 454.419 105.596 454.579 105.74C454.747 105.884 454.979 105.956 455.275 105.956C455.579 105.956 455.847 105.88 456.079 105.728C456.319 105.568 456.503 105.324 456.631 104.996C456.767 104.66 456.835 104.232 456.835 103.712V102.956C456.835 102.652 456.743 102.4 456.559 102.2C456.383 102 456.091 101.9 455.683 101.9C455.275 101.9 454.979 101.984 454.795 102.152C454.611 102.32 454.503 102.512 454.471 102.728H453.043C453.067 102.32 453.187 101.96 453.403 101.648C453.619 101.328 453.923 101.076 454.315 100.892C454.707 100.708 455.175 100.616 455.719 100.616C456.527 100.616 457.155 100.832 457.603 101.264C458.051 101.688 458.275 102.236 458.275 102.908V105.632L458.311 107H456.955L456.919 106.16H456.823C456.599 106.496 456.331 106.744 456.019 106.904C455.715 107.064 455.363 107.144 454.963 107.144ZM462.653 107.144C462.053 107.144 461.513 107.012 461.033 106.748C460.561 106.484 460.185 106.108 459.905 105.62C459.625 105.132 459.485 104.552 459.485 103.88C459.485 103.208 459.625 102.628 459.905 102.14C460.185 101.652 460.561 101.276 461.033 101.012C461.513 100.748 462.053 100.616 462.653 100.616C463.429 100.616 464.069 100.82 464.573 101.228C465.085 101.628 465.405 102.168 465.533 102.848L464.105 103.16C464.025 102.816 463.861 102.532 463.613 102.308C463.373 102.076 463.053 101.96 462.653 101.96C462.309 101.96 462.013 102.04 461.765 102.2C461.517 102.352 461.325 102.572 461.189 102.86C461.061 103.14 460.997 103.48 460.997 103.88C460.997 104.272 461.061 104.612 461.189 104.9C461.325 105.188 461.517 105.412 461.765 105.572C462.013 105.724 462.309 105.8 462.653 105.8C463.037 105.8 463.349 105.7 463.589 105.5C463.837 105.292 464.013 104.984 464.117 104.576L465.521 105.008C465.433 105.416 465.265 105.78 465.017 106.1C464.777 106.42 464.461 106.676 464.069 106.868C463.677 107.052 463.205 107.144 462.653 107.144ZM466.687 107V98.36H468.127V101.6H468.199C468.383 101.296 468.623 101.056 468.919 100.88C469.215 100.704 469.559 100.616 469.951 100.616C470.367 100.616 470.735 100.708 471.055 100.892C471.375 101.068 471.623 101.332 471.799 101.684C471.983 102.028 472.075 102.452 472.075 102.956V107H470.635V103.22C470.635 102.796 470.535 102.484 470.335 102.284C470.135 102.076 469.867 101.972 469.531 101.972C469.267 101.972 469.027 102.044 468.811 102.188C468.603 102.324 468.435 102.528 468.307 102.8C468.187 103.072 468.127 103.408 468.127 103.808V107H466.687ZM476.396 107.144C475.804 107.144 475.276 107.012 474.812 106.748C474.348 106.484 473.984 106.108 473.72 105.62C473.464 105.124 473.336 104.544 473.336 103.88C473.336 103.256 473.468 102.7 473.732 102.212C473.996 101.716 474.36 101.328 474.824 101.048C475.288 100.76 475.816 100.616 476.408 100.616C476.992 100.616 477.5 100.744 477.932 101C478.372 101.256 478.712 101.64 478.952 102.152C479.192 102.664 479.312 103.304 479.312 104.072V104.36H474.176V103.304H478.076L477.8 103.52C477.8 103.224 477.748 102.956 477.644 102.716C477.54 102.476 477.384 102.284 477.176 102.14C476.968 101.988 476.708 101.912 476.396 101.912C476.092 101.912 475.82 101.984 475.58 102.128C475.34 102.272 475.152 102.488 475.016 102.776C474.88 103.064 474.812 103.432 474.812 103.88C474.812 104.312 474.876 104.676 475.004 104.972C475.132 105.26 475.316 105.48 475.556 105.632C475.796 105.776 476.076 105.848 476.396 105.848C476.764 105.848 477.048 105.772 477.248 105.62C477.456 105.46 477.628 105.244 477.764 104.972L479.096 105.488C478.896 105.976 478.588 106.376 478.172 106.688C477.764 106.992 477.172 107.144 476.396 107.144Z" fill="white"/>
<path d="M212.5 0C217.194 0 221 3.80558 221 8.5V164.524C220.655 164.559 220.321 164.628 220 164.729V8.5C220 4.35786 216.642 1 212.5 1H76.5C72.3579 1 69 4.35786 69 8.5V196.5C69 200.642 72.3579 204 76.5 204H212.5C216.642 204 220 200.642 220 196.5V180.271C220.321 180.371 220.655 180.44 221 180.475V196.5C221 201.194 217.194 205 212.5 205H76.5C71.8056 205 68 201.194 68 196.5V8.5C68 3.80558 71.8056 3.22128e-08 76.5 0H212.5Z" fill="#969696" fill-opacity="0.9"/>
<path d="M117.662 51V47.52L114.542 42.36H116.294L118.382 45.948H118.502L120.614 42.36H122.294L119.174 47.52V51H117.662ZM124.564 51.144C123.964 51.144 123.428 51.012 122.956 50.748C122.484 50.484 122.108 50.108 121.828 49.62C121.556 49.132 121.42 48.552 121.42 47.88C121.42 47.208 121.556 46.628 121.828 46.14C122.108 45.652 122.484 45.276 122.956 45.012C123.428 44.748 123.964 44.616 124.564 44.616C125.164 44.616 125.7 44.748 126.172 45.012C126.644 45.276 127.016 45.652 127.288 46.14C127.568 46.628 127.708 47.208 127.708 47.88C127.708 48.552 127.568 49.132 127.288 49.62C127.016 50.108 126.644 50.484 126.172 50.748C125.7 51.012 125.164 51.144 124.564 51.144ZM124.564 49.8C125.084 49.8 125.484 49.628 125.764 49.284C126.052 48.94 126.196 48.472 126.196 47.88C126.196 47.288 126.052 46.82 125.764 46.476C125.484 46.132 125.084 45.96 124.564 45.96C124.044 45.96 123.64 46.132 123.352 46.476C123.072 46.82 122.932 47.288 122.932 47.88C122.932 48.472 123.072 48.94 123.352 49.284C123.64 49.628 124.044 49.8 124.564 49.8ZM134.361 44.76V51H132.957V50.136H132.885C132.685 50.448 132.437 50.696 132.141 50.88C131.845 51.056 131.497 51.144 131.097 51.144C130.673 51.144 130.301 51.056 129.981 50.88C129.661 50.696 129.413 50.428 129.237 50.076C129.061 49.724 128.973 49.3 128.973 48.804V44.76H130.413V48.54C130.413 48.964 130.509 49.28 130.701 49.488C130.893 49.688 131.157 49.788 131.493 49.788C131.773 49.788 132.017 49.72 132.225 49.584C132.441 49.44 132.609 49.232 132.729 48.96C132.857 48.68 132.921 48.344 132.921 47.952V44.76H134.361ZM135.994 51V44.76H137.398V45.864H137.47C137.638 45.496 137.886 45.196 138.214 44.964C138.542 44.732 138.946 44.616 139.426 44.616H139.834V46.08H139.306C138.722 46.08 138.262 46.248 137.926 46.584C137.598 46.92 137.434 47.444 137.434 48.156V51H135.994ZM146.76 51.144C146.16 51.144 145.62 51.012 145.14 50.748C144.668 50.484 144.292 50.108 144.012 49.62C143.732 49.132 143.592 48.552 143.592 47.88C143.592 47.208 143.732 46.628 144.012 46.14C144.292 45.652 144.668 45.276 145.14 45.012C145.62 44.748 146.16 44.616 146.76 44.616C147.536 44.616 148.176 44.82 148.68 45.228C149.192 45.628 149.512 46.168 149.64 46.848L148.212 47.16C148.132 46.816 147.968 46.532 147.72 46.308C147.48 46.076 147.16 45.96 146.76 45.96C146.416 45.96 146.12 46.04 145.872 46.2C145.624 46.352 145.432 46.572 145.296 46.86C145.168 47.14 145.104 47.48 145.104 47.88C145.104 48.272 145.168 48.612 145.296 48.9C145.432 49.188 145.624 49.412 145.872 49.572C146.12 49.724 146.416 49.8 146.76 49.8C147.144 49.8 147.456 49.7 147.696 49.5C147.944 49.292 148.12 48.984 148.224 48.576L149.628 49.008C149.54 49.416 149.372 49.78 149.124 50.1C148.884 50.42 148.568 50.676 148.176 50.868C147.784 51.052 147.312 51.144 146.76 51.144ZM150.795 51V42.36H152.235V51H150.795ZM153.865 51V44.76H155.305V51H153.865ZM153.709 43.08C153.709 42.824 153.789 42.616 153.949 42.456C154.117 42.296 154.329 42.216 154.585 42.216C154.841 42.216 155.049 42.296 155.209 42.456C155.377 42.616 155.461 42.824 155.461 43.08C155.461 43.32 155.377 43.524 155.209 43.692C155.049 43.852 154.841 43.932 154.585 43.932C154.329 43.932 154.117 43.852 153.949 43.692C153.789 43.524 153.709 43.32 153.709 43.08ZM159.695 51.144C159.103 51.144 158.575 51.012 158.111 50.748C157.647 50.484 157.283 50.108 157.019 49.62C156.763 49.124 156.635 48.544 156.635 47.88C156.635 47.256 156.767 46.7 157.031 46.212C157.295 45.716 157.659 45.328 158.123 45.048C158.587 44.76 159.115 44.616 159.707 44.616C160.291 44.616 160.799 44.744 161.231 45C161.671 45.256 162.011 45.64 162.251 46.152C162.491 46.664 162.611 47.304 162.611 48.072V48.36H157.475V47.304H161.375L161.099 47.52C161.099 47.224 161.047 46.956 160.943 46.716C160.839 46.476 160.683 46.284 160.475 46.14C160.267 45.988 160.007 45.912 159.695 45.912C159.391 45.912 159.119 45.984 158.879 46.128C158.639 46.272 158.451 46.488 158.315 46.776C158.179 47.064 158.111 47.432 158.111 47.88C158.111 48.312 158.175 48.676 158.303 48.972C158.431 49.26 158.615 49.48 158.855 49.632C159.095 49.776 159.375 49.848 159.695 49.848C160.063 49.848 160.347 49.772 160.547 49.62C160.755 49.46 160.927 49.244 161.063 48.972L162.395 49.488C162.195 49.976 161.887 50.376 161.471 50.688C161.063 50.992 160.471 51.144 159.695 51.144ZM163.92 51V44.76H165.324V45.624H165.396C165.596 45.312 165.844 45.068 166.14 44.892C166.444 44.708 166.792 44.616 167.184 44.616C167.608 44.616 167.98 44.708 168.3 44.892C168.62 45.068 168.868 45.332 169.044 45.684C169.22 46.028 169.308 46.452 169.308 46.956V51H167.868V47.22C167.868 46.796 167.772 46.484 167.58 46.284C167.388 46.076 167.124 45.972 166.788 45.972C166.516 45.972 166.272 46.044 166.056 46.188C165.84 46.324 165.668 46.528 165.54 46.8C165.42 47.072 165.36 47.408 165.36 47.808V51H163.92ZM173.041 51.024C172.441 51.024 171.989 50.868 171.685 50.556C171.389 50.236 171.241 49.788 171.241 49.212V43.056H172.681V49.116C172.681 49.492 172.873 49.68 173.257 49.68H174.253V51.024H173.041ZM170.137 45.96V44.76H174.133V45.96H170.137Z" fill="white"/>
<rect x="76" y="91" width="137" height="49" rx="6" fill="#1E1E1E"/>
<path d="M127.035 120.144C126.259 120.144 125.607 120.004 125.079 119.724C124.551 119.444 124.151 119.052 123.879 118.548C123.607 118.044 123.471 117.456 123.471 116.784V111.36H124.983V116.664C124.983 117.272 125.143 117.756 125.463 118.116C125.791 118.476 126.315 118.656 127.035 118.656C127.755 118.656 128.283 118.476 128.619 118.116C128.955 117.756 129.123 117.272 129.123 116.664V111.36H130.587V116.784C130.587 117.456 130.451 118.044 130.179 118.548C129.907 119.052 129.507 119.444 128.979 119.724C128.459 120.004 127.811 120.144 127.035 120.144ZM132.227 120V111.36H133.739V120H132.227ZM141.282 120.144C140.682 120.144 140.142 120.012 139.662 119.748C139.19 119.484 138.814 119.108 138.534 118.62C138.254 118.132 138.114 117.552 138.114 116.88C138.114 116.208 138.254 115.628 138.534 115.14C138.814 114.652 139.19 114.276 139.662 114.012C140.142 113.748 140.682 113.616 141.282 113.616C142.058 113.616 142.698 113.82 143.202 114.228C143.714 114.628 144.034 115.168 144.162 115.848L142.734 116.16C142.654 115.816 142.49 115.532 142.242 115.308C142.002 115.076 141.682 114.96 141.282 114.96C140.938 114.96 140.642 115.04 140.394 115.2C140.146 115.352 139.954 115.572 139.818 115.86C139.69 116.14 139.626 116.48 139.626 116.88C139.626 117.272 139.69 117.612 139.818 117.9C139.954 118.188 140.146 118.412 140.394 118.572C140.642 118.724 140.938 118.8 141.282 118.8C141.666 118.8 141.978 118.7 142.218 118.5C142.466 118.292 142.642 117.984 142.746 117.576L144.15 118.008C144.062 118.416 143.894 118.78 143.646 119.1C143.406 119.42 143.09 119.676 142.698 119.868C142.306 120.052 141.834 120.144 141.282 120.144ZM148.16 120.144C147.56 120.144 147.024 120.012 146.552 119.748C146.08 119.484 145.704 119.108 145.424 118.62C145.152 118.132 145.016 117.552 145.016 116.88C145.016 116.208 145.152 115.628 145.424 115.14C145.704 114.652 146.08 114.276 146.552 114.012C147.024 113.748 147.56 113.616 148.16 113.616C148.76 113.616 149.296 113.748 149.768 114.012C150.24 114.276 150.612 114.652 150.884 115.14C151.164 115.628 151.304 116.208 151.304 116.88C151.304 117.552 151.164 118.132 150.884 118.62C150.612 119.108 150.24 119.484 149.768 119.748C149.296 120.012 148.76 120.144 148.16 120.144ZM148.16 118.8C148.68 118.8 149.08 118.628 149.36 118.284C149.648 117.94 149.792 117.472 149.792 116.88C149.792 116.288 149.648 115.82 149.36 115.476C149.08 115.132 148.68 114.96 148.16 114.96C147.64 114.96 147.236 115.132 146.948 115.476C146.668 115.82 146.528 116.288 146.528 116.88C146.528 117.472 146.668 117.94 146.948 118.284C147.236 118.628 147.64 118.8 148.16 118.8ZM155.076 120.144C154.572 120.144 154.112 120.012 153.696 119.748C153.28 119.484 152.948 119.108 152.7 118.62C152.46 118.132 152.34 117.552 152.34 116.88C152.34 116.208 152.46 115.628 152.7 115.14C152.948 114.652 153.28 114.276 153.696 114.012C154.112 113.748 154.572 113.616 155.076 113.616C155.532 113.616 155.912 113.708 156.216 113.892C156.52 114.076 156.78 114.32 156.996 114.624H157.068V111.36H158.508V120H157.104V119.136H157.032C156.816 119.464 156.548 119.716 156.228 119.892C155.908 120.06 155.524 120.144 155.076 120.144ZM155.46 118.824C155.972 118.824 156.376 118.652 156.672 118.308C156.968 117.964 157.116 117.488 157.116 116.88C157.116 116.264 156.968 115.788 156.672 115.452C156.376 115.108 155.972 114.936 155.46 114.936C154.98 114.936 154.588 115.112 154.284 115.464C153.98 115.808 153.828 116.28 153.828 116.88C153.828 117.48 153.98 117.956 154.284 118.308C154.588 118.652 154.98 118.824 155.46 118.824ZM162.9 120.144C162.308 120.144 161.78 120.012 161.316 119.748C160.852 119.484 160.488 119.108 160.224 118.62C159.968 118.124 159.84 117.544 159.84 116.88C159.84 116.256 159.972 115.7 160.236 115.212C160.5 114.716 160.864 114.328 161.328 114.048C161.792 113.76 162.32 113.616 162.912 113.616C163.496 113.616 164.004 113.744 164.436 114C164.876 114.256 165.216 114.64 165.456 115.152C165.696 115.664 165.816 116.304 165.816 117.072V117.36H160.68V116.304H164.58L164.304 116.52C164.304 116.224 164.252 115.956 164.148 115.716C164.044 115.476 163.888 115.284 163.68 115.14C163.472 114.988 163.212 114.912 162.9 114.912C162.596 114.912 162.324 114.984 162.084 115.128C161.844 115.272 161.656 115.488 161.52 115.776C161.384 116.064 161.316 116.432 161.316 116.88C161.316 117.312 161.38 117.676 161.508 117.972C161.636 118.26 161.82 118.48 162.06 118.632C162.3 118.776 162.58 118.848 162.9 118.848C163.268 118.848 163.552 118.772 163.752 118.62C163.96 118.46 164.132 118.244 164.268 117.972L165.6 118.488C165.4 118.976 165.092 119.376 164.676 119.688C164.268 119.992 163.676 120.144 162.9 120.144Z" fill="white"/>
<rect x="76" y="148" width="137" height="49" rx="6" fill="#1E1E1E"/>
<path d="M114.997 177V175.776L118.657 172.044V171.96H115.201V170.76H120.613V172.08L117.013 175.716V175.8H120.781V177H114.997ZM124.717 177.144C124.125 177.144 123.597 177.012 123.133 176.748C122.669 176.484 122.305 176.108 122.041 175.62C121.785 175.124 121.657 174.544 121.657 173.88C121.657 173.256 121.789 172.7 122.053 172.212C122.317 171.716 122.681 171.328 123.145 171.048C123.609 170.76 124.137 170.616 124.729 170.616C125.313 170.616 125.821 170.744 126.253 171C126.693 171.256 127.033 171.64 127.273 172.152C127.513 172.664 127.633 173.304 127.633 174.072V174.36H122.497V173.304H126.397L126.121 173.52C126.121 173.224 126.069 172.956 125.965 172.716C125.861 172.476 125.705 172.284 125.497 172.14C125.289 171.988 125.029 171.912 124.717 171.912C124.413 171.912 124.141 171.984 123.901 172.128C123.661 172.272 123.473 172.488 123.337 172.776C123.201 173.064 123.133 173.432 123.133 173.88C123.133 174.312 123.197 174.676 123.325 174.972C123.453 175.26 123.637 175.48 123.877 175.632C124.117 175.776 124.397 175.848 124.717 175.848C125.085 175.848 125.369 175.772 125.569 175.62C125.777 175.46 125.949 175.244 126.085 174.972L127.417 175.488C127.217 175.976 126.909 176.376 126.493 176.688C126.085 176.992 125.493 177.144 124.717 177.144ZM128.941 177V170.76H130.345V171.864H130.417C130.585 171.496 130.833 171.196 131.161 170.964C131.489 170.732 131.893 170.616 132.373 170.616H132.781V172.08H132.253C131.669 172.08 131.209 172.248 130.873 172.584C130.545 172.92 130.381 173.444 130.381 174.156V177H128.941ZM136.566 177.144C135.966 177.144 135.43 177.012 134.958 176.748C134.486 176.484 134.11 176.108 133.83 175.62C133.558 175.132 133.422 174.552 133.422 173.88C133.422 173.208 133.558 172.628 133.83 172.14C134.11 171.652 134.486 171.276 134.958 171.012C135.43 170.748 135.966 170.616 136.566 170.616C137.166 170.616 137.702 170.748 138.174 171.012C138.646 171.276 139.018 171.652 139.29 172.14C139.57 172.628 139.71 173.208 139.71 173.88C139.71 174.552 139.57 175.132 139.29 175.62C139.018 176.108 138.646 176.484 138.174 176.748C137.702 177.012 137.166 177.144 136.566 177.144ZM136.566 175.8C137.086 175.8 137.486 175.628 137.766 175.284C138.054 174.94 138.198 174.472 138.198 173.88C138.198 173.288 138.054 172.82 137.766 172.476C137.486 172.132 137.086 171.96 136.566 171.96C136.046 171.96 135.642 172.132 135.354 172.476C135.074 172.82 134.934 173.288 134.934 173.88C134.934 174.472 135.074 174.94 135.354 175.284C135.642 175.628 136.046 175.8 136.566 175.8ZM140.702 174.48V173.28H143.462V174.48H140.702ZM147.618 177.144C147.018 177.144 146.478 177.012 145.998 176.748C145.526 176.484 145.15 176.108 144.87 175.62C144.59 175.132 144.45 174.552 144.45 173.88C144.45 173.208 144.59 172.628 144.87 172.14C145.15 171.652 145.526 171.276 145.998 171.012C146.478 170.748 147.018 170.616 147.618 170.616C148.394 170.616 149.034 170.82 149.538 171.228C150.05 171.628 150.37 172.168 150.498 172.848L149.07 173.16C148.99 172.816 148.826 172.532 148.578 172.308C148.338 172.076 148.018 171.96 147.618 171.96C147.274 171.96 146.978 172.04 146.73 172.2C146.482 172.352 146.29 172.572 146.154 172.86C146.026 173.14 145.962 173.48 145.962 173.88C145.962 174.272 146.026 174.612 146.154 174.9C146.29 175.188 146.482 175.412 146.73 175.572C146.978 175.724 147.274 175.8 147.618 175.8C148.002 175.8 148.314 175.7 148.554 175.5C148.802 175.292 148.978 174.984 149.082 174.576L150.486 175.008C150.398 175.416 150.23 175.78 149.982 176.1C149.742 176.42 149.426 176.676 149.034 176.868C148.642 177.052 148.17 177.144 147.618 177.144ZM151.652 177V168.36H153.092V177H151.652ZM154.722 177V170.76H156.162V177H154.722ZM154.566 169.08C154.566 168.824 154.646 168.616 154.806 168.456C154.974 168.296 155.186 168.216 155.442 168.216C155.698 168.216 155.906 168.296 156.066 168.456C156.234 168.616 156.318 168.824 156.318 169.08C156.318 169.32 156.234 169.524 156.066 169.692C155.906 169.852 155.698 169.932 155.442 169.932C155.186 169.932 154.974 169.852 154.806 169.692C154.646 169.524 154.566 169.32 154.566 169.08ZM160.553 177.144C159.961 177.144 159.433 177.012 158.969 176.748C158.505 176.484 158.141 176.108 157.877 175.62C157.621 175.124 157.493 174.544 157.493 173.88C157.493 173.256 157.625 172.7 157.889 172.212C158.153 171.716 158.517 171.328 158.981 171.048C159.445 170.76 159.973 170.616 160.565 170.616C161.149 170.616 161.657 170.744 162.089 171C162.529 171.256 162.869 171.64 163.109 172.152C163.349 172.664 163.469 173.304 163.469 174.072V174.36H158.333V173.304H162.233L161.957 173.52C161.957 173.224 161.905 172.956 161.801 172.716C161.697 172.476 161.541 172.284 161.333 172.14C161.125 171.988 160.865 171.912 160.553 171.912C160.249 171.912 159.977 171.984 159.737 172.128C159.497 172.272 159.309 172.488 159.173 172.776C159.037 173.064 158.969 173.432 158.969 173.88C158.969 174.312 159.033 174.676 159.161 174.972C159.289 175.26 159.473 175.48 159.713 175.632C159.953 175.776 160.233 175.848 160.553 175.848C160.921 175.848 161.205 175.772 161.405 175.62C161.613 175.46 161.785 175.244 161.921 174.972L163.253 175.488C163.053 175.976 162.745 176.376 162.329 176.688C161.921 176.992 161.329 177.144 160.553 177.144ZM164.777 177V170.76H166.181V171.624H166.253C166.453 171.312 166.701 171.068 166.997 170.892C167.301 170.708 167.649 170.616 168.041 170.616C168.465 170.616 168.837 170.708 169.157 170.892C169.477 171.068 169.725 171.332 169.901 171.684C170.077 172.028 170.165 172.452 170.165 172.956V177H168.725V173.22C168.725 172.796 168.629 172.484 168.437 172.284C168.245 172.076 167.981 171.972 167.645 171.972C167.373 171.972 167.129 172.044 166.913 172.188C166.697 172.324 166.525 172.528 166.397 172.8C166.277 173.072 166.217 173.408 166.217 173.808V177H164.777ZM173.898 177.024C173.298 177.024 172.846 176.868 172.542 176.556C172.246 176.236 172.098 175.788 172.098 175.212V169.056H173.538V175.116C173.538 175.492 173.73 175.68 174.114 175.68H175.11V177.024H173.898ZM170.994 171.96V170.76H174.99V171.96H170.994Z" fill="white"/>
<path d="M259.089 176.5L256.761 167.86H258.393L260.097 174.58H260.241L262.185 167.86H264.117L266.061 174.58H266.205L267.933 167.86H269.481L267.153 176.5H265.125L263.217 169.9H263.049L261.129 176.5H259.089ZM272.629 176.644C272.037 176.644 271.509 176.512 271.045 176.248C270.581 175.984 270.217 175.608 269.953 175.12C269.697 174.624 269.569 174.044 269.569 173.38C269.569 172.756 269.701 172.2 269.965 171.712C270.229 171.216 270.593 170.828 271.057 170.548C271.521 170.26 272.049 170.116 272.641 170.116C273.225 170.116 273.733 170.244 274.165 170.5C274.605 170.756 274.945 171.14 275.185 171.652C275.425 172.164 275.545 172.804 275.545 173.572V173.86H270.409V172.804H274.309L274.033 173.02C274.033 172.724 273.981 172.456 273.877 172.216C273.773 171.976 273.617 171.784 273.409 171.64C273.201 171.488 272.941 171.412 272.629 171.412C272.325 171.412 272.053 171.484 271.813 171.628C271.573 171.772 271.385 171.988 271.249 172.276C271.113 172.564 271.045 172.932 271.045 173.38C271.045 173.812 271.109 174.176 271.237 174.472C271.365 174.76 271.549 174.98 271.789 175.132C272.029 175.276 272.309 175.348 272.629 175.348C272.997 175.348 273.281 175.272 273.481 175.12C273.689 174.96 273.861 174.744 273.997 174.472L275.329 174.988C275.129 175.476 274.821 175.876 274.405 176.188C273.997 176.492 273.405 176.644 272.629 176.644ZM280.285 176.644C279.837 176.644 279.453 176.56 279.133 176.392C278.813 176.216 278.545 175.964 278.329 175.636H278.257V176.5H276.853V167.86H278.293V171.124H278.365C278.581 170.82 278.841 170.576 279.145 170.392C279.449 170.208 279.829 170.116 280.285 170.116C280.797 170.116 281.257 170.248 281.665 170.512C282.081 170.776 282.409 171.152 282.649 171.64C282.897 172.128 283.021 172.708 283.021 173.38C283.021 174.052 282.897 174.632 282.649 175.12C282.409 175.608 282.081 175.984 281.665 176.248C281.257 176.512 280.797 176.644 280.285 176.644ZM279.901 175.324C280.381 175.324 280.773 175.152 281.077 174.808C281.381 174.456 281.533 173.98 281.533 173.38C281.533 172.78 281.381 172.308 281.077 171.964C280.773 171.612 280.381 171.436 279.901 171.436C279.389 171.436 278.985 171.608 278.689 171.952C278.393 172.288 278.245 172.764 278.245 173.38C278.245 173.988 278.393 174.464 278.689 174.808C278.985 175.152 279.389 175.324 279.901 175.324ZM287.701 176.644C286.733 176.644 285.953 176.456 285.361 176.08C284.769 175.696 284.333 175.136 284.053 174.4L285.613 173.86C285.765 174.292 286.017 174.628 286.369 174.868C286.721 175.108 287.165 175.228 287.701 175.228C288.333 175.228 288.801 175.124 289.105 174.916C289.409 174.708 289.561 174.436 289.561 174.1C289.561 173.756 289.461 173.496 289.261 173.32C289.061 173.136 288.773 173.024 288.397 172.984L286.693 172.804C285.949 172.724 285.349 172.472 284.893 172.048C284.437 171.624 284.209 171.04 284.209 170.296C284.209 169.824 284.341 169.392 284.605 169C284.869 168.608 285.237 168.296 285.709 168.064C286.189 167.832 286.741 167.716 287.365 167.716C288.253 167.716 288.981 167.912 289.549 168.304C290.125 168.688 290.525 169.208 290.749 169.864L289.273 170.38C289.121 169.98 288.885 169.672 288.565 169.456C288.245 169.24 287.845 169.132 287.365 169.132C286.845 169.132 286.449 169.24 286.177 169.456C285.905 169.672 285.769 169.94 285.769 170.26C285.769 170.532 285.861 170.764 286.045 170.956C286.229 171.14 286.525 171.252 286.933 171.292L288.469 171.46C289.325 171.556 289.977 171.828 290.425 172.276C290.881 172.724 291.109 173.332 291.109 174.1C291.109 174.62 290.973 175.072 290.701 175.456C290.437 175.832 290.049 176.124 289.537 176.332C289.033 176.54 288.421 176.644 287.701 176.644ZM295.271 176.644C294.671 176.644 294.135 176.512 293.663 176.248C293.191 175.984 292.815 175.608 292.535 175.12C292.263 174.632 292.127 174.052 292.127 173.38C292.127 172.708 292.263 172.128 292.535 171.64C292.815 171.152 293.191 170.776 293.663 170.512C294.135 170.248 294.671 170.116 295.271 170.116C295.871 170.116 296.407 170.248 296.879 170.512C297.351 170.776 297.723 171.152 297.995 171.64C298.275 172.128 298.415 172.708 298.415 173.38C298.415 174.052 298.275 174.632 297.995 175.12C297.723 175.608 297.351 175.984 296.879 176.248C296.407 176.512 295.871 176.644 295.271 176.644ZM295.271 175.3C295.791 175.3 296.191 175.128 296.471 174.784C296.759 174.44 296.903 173.972 296.903 173.38C296.903 172.788 296.759 172.32 296.471 171.976C296.191 171.632 295.791 171.46 295.271 171.46C294.751 171.46 294.347 171.632 294.059 171.976C293.779 172.32 293.639 172.788 293.639 173.38C293.639 173.972 293.779 174.44 294.059 174.784C294.347 175.128 294.751 175.3 295.271 175.3ZM302.62 176.644C302.02 176.644 301.48 176.512 301 176.248C300.528 175.984 300.152 175.608 299.872 175.12C299.592 174.632 299.452 174.052 299.452 173.38C299.452 172.708 299.592 172.128 299.872 171.64C300.152 171.152 300.528 170.776 301 170.512C301.48 170.248 302.02 170.116 302.62 170.116C303.396 170.116 304.036 170.32 304.54 170.728C305.052 171.128 305.372 171.668 305.5 172.348L304.072 172.66C303.992 172.316 303.828 172.032 303.58 171.808C303.34 171.576 303.02 171.46 302.62 171.46C302.276 171.46 301.98 171.54 301.732 171.7C301.484 171.852 301.292 172.072 301.156 172.36C301.028 172.64 300.964 172.98 300.964 173.38C300.964 173.772 301.028 174.112 301.156 174.4C301.292 174.688 301.484 174.912 301.732 175.072C301.98 175.224 302.276 175.3 302.62 175.3C303.004 175.3 303.316 175.2 303.556 175C303.804 174.792 303.98 174.484 304.084 174.076L305.488 174.508C305.4 174.916 305.232 175.28 304.984 175.6C304.744 175.92 304.428 176.176 304.036 176.368C303.644 176.552 303.172 176.644 302.62 176.644ZM306.654 176.5V167.86H308.094V172.924H308.166L310.374 170.26H312.198L308.094 174.952V176.5H306.654ZM310.626 176.5L308.754 173.704L309.702 172.648L312.402 176.5H310.626ZM315.426 176.644C314.834 176.644 314.306 176.512 313.842 176.248C313.378 175.984 313.014 175.608 312.75 175.12C312.494 174.624 312.366 174.044 312.366 173.38C312.366 172.756 312.498 172.2 312.762 171.712C313.026 171.216 313.39 170.828 313.854 170.548C314.318 170.26 314.846 170.116 315.438 170.116C316.022 170.116 316.53 170.244 316.962 170.5C317.402 170.756 317.742 171.14 317.982 171.652C318.222 172.164 318.342 172.804 318.342 173.572V173.86H313.206V172.804H317.106L316.83 173.02C316.83 172.724 316.778 172.456 316.674 172.216C316.57 171.976 316.414 171.784 316.206 171.64C315.998 171.488 315.738 171.412 315.426 171.412C315.122 171.412 314.85 171.484 314.61 171.628C314.37 171.772 314.182 171.988 314.046 172.276C313.91 172.564 313.842 172.932 313.842 173.38C313.842 173.812 313.906 174.176 314.034 174.472C314.162 174.76 314.346 174.98 314.586 175.132C314.826 175.276 315.106 175.348 315.426 175.348C315.794 175.348 316.078 175.272 316.278 175.12C316.486 174.96 316.658 174.744 316.794 174.472L318.126 174.988C317.926 175.476 317.618 175.876 317.202 176.188C316.794 176.492 316.202 176.644 315.426 176.644ZM321.822 176.524C321.222 176.524 320.77 176.368 320.466 176.056C320.17 175.736 320.022 175.288 320.022 174.712V168.556H321.462V174.616C321.462 174.992 321.654 175.18 322.038 175.18H323.034V176.524H321.822ZM318.918 171.46V170.26H322.914V171.46H318.918Z" fill="white"/>
<path d="M220.829 168.965C221.024 168.77 221.34 168.77 221.536 168.965C221.731 169.16 221.731 169.477 221.536 169.672L219.208 172H253.496V173H219.208L221.536 175.328C221.731 175.523 221.731 175.84 221.536 176.035C221.34 176.23 221.024 176.23 220.829 176.035L217.647 172.854C217.452 172.658 217.452 172.342 217.647 172.147L220.829 168.965ZM363.964 168.965C364.16 168.77 364.476 168.77 364.671 168.965L367.854 172.147C368.049 172.342 368.049 172.658 367.854 172.854L364.671 176.035C364.476 176.23 364.16 176.23 363.964 176.035C363.769 175.84 363.769 175.523 363.964 175.328L366.293 173H326.496V172H366.293L363.964 169.672C363.769 169.477 363.769 169.16 363.964 168.965Z" fill="white"/>
<path d="M567.904 168.5V159.86H571.888C572.464 159.86 572.964 159.972 573.388 160.196C573.82 160.42 574.156 160.728 574.396 161.12C574.636 161.512 574.756 161.968 574.756 162.488C574.756 163.008 574.636 163.468 574.396 163.868C574.156 164.26 573.816 164.568 573.376 164.792C572.936 165.016 572.42 165.128 571.828 165.128H568.96V163.772H571.768C572.208 163.772 572.556 163.66 572.812 163.436C573.068 163.212 573.196 162.896 573.196 162.488C573.196 162.072 573.072 161.756 572.824 161.54C572.576 161.316 572.24 161.204 571.816 161.204H568.96L569.416 160.88V168.5H567.904ZM573.124 168.5L570.58 164.564H572.32L574.96 168.5H573.124ZM578.632 168.644C578.04 168.644 577.512 168.512 577.048 168.248C576.584 167.984 576.22 167.608 575.956 167.12C575.7 166.624 575.572 166.044 575.572 165.38C575.572 164.756 575.704 164.2 575.968 163.712C576.232 163.216 576.596 162.828 577.06 162.548C577.524 162.26 578.052 162.116 578.644 162.116C579.228 162.116 579.736 162.244 580.168 162.5C580.608 162.756 580.948 163.14 581.188 163.652C581.428 164.164 581.548 164.804 581.548 165.572V165.86H576.412V164.804H580.312L580.036 165.02C580.036 164.724 579.984 164.456 579.88 164.216C579.776 163.976 579.62 163.784 579.412 163.64C579.204 163.488 578.944 163.412 578.632 163.412C578.328 163.412 578.056 163.484 577.816 163.628C577.576 163.772 577.388 163.988 577.252 164.276C577.116 164.564 577.048 164.932 577.048 165.38C577.048 165.812 577.112 166.176 577.24 166.472C577.368 166.76 577.552 166.98 577.792 167.132C578.032 167.276 578.312 167.348 578.632 167.348C579 167.348 579.284 167.272 579.484 167.12C579.692 166.96 579.864 166.744 580 166.472L581.332 166.988C581.132 167.476 580.824 167.876 580.408 168.188C580 168.492 579.408 168.644 578.632 168.644ZM586.288 162.116C586.8 162.116 587.26 162.248 587.668 162.512C588.084 162.776 588.412 163.152 588.652 163.64C588.9 164.128 589.024 164.708 589.024 165.38C589.024 166.052 588.9 166.632 588.652 167.12C588.412 167.608 588.084 167.984 587.668 168.248C587.26 168.512 586.8 168.644 586.288 168.644C585.832 168.644 585.452 168.552 585.148 168.368C584.844 168.184 584.584 167.94 584.368 167.636H584.296V170.9H582.856V162.26H584.26V163.124H584.332C584.548 162.796 584.816 162.548 585.136 162.38C585.456 162.204 585.84 162.116 586.288 162.116ZM585.904 163.436C585.392 163.436 584.988 163.608 584.692 163.952C584.396 164.296 584.248 164.772 584.248 165.38C584.248 165.988 584.396 166.464 584.692 166.808C584.988 167.152 585.392 167.324 585.904 167.324C586.384 167.324 586.776 167.152 587.08 166.808C587.384 166.456 587.536 165.98 587.536 165.38C587.536 164.78 587.384 164.308 587.08 163.964C586.776 163.612 586.384 163.436 585.904 163.436ZM590.356 168.5V159.86H591.796V168.5H590.356ZM593.426 168.5V162.26H594.866V168.5H593.426ZM593.27 160.58C593.27 160.324 593.35 160.116 593.51 159.956C593.678 159.796 593.89 159.716 594.146 159.716C594.402 159.716 594.61 159.796 594.77 159.956C594.938 160.116 595.022 160.324 595.022 160.58C595.022 160.82 594.938 161.024 594.77 161.192C594.61 161.352 594.402 161.432 594.146 161.432C593.89 161.432 593.678 161.352 593.51 161.192C593.35 161.024 593.27 160.82 593.27 160.58ZM599.365 168.644C598.765 168.644 598.225 168.512 597.745 168.248C597.273 167.984 596.897 167.608 596.617 167.12C596.337 166.632 596.197 166.052 596.197 165.38C596.197 164.708 596.337 164.128 596.617 163.64C596.897 163.152 597.273 162.776 597.745 162.512C598.225 162.248 598.765 162.116 599.365 162.116C600.141 162.116 600.781 162.32 601.285 162.728C601.797 163.128 602.117 163.668 602.245 164.348L600.817 164.66C600.737 164.316 600.573 164.032 600.325 163.808C600.085 163.576 599.765 163.46 599.365 163.46C599.021 163.46 598.725 163.54 598.477 163.7C598.229 163.852 598.037 164.072 597.901 164.36C597.773 164.64 597.709 164.98 597.709 165.38C597.709 165.772 597.773 166.112 597.901 166.4C598.037 166.688 598.229 166.912 598.477 167.072C598.725 167.224 599.021 167.3 599.365 167.3C599.749 167.3 600.061 167.2 600.301 167C600.549 166.792 600.725 166.484 600.829 166.076L602.233 166.508C602.145 166.916 601.977 167.28 601.729 167.6C601.489 167.92 601.173 168.176 600.781 168.368C600.389 168.552 599.917 168.644 599.365 168.644ZM605.151 168.644C604.519 168.644 604.015 168.476 603.639 168.14C603.271 167.796 603.087 167.344 603.087 166.784C603.087 166.232 603.271 165.788 603.639 165.452C604.007 165.108 604.531 164.908 605.211 164.852L607.443 164.648V165.656L605.451 165.872C605.139 165.904 604.907 165.992 604.755 166.136C604.603 166.272 604.527 166.456 604.527 166.688C604.527 166.912 604.607 167.096 604.767 167.24C604.935 167.384 605.167 167.456 605.463 167.456C605.767 167.456 606.035 167.38 606.267 167.228C606.507 167.068 606.691 166.824 606.819 166.496C606.955 166.16 607.023 165.732 607.023 165.212V164.456C607.023 164.152 606.931 163.9 606.747 163.7C606.571 163.5 606.279 163.4 605.871 163.4C605.463 163.4 605.167 163.484 604.983 163.652C604.799 163.82 604.691 164.012 604.659 164.228H603.231C603.255 163.82 603.375 163.46 603.591 163.148C603.807 162.828 604.111 162.576 604.503 162.392C604.895 162.208 605.363 162.116 605.907 162.116C606.715 162.116 607.343 162.332 607.791 162.764C608.239 163.188 608.463 163.736 608.463 164.408V167.132L608.499 168.5H607.143L607.107 167.66H607.011C606.787 167.996 606.519 168.244 606.207 168.404C605.903 168.564 605.551 168.644 605.151 168.644ZM612.145 168.524C611.545 168.524 611.093 168.368 610.789 168.056C610.493 167.736 610.345 167.288 610.345 166.712V160.556H611.785V166.616C611.785 166.992 611.977 167.18 612.361 167.18H613.357V168.524H612.145ZM609.241 163.46V162.26H613.237V163.46H609.241ZM614.426 168.5V162.26H615.866V168.5H614.426ZM614.27 160.58C614.27 160.324 614.35 160.116 614.51 159.956C614.678 159.796 614.89 159.716 615.146 159.716C615.402 159.716 615.61 159.796 615.77 159.956C615.938 160.116 616.022 160.324 616.022 160.58C616.022 160.82 615.938 161.024 615.77 161.192C615.61 161.352 615.402 161.432 615.146 161.432C614.89 161.432 614.678 161.352 614.51 161.192C614.35 161.024 614.27 160.82 614.27 160.58ZM620.341 168.644C619.741 168.644 619.205 168.512 618.733 168.248C618.261 167.984 617.885 167.608 617.605 167.12C617.333 166.632 617.197 166.052 617.197 165.38C617.197 164.708 617.333 164.128 617.605 163.64C617.885 163.152 618.261 162.776 618.733 162.512C619.205 162.248 619.741 162.116 620.341 162.116C620.941 162.116 621.477 162.248 621.949 162.512C622.421 162.776 622.793 163.152 623.065 163.64C623.345 164.128 623.485 164.708 623.485 165.38C623.485 166.052 623.345 166.632 623.065 167.12C622.793 167.608 622.421 167.984 621.949 168.248C621.477 168.512 620.941 168.644 620.341 168.644ZM620.341 167.3C620.861 167.3 621.261 167.128 621.541 166.784C621.829 166.44 621.973 165.972 621.973 165.38C621.973 164.788 621.829 164.32 621.541 163.976C621.261 163.632 620.861 163.46 620.341 163.46C619.821 163.46 619.417 163.632 619.129 163.976C618.849 164.32 618.709 164.788 618.709 165.38C618.709 165.972 618.849 166.44 619.129 166.784C619.417 167.128 619.821 167.3 620.341 167.3ZM624.821 168.5V162.26H626.225V163.124H626.297C626.497 162.812 626.745 162.568 627.041 162.392C627.345 162.208 627.693 162.116 628.085 162.116C628.509 162.116 628.881 162.208 629.201 162.392C629.521 162.568 629.769 162.832 629.945 163.184C630.121 163.528 630.209 163.952 630.209 164.456V168.5H628.769V164.72C628.769 164.296 628.673 163.984 628.481 163.784C628.289 163.576 628.025 163.472 627.689 163.472C627.417 163.472 627.173 163.544 626.957 163.688C626.741 163.824 626.569 164.028 626.441 164.3C626.321 164.572 626.261 164.908 626.261 165.308V168.5H624.821Z" fill="white"/>
<path d="M531.329 160.965C531.524 160.769 531.84 160.769 532.036 160.965C532.23 161.16 532.231 161.477 532.036 161.672L529.708 164H562.992V165H529.708L532.036 167.328C532.23 167.523 532.231 167.84 532.036 168.035C531.841 168.23 531.524 168.23 531.329 168.035L528.147 164.853C527.952 164.658 527.952 164.342 528.147 164.146L531.329 160.965ZM670.5 164C670.776 164 671 164.224 671 164.5C671 164.776 670.776 165 670.5 165H634.992V164H670.5Z" fill="white"/>
<path d="M584.149 44.5V35.86H588.133C588.709 35.86 589.209 35.972 589.633 36.196C590.065 36.42 590.401 36.728 590.641 37.12C590.881 37.512 591.001 37.968 591.001 38.488C591.001 39.008 590.881 39.468 590.641 39.868C590.401 40.26 590.061 40.568 589.621 40.792C589.181 41.016 588.665 41.128 588.073 41.128H585.205V39.772H588.013C588.453 39.772 588.801 39.66 589.057 39.436C589.313 39.212 589.441 38.896 589.441 38.488C589.441 38.072 589.317 37.756 589.069 37.54C588.821 37.316 588.485 37.204 588.061 37.204H585.205L585.661 36.88V44.5H584.149ZM589.369 44.5L586.825 40.564H588.565L591.205 44.5H589.369ZM592.411 44.5V35.86H598.423V37.252H593.275L593.923 36.604V40.06L593.275 39.412H598.135V40.804H593.275L593.923 40.156V43.756L593.275 43.108H598.543V44.5H592.411ZM603.164 44.644C602.196 44.644 601.416 44.456 600.824 44.08C600.232 43.696 599.796 43.136 599.516 42.4L601.076 41.86C601.228 42.292 601.48 42.628 601.832 42.868C602.184 43.108 602.628 43.228 603.164 43.228C603.796 43.228 604.264 43.124 604.568 42.916C604.872 42.708 605.024 42.436 605.024 42.1C605.024 41.756 604.924 41.496 604.724 41.32C604.524 41.136 604.236 41.024 603.86 40.984L602.156 40.804C601.412 40.724 600.812 40.472 600.356 40.048C599.9 39.624 599.672 39.04 599.672 38.296C599.672 37.824 599.804 37.392 600.068 37C600.332 36.608 600.7 36.296 601.172 36.064C601.652 35.832 602.204 35.716 602.828 35.716C603.716 35.716 604.444 35.912 605.012 36.304C605.588 36.688 605.988 37.208 606.212 37.864L604.736 38.38C604.584 37.98 604.348 37.672 604.028 37.456C603.708 37.24 603.308 37.132 602.828 37.132C602.308 37.132 601.912 37.24 601.64 37.456C601.368 37.672 601.232 37.94 601.232 38.26C601.232 38.532 601.324 38.764 601.508 38.956C601.692 39.14 601.988 39.252 602.396 39.292L603.932 39.46C604.788 39.556 605.44 39.828 605.888 40.276C606.344 40.724 606.572 41.332 606.572 42.1C606.572 42.62 606.436 43.072 606.164 43.456C605.9 43.832 605.512 44.124 605 44.332C604.496 44.54 603.884 44.644 603.164 44.644ZM609.951 44.5V36.16H611.463V44.5H609.951ZM607.071 37.252V35.86H614.355V37.252H607.071Z" fill="white"/>
<path d="M531.328 36.9645C531.523 36.7693 531.84 36.7693 532.035 36.9645C532.23 37.1598 532.23 37.4763 532.035 37.6715L529.707 39.9997H579.996V40.9997H529.707L532.035 43.3278C532.23 43.523 532.23 43.8396 532.035 44.0348C531.84 44.2301 531.523 44.2301 531.328 44.0348L528.146 40.8532C527.951 40.6579 527.951 40.3414 528.146 40.1461L531.328 36.9645ZM666.965 36.9645C667.16 36.7693 667.477 36.7693 667.672 36.9645L670.853 40.1461C671.049 40.3414 671.049 40.6579 670.853 40.8532L667.672 44.0348C667.477 44.2301 667.16 44.2301 666.965 44.0348C666.77 43.8396 666.77 43.523 666.965 43.3278L669.293 40.9997H616.996V39.9997H669.293L666.965 37.6715C666.77 37.4763 666.77 37.1598 666.965 36.9645Z" fill="white"/>
<path d="M810.42 57.616C810.868 57.616 811.252 57.704 811.572 57.88C811.892 58.048 812.16 58.296 812.376 58.624H812.448V57.76H813.852V66.4H812.412V63.136H812.34C812.124 63.44 811.864 63.684 811.56 63.868C811.256 64.052 810.876 64.144 810.42 64.144C809.916 64.144 809.456 64.012 809.04 63.748C808.624 63.484 808.292 63.108 808.044 62.62C807.804 62.132 807.684 61.552 807.684 60.88C807.684 60.208 807.804 59.628 808.044 59.14C808.292 58.652 808.624 58.276 809.04 58.012C809.456 57.748 809.916 57.616 810.42 57.616ZM810.804 58.936C810.324 58.936 809.932 59.112 809.628 59.464C809.324 59.808 809.172 60.28 809.172 60.88C809.172 61.48 809.324 61.956 809.628 62.308C809.932 62.652 810.324 62.824 810.804 62.824C811.316 62.824 811.72 62.652 812.016 62.308C812.312 61.964 812.46 61.488 812.46 60.88C812.46 60.272 812.312 59.796 812.016 59.452C811.72 59.108 811.316 58.936 810.804 58.936ZM820.8 57.76V64H819.396V63.136H819.324C819.124 63.448 818.876 63.696 818.58 63.88C818.284 64.056 817.936 64.144 817.536 64.144C817.112 64.144 816.74 64.056 816.42 63.88C816.1 63.696 815.852 63.428 815.676 63.076C815.5 62.724 815.412 62.3 815.412 61.804V57.76H816.852V61.54C816.852 61.964 816.948 62.28 817.14 62.488C817.332 62.688 817.596 62.788 817.932 62.788C818.212 62.788 818.456 62.72 818.664 62.584C818.88 62.44 819.048 62.232 819.168 61.96C819.296 61.68 819.36 61.344 819.36 60.952V57.76H820.8ZM825.193 64.144C824.601 64.144 824.073 64.012 823.609 63.748C823.145 63.484 822.781 63.108 822.517 62.62C822.261 62.124 822.133 61.544 822.133 60.88C822.133 60.256 822.265 59.7 822.529 59.212C822.793 58.716 823.157 58.328 823.621 58.048C824.085 57.76 824.613 57.616 825.205 57.616C825.789 57.616 826.297 57.744 826.729 58C827.169 58.256 827.509 58.64 827.749 59.152C827.989 59.664 828.109 60.304 828.109 61.072V61.36H822.973V60.304H826.873L826.597 60.52C826.597 60.224 826.545 59.956 826.441 59.716C826.337 59.476 826.181 59.284 825.973 59.14C825.765 58.988 825.505 58.912 825.193 58.912C824.889 58.912 824.617 58.984 824.377 59.128C824.137 59.272 823.949 59.488 823.813 59.776C823.677 60.064 823.609 60.432 823.609 60.88C823.609 61.312 823.673 61.676 823.801 61.972C823.929 62.26 824.113 62.48 824.353 62.632C824.593 62.776 824.873 62.848 825.193 62.848C825.561 62.848 825.845 62.772 826.045 62.62C826.253 62.46 826.425 62.244 826.561 61.972L827.893 62.488C827.693 62.976 827.385 63.376 826.969 63.688C826.561 63.992 825.969 64.144 825.193 64.144ZM829.418 64V57.76H830.822V58.864H830.894C831.062 58.496 831.31 58.196 831.638 57.964C831.966 57.732 832.37 57.616 832.85 57.616H833.258V59.08H832.73C832.146 59.08 831.686 59.248 831.35 59.584C831.022 59.92 830.858 60.444 830.858 61.156V64H829.418ZM834.316 64V57.76H835.756V64H834.316ZM834.16 56.08C834.16 55.824 834.24 55.616 834.4 55.456C834.568 55.296 834.78 55.216 835.036 55.216C835.292 55.216 835.5 55.296 835.66 55.456C835.828 55.616 835.912 55.824 835.912 56.08C835.912 56.32 835.828 56.524 835.66 56.692C835.5 56.852 835.292 56.932 835.036 56.932C834.78 56.932 834.568 56.852 834.4 56.692C834.24 56.524 834.16 56.32 834.16 56.08ZM840.146 64.144C839.554 64.144 839.026 64.012 838.562 63.748C838.098 63.484 837.734 63.108 837.47 62.62C837.214 62.124 837.086 61.544 837.086 60.88C837.086 60.256 837.218 59.7 837.482 59.212C837.746 58.716 838.11 58.328 838.574 58.048C839.038 57.76 839.566 57.616 840.158 57.616C840.742 57.616 841.25 57.744 841.682 58C842.122 58.256 842.462 58.64 842.702 59.152C842.942 59.664 843.062 60.304 843.062 61.072V61.36H837.926V60.304H841.826L841.55 60.52C841.55 60.224 841.498 59.956 841.394 59.716C841.29 59.476 841.134 59.284 840.926 59.14C840.718 58.988 840.458 58.912 840.146 58.912C839.842 58.912 839.57 58.984 839.33 59.128C839.09 59.272 838.902 59.488 838.766 59.776C838.63 60.064 838.562 60.432 838.562 60.88C838.562 61.312 838.626 61.676 838.754 61.972C838.882 62.26 839.066 62.48 839.306 62.632C839.546 62.776 839.826 62.848 840.146 62.848C840.514 62.848 840.798 62.772 840.998 62.62C841.206 62.46 841.378 62.244 841.514 61.972L842.846 62.488C842.646 62.976 842.338 63.376 841.922 63.688C841.514 63.992 840.922 64.144 840.146 64.144ZM846.723 64.144C845.979 64.144 845.371 64.008 844.899 63.736C844.435 63.464 844.087 63.076 843.855 62.572L845.187 61.96C845.323 62.256 845.523 62.48 845.787 62.632C846.059 62.784 846.371 62.86 846.723 62.86C847.075 62.86 847.351 62.8 847.551 62.68C847.751 62.56 847.851 62.4 847.851 62.2C847.851 62.016 847.791 61.872 847.671 61.768C847.551 61.656 847.363 61.588 847.107 61.564L845.943 61.444C845.335 61.38 844.851 61.196 844.491 60.892C844.131 60.588 843.951 60.152 843.951 59.584C843.951 59.216 844.047 58.884 844.239 58.588C844.439 58.292 844.719 58.056 845.079 57.88C845.439 57.704 845.863 57.616 846.351 57.616C847.015 57.616 847.559 57.744 847.983 58C848.407 58.256 848.731 58.596 848.955 59.02L847.659 59.644C847.523 59.388 847.339 59.2 847.107 59.08C846.883 58.96 846.631 58.9 846.351 58.9C846.007 58.9 845.759 58.96 845.607 59.08C845.455 59.2 845.379 59.352 845.379 59.536C845.379 59.696 845.435 59.832 845.547 59.944C845.659 60.048 845.827 60.112 846.051 60.136L847.263 60.256C847.927 60.32 848.427 60.516 848.763 60.844C849.107 61.172 849.279 61.62 849.279 62.188C849.279 62.588 849.175 62.936 848.967 63.232C848.767 63.528 848.475 63.756 848.091 63.916C847.715 64.068 847.259 64.144 846.723 64.144ZM850.283 63.208C850.283 62.952 850.367 62.736 850.535 62.56C850.703 62.384 850.927 62.296 851.207 62.296C851.487 62.296 851.711 62.384 851.879 62.56C852.047 62.736 852.131 62.952 852.131 63.208C852.131 63.48 852.047 63.704 851.879 63.88C851.711 64.056 851.487 64.144 851.207 64.144C850.927 64.144 850.703 64.056 850.535 63.88C850.367 63.704 850.283 63.48 850.283 63.208ZM855.215 64.024C854.615 64.024 854.163 63.868 853.859 63.556C853.563 63.236 853.415 62.788 853.415 62.212V56.056H854.855V62.116C854.855 62.492 855.047 62.68 855.431 62.68H856.427V64.024H855.215ZM852.311 58.96V57.76H856.307V58.96H852.311ZM859.965 64.144C859.221 64.144 858.613 64.008 858.141 63.736C857.677 63.464 857.329 63.076 857.097 62.572L858.429 61.96C858.565 62.256 858.765 62.48 859.029 62.632C859.301 62.784 859.613 62.86 859.965 62.86C860.317 62.86 860.593 62.8 860.793 62.68C860.993 62.56 861.093 62.4 861.093 62.2C861.093 62.016 861.033 61.872 860.913 61.768C860.793 61.656 860.605 61.588 860.349 61.564L859.185 61.444C858.577 61.38 858.093 61.196 857.733 60.892C857.373 60.588 857.193 60.152 857.193 59.584C857.193 59.216 857.289 58.884 857.481 58.588C857.681 58.292 857.961 58.056 858.321 57.88C858.681 57.704 859.105 57.616 859.593 57.616C860.257 57.616 860.801 57.744 861.225 58C861.649 58.256 861.973 58.596 862.197 59.02L860.901 59.644C860.765 59.388 860.581 59.2 860.349 59.08C860.125 58.96 859.873 58.9 859.593 58.9C859.249 58.9 859.001 58.96 858.849 59.08C858.697 59.2 858.621 59.352 858.621 59.536C858.621 59.696 858.677 59.832 858.789 59.944C858.901 60.048 859.069 60.112 859.293 60.136L860.505 60.256C861.169 60.32 861.669 60.516 862.005 60.844C862.349 61.172 862.521 61.62 862.521 62.188C862.521 62.588 862.417 62.936 862.209 63.232C862.009 63.528 861.717 63.756 861.333 63.916C860.957 64.068 860.501 64.144 859.965 64.144Z" fill="white"/>
<path d="M845.651 19.568C845.642 19.5132 845.624 19.4597 845.597 19.4105C845.568 19.3626 845.531 19.3205 845.487 19.2853C845.476 19.2769 845.466 19.2684 845.454 19.26C845.444 19.2529 845.436 19.2431 845.424 19.2375L832.984 12.0557C832.968 12.0487 832.949 12.0431 832.931 12.0375C832.9 12.0234 832.868 12.0136 832.835 12.0051C832.776 11.9981 832.715 11.9981 832.656 12.0065C832.625 12.0135 832.596 12.0234 832.566 12.0375C832.547 12.0417 832.529 12.0487 832.51 12.0557L830.454 13.2457H830.452C830.449 13.2485 830.444 13.2527 830.44 13.2555C830.437 13.2569 830.433 13.2583 830.428 13.2612L825.214 16.6917C825.201 16.7016 825.188 16.7128 825.177 16.7241C825.161 16.7353 825.145 16.7494 825.131 16.7635C825.117 16.7789 825.104 16.7958 825.092 16.8141C825.059 16.8633 825.034 16.9154 825.016 16.9716C825.011 16.9955 825.007 17.0208 825.006 17.0448C825.004 17.0588 825 17.0729 825 17.087V37.334C825 37.5042 825.09 37.6603 825.238 37.7447L842.888 47.9367L842.89 47.9381C842.912 47.9479 842.935 47.9578 842.957 47.9648C842.991 47.9831 843.029 47.9929 843.067 47.9929C843.086 47.9958 843.105 47.9986 843.125 48C843.209 48 843.289 47.9789 843.362 47.9367L845.424 46.7467C845.439 46.7341 845.454 46.7215 845.468 46.7074C845.494 46.6891 845.518 46.668 845.541 46.6441C845.577 46.5963 845.607 46.5442 845.629 46.4894C845.64 46.4584 845.646 46.4261 845.649 46.3923C845.655 46.374 845.658 46.3557 845.661 46.3361V19.6468C845.661 19.6342 845.656 19.6229 845.656 19.6102C845.655 19.5962 845.652 19.5821 845.651 19.568ZM832.748 13.0135L844.238 19.6468L843.125 20.2897L831.637 13.6563L832.748 13.0135ZM843.599 21.1095L844.712 20.4681V46.063L843.599 46.7059V21.1095ZM830.216 14.5352V19.1784C830.216 19.2065 830.214 19.2347 830.208 19.2628C830.179 19.2544 830.15 19.2403 830.124 19.2248L826.377 17.0616L830.216 14.5352ZM842.65 46.7059L825.948 37.0612V17.9084L829.651 20.0463C829.741 20.0984 829.838 20.1392 829.938 20.1702C829.969 20.1786 829.999 20.18 830.029 20.1871C830.092 20.2025 830.157 20.2109 830.222 20.2152C830.23 20.2152 830.239 20.218 830.247 20.218C830.292 20.2165 830.337 20.2109 830.381 20.2011C830.409 20.1969 830.438 20.1983 830.465 20.1913C830.545 20.1715 830.621 20.142 830.693 20.1012C831.005 19.9015 831.185 19.5484 831.163 19.1785V14.4763L842.65 21.1096V46.7059Z" fill="white"/>
<path d="M845.651 20.068C845.642 20.0132 845.624 19.9597 845.597 19.9105C845.568 19.8626 845.531 19.8205 845.487 19.7853C845.476 19.7769 845.466 19.7684 845.454 19.76C845.444 19.7529 845.436 19.7431 845.424 19.7375L832.984 12.5557C832.968 12.5487 832.949 12.5431 832.931 12.5375C832.9 12.5234 832.868 12.5136 832.835 12.5051C832.776 12.4981 832.715 12.4981 832.656 12.5065C832.625 12.5135 832.596 12.5234 832.566 12.5375C832.547 12.5417 832.529 12.5487 832.51 12.5557L830.454 13.7457H830.452C830.449 13.7485 830.444 13.7527 830.44 13.7555C830.437 13.7569 830.433 13.7583 830.428 13.7612L825.214 17.1917C825.201 17.2016 825.188 17.2128 825.177 17.2241C825.161 17.2353 825.145 17.2494 825.131 17.2635C825.117 17.2789 825.104 17.2958 825.092 17.3141C825.059 17.3633 825.034 17.4154 825.016 17.4716C825.011 17.4955 825.007 17.5208 825.006 17.5448C825.004 17.5588 825 17.5729 825 17.587V37.834C825 38.0042 825.09 38.1603 825.238 38.2447L842.888 48.4367L842.89 48.4381C842.912 48.4479 842.935 48.4578 842.957 48.4648C842.991 48.4831 843.029 48.4929 843.067 48.4929C843.086 48.4958 843.105 48.4986 843.125 48.5C843.209 48.5 843.289 48.4789 843.362 48.4367L845.424 47.2467C845.439 47.2341 845.454 47.2215 845.468 47.2074C845.494 47.1891 845.518 47.168 845.541 47.1441C845.577 47.0963 845.607 47.0442 845.629 46.9894C845.64 46.9584 845.646 46.9261 845.649 46.8923C845.655 46.874 845.658 46.8557 845.661 46.8361V20.1468C845.661 20.1342 845.656 20.1229 845.656 20.1102C845.655 20.0962 845.652 20.0821 845.651 20.068ZM832.748 13.5135L844.238 20.1468L843.125 20.7897L831.637 14.1563L832.748 13.5135ZM843.599 21.6095L844.712 20.9681V46.563L843.599 47.2059V21.6095ZM830.216 15.0352V19.6784C830.216 19.7065 830.214 19.7347 830.208 19.7628C830.179 19.7544 830.15 19.7403 830.124 19.7248L826.377 17.5616L830.216 15.0352ZM842.65 47.2059L825.948 37.5612V18.4084L829.651 20.5463C829.741 20.5984 829.838 20.6392 829.938 20.6702C829.969 20.6786 829.999 20.68 830.029 20.6871C830.092 20.7025 830.157 20.7109 830.222 20.7152C830.23 20.7152 830.239 20.718 830.247 20.718C830.292 20.7165 830.337 20.7109 830.381 20.7011C830.409 20.6969 830.438 20.6983 830.465 20.6913C830.545 20.6715 830.621 20.642 830.693 20.6012C831.005 20.4015 831.185 20.0484 831.163 19.6785V14.9763L842.65 21.6096V47.2059Z" fill="white"/>
<path d="M3.41997 193.616C3.86797 193.616 4.25197 193.704 4.57197 193.88C4.89197 194.048 5.15997 194.296 5.37597 194.624H5.44797V193.76H6.85197V202.4H5.41197V199.136H5.33997C5.12397 199.44 4.86397 199.684 4.55997 199.868C4.25597 200.052 3.87597 200.144 3.41997 200.144C2.91597 200.144 2.45597 200.012 2.03997 199.748C1.62397 199.484 1.29197 199.108 1.04397 198.62C0.803969 198.132 0.683969 197.552 0.683969 196.88C0.683969 196.208 0.803969 195.628 1.04397 195.14C1.29197 194.652 1.62397 194.276 2.03997 194.012C2.45597 193.748 2.91597 193.616 3.41997 193.616ZM3.80397 194.936C3.32397 194.936 2.93197 195.112 2.62797 195.464C2.32397 195.808 2.17197 196.28 2.17197 196.88C2.17197 197.48 2.32397 197.956 2.62797 198.308C2.93197 198.652 3.32397 198.824 3.80397 198.824C4.31597 198.824 4.71997 198.652 5.01597 198.308C5.31197 197.964 5.45997 197.488 5.45997 196.88C5.45997 196.272 5.31197 195.796 5.01597 195.452C4.71997 195.108 4.31597 194.936 3.80397 194.936ZM13.8 193.76V200H12.396V199.136H12.324C12.124 199.448 11.876 199.696 11.58 199.88C11.284 200.056 10.936 200.144 10.536 200.144C10.112 200.144 9.73997 200.056 9.41997 199.88C9.09997 199.696 8.85197 199.428 8.67597 199.076C8.49997 198.724 8.41197 198.3 8.41197 197.804V193.76H9.85197V197.54C9.85197 197.964 9.94797 198.28 10.14 198.488C10.332 198.688 10.596 198.788 10.932 198.788C11.212 198.788 11.456 198.72 11.664 198.584C11.88 198.44 12.048 198.232 12.168 197.96C12.296 197.68 12.36 197.344 12.36 196.952V193.76H13.8ZM18.1932 200.144C17.6012 200.144 17.0732 200.012 16.6092 199.748C16.1452 199.484 15.7812 199.108 15.5172 198.62C15.2612 198.124 15.1332 197.544 15.1332 196.88C15.1332 196.256 15.2652 195.7 15.5292 195.212C15.7932 194.716 16.1572 194.328 16.6212 194.048C17.0852 193.76 17.6132 193.616 18.2052 193.616C18.7892 193.616 19.2972 193.744 19.7292 194C20.1692 194.256 20.5092 194.64 20.7492 195.152C20.9892 195.664 21.1092 196.304 21.1092 197.072V197.36H15.9732V196.304H19.8732L19.5972 196.52C19.5972 196.224 19.5452 195.956 19.4412 195.716C19.3372 195.476 19.1812 195.284 18.9732 195.14C18.7652 194.988 18.5052 194.912 18.1932 194.912C17.8892 194.912 17.6172 194.984 17.3772 195.128C17.1372 195.272 16.9492 195.488 16.8132 195.776C16.6772 196.064 16.6092 196.432 16.6092 196.88C16.6092 197.312 16.6732 197.676 16.8012 197.972C16.9292 198.26 17.1132 198.48 17.3532 198.632C17.5932 198.776 17.8732 198.848 18.1932 198.848C18.5612 198.848 18.8452 198.772 19.0452 198.62C19.2532 198.46 19.4252 198.244 19.5612 197.972L20.8932 198.488C20.6932 198.976 20.3852 199.376 19.9692 199.688C19.5612 199.992 18.9692 200.144 18.1932 200.144ZM22.4176 200V193.76H23.8216V194.864H23.8936C24.0616 194.496 24.3096 194.196 24.6376 193.964C24.9656 193.732 25.3696 193.616 25.8496 193.616H26.2576V195.08H25.7296C25.1456 195.08 24.6856 195.248 24.3496 195.584C24.0216 195.92 23.8576 196.444 23.8576 197.156V200H22.4176ZM27.316 200V193.76H28.756V200H27.316ZM27.16 192.08C27.16 191.824 27.24 191.616 27.4 191.456C27.568 191.296 27.78 191.216 28.036 191.216C28.292 191.216 28.5 191.296 28.66 191.456C28.828 191.616 28.912 191.824 28.912 192.08C28.912 192.32 28.828 192.524 28.66 192.692C28.5 192.852 28.292 192.932 28.036 192.932C27.78 192.932 27.568 192.852 27.4 192.692C27.24 192.524 27.16 192.32 27.16 192.08ZM33.1463 200.144C32.5543 200.144 32.0263 200.012 31.5623 199.748C31.0983 199.484 30.7343 199.108 30.4703 198.62C30.2143 198.124 30.0863 197.544 30.0863 196.88C30.0863 196.256 30.2183 195.7 30.4823 195.212C30.7463 194.716 31.1103 194.328 31.5743 194.048C32.0383 193.76 32.5663 193.616 33.1583 193.616C33.7423 193.616 34.2503 193.744 34.6823 194C35.1223 194.256 35.4623 194.64 35.7023 195.152C35.9423 195.664 36.0623 196.304 36.0623 197.072V197.36H30.9263V196.304H34.8263L34.5503 196.52C34.5503 196.224 34.4983 195.956 34.3943 195.716C34.2903 195.476 34.1343 195.284 33.9263 195.14C33.7183 194.988 33.4583 194.912 33.1463 194.912C32.8423 194.912 32.5703 194.984 32.3303 195.128C32.0903 195.272 31.9023 195.488 31.7663 195.776C31.6303 196.064 31.5623 196.432 31.5623 196.88C31.5623 197.312 31.6263 197.676 31.7543 197.972C31.8823 198.26 32.0663 198.48 32.3063 198.632C32.5463 198.776 32.8263 198.848 33.1463 198.848C33.5143 198.848 33.7983 198.772 33.9983 198.62C34.2063 198.46 34.3783 198.244 34.5143 197.972L35.8463 198.488C35.6463 198.976 35.3383 199.376 34.9223 199.688C34.5143 199.992 33.9223 200.144 33.1463 200.144ZM39.7227 200.144C38.9787 200.144 38.3707 200.008 37.8987 199.736C37.4347 199.464 37.0867 199.076 36.8547 198.572L38.1867 197.96C38.3227 198.256 38.5227 198.48 38.7867 198.632C39.0587 198.784 39.3707 198.86 39.7227 198.86C40.0747 198.86 40.3507 198.8 40.5507 198.68C40.7507 198.56 40.8507 198.4 40.8507 198.2C40.8507 198.016 40.7907 197.872 40.6707 197.768C40.5507 197.656 40.3627 197.588 40.1067 197.564L38.9427 197.444C38.3347 197.38 37.8507 197.196 37.4907 196.892C37.1307 196.588 36.9507 196.152 36.9507 195.584C36.9507 195.216 37.0467 194.884 37.2387 194.588C37.4387 194.292 37.7187 194.056 38.0787 193.88C38.4387 193.704 38.8627 193.616 39.3507 193.616C40.0147 193.616 40.5587 193.744 40.9827 194C41.4067 194.256 41.7307 194.596 41.9547 195.02L40.6587 195.644C40.5227 195.388 40.3387 195.2 40.1067 195.08C39.8827 194.96 39.6307 194.9 39.3507 194.9C39.0067 194.9 38.7587 194.96 38.6067 195.08C38.4547 195.2 38.3787 195.352 38.3787 195.536C38.3787 195.696 38.4347 195.832 38.5467 195.944C38.6587 196.048 38.8267 196.112 39.0507 196.136L40.2627 196.256C40.9267 196.32 41.4267 196.516 41.7627 196.844C42.1067 197.172 42.2787 197.62 42.2787 198.188C42.2787 198.588 42.1747 198.936 41.9667 199.232C41.7667 199.528 41.4747 199.756 41.0907 199.916C40.7147 200.068 40.2587 200.144 39.7227 200.144ZM43.283 199.208C43.283 198.952 43.367 198.736 43.535 198.56C43.703 198.384 43.927 198.296 44.207 198.296C44.487 198.296 44.711 198.384 44.879 198.56C45.047 198.736 45.131 198.952 45.131 199.208C45.131 199.48 45.047 199.704 44.879 199.88C44.711 200.056 44.487 200.144 44.207 200.144C43.927 200.144 43.703 200.056 43.535 199.88C43.367 199.704 43.283 199.48 43.283 199.208ZM48.2146 200.024C47.6146 200.024 47.1626 199.868 46.8586 199.556C46.5626 199.236 46.4146 198.788 46.4146 198.212V192.056H47.8546V198.116C47.8546 198.492 48.0466 198.68 48.4306 198.68H49.4266V200.024H48.2146ZM45.3106 194.96V193.76H49.3066V194.96H45.3106ZM52.9649 200.144C52.2209 200.144 51.6129 200.008 51.1409 199.736C50.6769 199.464 50.3289 199.076 50.0969 198.572L51.4289 197.96C51.5649 198.256 51.7649 198.48 52.0289 198.632C52.3009 198.784 52.6129 198.86 52.9649 198.86C53.3169 198.86 53.5929 198.8 53.7929 198.68C53.9929 198.56 54.0929 198.4 54.0929 198.2C54.0929 198.016 54.0329 197.872 53.9129 197.768C53.7929 197.656 53.6049 197.588 53.3489 197.564L52.1849 197.444C51.5769 197.38 51.0929 197.196 50.7329 196.892C50.3729 196.588 50.1929 196.152 50.1929 195.584C50.1929 195.216 50.2889 194.884 50.4809 194.588C50.6809 194.292 50.9609 194.056 51.3209 193.88C51.6809 193.704 52.1049 193.616 52.5929 193.616C53.2569 193.616 53.8009 193.744 54.2249 194C54.6489 194.256 54.9729 194.596 55.1969 195.02L53.9009 195.644C53.7649 195.388 53.5809 195.2 53.3489 195.08C53.1249 194.96 52.8729 194.9 52.5929 194.9C52.2489 194.9 52.0009 194.96 51.8489 195.08C51.6969 195.2 51.6209 195.352 51.6209 195.536C51.6209 195.696 51.6769 195.832 51.7889 195.944C51.9009 196.048 52.0689 196.112 52.2929 196.136L53.5049 196.256C54.1689 196.32 54.6689 196.516 55.0049 196.844C55.3489 197.172 55.5209 197.62 55.5209 198.188C55.5209 198.588 55.4169 198.936 55.2089 199.232C55.0089 199.528 54.7169 199.756 54.3329 199.916C53.9569 200.068 53.5009 200.144 52.9649 200.144Z" fill="white"/>
<path d="M38.6508 155.568C38.6418 155.513 38.6238 155.46 38.5968 155.41C38.5676 155.363 38.5308 155.32 38.4873 155.285C38.476 155.277 38.4663 155.268 38.4536 155.26C38.4438 155.253 38.4356 155.243 38.4243 155.237L25.984 148.056C25.9675 148.049 25.9487 148.043 25.9307 148.037C25.9 148.023 25.8677 148.014 25.8355 148.005C25.7762 147.998 25.7155 147.998 25.6562 148.007C25.6255 148.014 25.5962 148.023 25.5662 148.037C25.5467 148.042 25.5287 148.049 25.5099 148.056L23.4539 149.246H23.4524C23.4487 149.249 23.4442 149.253 23.4397 149.256C23.4374 149.257 23.4329 149.258 23.4284 149.261L18.2138 152.692C18.201 152.702 18.1883 152.713 18.177 152.724C18.1605 152.735 18.1448 152.749 18.1305 152.763C18.117 152.779 18.1043 152.796 18.0915 152.814C18.0593 152.863 18.0338 152.915 18.0157 152.972C18.0112 152.996 18.0067 153.021 18.006 153.045C18.0045 153.059 18 153.073 18 153.087V173.334C18 173.504 18.09 173.66 18.2378 173.745L35.8882 183.937L35.8897 183.938C35.9122 183.948 35.9347 183.958 35.9572 183.965C35.991 183.983 36.0292 183.993 36.0668 183.993C36.0863 183.996 36.105 183.999 36.1245 184C36.2093 184 36.2888 183.979 36.3623 183.937L38.4243 182.747C38.4393 182.734 38.4535 182.721 38.4678 182.707C38.494 182.689 38.5181 182.668 38.5406 182.644C38.5773 182.596 38.6066 182.544 38.6291 182.489C38.6396 182.458 38.6463 182.426 38.6493 182.392C38.6546 182.374 38.6576 182.356 38.6606 182.336V155.647C38.6606 155.634 38.6561 155.623 38.6561 155.61C38.6546 155.596 38.6523 155.582 38.6508 155.568ZM25.7477 149.014L37.2384 155.647L36.1245 156.29L24.6368 149.656L25.7477 149.014ZM36.5986 157.11L37.7125 156.468V182.063L36.5986 182.706V157.11ZM23.2162 150.535V155.178C23.2162 155.207 23.2139 155.235 23.2079 155.263C23.1786 155.254 23.1501 155.24 23.1239 155.225L19.3772 153.062L23.2162 150.535ZM35.6505 182.706L18.9481 173.061V153.908L22.6506 156.046C22.7406 156.098 22.8381 156.139 22.9379 156.17C22.9686 156.179 22.9986 156.18 23.0294 156.187C23.0924 156.203 23.1569 156.211 23.2222 156.215C23.2304 156.215 23.2387 156.218 23.2469 156.218C23.2919 156.217 23.3369 156.211 23.3812 156.201C23.4089 156.197 23.4382 156.198 23.4652 156.191C23.5455 156.172 23.6212 156.142 23.6932 156.101C24.0052 155.901 24.1853 155.548 24.1628 155.179V150.476L35.6505 157.11V182.706Z" fill="white"/>
<path d="M38.6508 156.068C38.6418 156.013 38.6238 155.96 38.5968 155.91C38.5676 155.863 38.5308 155.82 38.4873 155.785C38.476 155.777 38.4663 155.768 38.4536 155.76C38.4438 155.753 38.4356 155.743 38.4243 155.737L25.984 148.556C25.9675 148.549 25.9487 148.543 25.9307 148.537C25.9 148.523 25.8677 148.514 25.8355 148.505C25.7762 148.498 25.7155 148.498 25.6562 148.507C25.6255 148.514 25.5962 148.523 25.5662 148.537C25.5467 148.542 25.5287 148.549 25.5099 148.556L23.4539 149.746H23.4524C23.4487 149.749 23.4442 149.753 23.4397 149.756C23.4374 149.757 23.4329 149.758 23.4284 149.761L18.2138 153.192C18.201 153.202 18.1883 153.213 18.177 153.224C18.1605 153.235 18.1448 153.249 18.1305 153.263C18.117 153.279 18.1043 153.296 18.0915 153.314C18.0593 153.363 18.0338 153.415 18.0157 153.472C18.0112 153.496 18.0067 153.521 18.006 153.545C18.0045 153.559 18 153.573 18 153.587V173.834C18 174.004 18.09 174.16 18.2378 174.245L35.8882 184.437L35.8897 184.438C35.9122 184.448 35.9347 184.458 35.9572 184.465C35.991 184.483 36.0292 184.493 36.0668 184.493C36.0863 184.496 36.105 184.499 36.1245 184.5C36.2093 184.5 36.2888 184.479 36.3623 184.437L38.4243 183.247C38.4393 183.234 38.4535 183.221 38.4678 183.207C38.494 183.189 38.5181 183.168 38.5406 183.144C38.5773 183.096 38.6066 183.044 38.6291 182.989C38.6396 182.958 38.6463 182.926 38.6493 182.892C38.6546 182.874 38.6576 182.856 38.6606 182.836V156.147C38.6606 156.134 38.6561 156.123 38.6561 156.11C38.6546 156.096 38.6523 156.082 38.6508 156.068ZM25.7477 149.514L37.2384 156.147L36.1245 156.79L24.6368 150.156L25.7477 149.514ZM36.5986 157.61L37.7125 156.968V182.563L36.5986 183.206V157.61ZM23.2162 151.035V155.678C23.2162 155.707 23.2139 155.735 23.2079 155.763C23.1786 155.754 23.1501 155.74 23.1239 155.725L19.3772 153.562L23.2162 151.035ZM35.6505 183.206L18.9481 173.561V154.408L22.6506 156.546C22.7406 156.598 22.8381 156.639 22.9379 156.67C22.9686 156.679 22.9986 156.68 23.0294 156.687C23.0924 156.703 23.1569 156.711 23.2222 156.715C23.2304 156.715 23.2387 156.718 23.2469 156.718C23.2919 156.717 23.3369 156.711 23.3812 156.701C23.4089 156.697 23.4382 156.698 23.4652 156.691C23.5455 156.672 23.6212 156.642 23.6932 156.601C24.0052 156.401 24.1853 156.048 24.1628 155.679V150.976L35.6505 157.61V183.206Z" fill="white"/>
</svg>
