<svg width="722" height="258" viewBox="0 0 722 258" fill="none" xmlns="http://www.w3.org/2000/svg">
<path d="M145 186.5C149.694 186.5 153.5 190.306 153.5 195V215.024C153.336 215.008 153.169 215 153 215C152.831 215 152.664 215.008 152.5 215.024V195C152.5 190.858 149.142 187.5 145 187.5H9C4.85786 187.5 1.5 190.858 1.5 195V249C1.5 253.142 4.85786 256.5 9 256.5H145C149.142 256.5 152.5 253.142 152.5 249V230.975C152.664 230.991 152.831 231 153 231C153.169 231 153.336 230.991 153.5 230.975V249C153.5 253.694 149.694 257.5 145 257.5H9C4.30558 257.5 0.5 253.694 0.5 249V195C0.5 190.306 4.30558 186.5 9 186.5H145Z" fill="#969696" fill-opacity="0.9"/>
<path d="M5.764 176.144C4.972 176.144 4.256 175.964 3.616 175.604C2.976 175.244 2.468 174.732 2.092 174.068C1.716 173.396 1.528 172.604 1.528 171.692C1.528 171.004 1.636 170.384 1.852 169.832C2.068 169.28 2.368 168.812 2.752 168.428C3.136 168.036 3.584 167.736 4.096 167.528C4.616 167.32 5.172 167.216 5.764 167.216C6.484 167.216 7.112 167.34 7.648 167.588C8.184 167.828 8.62 168.18 8.956 168.644C9.3 169.1 9.536 169.648 9.664 170.288L8.14 170.612C8.044 170.212 7.892 169.864 7.684 169.568C7.484 169.272 7.228 169.044 6.916 168.884C6.604 168.716 6.232 168.632 5.8 168.632C5.24 168.632 4.756 168.756 4.348 169.004C3.948 169.252 3.64 169.604 3.424 170.06C3.216 170.516 3.112 171.06 3.112 171.692C3.112 172.316 3.22 172.856 3.436 173.312C3.652 173.768 3.96 174.12 4.36 174.368C4.768 174.608 5.248 174.728 5.8 174.728C6.224 174.728 6.588 174.66 6.892 174.524C7.204 174.38 7.464 174.164 7.672 173.876C7.888 173.58 8.056 173.212 8.176 172.772L9.664 173.168C9.536 173.768 9.304 174.292 8.968 174.74C8.632 175.18 8.196 175.524 7.66 175.772C7.124 176.02 6.492 176.144 5.764 176.144ZM10.8629 176V167.36H12.3029V176H10.8629ZM13.9332 176V169.76H15.3732V176H13.9332ZM13.7772 168.08C13.7772 167.824 13.8572 167.616 14.0172 167.456C14.1852 167.296 14.3972 167.216 14.6532 167.216C14.9092 167.216 15.1172 167.296 15.2772 167.456C15.4452 167.616 15.5292 167.824 15.5292 168.08C15.5292 168.32 15.4452 168.524 15.2772 168.692C15.1172 168.852 14.9092 168.932 14.6532 168.932C14.3972 168.932 14.1852 168.852 14.0172 168.692C13.8572 168.524 13.7772 168.32 13.7772 168.08ZM19.7635 176.144C19.1715 176.144 18.6435 176.012 18.1795 175.748C17.7155 175.484 17.3515 175.108 17.0875 174.62C16.8315 174.124 16.7035 173.544 16.7035 172.88C16.7035 172.256 16.8355 171.7 17.0995 171.212C17.3635 170.716 17.7275 170.328 18.1915 170.048C18.6555 169.76 19.1835 169.616 19.7755 169.616C20.3595 169.616 20.8675 169.744 21.2995 170C21.7395 170.256 22.0795 170.64 22.3195 171.152C22.5595 171.664 22.6795 172.304 22.6795 173.072V173.36H17.5435V172.304H21.4435L21.1675 172.52C21.1675 172.224 21.1155 171.956 21.0115 171.716C20.9075 171.476 20.7515 171.284 20.5435 171.14C20.3355 170.988 20.0755 170.912 19.7635 170.912C19.4595 170.912 19.1875 170.984 18.9475 171.128C18.7075 171.272 18.5195 171.488 18.3835 171.776C18.2475 172.064 18.1795 172.432 18.1795 172.88C18.1795 173.312 18.2435 173.676 18.3715 173.972C18.4995 174.26 18.6835 174.48 18.9235 174.632C19.1635 174.776 19.4435 174.848 19.7635 174.848C20.1315 174.848 20.4155 174.772 20.6155 174.62C20.8235 174.46 20.9955 174.244 21.1315 173.972L22.4635 174.488C22.2635 174.976 21.9555 175.376 21.5395 175.688C21.1315 175.992 20.5395 176.144 19.7635 176.144ZM23.9879 176V169.76H25.3919V170.624H25.4639C25.6639 170.312 25.9119 170.068 26.2079 169.892C26.5119 169.708 26.8599 169.616 27.2519 169.616C27.6759 169.616 28.0479 169.708 28.3679 169.892C28.6879 170.068 28.9359 170.332 29.1119 170.684C29.2879 171.028 29.3759 171.452 29.3759 171.956V176H27.9359V172.22C27.9359 171.796 27.8399 171.484 27.6479 171.284C27.4559 171.076 27.1919 170.972 26.8559 170.972C26.5839 170.972 26.3399 171.044 26.1239 171.188C25.9079 171.324 25.7359 171.528 25.6079 171.8C25.4879 172.072 25.4279 172.408 25.4279 172.808V176H23.9879ZM33.1091 176.024C32.5091 176.024 32.0571 175.868 31.7531 175.556C31.4571 175.236 31.3091 174.788 31.3091 174.212V168.056H32.7491V174.116C32.7491 174.492 32.9411 174.68 33.3251 174.68H34.3211V176.024H33.1091ZM30.2051 170.96V169.76H34.2011V170.96H30.2051ZM38.4382 176V167.36H42.2542C43.0862 167.36 43.7382 167.56 44.2102 167.96C44.6902 168.36 44.9302 168.9 44.9302 169.58C44.9302 170.084 44.8022 170.464 44.5462 170.72C44.2982 170.976 43.9942 171.184 43.6342 171.344V171.416C43.9462 171.488 44.2302 171.616 44.4862 171.8C44.7422 171.976 44.9462 172.216 45.0982 172.52C45.2582 172.816 45.3382 173.176 45.3382 173.6C45.3382 174.064 45.2302 174.476 45.0142 174.836C44.8062 175.196 44.4862 175.48 44.0542 175.688C43.6302 175.896 43.0942 176 42.4462 176H38.4382ZM39.9502 175.34L39.2302 174.596H42.4942C42.9102 174.596 43.2262 174.492 43.4422 174.284C43.6662 174.068 43.7782 173.772 43.7782 173.396C43.7782 173.004 43.6622 172.708 43.4302 172.508C43.2062 172.3 42.8942 172.196 42.4942 172.196H39.2782V170.804H42.2302C42.5822 170.804 42.8582 170.716 43.0582 170.54C43.2662 170.356 43.3702 170.096 43.3702 169.76C43.3702 169.432 43.2662 169.184 43.0582 169.016C42.8582 168.84 42.5822 168.752 42.2302 168.752H39.5662L39.9502 168.38V175.34Z" fill="white" fill-opacity="0.6"/>
<rect x="9" y="195" width="136" height="54" rx="6" fill="#1E1E1E"/>
<path d="M49.5207 226.434L52.7487 217.794H54.5487L57.7647 226.434H56.1087L53.6727 219.714H53.5527L51.1407 226.434H49.5207ZM51.0567 224.562V223.17H56.1207V224.562H51.0567ZM62.0644 220.05C62.5764 220.05 63.0364 220.182 63.4444 220.446C63.8604 220.71 64.1884 221.086 64.4284 221.574C64.6764 222.062 64.8004 222.642 64.8004 223.314C64.8004 223.986 64.6764 224.566 64.4284 225.054C64.1884 225.542 63.8604 225.918 63.4444 226.182C63.0364 226.446 62.5764 226.578 62.0644 226.578C61.6084 226.578 61.2284 226.486 60.9244 226.302C60.6204 226.118 60.3604 225.874 60.1444 225.57H60.0724V228.834H58.6324V220.194H60.0364V221.058H60.1084C60.3244 220.73 60.5924 220.482 60.9124 220.314C61.2324 220.138 61.6164 220.05 62.0644 220.05ZM61.6804 221.37C61.1684 221.37 60.7644 221.542 60.4684 221.886C60.1724 222.23 60.0244 222.706 60.0244 223.314C60.0244 223.922 60.1724 224.398 60.4684 224.742C60.7644 225.086 61.1684 225.258 61.6804 225.258C62.1604 225.258 62.5524 225.086 62.8564 224.742C63.1604 224.39 63.3124 223.914 63.3124 223.314C63.3124 222.714 63.1604 222.242 62.8564 221.898C62.5524 221.546 62.1604 221.37 61.6804 221.37ZM69.5644 220.05C70.0764 220.05 70.5364 220.182 70.9444 220.446C71.3604 220.71 71.6884 221.086 71.9284 221.574C72.1764 222.062 72.3004 222.642 72.3004 223.314C72.3004 223.986 72.1764 224.566 71.9284 225.054C71.6884 225.542 71.3604 225.918 70.9444 226.182C70.5364 226.446 70.0764 226.578 69.5644 226.578C69.1084 226.578 68.7284 226.486 68.4244 226.302C68.1204 226.118 67.8604 225.874 67.6444 225.57H67.5724V228.834H66.1324V220.194H67.5364V221.058H67.6084C67.8244 220.73 68.0924 220.482 68.4124 220.314C68.7324 220.138 69.1164 220.05 69.5644 220.05ZM69.1804 221.37C68.6684 221.37 68.2644 221.542 67.9684 221.886C67.6724 222.23 67.5244 222.706 67.5244 223.314C67.5244 223.922 67.6724 224.398 67.9684 224.742C68.2644 225.086 68.6684 225.258 69.1804 225.258C69.6604 225.258 70.0524 225.086 70.3564 224.742C70.6604 224.39 70.8124 223.914 70.8124 223.314C70.8124 222.714 70.6604 222.242 70.3564 221.898C70.0524 221.546 69.6604 221.37 69.1804 221.37ZM79.5004 226.578C78.9004 226.578 78.3604 226.446 77.8804 226.182C77.4084 225.918 77.0324 225.542 76.7524 225.054C76.4724 224.566 76.3324 223.986 76.3324 223.314C76.3324 222.642 76.4724 222.062 76.7524 221.574C77.0324 221.086 77.4084 220.71 77.8804 220.446C78.3604 220.182 78.9004 220.05 79.5004 220.05C80.2764 220.05 80.9164 220.254 81.4204 220.662C81.9324 221.062 82.2524 221.602 82.3804 222.282L80.9524 222.594C80.8724 222.25 80.7084 221.966 80.4604 221.742C80.2204 221.51 79.9004 221.394 79.5004 221.394C79.1564 221.394 78.8604 221.474 78.6124 221.634C78.3644 221.786 78.1724 222.006 78.0364 222.294C77.9084 222.574 77.8444 222.914 77.8444 223.314C77.8444 223.706 77.9084 224.046 78.0364 224.334C78.1724 224.622 78.3644 224.846 78.6124 225.006C78.8604 225.158 79.1564 225.234 79.5004 225.234C79.8844 225.234 80.1964 225.134 80.4364 224.934C80.6844 224.726 80.8604 224.418 80.9644 224.01L82.3684 224.442C82.2804 224.85 82.1124 225.214 81.8644 225.534C81.6244 225.854 81.3084 226.11 80.9164 226.302C80.5244 226.486 80.0524 226.578 79.5004 226.578ZM86.3788 226.578C85.7788 226.578 85.2428 226.446 84.7708 226.182C84.2988 225.918 83.9228 225.542 83.6428 225.054C83.3708 224.566 83.2348 223.986 83.2348 223.314C83.2348 222.642 83.3708 222.062 83.6428 221.574C83.9228 221.086 84.2988 220.71 84.7708 220.446C85.2428 220.182 85.7788 220.05 86.3788 220.05C86.9788 220.05 87.5148 220.182 87.9868 220.446C88.4588 220.71 88.8308 221.086 89.1028 221.574C89.3828 222.062 89.5228 222.642 89.5228 223.314C89.5228 223.986 89.3828 224.566 89.1028 225.054C88.8308 225.542 88.4588 225.918 87.9868 226.182C87.5148 226.446 86.9788 226.578 86.3788 226.578ZM86.3788 225.234C86.8988 225.234 87.2988 225.062 87.5788 224.718C87.8668 224.374 88.0108 223.906 88.0108 223.314C88.0108 222.722 87.8668 222.254 87.5788 221.91C87.2988 221.566 86.8988 221.394 86.3788 221.394C85.8588 221.394 85.4548 221.566 85.1668 221.91C84.8868 222.254 84.7468 222.722 84.7468 223.314C84.7468 223.906 84.8868 224.374 85.1668 224.718C85.4548 225.062 85.8588 225.234 86.3788 225.234ZM93.295 226.578C92.791 226.578 92.331 226.446 91.915 226.182C91.499 225.918 91.167 225.542 90.919 225.054C90.679 224.566 90.559 223.986 90.559 223.314C90.559 222.642 90.679 222.062 90.919 221.574C91.167 221.086 91.499 220.71 91.915 220.446C92.331 220.182 92.791 220.05 93.295 220.05C93.751 220.05 94.131 220.142 94.435 220.326C94.739 220.51 94.999 220.754 95.215 221.058H95.287V217.794H96.727V226.434H95.323V225.57H95.251C95.035 225.898 94.767 226.15 94.447 226.326C94.127 226.494 93.743 226.578 93.295 226.578ZM93.679 225.258C94.191 225.258 94.595 225.086 94.891 224.742C95.187 224.398 95.335 223.922 95.335 223.314C95.335 222.698 95.187 222.222 94.891 221.886C94.595 221.542 94.191 221.37 93.679 221.37C93.199 221.37 92.807 221.546 92.503 221.898C92.199 222.242 92.047 222.714 92.047 223.314C92.047 223.914 92.199 224.39 92.503 224.742C92.807 225.086 93.199 225.258 93.679 225.258ZM101.119 226.578C100.527 226.578 99.999 226.446 99.535 226.182C99.071 225.918 98.707 225.542 98.443 225.054C98.187 224.558 98.059 223.978 98.059 223.314C98.059 222.69 98.191 222.134 98.455 221.646C98.719 221.15 99.083 220.762 99.547 220.482C100.011 220.194 100.539 220.05 101.131 220.05C101.715 220.05 102.223 220.178 102.655 220.434C103.095 220.69 103.435 221.074 103.675 221.586C103.915 222.098 104.035 222.738 104.035 223.506V223.794H98.899V222.738H102.799L102.523 222.954C102.523 222.658 102.471 222.39 102.367 222.15C102.263 221.91 102.107 221.718 101.899 221.574C101.691 221.422 101.431 221.346 101.119 221.346C100.815 221.346 100.543 221.418 100.303 221.562C100.063 221.706 99.875 221.922 99.739 222.21C99.603 222.498 99.535 222.866 99.535 223.314C99.535 223.746 99.599 224.11 99.727 224.406C99.855 224.694 100.039 224.914 100.279 225.066C100.519 225.21 100.799 225.282 101.119 225.282C101.487 225.282 101.771 225.206 101.971 225.054C102.179 224.894 102.351 224.678 102.487 224.406L103.819 224.922C103.619 225.41 103.311 225.81 102.895 226.122C102.487 226.426 101.895 226.578 101.119 226.578Z" fill="white"/>
<path d="M145 21.5C149.694 21.5 153.5 25.3056 153.5 30V49.0244C153.336 49.0081 153.169 49 153 49C152.831 49 152.664 49.0081 152.5 49.0244V30C152.5 25.8579 149.142 22.5 145 22.5H9C4.85786 22.5 1.5 25.8579 1.5 30V84C1.5 88.1421 4.85786 91.5 9 91.5H145C149.142 91.5 152.5 88.1421 152.5 84V64.9746C152.664 64.9909 152.831 65 153 65C153.169 65 153.336 64.9909 153.5 64.9746V84C153.5 88.6944 149.694 92.5 145 92.5H9C4.30558 92.5 0.5 88.6944 0.5 84V30C0.5 25.3056 4.30558 21.5 9 21.5H145Z" fill="#969696" fill-opacity="0.9"/>
<path d="M5.764 11.144C4.972 11.144 4.256 10.964 3.616 10.604C2.976 10.244 2.468 9.732 2.092 9.068C1.716 8.396 1.528 7.604 1.528 6.692C1.528 6.004 1.636 5.384 1.852 4.832C2.068 4.28 2.368 3.812 2.752 3.428C3.136 3.036 3.584 2.736 4.096 2.528C4.616 2.32 5.172 2.216 5.764 2.216C6.484 2.216 7.112 2.34 7.648 2.588C8.184 2.828 8.62 3.18 8.956 3.644C9.3 4.1 9.536 4.648 9.664 5.288L8.14 5.612C8.044 5.212 7.892 4.864 7.684 4.568C7.484 4.272 7.228 4.044 6.916 3.884C6.604 3.716 6.232 3.632 5.8 3.632C5.24 3.632 4.756 3.756 4.348 4.004C3.948 4.252 3.64 4.604 3.424 5.06C3.216 5.516 3.112 6.06 3.112 6.692C3.112 7.316 3.22 7.856 3.436 8.312C3.652 8.768 3.96 9.12 4.36 9.368C4.768 9.608 5.248 9.728 5.8 9.728C6.224 9.728 6.588 9.66 6.892 9.524C7.204 9.38 7.464 9.164 7.672 8.876C7.888 8.58 8.056 8.212 8.176 7.772L9.664 8.168C9.536 8.768 9.304 9.292 8.968 9.74C8.632 10.18 8.196 10.524 7.66 10.772C7.124 11.02 6.492 11.144 5.764 11.144ZM10.8629 11V2.36H12.3029V11H10.8629ZM13.9332 11V4.76H15.3732V11H13.9332ZM13.7772 3.08C13.7772 2.824 13.8572 2.616 14.0172 2.456C14.1852 2.296 14.3972 2.216 14.6532 2.216C14.9092 2.216 15.1172 2.296 15.2772 2.456C15.4452 2.616 15.5292 2.824 15.5292 3.08C15.5292 3.32 15.4452 3.524 15.2772 3.692C15.1172 3.852 14.9092 3.932 14.6532 3.932C14.3972 3.932 14.1852 3.852 14.0172 3.692C13.8572 3.524 13.7772 3.32 13.7772 3.08ZM19.7635 11.144C19.1715 11.144 18.6435 11.012 18.1795 10.748C17.7155 10.484 17.3515 10.108 17.0875 9.62C16.8315 9.124 16.7035 8.544 16.7035 7.88C16.7035 7.256 16.8355 6.7 17.0995 6.212C17.3635 5.716 17.7275 5.328 18.1915 5.048C18.6555 4.76 19.1835 4.616 19.7755 4.616C20.3595 4.616 20.8675 4.744 21.2995 5C21.7395 5.256 22.0795 5.64 22.3195 6.152C22.5595 6.664 22.6795 7.304 22.6795 8.072V8.36H17.5435V7.304H21.4435L21.1675 7.52C21.1675 7.224 21.1155 6.956 21.0115 6.716C20.9075 6.476 20.7515 6.284 20.5435 6.14C20.3355 5.988 20.0755 5.912 19.7635 5.912C19.4595 5.912 19.1875 5.984 18.9475 6.128C18.7075 6.272 18.5195 6.488 18.3835 6.776C18.2475 7.064 18.1795 7.432 18.1795 7.88C18.1795 8.312 18.2435 8.676 18.3715 8.972C18.4995 9.26 18.6835 9.48 18.9235 9.632C19.1635 9.776 19.4435 9.848 19.7635 9.848C20.1315 9.848 20.4155 9.772 20.6155 9.62C20.8235 9.46 20.9955 9.244 21.1315 8.972L22.4635 9.488C22.2635 9.976 21.9555 10.376 21.5395 10.688C21.1315 10.992 20.5395 11.144 19.7635 11.144ZM23.9879 11V4.76H25.3919V5.624H25.4639C25.6639 5.312 25.9119 5.068 26.2079 4.892C26.5119 4.708 26.8599 4.616 27.2519 4.616C27.6759 4.616 28.0479 4.708 28.3679 4.892C28.6879 5.068 28.9359 5.332 29.1119 5.684C29.2879 6.028 29.3759 6.452 29.3759 6.956V11H27.9359V7.22C27.9359 6.796 27.8399 6.484 27.6479 6.284C27.4559 6.076 27.1919 5.972 26.8559 5.972C26.5839 5.972 26.3399 6.044 26.1239 6.188C25.9079 6.324 25.7359 6.528 25.6079 6.8C25.4879 7.072 25.4279 7.408 25.4279 7.808V11H23.9879ZM33.1091 11.024C32.5091 11.024 32.0571 10.868 31.7531 10.556C31.4571 10.236 31.3091 9.788 31.3091 9.212V3.056H32.7491V9.116C32.7491 9.492 32.9411 9.68 33.3251 9.68H34.3211V11.024H33.1091ZM30.2051 5.96V4.76H34.2011V5.96H30.2051ZM37.6222 11L40.8502 2.36H42.6502L45.8662 11H44.2102L41.7742 4.28H41.6542L39.2422 11H37.6222ZM39.1582 9.128V7.736H44.2222V9.128H39.1582Z" fill="white" fill-opacity="0.6"/>
<rect x="9" y="30" width="136" height="54" rx="6" fill="#1E1E1E"/>
<path d="M49.5207 61.4341L52.7487 52.7941H54.5487L57.7647 61.4341H56.1087L53.6727 54.7141H53.5527L51.1407 61.4341H49.5207ZM51.0567 59.5621V58.1701H56.1207V59.5621H51.0567ZM62.0644 55.0501C62.5764 55.0501 63.0364 55.1821 63.4444 55.4461C63.8604 55.7101 64.1884 56.0861 64.4284 56.5741C64.6764 57.0621 64.8004 57.6421 64.8004 58.3141C64.8004 58.9861 64.6764 59.5661 64.4284 60.0541C64.1884 60.5421 63.8604 60.9181 63.4444 61.1821C63.0364 61.4461 62.5764 61.5781 62.0644 61.5781C61.6084 61.5781 61.2284 61.4861 60.9244 61.3021C60.6204 61.1181 60.3604 60.8741 60.1444 60.5701H60.0724V63.8341H58.6324V55.1941H60.0364V56.0581H60.1084C60.3244 55.7301 60.5924 55.4821 60.9124 55.3141C61.2324 55.1381 61.6164 55.0501 62.0644 55.0501ZM61.6804 56.3701C61.1684 56.3701 60.7644 56.5421 60.4684 56.8861C60.1724 57.2301 60.0244 57.7061 60.0244 58.3141C60.0244 58.9221 60.1724 59.3981 60.4684 59.7421C60.7644 60.0861 61.1684 60.2581 61.6804 60.2581C62.1604 60.2581 62.5524 60.0861 62.8564 59.7421C63.1604 59.3901 63.3124 58.9141 63.3124 58.3141C63.3124 57.7141 63.1604 57.2421 62.8564 56.8981C62.5524 56.5461 62.1604 56.3701 61.6804 56.3701ZM69.5644 55.0501C70.0764 55.0501 70.5364 55.1821 70.9444 55.4461C71.3604 55.7101 71.6884 56.0861 71.9284 56.5741C72.1764 57.0621 72.3004 57.6421 72.3004 58.3141C72.3004 58.9861 72.1764 59.5661 71.9284 60.0541C71.6884 60.5421 71.3604 60.9181 70.9444 61.1821C70.5364 61.4461 70.0764 61.5781 69.5644 61.5781C69.1084 61.5781 68.7284 61.4861 68.4244 61.3021C68.1204 61.1181 67.8604 60.8741 67.6444 60.5701H67.5724V63.8341H66.1324V55.1941H67.5364V56.0581H67.6084C67.8244 55.7301 68.0924 55.4821 68.4124 55.3141C68.7324 55.1381 69.1164 55.0501 69.5644 55.0501ZM69.1804 56.3701C68.6684 56.3701 68.2644 56.5421 67.9684 56.8861C67.6724 57.2301 67.5244 57.7061 67.5244 58.3141C67.5244 58.9221 67.6724 59.3981 67.9684 59.7421C68.2644 60.0861 68.6684 60.2581 69.1804 60.2581C69.6604 60.2581 70.0524 60.0861 70.3564 59.7421C70.6604 59.3901 70.8124 58.9141 70.8124 58.3141C70.8124 57.7141 70.6604 57.2421 70.3564 56.8981C70.0524 56.5461 69.6604 56.3701 69.1804 56.3701ZM79.5004 61.5781C78.9004 61.5781 78.3604 61.4461 77.8804 61.1821C77.4084 60.9181 77.0324 60.5421 76.7524 60.0541C76.4724 59.5661 76.3324 58.9861 76.3324 58.3141C76.3324 57.6421 76.4724 57.0621 76.7524 56.5741C77.0324 56.0861 77.4084 55.7101 77.8804 55.4461C78.3604 55.1821 78.9004 55.0501 79.5004 55.0501C80.2764 55.0501 80.9164 55.2541 81.4204 55.6621C81.9324 56.0621 82.2524 56.6021 82.3804 57.2821L80.9524 57.5941C80.8724 57.2501 80.7084 56.9661 80.4604 56.7421C80.2204 56.5101 79.9004 56.3941 79.5004 56.3941C79.1564 56.3941 78.8604 56.4741 78.6124 56.6341C78.3644 56.7861 78.1724 57.0061 78.0364 57.2941C77.9084 57.5741 77.8444 57.9141 77.8444 58.3141C77.8444 58.7061 77.9084 59.0461 78.0364 59.3341C78.1724 59.6221 78.3644 59.8461 78.6124 60.0061C78.8604 60.1581 79.1564 60.2341 79.5004 60.2341C79.8844 60.2341 80.1964 60.1341 80.4364 59.9341C80.6844 59.7261 80.8604 59.4181 80.9644 59.0101L82.3684 59.4421C82.2804 59.8501 82.1124 60.2141 81.8644 60.5341C81.6244 60.8541 81.3084 61.1101 80.9164 61.3021C80.5244 61.4861 80.0524 61.5781 79.5004 61.5781ZM86.3788 61.5781C85.7788 61.5781 85.2428 61.4461 84.7708 61.1821C84.2988 60.9181 83.9228 60.5421 83.6428 60.0541C83.3708 59.5661 83.2348 58.9861 83.2348 58.3141C83.2348 57.6421 83.3708 57.0621 83.6428 56.5741C83.9228 56.0861 84.2988 55.7101 84.7708 55.4461C85.2428 55.1821 85.7788 55.0501 86.3788 55.0501C86.9788 55.0501 87.5148 55.1821 87.9868 55.4461C88.4588 55.7101 88.8308 56.0861 89.1028 56.5741C89.3828 57.0621 89.5228 57.6421 89.5228 58.3141C89.5228 58.9861 89.3828 59.5661 89.1028 60.0541C88.8308 60.5421 88.4588 60.9181 87.9868 61.1821C87.5148 61.4461 86.9788 61.5781 86.3788 61.5781ZM86.3788 60.2341C86.8988 60.2341 87.2988 60.0621 87.5788 59.7181C87.8668 59.3741 88.0108 58.9061 88.0108 58.3141C88.0108 57.7221 87.8668 57.2541 87.5788 56.9101C87.2988 56.5661 86.8988 56.3941 86.3788 56.3941C85.8588 56.3941 85.4548 56.5661 85.1668 56.9101C84.8868 57.2541 84.7468 57.7221 84.7468 58.3141C84.7468 58.9061 84.8868 59.3741 85.1668 59.7181C85.4548 60.0621 85.8588 60.2341 86.3788 60.2341ZM93.295 61.5781C92.791 61.5781 92.331 61.4461 91.915 61.1821C91.499 60.9181 91.167 60.5421 90.919 60.0541C90.679 59.5661 90.559 58.9861 90.559 58.3141C90.559 57.6421 90.679 57.0621 90.919 56.5741C91.167 56.0861 91.499 55.7101 91.915 55.4461C92.331 55.1821 92.791 55.0501 93.295 55.0501C93.751 55.0501 94.131 55.1421 94.435 55.3261C94.739 55.5101 94.999 55.7541 95.215 56.0581H95.287V52.7941H96.727V61.4341H95.323V60.5701H95.251C95.035 60.8981 94.767 61.1501 94.447 61.3261C94.127 61.4941 93.743 61.5781 93.295 61.5781ZM93.679 60.2581C94.191 60.2581 94.595 60.0861 94.891 59.7421C95.187 59.3981 95.335 58.9221 95.335 58.3141C95.335 57.6981 95.187 57.2221 94.891 56.8861C94.595 56.5421 94.191 56.3701 93.679 56.3701C93.199 56.3701 92.807 56.5461 92.503 56.8981C92.199 57.2421 92.047 57.7141 92.047 58.3141C92.047 58.9141 92.199 59.3901 92.503 59.7421C92.807 60.0861 93.199 60.2581 93.679 60.2581ZM101.119 61.5781C100.527 61.5781 99.999 61.4461 99.535 61.1821C99.071 60.9181 98.707 60.5421 98.443 60.0541C98.187 59.5581 98.059 58.9781 98.059 58.3141C98.059 57.6901 98.191 57.1341 98.455 56.6461C98.719 56.1501 99.083 55.7621 99.547 55.4821C100.011 55.1941 100.539 55.0501 101.131 55.0501C101.715 55.0501 102.223 55.1781 102.655 55.4341C103.095 55.6901 103.435 56.0741 103.675 56.5861C103.915 57.0981 104.035 57.7381 104.035 58.5061V58.7941H98.899V57.7381H102.799L102.523 57.9541C102.523 57.6581 102.471 57.3901 102.367 57.1501C102.263 56.9101 102.107 56.7181 101.899 56.5741C101.691 56.4221 101.431 56.3461 101.119 56.3461C100.815 56.3461 100.543 56.4181 100.303 56.5621C100.063 56.7061 99.875 56.9221 99.739 57.2101C99.603 57.4981 99.535 57.8661 99.535 58.3141C99.535 58.7461 99.599 59.1101 99.727 59.4061C99.855 59.6941 100.039 59.9141 100.279 60.0661C100.519 60.2101 100.799 60.2821 101.119 60.2821C101.487 60.2821 101.771 60.2061 101.971 60.0541C102.179 59.8941 102.351 59.6781 102.487 59.4061L103.819 59.9221C103.619 60.4101 103.311 60.8101 102.895 61.1221C102.487 61.4261 101.895 61.5781 101.119 61.5781Z" fill="white"/>
<rect x="304" y="79" width="136" height="122" rx="6" fill="#1E1E1E"/>
<path d="M362.687 136.012L365.915 127.372H367.715L370.931 136.012H369.275L366.839 129.292H366.719L364.307 136.012H362.687ZM364.223 134.14V132.748H369.287V134.14H364.223ZM371.846 136.012V127.372H375.782C376.358 127.372 376.858 127.484 377.282 127.708C377.714 127.924 378.05 128.228 378.29 128.62C378.53 129.012 378.65 129.468 378.65 129.988C378.65 130.508 378.53 130.968 378.29 131.368C378.05 131.76 377.71 132.068 377.27 132.292C376.83 132.508 376.314 132.616 375.722 132.616H372.902V131.26H375.662C376.102 131.26 376.45 131.152 376.706 130.936C376.962 130.712 377.09 130.396 377.09 129.988C377.09 129.572 376.966 129.256 376.718 129.04C376.47 128.824 376.134 128.716 375.71 128.716H372.902L373.358 128.392V136.012H371.846ZM379.991 136.012V127.372H381.503V136.012H379.991ZM357.41 153.156C356.666 153.156 356.058 153.02 355.586 152.748C355.122 152.476 354.774 152.088 354.542 151.584L355.874 150.972C356.01 151.268 356.21 151.492 356.474 151.644C356.746 151.796 357.058 151.872 357.41 151.872C357.762 151.872 358.038 151.812 358.238 151.692C358.438 151.572 358.538 151.412 358.538 151.212C358.538 151.028 358.478 150.884 358.358 150.78C358.238 150.668 358.05 150.6 357.794 150.576L356.63 150.456C356.022 150.392 355.538 150.208 355.178 149.904C354.818 149.6 354.638 149.164 354.638 148.596C354.638 148.228 354.734 147.896 354.926 147.6C355.126 147.304 355.406 147.068 355.766 146.892C356.126 146.716 356.55 146.628 357.038 146.628C357.702 146.628 358.246 146.756 358.67 147.012C359.094 147.268 359.418 147.608 359.642 148.032L358.346 148.656C358.21 148.4 358.026 148.212 357.794 148.092C357.57 147.972 357.318 147.912 357.038 147.912C356.694 147.912 356.446 147.972 356.294 148.092C356.142 148.212 356.066 148.364 356.066 148.548C356.066 148.708 356.122 148.844 356.234 148.956C356.346 149.06 356.514 149.124 356.738 149.148L357.95 149.268C358.614 149.332 359.114 149.528 359.45 149.856C359.794 150.184 359.966 150.632 359.966 151.2C359.966 151.6 359.862 151.948 359.654 152.244C359.454 152.54 359.162 152.768 358.778 152.928C358.402 153.08 357.946 153.156 357.41 153.156ZM363.853 153.156C363.261 153.156 362.733 153.024 362.269 152.76C361.805 152.496 361.441 152.12 361.177 151.632C360.921 151.136 360.793 150.556 360.793 149.892C360.793 149.268 360.925 148.712 361.189 148.224C361.453 147.728 361.817 147.34 362.281 147.06C362.745 146.772 363.273 146.628 363.865 146.628C364.449 146.628 364.957 146.756 365.389 147.012C365.829 147.268 366.169 147.652 366.409 148.164C366.649 148.676 366.769 149.316 366.769 150.084V150.372H361.633V149.316H365.533L365.257 149.532C365.257 149.236 365.205 148.968 365.101 148.728C364.997 148.488 364.841 148.296 364.633 148.152C364.425 148 364.165 147.924 363.853 147.924C363.549 147.924 363.277 147.996 363.037 148.14C362.797 148.284 362.609 148.5 362.473 148.788C362.337 149.076 362.269 149.444 362.269 149.892C362.269 150.324 362.333 150.688 362.461 150.984C362.589 151.272 362.773 151.492 363.013 151.644C363.253 151.788 363.533 151.86 363.853 151.86C364.221 151.86 364.505 151.784 364.705 151.632C364.913 151.472 365.085 151.256 365.221 150.984L366.553 151.5C366.353 151.988 366.045 152.388 365.629 152.7C365.221 153.004 364.629 153.156 363.853 153.156ZM368.078 153.012V146.772H369.482V147.876H369.554C369.722 147.508 369.97 147.208 370.298 146.976C370.626 146.744 371.03 146.628 371.51 146.628H371.918V148.092H371.39C370.806 148.092 370.346 148.26 370.01 148.596C369.682 148.932 369.518 149.456 369.518 150.168V153.012H368.078ZM374.923 153.012L372.571 146.772H374.191L375.691 151.128H375.811L377.359 146.772H378.919L376.519 153.012H374.923ZM382.451 153.156C381.859 153.156 381.331 153.024 380.867 152.76C380.403 152.496 380.039 152.12 379.775 151.632C379.519 151.136 379.391 150.556 379.391 149.892C379.391 149.268 379.523 148.712 379.787 148.224C380.051 147.728 380.415 147.34 380.879 147.06C381.343 146.772 381.871 146.628 382.463 146.628C383.047 146.628 383.555 146.756 383.987 147.012C384.427 147.268 384.767 147.652 385.007 148.164C385.247 148.676 385.367 149.316 385.367 150.084V150.372H380.231V149.316H384.131L383.855 149.532C383.855 149.236 383.803 148.968 383.699 148.728C383.595 148.488 383.439 148.296 383.231 148.152C383.023 148 382.763 147.924 382.451 147.924C382.147 147.924 381.875 147.996 381.635 148.14C381.395 148.284 381.207 148.5 381.071 148.788C380.935 149.076 380.867 149.444 380.867 149.892C380.867 150.324 380.931 150.688 381.059 150.984C381.187 151.272 381.371 151.492 381.611 151.644C381.851 151.788 382.131 151.86 382.451 151.86C382.819 151.86 383.103 151.784 383.303 151.632C383.511 151.472 383.683 151.256 383.819 150.984L385.151 151.5C384.951 151.988 384.643 152.388 384.227 152.7C383.819 153.004 383.227 153.156 382.451 153.156ZM386.675 153.012V146.772H388.079V147.876H388.151C388.319 147.508 388.567 147.208 388.895 146.976C389.223 146.744 389.627 146.628 390.107 146.628H390.515V148.092H389.987C389.403 148.092 388.943 148.26 388.607 148.596C388.279 148.932 388.115 149.456 388.115 150.168V153.012H386.675Z" fill="white"/>
<rect x="586" y="79" width="136" height="122" rx="6" fill="#1E1E1E"/>
<path d="M628.557 144.012V135.372H631.689C632.609 135.372 633.397 135.552 634.053 135.912C634.709 136.264 635.209 136.764 635.553 137.412C635.905 138.052 636.081 138.812 636.081 139.692C636.081 140.564 635.905 141.324 635.553 141.972C635.201 142.62 634.689 143.124 634.017 143.484C633.353 143.836 632.545 144.012 631.593 144.012H628.557ZM630.069 143.352L629.457 142.62H631.557C632.237 142.62 632.793 142.5 633.225 142.26C633.665 142.012 633.989 141.668 634.197 141.228C634.413 140.788 634.521 140.276 634.521 139.692C634.521 138.796 634.285 138.084 633.813 137.556C633.349 137.028 632.629 136.764 631.653 136.764H629.457L630.069 136.032V143.352ZM639.179 144.156C638.547 144.156 638.043 143.988 637.667 143.652C637.299 143.308 637.115 142.856 637.115 142.296C637.115 141.744 637.299 141.3 637.667 140.964C638.035 140.62 638.559 140.42 639.239 140.364L641.471 140.16V141.168L639.479 141.384C639.167 141.416 638.935 141.504 638.783 141.648C638.631 141.784 638.555 141.968 638.555 142.2C638.555 142.424 638.635 142.608 638.795 142.752C638.963 142.896 639.195 142.968 639.491 142.968C639.795 142.968 640.063 142.892 640.295 142.74C640.535 142.58 640.719 142.336 640.847 142.008C640.983 141.672 641.051 141.244 641.051 140.724V139.968C641.051 139.664 640.959 139.412 640.775 139.212C640.599 139.012 640.307 138.912 639.899 138.912C639.491 138.912 639.195 138.996 639.011 139.164C638.827 139.332 638.719 139.524 638.687 139.74H637.259C637.283 139.332 637.403 138.972 637.619 138.66C637.835 138.34 638.139 138.088 638.531 137.904C638.923 137.72 639.391 137.628 639.935 137.628C640.743 137.628 641.371 137.844 641.819 138.276C642.267 138.7 642.491 139.248 642.491 139.92V142.644L642.527 144.012H641.171L641.135 143.172H641.039C640.815 143.508 640.547 143.756 640.235 143.916C639.931 144.076 639.579 144.156 639.179 144.156ZM646.174 144.036C645.574 144.036 645.122 143.88 644.818 143.568C644.522 143.248 644.374 142.8 644.374 142.224V136.068H645.814V142.128C645.814 142.504 646.006 142.692 646.39 142.692H647.386V144.036H646.174ZM643.27 138.972V137.772H647.266V138.972H643.27ZM650.207 144.156C649.575 144.156 649.071 143.988 648.695 143.652C648.327 143.308 648.143 142.856 648.143 142.296C648.143 141.744 648.327 141.3 648.695 140.964C649.063 140.62 649.587 140.42 650.267 140.364L652.499 140.16V141.168L650.507 141.384C650.195 141.416 649.963 141.504 649.811 141.648C649.659 141.784 649.583 141.968 649.583 142.2C649.583 142.424 649.663 142.608 649.823 142.752C649.991 142.896 650.223 142.968 650.519 142.968C650.823 142.968 651.091 142.892 651.323 142.74C651.563 142.58 651.747 142.336 651.875 142.008C652.011 141.672 652.079 141.244 652.079 140.724V139.968C652.079 139.664 651.987 139.412 651.803 139.212C651.627 139.012 651.335 138.912 650.927 138.912C650.519 138.912 650.223 138.996 650.039 139.164C649.855 139.332 649.747 139.524 649.715 139.74H648.287C648.311 139.332 648.431 138.972 648.647 138.66C648.863 138.34 649.167 138.088 649.559 137.904C649.951 137.72 650.419 137.628 650.963 137.628C651.771 137.628 652.399 137.844 652.847 138.276C653.295 138.7 653.519 139.248 653.519 139.92V142.644L653.555 144.012H652.199L652.163 143.172H652.067C651.843 143.508 651.575 143.756 651.263 143.916C650.959 144.076 650.607 144.156 650.207 144.156ZM658.461 144.156C658.013 144.156 657.629 144.072 657.309 143.904C656.989 143.728 656.721 143.476 656.505 143.148H656.433V144.012H655.029V135.372H656.469V138.636H656.541C656.757 138.332 657.017 138.088 657.321 137.904C657.625 137.72 658.005 137.628 658.461 137.628C658.973 137.628 659.433 137.76 659.841 138.024C660.257 138.288 660.585 138.664 660.825 139.152C661.073 139.64 661.197 140.22 661.197 140.892C661.197 141.564 661.073 142.144 660.825 142.632C660.585 143.12 660.257 143.496 659.841 143.76C659.433 144.024 658.973 144.156 658.461 144.156ZM658.077 142.836C658.557 142.836 658.949 142.664 659.253 142.32C659.557 141.968 659.709 141.492 659.709 140.892C659.709 140.292 659.557 139.82 659.253 139.476C658.949 139.124 658.557 138.948 658.077 138.948C657.565 138.948 657.161 139.12 656.865 139.464C656.569 139.8 656.421 140.276 656.421 140.892C656.421 141.5 656.569 141.976 656.865 142.32C657.161 142.664 657.565 142.836 658.077 142.836ZM664.281 144.156C663.649 144.156 663.145 143.988 662.769 143.652C662.401 143.308 662.217 142.856 662.217 142.296C662.217 141.744 662.401 141.3 662.769 140.964C663.137 140.62 663.661 140.42 664.341 140.364L666.573 140.16V141.168L664.581 141.384C664.269 141.416 664.037 141.504 663.885 141.648C663.733 141.784 663.657 141.968 663.657 142.2C663.657 142.424 663.737 142.608 663.897 142.752C664.065 142.896 664.297 142.968 664.593 142.968C664.897 142.968 665.165 142.892 665.397 142.74C665.637 142.58 665.821 142.336 665.949 142.008C666.085 141.672 666.153 141.244 666.153 140.724V139.968C666.153 139.664 666.061 139.412 665.877 139.212C665.701 139.012 665.409 138.912 665.001 138.912C664.593 138.912 664.297 138.996 664.113 139.164C663.929 139.332 663.821 139.524 663.789 139.74H662.361C662.385 139.332 662.505 138.972 662.721 138.66C662.937 138.34 663.241 138.088 663.633 137.904C664.025 137.72 664.493 137.628 665.037 137.628C665.845 137.628 666.473 137.844 666.921 138.276C667.369 138.7 667.593 139.248 667.593 139.92V142.644L667.629 144.012H666.273L666.237 143.172H666.141C665.917 143.508 665.649 143.756 665.337 143.916C665.033 144.076 664.681 144.156 664.281 144.156ZM671.455 144.156C670.711 144.156 670.103 144.02 669.631 143.748C669.167 143.476 668.819 143.088 668.587 142.584L669.919 141.972C670.055 142.268 670.255 142.492 670.519 142.644C670.791 142.796 671.103 142.872 671.455 142.872C671.807 142.872 672.083 142.812 672.283 142.692C672.483 142.572 672.583 142.412 672.583 142.212C672.583 142.028 672.523 141.884 672.403 141.78C672.283 141.668 672.095 141.6 671.839 141.576L670.675 141.456C670.067 141.392 669.583 141.208 669.223 140.904C668.863 140.6 668.683 140.164 668.683 139.596C668.683 139.228 668.779 138.896 668.971 138.6C669.171 138.304 669.451 138.068 669.811 137.892C670.171 137.716 670.595 137.628 671.083 137.628C671.747 137.628 672.291 137.756 672.715 138.012C673.139 138.268 673.463 138.608 673.687 139.032L672.391 139.656C672.255 139.4 672.071 139.212 671.839 139.092C671.615 138.972 671.363 138.912 671.083 138.912C670.739 138.912 670.491 138.972 670.339 139.092C670.187 139.212 670.111 139.364 670.111 139.548C670.111 139.708 670.167 139.844 670.279 139.956C670.391 140.06 670.559 140.124 670.783 140.148L671.995 140.268C672.659 140.332 673.159 140.528 673.495 140.856C673.839 141.184 674.011 141.632 674.011 142.2C674.011 142.6 673.907 142.948 673.699 143.244C673.499 143.54 673.207 143.768 672.823 143.928C672.447 144.08 671.991 144.156 671.455 144.156ZM677.898 144.156C677.306 144.156 676.778 144.024 676.314 143.76C675.85 143.496 675.486 143.12 675.222 142.632C674.966 142.136 674.838 141.556 674.838 140.892C674.838 140.268 674.97 139.712 675.234 139.224C675.498 138.728 675.862 138.34 676.326 138.06C676.79 137.772 677.318 137.628 677.91 137.628C678.494 137.628 679.002 137.756 679.434 138.012C679.874 138.268 680.214 138.652 680.454 139.164C680.694 139.676 680.814 140.316 680.814 141.084V141.372H675.678V140.316H679.578L679.302 140.532C679.302 140.236 679.25 139.968 679.146 139.728C679.042 139.488 678.886 139.296 678.678 139.152C678.47 139 678.21 138.924 677.898 138.924C677.594 138.924 677.322 138.996 677.082 139.14C676.842 139.284 676.654 139.5 676.518 139.788C676.382 140.076 676.314 140.444 676.314 140.892C676.314 141.324 676.378 141.688 676.506 141.984C676.634 142.272 676.818 142.492 677.058 142.644C677.298 142.788 677.578 142.86 677.898 142.86C678.266 142.86 678.55 142.784 678.75 142.632C678.958 142.472 679.13 142.256 679.266 141.984L680.598 142.5C680.398 142.988 680.09 143.388 679.674 143.7C679.266 144.004 678.674 144.156 677.898 144.156Z" fill="white"/>
<path d="M504.283 144.144C503.315 144.144 502.535 143.956 501.943 143.58C501.351 143.196 500.915 142.636 500.635 141.9L502.195 141.36C502.347 141.792 502.599 142.128 502.951 142.368C503.303 142.608 503.747 142.728 504.283 142.728C504.915 142.728 505.383 142.624 505.687 142.416C505.991 142.208 506.143 141.936 506.143 141.6C506.143 141.256 506.043 140.996 505.843 140.82C505.643 140.636 505.355 140.524 504.979 140.484L503.275 140.304C502.531 140.224 501.931 139.972 501.475 139.548C501.019 139.124 500.791 138.54 500.791 137.796C500.791 137.324 500.923 136.892 501.187 136.5C501.451 136.108 501.819 135.796 502.291 135.564C502.771 135.332 503.323 135.216 503.947 135.216C504.835 135.216 505.563 135.412 506.131 135.804C506.707 136.188 507.107 136.708 507.331 137.364L505.855 137.88C505.703 137.48 505.467 137.172 505.147 136.956C504.827 136.74 504.427 136.632 503.947 136.632C503.427 136.632 503.031 136.74 502.759 136.956C502.487 137.172 502.351 137.44 502.351 137.76C502.351 138.032 502.443 138.264 502.627 138.456C502.811 138.64 503.107 138.752 503.515 138.792L505.051 138.96C505.907 139.056 506.559 139.328 507.007 139.776C507.463 140.224 507.691 140.832 507.691 141.6C507.691 142.12 507.555 142.572 507.283 142.956C507.019 143.332 506.631 143.624 506.119 143.832C505.615 144.04 505.003 144.144 504.283 144.144ZM516.185 144.42L512.873 140.544L513.929 139.644L517.253 143.532L516.185 144.42ZM513.113 144.144C512.273 144.144 511.521 143.964 510.857 143.604C510.193 143.244 509.669 142.732 509.285 142.068C508.909 141.396 508.721 140.6 508.721 139.68C508.721 138.992 508.829 138.376 509.045 137.832C509.269 137.28 509.577 136.812 509.969 136.428C510.361 136.036 510.825 135.736 511.361 135.528C511.897 135.32 512.481 135.216 513.113 135.216C513.753 135.216 514.337 135.32 514.865 135.528C515.401 135.736 515.865 136.036 516.257 136.428C516.657 136.812 516.965 137.28 517.181 137.832C517.397 138.376 517.505 138.992 517.505 139.68C517.505 140.368 517.397 140.988 517.181 141.54C516.965 142.092 516.657 142.564 516.257 142.956C515.865 143.34 515.401 143.636 514.865 143.844C514.337 144.044 513.753 144.144 513.113 144.144ZM513.113 142.74C513.713 142.74 514.221 142.612 514.637 142.356C515.053 142.092 515.369 141.732 515.585 141.276C515.809 140.812 515.921 140.28 515.921 139.68C515.921 139.072 515.809 138.54 515.585 138.084C515.369 137.628 515.053 137.272 514.637 137.016C514.221 136.752 513.713 136.62 513.113 136.62C512.521 136.62 512.013 136.752 511.589 137.016C511.173 137.272 510.853 137.628 510.629 138.084C510.413 138.54 510.305 139.072 510.305 139.68C510.305 140.28 510.413 140.812 510.629 141.276C510.853 141.732 511.173 142.092 511.589 142.356C512.013 142.612 512.521 142.74 513.113 142.74ZM518.901 144V135.36H520.413V143.256L519.765 142.608H524.565V144H518.901Z" fill="white"/>
<path d="M447.328 136.464C447.523 136.269 447.84 136.269 448.035 136.464C448.23 136.659 448.23 136.976 448.035 137.171L445.707 139.499H494V140.499H445.707L448.035 142.828C448.23 143.023 448.23 143.339 448.035 143.535C447.84 143.73 447.523 143.73 447.328 143.535L444.146 140.353C443.951 140.158 443.951 139.841 444.146 139.646L447.328 136.464ZM577.965 136.464C578.16 136.269 578.477 136.269 578.672 136.464L581.853 139.646C582.049 139.841 582.049 140.158 581.853 140.353L578.672 143.535C578.477 143.73 578.16 143.73 577.965 143.535C577.77 143.339 577.77 143.023 577.965 142.828L580.293 140.499H530V139.499H580.293L577.965 137.171C577.77 136.976 577.77 136.659 577.965 136.464Z" fill="white"/>
<path d="M195.759 112.998C196.429 118.222 197.823 123.135 200.771 127.32C206.395 135.301 217.541 140.5 239.474 140.5V139.5C217.656 139.5 206.93 134.325 201.589 126.744C198.785 122.764 197.436 118.085 196.774 113.04L195.759 112.998ZM154.534 53.4644C154.339 53.2697 154.022 53.2693 153.827 53.4644L150.646 56.647C150.451 56.8422 150.451 57.1588 150.646 57.354L153.827 60.5356C154.022 60.7308 154.339 60.7305 154.534 60.5356C154.729 60.3404 154.729 60.0239 154.534 59.8286L152.212 57.5073C173.469 57.6943 184.084 62.8173 189.448 70.2612C193.656 76.1004 194.704 83.4459 194.991 91.2427L195.994 91.2837C195.709 83.3945 194.647 75.7647 190.26 69.6763C184.615 61.8437 173.59 56.6913 152.199 56.5063L154.534 54.1714C154.729 53.9761 154.729 53.6596 154.534 53.4644Z" fill="white"/>
<path d="M195.483 169.624C196.01 163.427 197.335 157.559 200.772 152.681C206.395 144.699 217.542 139.5 239.474 139.5V140.5C217.657 140.5 206.93 145.676 201.589 153.257C198.291 157.939 197.002 163.59 196.484 169.665L195.483 169.624ZM154.535 226.536C154.339 226.731 154.023 226.731 153.828 226.536L150.646 223.354C150.451 223.158 150.451 222.842 150.646 222.646L153.828 219.465C154.023 219.27 154.339 219.27 154.535 219.465C154.73 219.66 154.73 219.977 154.535 220.172L152.212 222.493C173.47 222.306 184.085 217.183 189.449 209.739C193.192 204.545 194.435 198.158 194.867 191.322L195.868 191.363C195.431 198.3 194.155 204.92 190.26 210.324C184.616 218.157 173.591 223.309 152.2 223.494L154.535 225.829C154.73 226.024 154.73 226.341 154.535 226.536Z" fill="white"/>
<path d="M179.292 105V98.1C179.292 97.5 179.448 97.036 179.76 96.708C180.072 96.38 180.54 96.216 181.164 96.216H182.424V97.56H181.332C180.932 97.56 180.732 97.776 180.732 98.208V105H179.292ZM178.188 99.96V98.76H182.424V99.96H178.188ZM186.051 105.144C185.459 105.144 184.931 105.012 184.467 104.748C184.003 104.484 183.639 104.108 183.375 103.62C183.119 103.124 182.991 102.544 182.991 101.88C182.991 101.256 183.123 100.7 183.387 100.212C183.651 99.716 184.015 99.328 184.479 99.048C184.943 98.76 185.471 98.616 186.063 98.616C186.647 98.616 187.155 98.744 187.587 99C188.027 99.256 188.367 99.64 188.607 100.152C188.847 100.664 188.967 101.304 188.967 102.072V102.36H183.831V101.304H187.731L187.455 101.52C187.455 101.224 187.403 100.956 187.299 100.716C187.195 100.476 187.039 100.284 186.831 100.14C186.623 99.988 186.363 99.912 186.051 99.912C185.747 99.912 185.475 99.984 185.235 100.128C184.995 100.272 184.807 100.488 184.671 100.776C184.535 101.064 184.467 101.432 184.467 101.88C184.467 102.312 184.531 102.676 184.659 102.972C184.787 103.26 184.971 103.48 185.211 103.632C185.451 103.776 185.731 103.848 186.051 103.848C186.419 103.848 186.703 103.772 186.903 103.62C187.111 103.46 187.283 103.244 187.419 102.972L188.751 103.488C188.551 103.976 188.243 104.376 187.827 104.688C187.419 104.992 186.827 105.144 186.051 105.144ZM192.447 105.024C191.847 105.024 191.395 104.868 191.091 104.556C190.795 104.236 190.647 103.788 190.647 103.212V97.056H192.087V103.116C192.087 103.492 192.279 103.68 192.663 103.68H193.659V105.024H192.447ZM189.543 99.96V98.76H193.539V99.96H189.543ZM197.479 105.144C196.879 105.144 196.339 105.012 195.859 104.748C195.387 104.484 195.011 104.108 194.731 103.62C194.451 103.132 194.311 102.552 194.311 101.88C194.311 101.208 194.451 100.628 194.731 100.14C195.011 99.652 195.387 99.276 195.859 99.012C196.339 98.748 196.879 98.616 197.479 98.616C198.255 98.616 198.895 98.82 199.399 99.228C199.911 99.628 200.231 100.168 200.359 100.848L198.931 101.16C198.851 100.816 198.687 100.532 198.439 100.308C198.199 100.076 197.879 99.96 197.479 99.96C197.135 99.96 196.839 100.04 196.591 100.2C196.343 100.352 196.151 100.572 196.015 100.86C195.887 101.14 195.823 101.48 195.823 101.88C195.823 102.272 195.887 102.612 196.015 102.9C196.151 103.188 196.343 103.412 196.591 103.572C196.839 103.724 197.135 103.8 197.479 103.8C197.863 103.8 198.175 103.7 198.415 103.5C198.663 103.292 198.839 102.984 198.943 102.576L200.347 103.008C200.259 103.416 200.091 103.78 199.843 104.1C199.603 104.42 199.287 104.676 198.895 104.868C198.503 105.052 198.031 105.144 197.479 105.144ZM201.513 105V96.36H202.953V99.6H203.025C203.209 99.296 203.449 99.056 203.745 98.88C204.041 98.704 204.385 98.616 204.777 98.616C205.193 98.616 205.561 98.708 205.881 98.892C206.201 99.068 206.449 99.332 206.625 99.684C206.809 100.028 206.901 100.452 206.901 100.956V105H205.461V101.22C205.461 100.796 205.361 100.484 205.161 100.284C204.961 100.076 204.693 99.972 204.357 99.972C204.093 99.972 203.853 100.044 203.637 100.188C203.429 100.324 203.261 100.528 203.133 100.8C203.013 101.072 202.953 101.408 202.953 101.808V105H201.513ZM208.366 101.664C208.366 100.888 208.446 100.184 208.606 99.552C208.766 98.92 208.986 98.344 209.266 97.824C209.546 97.296 209.862 96.808 210.214 96.36H211.582C211.022 97.184 210.598 98.032 210.31 98.904C210.022 99.776 209.878 100.696 209.878 101.664C209.878 102.632 210.022 103.552 210.31 104.424C210.598 105.288 211.022 106.136 211.582 106.968H210.214C209.862 106.512 209.546 106.024 209.266 105.504C208.986 104.984 208.766 104.408 208.606 103.776C208.446 103.144 208.366 102.44 208.366 101.664ZM215.179 101.664C215.179 102.44 215.099 103.144 214.939 103.776C214.779 104.408 214.559 104.984 214.279 105.504C214.007 106.024 213.691 106.512 213.331 106.968H211.963C212.523 106.136 212.947 105.288 213.235 104.424C213.523 103.552 213.667 102.632 213.667 101.664C213.667 100.696 213.523 99.776 213.235 98.904C212.947 98.032 212.523 97.184 211.963 96.36H213.331C213.691 96.808 214.007 97.296 214.279 97.824C214.559 98.344 214.779 98.92 214.939 99.552C215.099 100.184 215.179 100.888 215.179 101.664Z" fill="white"/>
<path d="M179.292 183V176.1C179.292 175.5 179.448 175.036 179.76 174.708C180.072 174.38 180.54 174.216 181.164 174.216H182.424V175.56H181.332C180.932 175.56 180.732 175.776 180.732 176.208V183H179.292ZM178.188 177.96V176.76H182.424V177.96H178.188ZM186.051 183.144C185.459 183.144 184.931 183.012 184.467 182.748C184.003 182.484 183.639 182.108 183.375 181.62C183.119 181.124 182.991 180.544 182.991 179.88C182.991 179.256 183.123 178.7 183.387 178.212C183.651 177.716 184.015 177.328 184.479 177.048C184.943 176.76 185.471 176.616 186.063 176.616C186.647 176.616 187.155 176.744 187.587 177C188.027 177.256 188.367 177.64 188.607 178.152C188.847 178.664 188.967 179.304 188.967 180.072V180.36H183.831V179.304H187.731L187.455 179.52C187.455 179.224 187.403 178.956 187.299 178.716C187.195 178.476 187.039 178.284 186.831 178.14C186.623 177.988 186.363 177.912 186.051 177.912C185.747 177.912 185.475 177.984 185.235 178.128C184.995 178.272 184.807 178.488 184.671 178.776C184.535 179.064 184.467 179.432 184.467 179.88C184.467 180.312 184.531 180.676 184.659 180.972C184.787 181.26 184.971 181.48 185.211 181.632C185.451 181.776 185.731 181.848 186.051 181.848C186.419 181.848 186.703 181.772 186.903 181.62C187.111 181.46 187.283 181.244 187.419 180.972L188.751 181.488C188.551 181.976 188.243 182.376 187.827 182.688C187.419 182.992 186.827 183.144 186.051 183.144ZM192.447 183.024C191.847 183.024 191.395 182.868 191.091 182.556C190.795 182.236 190.647 181.788 190.647 181.212V175.056H192.087V181.116C192.087 181.492 192.279 181.68 192.663 181.68H193.659V183.024H192.447ZM189.543 177.96V176.76H193.539V177.96H189.543ZM197.479 183.144C196.879 183.144 196.339 183.012 195.859 182.748C195.387 182.484 195.011 182.108 194.731 181.62C194.451 181.132 194.311 180.552 194.311 179.88C194.311 179.208 194.451 178.628 194.731 178.14C195.011 177.652 195.387 177.276 195.859 177.012C196.339 176.748 196.879 176.616 197.479 176.616C198.255 176.616 198.895 176.82 199.399 177.228C199.911 177.628 200.231 178.168 200.359 178.848L198.931 179.16C198.851 178.816 198.687 178.532 198.439 178.308C198.199 178.076 197.879 177.96 197.479 177.96C197.135 177.96 196.839 178.04 196.591 178.2C196.343 178.352 196.151 178.572 196.015 178.86C195.887 179.14 195.823 179.48 195.823 179.88C195.823 180.272 195.887 180.612 196.015 180.9C196.151 181.188 196.343 181.412 196.591 181.572C196.839 181.724 197.135 181.8 197.479 181.8C197.863 181.8 198.175 181.7 198.415 181.5C198.663 181.292 198.839 180.984 198.943 180.576L200.347 181.008C200.259 181.416 200.091 181.78 199.843 182.1C199.603 182.42 199.287 182.676 198.895 182.868C198.503 183.052 198.031 183.144 197.479 183.144ZM201.513 183V174.36H202.953V177.6H203.025C203.209 177.296 203.449 177.056 203.745 176.88C204.041 176.704 204.385 176.616 204.777 176.616C205.193 176.616 205.561 176.708 205.881 176.892C206.201 177.068 206.449 177.332 206.625 177.684C206.809 178.028 206.901 178.452 206.901 178.956V183H205.461V179.22C205.461 178.796 205.361 178.484 205.161 178.284C204.961 178.076 204.693 177.972 204.357 177.972C204.093 177.972 203.853 178.044 203.637 178.188C203.429 178.324 203.261 178.528 203.133 178.8C203.013 179.072 202.953 179.408 202.953 179.808V183H201.513ZM208.366 179.664C208.366 178.888 208.446 178.184 208.606 177.552C208.766 176.92 208.986 176.344 209.266 175.824C209.546 175.296 209.862 174.808 210.214 174.36H211.582C211.022 175.184 210.598 176.032 210.31 176.904C210.022 177.776 209.878 178.696 209.878 179.664C209.878 180.632 210.022 181.552 210.31 182.424C210.598 183.288 211.022 184.136 211.582 184.968H210.214C209.862 184.512 209.546 184.024 209.266 183.504C208.986 182.984 208.766 182.408 208.606 181.776C208.446 181.144 208.366 180.44 208.366 179.664ZM215.179 179.664C215.179 180.44 215.099 181.144 214.939 181.776C214.779 182.408 214.559 182.984 214.279 183.504C214.007 184.024 213.691 184.512 213.331 184.968H211.963C212.523 184.136 212.947 183.288 213.235 182.424C213.523 181.552 213.667 180.632 213.667 179.664C213.667 178.696 213.523 177.776 213.235 176.904C212.947 176.032 212.523 175.184 211.963 174.36H213.331C213.691 174.808 214.007 175.296 214.279 175.824C214.559 176.344 214.779 176.92 214.939 177.552C215.099 178.184 215.179 178.888 215.179 179.664Z" fill="white"/>
<path d="M301.854 140.354C302.049 140.158 302.049 139.842 301.854 139.646L298.672 136.464C298.476 136.269 298.16 136.269 297.964 136.464C297.769 136.66 297.769 136.976 297.964 137.172L300.793 140L297.964 142.828C297.769 143.024 297.769 143.34 297.964 143.536C298.16 143.731 298.476 143.731 298.672 143.536L301.854 140.354ZM236.5 140V140.5H301.5V140V139.5H236.5V140Z" fill="white"/>
</svg>
