<svg width="423" height="421" viewBox="0 0 423 421" fill="none" xmlns="http://www.w3.org/2000/svg">
<ellipse opacity="0.5" cx="211" cy="313" rx="85" ry="84" stroke="white" stroke-width="2"/>
<ellipse opacity="0.5" cx="211" cy="279" rx="127" ry="126" stroke="white" stroke-width="2"/>
<ellipse opacity="0.5" cx="211" cy="245" rx="169" ry="168" stroke="white" stroke-width="2"/>
<ellipse opacity="0.5" cx="211.5" cy="210.5" rx="210.5" ry="209.5" stroke="white" stroke-width="2"/>
<path d="M180.521 106.144C179.473 106.144 178.645 105.956 178.037 105.58C177.429 105.204 176.997 104.66 176.741 103.948L178.625 103.288C178.761 103.648 178.989 103.94 179.309 104.164C179.629 104.38 180.049 104.488 180.569 104.488C181.113 104.488 181.505 104.4 181.745 104.224C181.993 104.04 182.117 103.808 182.117 103.528C182.117 103.256 182.033 103.044 181.865 102.892C181.697 102.732 181.441 102.636 181.097 102.604L179.537 102.448C178.705 102.368 178.061 102.104 177.605 101.656C177.157 101.208 176.933 100.616 176.933 99.88C176.933 99.376 177.073 98.924 177.353 98.524C177.633 98.124 178.013 97.808 178.493 97.576C178.981 97.336 179.533 97.216 180.149 97.216C181.029 97.216 181.761 97.4 182.345 97.768C182.937 98.128 183.349 98.644 183.581 99.316L181.781 99.94C181.645 99.612 181.441 99.352 181.169 99.16C180.905 98.968 180.565 98.872 180.149 98.872C179.701 98.872 179.361 98.964 179.129 99.148C178.905 99.324 178.793 99.548 178.793 99.82C178.793 100.068 178.877 100.272 179.045 100.432C179.213 100.592 179.465 100.688 179.801 100.72L181.313 100.876C182.185 100.964 182.845 101.236 183.293 101.692C183.749 102.148 183.977 102.764 183.977 103.54C183.977 104.076 183.841 104.54 183.569 104.932C183.305 105.316 182.917 105.616 182.405 105.832C181.893 106.04 181.265 106.144 180.521 106.144ZM185.626 108.4L186.754 105.772L186.742 106.336L184.126 99.76H186.082L187.474 103.828H187.582L189.046 99.76H190.966L187.534 108.4H185.626ZM191.736 106V99.76H193.428V100.636H193.512C193.696 100.316 193.928 100.068 194.208 99.892C194.488 99.708 194.832 99.616 195.24 99.616C195.64 99.616 195.996 99.704 196.308 99.88C196.62 100.056 196.864 100.32 197.04 100.672C197.216 101.016 197.304 101.448 197.304 101.968V106H195.552V102.232C195.552 101.888 195.472 101.632 195.312 101.464C195.152 101.288 194.932 101.2 194.652 101.2C194.428 101.2 194.224 101.26 194.04 101.38C193.864 101.492 193.728 101.66 193.632 101.884C193.536 102.108 193.488 102.384 193.488 102.712V106H191.736ZM201.672 106.144C201.064 106.144 200.516 106.016 200.028 105.76C199.54 105.496 199.152 105.12 198.864 104.632C198.584 104.144 198.444 103.56 198.444 102.88C198.444 102.2 198.584 101.616 198.864 101.128C199.152 100.64 199.54 100.268 200.028 100.012C200.516 99.748 201.064 99.616 201.672 99.616C202.496 99.616 203.164 99.824 203.676 100.24C204.196 100.656 204.52 101.212 204.648 101.908L202.896 102.244C202.832 101.932 202.696 101.684 202.488 101.5C202.288 101.316 202.016 101.224 201.672 101.224C201.392 101.224 201.148 101.288 200.94 101.416C200.732 101.544 200.568 101.732 200.448 101.98C200.336 102.22 200.28 102.52 200.28 102.88C200.28 103.232 200.336 103.532 200.448 103.78C200.568 104.028 200.732 104.216 200.94 104.344C201.148 104.472 201.392 104.536 201.672 104.536C202.008 104.536 202.276 104.448 202.476 104.272C202.676 104.096 202.82 103.84 202.908 103.504L204.636 103.9C204.54 104.372 204.364 104.776 204.108 105.112C203.86 105.448 203.532 105.704 203.124 105.88C202.724 106.056 202.24 106.144 201.672 106.144ZM211.561 106.144C210.945 106.144 210.397 106.016 209.917 105.76C209.445 105.496 209.073 105.12 208.801 104.632C208.537 104.136 208.405 103.552 208.405 102.88C208.405 102.28 208.537 101.736 208.801 101.248C209.065 100.752 209.429 100.356 209.893 100.06C210.365 99.764 210.913 99.616 211.537 99.616C212.161 99.616 212.697 99.752 213.145 100.024C213.593 100.296 213.933 100.688 214.165 101.2C214.405 101.712 214.525 102.328 214.525 103.048V103.372H209.485V102.292H213.001L212.725 102.568C212.725 102.288 212.681 102.036 212.593 101.812C212.513 101.588 212.385 101.412 212.209 101.284C212.033 101.148 211.809 101.08 211.537 101.08C211.257 101.08 211.013 101.144 210.805 101.272C210.605 101.4 210.449 101.6 210.337 101.872C210.233 102.136 210.181 102.472 210.181 102.88C210.181 103.288 210.237 103.624 210.349 103.888C210.461 104.152 210.621 104.348 210.829 104.476C211.037 104.604 211.281 104.668 211.561 104.668C211.857 104.668 212.093 104.604 212.269 104.476C212.453 104.34 212.601 104.164 212.713 103.948L214.309 104.548C214.101 105.02 213.785 105.404 213.361 105.7C212.937 105.996 212.337 106.144 211.561 106.144ZM215.701 106V99.76H217.393V100.636H217.477C217.661 100.316 217.893 100.068 218.173 99.892C218.453 99.708 218.797 99.616 219.205 99.616C219.605 99.616 219.961 99.704 220.273 99.88C220.585 100.056 220.829 100.32 221.005 100.672C221.181 101.016 221.269 101.448 221.269 101.968V106H219.517V102.232C219.517 101.888 219.437 101.632 219.277 101.464C219.117 101.288 218.897 101.2 218.617 101.2C218.393 101.2 218.189 101.26 218.005 101.38C217.829 101.492 217.693 101.66 217.597 101.884C217.501 102.108 217.453 102.384 217.453 102.712V106H215.701ZM225.529 108.544C224.985 108.544 224.509 108.472 224.101 108.328C223.693 108.184 223.357 107.976 223.093 107.704C222.829 107.432 222.641 107.112 222.529 106.744L224.233 106.288C224.321 106.536 224.469 106.732 224.677 106.876C224.885 107.028 225.169 107.104 225.529 107.104C225.993 107.104 226.329 106.976 226.537 106.72C226.753 106.472 226.861 106.152 226.861 105.76V104.896H226.789C226.629 105.192 226.397 105.428 226.093 105.604C225.789 105.78 225.429 105.868 225.013 105.868C224.525 105.868 224.085 105.74 223.693 105.484C223.301 105.22 222.989 104.856 222.757 104.392C222.525 103.92 222.409 103.368 222.409 102.736C222.409 102.104 222.521 101.556 222.745 101.092C222.977 100.62 223.289 100.256 223.681 100C224.073 99.744 224.509 99.616 224.989 99.616C225.413 99.616 225.773 99.704 226.069 99.88C226.373 100.048 226.629 100.304 226.837 100.648H226.909V99.76H228.613V105.772C228.613 106.34 228.489 106.832 228.241 107.248C228.001 107.672 227.649 107.992 227.185 108.208C226.729 108.432 226.177 108.544 225.529 108.544ZM225.589 104.272C225.981 104.272 226.301 104.14 226.549 103.876C226.797 103.612 226.921 103.232 226.921 102.736C226.921 102.256 226.797 101.884 226.549 101.62C226.301 101.356 225.981 101.224 225.589 101.224C225.197 101.224 224.873 101.356 224.617 101.62C224.361 101.876 224.233 102.248 224.233 102.736C224.233 103.232 224.361 103.612 224.617 103.876C224.873 104.14 225.197 104.272 225.589 104.272ZM230.103 106V99.76H231.855V106H230.103ZM229.935 98.104C229.935 97.816 230.027 97.58 230.211 97.396C230.403 97.204 230.659 97.108 230.979 97.108C231.291 97.108 231.539 97.204 231.723 97.396C231.915 97.58 232.011 97.816 232.011 98.104C232.011 98.376 231.915 98.612 231.723 98.812C231.539 99.004 231.291 99.1 230.979 99.1C230.659 99.1 230.403 99.004 230.211 98.812C230.027 98.612 229.935 98.376 229.935 98.104ZM233.326 106V99.76H235.018V100.636H235.102C235.286 100.316 235.518 100.068 235.798 99.892C236.078 99.708 236.422 99.616 236.83 99.616C237.23 99.616 237.586 99.704 237.898 99.88C238.21 100.056 238.454 100.32 238.63 100.672C238.806 101.016 238.894 101.448 238.894 101.968V106H237.142V102.232C237.142 101.888 237.062 101.632 236.902 101.464C236.742 101.288 236.522 101.2 236.242 101.2C236.018 101.2 235.814 101.26 235.63 101.38C235.454 101.492 235.318 101.66 235.222 101.884C235.126 102.108 235.078 102.384 235.078 102.712V106H233.326ZM243.19 106.144C242.574 106.144 242.026 106.016 241.546 105.76C241.074 105.496 240.702 105.12 240.43 104.632C240.166 104.136 240.034 103.552 240.034 102.88C240.034 102.28 240.166 101.736 240.43 101.248C240.694 100.752 241.058 100.356 241.522 100.06C241.994 99.764 242.542 99.616 243.166 99.616C243.79 99.616 244.326 99.752 244.774 100.024C245.222 100.296 245.562 100.688 245.794 101.2C246.034 101.712 246.154 102.328 246.154 103.048V103.372H241.114V102.292H244.63L244.354 102.568C244.354 102.288 244.31 102.036 244.222 101.812C244.142 101.588 244.014 101.412 243.838 101.284C243.662 101.148 243.438 101.08 243.166 101.08C242.886 101.08 242.642 101.144 242.434 101.272C242.234 101.4 242.078 101.6 241.966 101.872C241.862 102.136 241.81 102.472 241.81 102.88C241.81 103.288 241.866 103.624 241.978 103.888C242.09 104.152 242.25 104.348 242.458 104.476C242.666 104.604 242.91 104.668 243.19 104.668C243.486 104.668 243.722 104.604 243.898 104.476C244.082 104.34 244.23 104.164 244.342 103.948L245.938 104.548C245.73 105.02 245.414 105.404 244.99 105.7C244.566 105.996 243.966 106.144 243.19 106.144ZM249.802 106.144C249.002 106.144 248.362 106.016 247.882 105.76C247.402 105.496 247.054 105.116 246.838 104.62L248.434 103.936C248.53 104.16 248.69 104.344 248.914 104.488C249.138 104.632 249.43 104.704 249.79 104.704C250.11 104.704 250.346 104.656 250.498 104.56C250.658 104.456 250.738 104.32 250.738 104.152C250.738 104 250.686 103.88 250.582 103.792C250.486 103.704 250.326 103.648 250.102 103.624L249.082 103.528C248.418 103.464 247.894 103.272 247.51 102.952C247.134 102.632 246.946 102.18 246.946 101.596C246.946 101.22 247.046 100.884 247.246 100.588C247.454 100.292 247.746 100.056 248.122 99.88C248.506 99.704 248.958 99.616 249.478 99.616C250.158 99.616 250.714 99.756 251.146 100.036C251.578 100.316 251.898 100.676 252.106 101.116L250.546 101.74C250.442 101.524 250.298 101.36 250.114 101.248C249.93 101.136 249.714 101.08 249.466 101.08C249.17 101.08 248.958 101.132 248.83 101.236C248.702 101.332 248.638 101.46 248.638 101.62C248.638 101.764 248.686 101.884 248.782 101.98C248.886 102.068 249.034 102.124 249.226 102.148L250.438 102.28C251.094 102.352 251.59 102.556 251.926 102.892C252.262 103.228 252.43 103.668 252.43 104.212C252.43 104.596 252.326 104.936 252.118 105.232C251.91 105.52 251.61 105.744 251.218 105.904C250.826 106.064 250.354 106.144 249.802 106.144Z" fill="white"/>
<path d="M161.882 30V21.36H165.902C166.526 21.36 167.058 21.48 167.498 21.72C167.938 21.96 168.274 22.288 168.506 22.704C168.746 23.112 168.866 23.58 168.866 24.108C168.866 24.644 168.746 25.112 168.506 25.512C168.274 25.912 167.934 26.224 167.486 26.448C167.038 26.672 166.498 26.784 165.866 26.784H163.238V25.212H165.746C166.122 25.212 166.418 25.116 166.634 24.924C166.858 24.732 166.97 24.46 166.97 24.108C166.97 23.756 166.862 23.484 166.646 23.292C166.43 23.092 166.138 22.992 165.77 22.992H163.262L163.742 22.632V30H161.882ZM166.898 30L164.474 25.98H166.478L169.094 30H166.898ZM172.764 30.144C172.148 30.144 171.6 30.016 171.12 29.76C170.648 29.496 170.276 29.12 170.004 28.632C169.74 28.136 169.608 27.552 169.608 26.88C169.608 26.28 169.74 25.736 170.004 25.248C170.268 24.752 170.632 24.356 171.096 24.06C171.568 23.764 172.116 23.616 172.74 23.616C173.364 23.616 173.9 23.752 174.348 24.024C174.796 24.296 175.136 24.688 175.368 25.2C175.608 25.712 175.728 26.328 175.728 27.048V27.372H170.688V26.292H174.204L173.928 26.568C173.928 26.288 173.884 26.036 173.796 25.812C173.716 25.588 173.588 25.412 173.412 25.284C173.236 25.148 173.012 25.08 172.74 25.08C172.46 25.08 172.216 25.144 172.008 25.272C171.808 25.4 171.652 25.6 171.54 25.872C171.436 26.136 171.384 26.472 171.384 26.88C171.384 27.288 171.44 27.624 171.552 27.888C171.664 28.152 171.824 28.348 172.032 28.476C172.24 28.604 172.484 28.668 172.764 28.668C173.06 28.668 173.296 28.604 173.472 28.476C173.656 28.34 173.804 28.164 173.916 27.948L175.512 28.548C175.304 29.02 174.988 29.404 174.564 29.7C174.14 29.996 173.54 30.144 172.764 30.144ZM178.632 30.144C178.032 30.144 177.548 29.98 177.18 29.652C176.812 29.316 176.628 28.856 176.628 28.272C176.628 27.72 176.812 27.28 177.18 26.952C177.556 26.624 178.08 26.432 178.752 26.376L180.816 26.184V27.228L179.172 27.408C178.884 27.44 178.672 27.52 178.536 27.648C178.4 27.768 178.332 27.928 178.332 28.128C178.332 28.32 178.4 28.484 178.536 28.62C178.672 28.748 178.864 28.812 179.112 28.812C179.376 28.812 179.6 28.752 179.784 28.632C179.976 28.504 180.12 28.316 180.216 28.068C180.32 27.82 180.372 27.504 180.372 27.12V25.944C180.372 25.68 180.292 25.468 180.132 25.308C179.98 25.14 179.752 25.056 179.448 25.056C179.128 25.056 178.888 25.128 178.728 25.272C178.576 25.416 178.488 25.596 178.464 25.812H176.76C176.784 25.388 176.904 25.012 177.12 24.684C177.344 24.356 177.652 24.096 178.044 23.904C178.444 23.712 178.92 23.616 179.472 23.616C180.32 23.616 180.972 23.836 181.428 24.276C181.884 24.708 182.112 25.284 182.112 26.004V28.596L182.172 30H180.528L180.492 29.184H180.396C180.204 29.512 179.956 29.756 179.652 29.916C179.356 30.068 179.016 30.144 178.632 30.144ZM186.454 30.144C185.846 30.144 185.298 30.016 184.81 29.76C184.322 29.496 183.934 29.12 183.646 28.632C183.366 28.144 183.226 27.56 183.226 26.88C183.226 26.2 183.366 25.616 183.646 25.128C183.934 24.64 184.322 24.268 184.81 24.012C185.298 23.748 185.846 23.616 186.454 23.616C187.278 23.616 187.946 23.824 188.458 24.24C188.978 24.656 189.302 25.212 189.43 25.908L187.678 26.244C187.614 25.932 187.478 25.684 187.27 25.5C187.07 25.316 186.798 25.224 186.454 25.224C186.174 25.224 185.93 25.288 185.722 25.416C185.514 25.544 185.35 25.732 185.23 25.98C185.118 26.22 185.062 26.52 185.062 26.88C185.062 27.232 185.118 27.532 185.23 27.78C185.35 28.028 185.514 28.216 185.722 28.344C185.93 28.472 186.174 28.536 186.454 28.536C186.79 28.536 187.058 28.448 187.258 28.272C187.458 28.096 187.602 27.84 187.69 27.504L189.418 27.9C189.322 28.372 189.146 28.776 188.89 29.112C188.642 29.448 188.314 29.704 187.906 29.88C187.506 30.056 187.022 30.144 186.454 30.144ZM192.91 30.024C192.222 30.024 191.71 29.844 191.374 29.484C191.046 29.124 190.882 28.632 190.882 28.008V22.056H192.634V27.864C192.634 28.232 192.826 28.416 193.21 28.416H194.194V30.024H192.91ZM189.838 25.152V23.76H194.074V25.152H189.838ZM195.162 30V23.76H196.914V30H195.162ZM194.994 22.104C194.994 21.816 195.086 21.58 195.27 21.396C195.462 21.204 195.718 21.108 196.038 21.108C196.35 21.108 196.598 21.204 196.782 21.396C196.974 21.58 197.07 21.816 197.07 22.104C197.07 22.376 196.974 22.612 196.782 22.812C196.598 23.004 196.35 23.1 196.038 23.1C195.718 23.1 195.462 23.004 195.27 22.812C195.086 22.612 194.994 22.376 194.994 22.104ZM200.005 30L197.665 23.76H199.645L200.941 27.792H201.061L202.417 23.76H204.325L201.961 30H200.005ZM207.862 30.144C207.246 30.144 206.698 30.016 206.218 29.76C205.746 29.496 205.374 29.12 205.102 28.632C204.838 28.136 204.706 27.552 204.706 26.88C204.706 26.28 204.838 25.736 205.102 25.248C205.366 24.752 205.73 24.356 206.194 24.06C206.666 23.764 207.214 23.616 207.838 23.616C208.462 23.616 208.998 23.752 209.446 24.024C209.894 24.296 210.234 24.688 210.466 25.2C210.706 25.712 210.826 26.328 210.826 27.048V27.372H205.786V26.292H209.302L209.026 26.568C209.026 26.288 208.982 26.036 208.894 25.812C208.814 25.588 208.686 25.412 208.51 25.284C208.334 25.148 208.11 25.08 207.838 25.08C207.558 25.08 207.314 25.144 207.106 25.272C206.906 25.4 206.75 25.6 206.638 25.872C206.534 26.136 206.482 26.472 206.482 26.88C206.482 27.288 206.538 27.624 206.65 27.888C206.762 28.152 206.922 28.348 207.13 28.476C207.338 28.604 207.582 28.668 207.862 28.668C208.158 28.668 208.394 28.604 208.57 28.476C208.754 28.34 208.902 28.164 209.014 27.948L210.61 28.548C210.402 29.02 210.086 29.404 209.662 29.7C209.238 29.996 208.638 30.144 207.862 30.144ZM217.318 30.144C216.846 30.144 216.41 30.016 216.01 29.76C215.618 29.504 215.302 29.132 215.062 28.644C214.83 28.156 214.714 27.568 214.714 26.88C214.714 26.192 214.83 25.604 215.062 25.116C215.302 24.628 215.618 24.256 216.01 24C216.41 23.744 216.846 23.616 217.318 23.616C217.75 23.616 218.118 23.704 218.422 23.88C218.726 24.056 218.982 24.308 219.19 24.636H219.262V21.36H221.014V30H219.298V29.112H219.226C219.01 29.456 218.742 29.716 218.422 29.892C218.11 30.06 217.742 30.144 217.318 30.144ZM217.918 28.56C218.35 28.56 218.69 28.416 218.938 28.128C219.194 27.832 219.322 27.416 219.322 26.88C219.322 26.336 219.194 25.92 218.938 25.632C218.69 25.344 218.35 25.2 217.918 25.2C217.534 25.2 217.21 25.348 216.946 25.644C216.682 25.932 216.55 26.344 216.55 26.88C216.55 27.408 216.682 27.82 216.946 28.116C217.21 28.412 217.534 28.56 217.918 28.56ZM224.23 30.144C223.63 30.144 223.146 29.98 222.778 29.652C222.41 29.316 222.226 28.856 222.226 28.272C222.226 27.72 222.41 27.28 222.778 26.952C223.154 26.624 223.678 26.432 224.35 26.376L226.414 26.184V27.228L224.77 27.408C224.482 27.44 224.27 27.52 224.134 27.648C223.998 27.768 223.93 27.928 223.93 28.128C223.93 28.32 223.998 28.484 224.134 28.62C224.27 28.748 224.462 28.812 224.71 28.812C224.974 28.812 225.198 28.752 225.382 28.632C225.574 28.504 225.718 28.316 225.814 28.068C225.918 27.82 225.97 27.504 225.97 27.12V25.944C225.97 25.68 225.89 25.468 225.73 25.308C225.578 25.14 225.35 25.056 225.046 25.056C224.726 25.056 224.486 25.128 224.326 25.272C224.174 25.416 224.086 25.596 224.062 25.812H222.358C222.382 25.388 222.502 25.012 222.718 24.684C222.942 24.356 223.25 24.096 223.642 23.904C224.042 23.712 224.518 23.616 225.07 23.616C225.918 23.616 226.57 23.836 227.026 24.276C227.482 24.708 227.71 25.284 227.71 26.004V28.596L227.77 30H226.126L226.09 29.184H225.994C225.802 29.512 225.554 29.756 225.25 29.916C224.954 30.068 224.614 30.144 224.23 30.144ZM231.547 30.024C230.859 30.024 230.347 29.844 230.011 29.484C229.683 29.124 229.519 28.632 229.519 28.008V22.056H231.271V27.864C231.271 28.232 231.463 28.416 231.847 28.416H232.831V30.024H231.547ZM228.475 25.152V23.76H232.711V25.152H228.475ZM235.527 30.144C234.927 30.144 234.443 29.98 234.075 29.652C233.707 29.316 233.523 28.856 233.523 28.272C233.523 27.72 233.707 27.28 234.075 26.952C234.451 26.624 234.975 26.432 235.647 26.376L237.711 26.184V27.228L236.067 27.408C235.779 27.44 235.567 27.52 235.431 27.648C235.295 27.768 235.227 27.928 235.227 28.128C235.227 28.32 235.295 28.484 235.431 28.62C235.567 28.748 235.759 28.812 236.007 28.812C236.271 28.812 236.495 28.752 236.679 28.632C236.871 28.504 237.015 28.316 237.111 28.068C237.215 27.82 237.267 27.504 237.267 27.12V25.944C237.267 25.68 237.187 25.468 237.027 25.308C236.875 25.14 236.647 25.056 236.343 25.056C236.023 25.056 235.783 25.128 235.623 25.272C235.471 25.416 235.383 25.596 235.359 25.812H233.655C233.679 25.388 233.799 25.012 234.015 24.684C234.239 24.356 234.547 24.096 234.939 23.904C235.339 23.712 235.815 23.616 236.367 23.616C237.215 23.616 237.867 23.836 238.323 24.276C238.779 24.708 239.007 25.284 239.007 26.004V28.596L239.067 30H237.423L237.387 29.184H237.291C237.099 29.512 236.851 29.756 236.547 29.916C236.251 30.068 235.911 30.144 235.527 30.144ZM244.104 30.144C243.68 30.144 243.308 30.06 242.988 29.892C242.676 29.716 242.412 29.456 242.196 29.112H242.124V30H240.408V21.36H242.16V24.636H242.232C242.44 24.308 242.696 24.056 243 23.88C243.304 23.704 243.672 23.616 244.104 23.616C244.584 23.616 245.02 23.744 245.412 24C245.804 24.256 246.116 24.628 246.348 25.116C246.588 25.604 246.708 26.192 246.708 26.88C246.708 27.568 246.588 28.156 246.348 28.644C246.116 29.132 245.804 29.504 245.412 29.76C245.02 30.016 244.584 30.144 244.104 30.144ZM243.504 28.56C243.896 28.56 244.22 28.412 244.476 28.116C244.74 27.82 244.872 27.408 244.872 26.88C244.872 26.344 244.74 25.932 244.476 25.644C244.22 25.348 243.896 25.2 243.504 25.2C243.072 25.2 242.728 25.344 242.472 25.632C242.224 25.92 242.1 26.336 242.1 26.88C242.1 27.416 242.224 27.832 242.472 28.128C242.728 28.416 243.072 28.56 243.504 28.56ZM249.636 30.144C249.036 30.144 248.552 29.98 248.184 29.652C247.816 29.316 247.632 28.856 247.632 28.272C247.632 27.72 247.816 27.28 248.184 26.952C248.56 26.624 249.084 26.432 249.756 26.376L251.82 26.184V27.228L250.176 27.408C249.888 27.44 249.676 27.52 249.54 27.648C249.404 27.768 249.336 27.928 249.336 28.128C249.336 28.32 249.404 28.484 249.54 28.62C249.676 28.748 249.868 28.812 250.116 28.812C250.38 28.812 250.604 28.752 250.788 28.632C250.98 28.504 251.124 28.316 251.22 28.068C251.324 27.82 251.376 27.504 251.376 27.12V25.944C251.376 25.68 251.296 25.468 251.136 25.308C250.984 25.14 250.756 25.056 250.452 25.056C250.132 25.056 249.892 25.128 249.732 25.272C249.58 25.416 249.492 25.596 249.468 25.812H247.764C247.788 25.388 247.908 25.012 248.124 24.684C248.348 24.356 248.656 24.096 249.048 23.904C249.448 23.712 249.924 23.616 250.476 23.616C251.324 23.616 251.976 23.836 252.432 24.276C252.888 24.708 253.116 25.284 253.116 26.004V28.596L253.176 30H251.532L251.496 29.184H251.4C251.208 29.512 250.96 29.756 250.656 29.916C250.36 30.068 250.02 30.144 249.636 30.144ZM256.989 30.144C256.189 30.144 255.549 30.016 255.069 29.76C254.589 29.496 254.241 29.116 254.025 28.62L255.621 27.936C255.717 28.16 255.877 28.344 256.101 28.488C256.325 28.632 256.617 28.704 256.977 28.704C257.297 28.704 257.533 28.656 257.685 28.56C257.845 28.456 257.925 28.32 257.925 28.152C257.925 28 257.873 27.88 257.769 27.792C257.673 27.704 257.513 27.648 257.289 27.624L256.269 27.528C255.605 27.464 255.081 27.272 254.697 26.952C254.321 26.632 254.133 26.18 254.133 25.596C254.133 25.22 254.233 24.884 254.433 24.588C254.641 24.292 254.933 24.056 255.309 23.88C255.693 23.704 256.145 23.616 256.665 23.616C257.345 23.616 257.901 23.756 258.333 24.036C258.765 24.316 259.085 24.676 259.293 25.116L257.733 25.74C257.629 25.524 257.485 25.36 257.301 25.248C257.117 25.136 256.901 25.08 256.653 25.08C256.357 25.08 256.145 25.132 256.017 25.236C255.889 25.332 255.825 25.46 255.825 25.62C255.825 25.764 255.873 25.884 255.969 25.98C256.073 26.068 256.221 26.124 256.413 26.148L257.625 26.28C258.281 26.352 258.777 26.556 259.113 26.892C259.449 27.228 259.617 27.668 259.617 28.212C259.617 28.596 259.513 28.936 259.305 29.232C259.097 29.52 258.797 29.744 258.405 29.904C258.013 30.064 257.541 30.144 256.989 30.144ZM263.503 30.144C262.887 30.144 262.339 30.016 261.859 29.76C261.387 29.496 261.015 29.12 260.743 28.632C260.479 28.136 260.347 27.552 260.347 26.88C260.347 26.28 260.479 25.736 260.743 25.248C261.007 24.752 261.371 24.356 261.835 24.06C262.307 23.764 262.855 23.616 263.479 23.616C264.103 23.616 264.639 23.752 265.087 24.024C265.535 24.296 265.875 24.688 266.107 25.2C266.347 25.712 266.467 26.328 266.467 27.048V27.372H261.427V26.292H264.943L264.667 26.568C264.667 26.288 264.623 26.036 264.535 25.812C264.455 25.588 264.327 25.412 264.151 25.284C263.975 25.148 263.751 25.08 263.479 25.08C263.199 25.08 262.955 25.144 262.747 25.272C262.547 25.4 262.391 25.6 262.279 25.872C262.175 26.136 262.123 26.472 262.123 26.88C262.123 27.288 262.179 27.624 262.291 27.888C262.403 28.152 262.563 28.348 262.771 28.476C262.979 28.604 263.223 28.668 263.503 28.668C263.799 28.668 264.035 28.604 264.211 28.476C264.395 28.34 264.543 28.164 264.655 27.948L266.251 28.548C266.043 29.02 265.727 29.404 265.303 29.7C264.879 29.996 264.279 30.144 263.503 30.144Z" fill="white"/>
<path d="M186.055 182.144C185.215 182.144 184.455 181.972 183.775 181.628C183.103 181.276 182.571 180.768 182.179 180.104C181.787 179.432 181.591 178.624 181.591 177.68C181.591 176.976 181.703 176.348 181.927 175.796C182.159 175.244 182.475 174.776 182.875 174.392C183.283 174.008 183.755 173.716 184.291 173.516C184.835 173.316 185.423 173.216 186.055 173.216C186.679 173.216 187.259 173.316 187.795 173.516C188.339 173.716 188.811 174.008 189.211 174.392C189.619 174.776 189.935 175.244 190.159 175.796C190.391 176.348 190.507 176.976 190.507 177.68C190.507 178.392 190.391 179.024 190.159 179.576C189.935 180.128 189.619 180.596 189.211 180.98C188.811 181.364 188.339 181.656 187.795 181.856C187.259 182.048 186.679 182.144 186.055 182.144ZM186.055 180.464C186.575 180.464 187.019 180.352 187.387 180.128C187.763 179.896 188.051 179.572 188.251 179.156C188.459 178.74 188.563 178.248 188.563 177.68C188.563 177.104 188.459 176.612 188.251 176.204C188.051 175.788 187.763 175.468 187.387 175.244C187.019 175.012 186.575 174.896 186.055 174.896C185.527 174.896 185.075 175.012 184.699 175.244C184.323 175.468 184.035 175.788 183.835 176.204C183.635 176.612 183.535 177.104 183.535 177.68C183.535 178.248 183.635 178.74 183.835 179.156C184.035 179.572 184.323 179.896 184.699 180.128C185.075 180.352 185.527 180.464 186.055 180.464ZM192.377 182V175.256C192.377 174.616 192.549 174.116 192.893 173.756C193.237 173.396 193.749 173.216 194.429 173.216H195.569V174.788H194.645C194.301 174.788 194.129 174.968 194.129 175.328V182H192.377ZM191.333 177.152V175.76H199.565V177.152H191.333ZM196.145 182V175.256C196.145 174.616 196.317 174.116 196.661 173.756C197.005 173.396 197.521 173.216 198.209 173.216H199.565V174.788H198.425C198.073 174.788 197.897 174.968 197.897 175.328V182H196.145ZM200.476 182V173.36H202.228V182H200.476ZM203.699 182V175.76H205.451V182H203.699ZM203.531 174.104C203.531 173.816 203.623 173.58 203.807 173.396C203.999 173.204 204.255 173.108 204.575 173.108C204.887 173.108 205.135 173.204 205.319 173.396C205.511 173.58 205.607 173.816 205.607 174.104C205.607 174.376 205.511 174.612 205.319 174.812C205.135 175.004 204.887 175.1 204.575 175.1C204.255 175.1 203.999 175.004 203.807 174.812C203.623 174.612 203.531 174.376 203.531 174.104ZM206.922 182V175.76H208.614V176.636H208.698C208.882 176.316 209.114 176.068 209.394 175.892C209.674 175.708 210.018 175.616 210.426 175.616C210.826 175.616 211.182 175.704 211.494 175.88C211.806 176.056 212.05 176.32 212.226 176.672C212.402 177.016 212.49 177.448 212.49 177.968V182H210.738V178.232C210.738 177.888 210.658 177.632 210.498 177.464C210.338 177.288 210.118 177.2 209.838 177.2C209.614 177.2 209.41 177.26 209.226 177.38C209.05 177.492 208.914 177.66 208.818 177.884C208.722 178.108 208.674 178.384 208.674 178.712V182H206.922ZM216.786 182.144C216.17 182.144 215.622 182.016 215.142 181.76C214.67 181.496 214.298 181.12 214.026 180.632C213.762 180.136 213.63 179.552 213.63 178.88C213.63 178.28 213.762 177.736 214.026 177.248C214.29 176.752 214.654 176.356 215.118 176.06C215.59 175.764 216.138 175.616 216.762 175.616C217.386 175.616 217.922 175.752 218.37 176.024C218.818 176.296 219.158 176.688 219.39 177.2C219.63 177.712 219.75 178.328 219.75 179.048V179.372H214.71V178.292H218.226L217.95 178.568C217.95 178.288 217.906 178.036 217.818 177.812C217.738 177.588 217.61 177.412 217.434 177.284C217.258 177.148 217.034 177.08 216.762 177.08C216.482 177.08 216.238 177.144 216.03 177.272C215.83 177.4 215.674 177.6 215.562 177.872C215.458 178.136 215.406 178.472 215.406 178.88C215.406 179.288 215.462 179.624 215.574 179.888C215.686 180.152 215.846 180.348 216.054 180.476C216.262 180.604 216.506 180.668 216.786 180.668C217.082 180.668 217.318 180.604 217.494 180.476C217.678 180.34 217.826 180.164 217.938 179.948L219.534 180.548C219.326 181.02 219.01 181.404 218.586 181.7C218.162 181.996 217.562 182.144 216.786 182.144ZM220.653 179.588V178.172H223.413V179.588H220.653ZM228.336 182V177.152H223.524V175.76H230.088V182H228.336ZM224.568 182V175.256C224.568 174.616 224.74 174.116 225.084 173.756C225.428 173.396 225.94 173.216 226.62 173.216H227.976V174.788H226.848C226.496 174.788 226.32 174.968 226.32 175.328V182H224.568ZM231.578 182V175.76H233.27V177.068H233.354C233.506 176.596 233.746 176.236 234.074 175.988C234.402 175.74 234.822 175.616 235.334 175.616H235.742V177.452H235.142C234.542 177.452 234.09 177.604 233.786 177.908C233.482 178.212 233.33 178.68 233.33 179.312V182H231.578ZM239.3 182.144C238.5 182.144 237.86 182.016 237.38 181.76C236.9 181.496 236.552 181.116 236.336 180.62L237.932 179.936C238.028 180.16 238.188 180.344 238.412 180.488C238.636 180.632 238.928 180.704 239.288 180.704C239.608 180.704 239.844 180.656 239.996 180.56C240.156 180.456 240.236 180.32 240.236 180.152C240.236 180 240.184 179.88 240.08 179.792C239.984 179.704 239.824 179.648 239.6 179.624L238.58 179.528C237.916 179.464 237.392 179.272 237.008 178.952C236.632 178.632 236.444 178.18 236.444 177.596C236.444 177.22 236.544 176.884 236.744 176.588C236.952 176.292 237.244 176.056 237.62 175.88C238.004 175.704 238.456 175.616 238.976 175.616C239.656 175.616 240.212 175.756 240.644 176.036C241.076 176.316 241.396 176.676 241.604 177.116L240.044 177.74C239.94 177.524 239.796 177.36 239.612 177.248C239.428 177.136 239.212 177.08 238.964 177.08C238.668 177.08 238.456 177.132 238.328 177.236C238.2 177.332 238.136 177.46 238.136 177.62C238.136 177.764 238.184 177.884 238.28 177.98C238.384 178.068 238.532 178.124 238.724 178.148L239.936 178.28C240.592 178.352 241.088 178.556 241.424 178.892C241.76 179.228 241.928 179.668 241.928 180.212C241.928 180.596 241.824 180.936 241.616 181.232C241.408 181.52 241.108 181.744 240.716 181.904C240.324 182.064 239.852 182.144 239.3 182.144ZM245.381 182.024C244.693 182.024 244.181 181.844 243.845 181.484C243.517 181.124 243.353 180.632 243.353 180.008V174.056H245.105V179.864C245.105 180.232 245.297 180.416 245.681 180.416H246.665V182.024H245.381ZM242.309 177.152V175.76H246.545V177.152H242.309Z" fill="white"/>
<path d="M186.087 258V249.36H187.947V257.172L187.083 256.344H191.943V258H186.087ZM195.893 258.144C195.293 258.144 194.749 258.016 194.261 257.76C193.781 257.496 193.397 257.12 193.109 256.632C192.821 256.144 192.677 255.56 192.677 254.88C192.677 254.2 192.821 253.616 193.109 253.128C193.397 252.64 193.781 252.268 194.261 252.012C194.749 251.748 195.293 251.616 195.893 251.616C196.485 251.616 197.021 251.748 197.501 252.012C197.981 252.268 198.365 252.64 198.653 253.128C198.941 253.616 199.085 254.2 199.085 254.88C199.085 255.56 198.941 256.144 198.653 256.632C198.365 257.12 197.981 257.496 197.501 257.76C197.021 258.016 196.485 258.144 195.893 258.144ZM195.893 256.536C196.301 256.536 196.629 256.392 196.877 256.104C197.125 255.816 197.249 255.408 197.249 254.88C197.249 254.352 197.125 253.944 196.877 253.656C196.629 253.368 196.301 253.224 195.893 253.224C195.469 253.224 195.133 253.368 194.885 253.656C194.637 253.944 194.513 254.352 194.513 254.88C194.513 255.408 194.637 255.816 194.885 256.104C195.133 256.392 195.469 256.536 195.893 256.536ZM203.229 258.144C202.621 258.144 202.073 258.016 201.585 257.76C201.097 257.496 200.709 257.12 200.421 256.632C200.141 256.144 200.001 255.56 200.001 254.88C200.001 254.2 200.141 253.616 200.421 253.128C200.709 252.64 201.097 252.268 201.585 252.012C202.073 251.748 202.621 251.616 203.229 251.616C204.053 251.616 204.721 251.824 205.233 252.24C205.753 252.656 206.077 253.212 206.205 253.908L204.453 254.244C204.389 253.932 204.253 253.684 204.045 253.5C203.845 253.316 203.573 253.224 203.229 253.224C202.949 253.224 202.705 253.288 202.497 253.416C202.289 253.544 202.125 253.732 202.005 253.98C201.893 254.22 201.837 254.52 201.837 254.88C201.837 255.232 201.893 255.532 202.005 255.78C202.125 256.028 202.289 256.216 202.497 256.344C202.705 256.472 202.949 256.536 203.229 256.536C203.565 256.536 203.833 256.448 204.033 256.272C204.233 256.096 204.377 255.84 204.465 255.504L206.193 255.9C206.097 256.372 205.921 256.776 205.665 257.112C205.417 257.448 205.089 257.704 204.681 257.88C204.281 258.056 203.797 258.144 203.229 258.144ZM208.978 258.144C208.378 258.144 207.894 257.98 207.526 257.652C207.158 257.316 206.974 256.856 206.974 256.272C206.974 255.72 207.158 255.28 207.526 254.952C207.902 254.624 208.426 254.432 209.098 254.376L211.162 254.184V255.228L209.518 255.408C209.23 255.44 209.018 255.52 208.882 255.648C208.746 255.768 208.678 255.928 208.678 256.128C208.678 256.32 208.746 256.484 208.882 256.62C209.018 256.748 209.21 256.812 209.458 256.812C209.722 256.812 209.946 256.752 210.13 256.632C210.322 256.504 210.466 256.316 210.562 256.068C210.666 255.82 210.718 255.504 210.718 255.12V253.944C210.718 253.68 210.638 253.468 210.478 253.308C210.326 253.14 210.098 253.056 209.794 253.056C209.474 253.056 209.234 253.128 209.074 253.272C208.922 253.416 208.834 253.596 208.81 253.812H207.106C207.13 253.388 207.25 253.012 207.466 252.684C207.69 252.356 207.998 252.096 208.39 251.904C208.79 251.712 209.266 251.616 209.818 251.616C210.666 251.616 211.318 251.836 211.774 252.276C212.23 252.708 212.458 253.284 212.458 254.004V256.596L212.518 258H210.874L210.838 257.184H210.742C210.55 257.512 210.302 257.756 209.998 257.916C209.702 258.068 209.362 258.144 208.978 258.144ZM213.859 258V249.36H215.611V258H213.859ZM216.458 255.588V254.172H219.218V255.588H216.458ZM224.141 258V253.152H219.329V251.76H225.893V258H224.141ZM220.373 258V251.256C220.373 250.616 220.545 250.116 220.889 249.756C221.233 249.396 221.745 249.216 222.425 249.216H223.781V250.788H222.653C222.301 250.788 222.125 250.968 222.125 251.328V258H220.373ZM227.383 258V251.76H229.075V253.068H229.159C229.311 252.596 229.551 252.236 229.879 251.988C230.207 251.74 230.627 251.616 231.139 251.616H231.547V253.452H230.947C230.347 253.452 229.895 253.604 229.591 253.908C229.287 254.212 229.135 254.68 229.135 255.312V258H227.383ZM235.105 258.144C234.305 258.144 233.665 258.016 233.185 257.76C232.705 257.496 232.357 257.116 232.141 256.62L233.737 255.936C233.833 256.16 233.993 256.344 234.217 256.488C234.441 256.632 234.733 256.704 235.093 256.704C235.413 256.704 235.649 256.656 235.801 256.56C235.961 256.456 236.041 256.32 236.041 256.152C236.041 256 235.989 255.88 235.885 255.792C235.789 255.704 235.629 255.648 235.405 255.624L234.385 255.528C233.721 255.464 233.197 255.272 232.813 254.952C232.437 254.632 232.249 254.18 232.249 253.596C232.249 253.22 232.349 252.884 232.549 252.588C232.757 252.292 233.049 252.056 233.425 251.88C233.809 251.704 234.261 251.616 234.781 251.616C235.461 251.616 236.017 251.756 236.449 252.036C236.881 252.316 237.201 252.676 237.409 253.116L235.849 253.74C235.745 253.524 235.601 253.36 235.417 253.248C235.233 253.136 235.017 253.08 234.769 253.08C234.473 253.08 234.261 253.132 234.133 253.236C234.005 253.332 233.941 253.46 233.941 253.62C233.941 253.764 233.989 253.884 234.085 253.98C234.189 254.068 234.337 254.124 234.529 254.148L235.741 254.28C236.397 254.352 236.893 254.556 237.229 254.892C237.565 255.228 237.733 255.668 237.733 256.212C237.733 256.596 237.629 256.936 237.421 257.232C237.213 257.52 236.913 257.744 236.521 257.904C236.129 258.064 235.657 258.144 235.105 258.144ZM241.186 258.024C240.498 258.024 239.986 257.844 239.65 257.484C239.322 257.124 239.158 256.632 239.158 256.008V250.056H240.91V255.864C240.91 256.232 241.102 256.416 241.486 256.416H242.47V258.024H241.186ZM238.114 253.152V251.76H242.35V253.152H238.114Z" fill="white"/>
<path d="M199.923 115.776C199.923 115.285 199.976 114.832 200.083 114.416C200.195 113.995 200.344 113.605 200.531 113.248C200.717 112.891 200.925 112.555 201.155 112.24H201.859C201.485 112.811 201.203 113.381 201.011 113.952C200.819 114.523 200.723 115.131 200.723 115.776C200.723 116.421 200.819 117.029 201.011 117.6C201.203 118.165 201.485 118.736 201.859 119.312H201.155C200.925 118.992 200.717 118.653 200.531 118.296C200.344 117.939 200.195 117.552 200.083 117.136C199.976 116.72 199.923 116.267 199.923 115.776ZM202.612 118V112.24H203.396V117.56L203.108 117.272H206.228V118H202.612ZM207.04 118V113.84H207.792V118H207.04ZM206.952 112.6C206.952 112.467 206.995 112.357 207.08 112.272C207.166 112.187 207.278 112.144 207.416 112.144C207.555 112.144 207.667 112.187 207.752 112.272C207.838 112.357 207.88 112.467 207.88 112.6C207.88 112.728 207.838 112.837 207.752 112.928C207.667 113.013 207.555 113.056 207.416 113.056C207.278 113.056 207.166 113.013 207.08 112.928C206.995 112.837 206.952 112.728 206.952 112.6ZM208.915 118V113.84H209.667V114.336H209.715C209.865 114.144 210.038 113.997 210.235 113.896C210.438 113.795 210.67 113.744 210.931 113.744C211.23 113.744 211.489 113.805 211.707 113.928C211.926 114.051 212.097 114.229 212.219 114.464C212.342 114.699 212.403 114.984 212.403 115.32V118H211.651V115.464C211.651 115.117 211.574 114.859 211.419 114.688C211.27 114.517 211.062 114.432 210.795 114.432C210.571 114.432 210.374 114.483 210.203 114.584C210.038 114.685 209.907 114.845 209.811 115.064C209.715 115.283 209.667 115.568 209.667 115.92V118H208.915ZM215.27 118.096C214.881 118.096 214.534 118.008 214.23 117.832C213.926 117.651 213.689 117.397 213.518 117.072C213.348 116.741 213.262 116.357 213.262 115.92C213.262 115.488 213.35 115.109 213.526 114.784C213.702 114.453 213.942 114.197 214.246 114.016C214.55 113.835 214.894 113.744 215.278 113.744C215.652 113.744 215.98 113.829 216.262 114C216.55 114.165 216.774 114.411 216.934 114.736C217.1 115.056 217.182 115.448 217.182 115.912V116.136H213.75V115.52H216.494L216.39 115.632C216.39 115.408 216.345 115.205 216.254 115.024C216.164 114.843 216.036 114.699 215.87 114.592C215.705 114.485 215.508 114.432 215.278 114.432C215.049 114.432 214.838 114.485 214.646 114.592C214.46 114.699 214.308 114.864 214.19 115.088C214.078 115.307 214.022 115.584 214.022 115.92C214.022 116.224 214.07 116.488 214.166 116.712C214.268 116.931 214.412 117.101 214.598 117.224C214.785 117.347 215.009 117.408 215.27 117.408C215.553 117.408 215.782 117.347 215.958 117.224C216.134 117.101 216.276 116.917 216.382 116.672L217.078 116.912C216.945 117.285 216.729 117.576 216.43 117.784C216.132 117.992 215.745 118.096 215.27 118.096ZM219.279 118.096C218.868 118.096 218.54 117.981 218.295 117.752C218.049 117.523 217.927 117.227 217.927 116.864C217.927 116.496 218.041 116.197 218.271 115.968C218.5 115.739 218.849 115.605 219.319 115.568L220.815 115.44V116.032L219.463 116.16C219.18 116.187 218.975 116.261 218.847 116.384C218.724 116.507 218.663 116.656 218.663 116.832C218.663 117.019 218.724 117.171 218.847 117.288C218.975 117.4 219.161 117.456 219.407 117.456C219.625 117.456 219.831 117.4 220.023 117.288C220.215 117.171 220.369 116.995 220.487 116.76C220.604 116.52 220.663 116.216 220.663 115.848V115.28C220.663 115.013 220.585 114.803 220.431 114.648C220.276 114.493 220.047 114.416 219.743 114.416C219.417 114.416 219.177 114.483 219.023 114.616C218.873 114.744 218.788 114.917 218.767 115.136H218.047C218.057 114.864 218.132 114.624 218.271 114.416C218.409 114.208 218.601 114.045 218.847 113.928C219.097 113.805 219.396 113.744 219.743 113.744C220.271 113.744 220.681 113.883 220.975 114.16C221.268 114.437 221.415 114.805 221.415 115.264V117.112L221.431 118H220.703L220.695 117.416H220.647C220.508 117.645 220.313 117.816 220.063 117.928C219.817 118.04 219.556 118.096 219.279 118.096ZM222.47 118V113.84H223.222V114.512H223.27C223.382 114.293 223.545 114.112 223.758 113.968C223.971 113.819 224.249 113.744 224.59 113.744H224.822V114.512H224.478C224.089 114.512 223.782 114.643 223.558 114.904C223.334 115.16 223.222 115.549 223.222 116.072V118H222.47ZM227.076 115.776C227.076 116.267 227.02 116.72 226.908 117.136C226.802 117.552 226.655 117.939 226.468 118.296C226.282 118.659 226.074 118.997 225.844 119.312H225.14C225.514 118.741 225.796 118.171 225.988 117.6C226.18 117.029 226.276 116.421 226.276 115.776C226.276 115.131 226.18 114.525 225.988 113.96C225.796 113.389 225.514 112.816 225.14 112.24H225.844C226.074 112.555 226.282 112.893 226.468 113.256C226.655 113.613 226.802 114 226.908 114.416C227.02 114.832 227.076 115.285 227.076 115.776Z" fill="#DCDCDC"/>
<path d="M179.735 39.776C179.735 39.2853 179.788 38.832 179.895 38.416C180.007 37.9947 180.156 37.6053 180.343 37.248C180.53 36.8907 180.738 36.5547 180.967 36.24H181.671C181.298 36.8107 181.015 37.3813 180.823 37.952C180.631 38.5227 180.535 39.1307 180.535 39.776C180.535 40.4213 180.631 41.0293 180.823 41.6C181.015 42.1653 181.298 42.736 181.671 43.312H180.967C180.738 42.992 180.53 42.6533 180.343 42.296C180.156 41.9387 180.007 41.552 179.895 41.136C179.788 40.72 179.735 40.2667 179.735 39.776ZM184.976 42.096C184.571 42.096 184.197 42.0267 183.856 41.888C183.52 41.7493 183.229 41.5493 182.984 41.288C182.739 41.0267 182.547 40.7147 182.408 40.352C182.275 39.984 182.208 39.5733 182.208 39.12C182.208 38.6667 182.275 38.2587 182.408 37.896C182.547 37.528 182.741 37.2133 182.992 36.952C183.243 36.6907 183.536 36.4907 183.872 36.352C184.213 36.2133 184.587 36.144 184.992 36.144C185.451 36.144 185.848 36.2187 186.184 36.368C186.52 36.512 186.792 36.712 187 36.968C187.208 37.2187 187.349 37.504 187.424 37.824L186.616 38C186.52 37.6373 186.333 37.36 186.056 37.168C185.784 36.976 185.429 36.88 184.992 36.88C184.347 36.88 183.859 37.08 183.528 37.48C183.203 37.88 183.04 38.4267 183.04 39.12C183.04 39.5787 183.112 39.976 183.256 40.312C183.4 40.648 183.616 40.9067 183.904 41.088C184.197 41.2693 184.56 41.36 184.992 41.36C185.531 41.36 185.949 41.2107 186.248 40.912C186.552 40.608 186.704 40.1813 186.704 39.632V39.488L186.888 39.704H184.912V38.968H187.52V39.624C187.52 40.136 187.408 40.5787 187.184 40.952C186.965 41.32 186.664 41.6027 186.28 41.8C185.896 41.9973 185.461 42.096 184.976 42.096ZM190.318 42.096C189.923 42.096 189.571 42.008 189.262 41.832C188.953 41.6507 188.71 41.3973 188.534 41.072C188.363 40.7413 188.278 40.3573 188.278 39.92C188.278 39.4773 188.363 39.0933 188.534 38.768C188.71 38.4427 188.953 38.192 189.262 38.016C189.571 37.8347 189.923 37.744 190.318 37.744C190.713 37.744 191.062 37.8347 191.366 38.016C191.675 38.192 191.918 38.4427 192.094 38.768C192.27 39.0933 192.358 39.4773 192.358 39.92C192.358 40.3573 192.27 40.7413 192.094 41.072C191.918 41.3973 191.675 41.6507 191.366 41.832C191.062 42.008 190.713 42.096 190.318 42.096ZM190.318 41.408C190.723 41.408 191.033 41.2747 191.246 41.008C191.465 40.7413 191.574 40.3787 191.574 39.92C191.574 39.4613 191.465 39.0987 191.246 38.832C191.033 38.5653 190.723 38.432 190.318 38.432C189.907 38.432 189.595 38.5653 189.382 38.832C189.169 39.0987 189.062 39.4613 189.062 39.92C189.062 40.3787 189.169 40.7413 189.382 41.008C189.595 41.2747 189.907 41.408 190.318 41.408ZM195.115 42.096C194.72 42.096 194.368 42.008 194.059 41.832C193.75 41.6507 193.507 41.3973 193.331 41.072C193.16 40.7413 193.075 40.3573 193.075 39.92C193.075 39.4773 193.16 39.0933 193.331 38.768C193.507 38.4427 193.75 38.192 194.059 38.016C194.368 37.8347 194.72 37.744 195.115 37.744C195.51 37.744 195.859 37.8347 196.163 38.016C196.472 38.192 196.715 38.4427 196.891 38.768C197.067 39.0933 197.155 39.4773 197.155 39.92C197.155 40.3573 197.067 40.7413 196.891 41.072C196.715 41.3973 196.472 41.6507 196.163 41.832C195.859 42.008 195.51 42.096 195.115 42.096ZM195.115 41.408C195.52 41.408 195.83 41.2747 196.043 41.008C196.262 40.7413 196.371 40.3787 196.371 39.92C196.371 39.4613 196.262 39.0987 196.043 38.832C195.83 38.5653 195.52 38.432 195.115 38.432C194.704 38.432 194.392 38.5653 194.179 38.832C193.966 39.0987 193.859 39.4613 193.859 39.92C193.859 40.3787 193.966 40.7413 194.179 41.008C194.392 41.2747 194.704 41.408 195.115 41.408ZM199.912 43.696C199.538 43.696 199.216 43.6427 198.944 43.536C198.677 43.4347 198.461 43.2933 198.296 43.112C198.13 42.9307 198.013 42.7253 197.944 42.496L198.696 42.272C198.765 42.5067 198.896 42.6907 199.088 42.824C199.28 42.9573 199.554 43.024 199.912 43.024C200.301 43.024 200.6 42.9227 200.808 42.72C201.016 42.5173 201.12 42.256 201.12 41.936V41.296H201.072C200.933 41.4933 200.746 41.6507 200.512 41.768C200.282 41.88 200.024 41.936 199.736 41.936C199.373 41.936 199.05 41.848 198.768 41.672C198.485 41.496 198.264 41.2507 198.104 40.936C197.949 40.6213 197.872 40.256 197.872 39.84C197.872 39.424 197.952 39.0587 198.112 38.744C198.277 38.4293 198.501 38.184 198.784 38.008C199.072 37.832 199.397 37.744 199.76 37.744C200.037 37.744 200.285 37.8 200.504 37.912C200.728 38.024 200.917 38.1813 201.072 38.384H201.12V37.84H201.872V41.976C201.872 42.3227 201.792 42.624 201.632 42.88C201.472 43.1413 201.245 43.3413 200.952 43.48C200.658 43.624 200.312 43.696 199.912 43.696ZM199.896 41.248C200.264 41.248 200.562 41.128 200.792 40.888C201.026 40.6427 201.144 40.2933 201.144 39.84C201.144 39.3973 201.026 39.0533 200.792 38.808C200.562 38.5573 200.264 38.432 199.896 38.432C199.522 38.432 199.221 38.5573 198.992 38.808C198.768 39.0533 198.656 39.3973 198.656 39.84C198.656 40.2773 198.768 40.6213 198.992 40.872C199.221 41.1227 199.522 41.248 199.896 41.248ZM202.994 42V36.24H203.746V42H202.994ZM206.677 42.096C206.287 42.096 205.941 42.008 205.637 41.832C205.333 41.6507 205.095 41.3973 204.925 41.072C204.754 40.7413 204.669 40.3573 204.669 39.92C204.669 39.488 204.757 39.1093 204.933 38.784C205.109 38.4533 205.349 38.1973 205.653 38.016C205.957 37.8347 206.301 37.744 206.685 37.744C207.058 37.744 207.386 37.8293 207.669 38C207.957 38.1653 208.181 38.4107 208.341 38.736C208.506 39.056 208.589 39.448 208.589 39.912V40.136H205.157V39.52H207.901L207.797 39.632C207.797 39.408 207.751 39.2053 207.661 39.024C207.57 38.8427 207.442 38.6987 207.277 38.592C207.111 38.4853 206.914 38.432 206.685 38.432C206.455 38.432 206.245 38.4853 206.053 38.592C205.866 38.6987 205.714 38.864 205.597 39.088C205.485 39.3067 205.429 39.584 205.429 39.92C205.429 40.224 205.477 40.488 205.573 40.712C205.674 40.9307 205.818 41.1013 206.005 41.224C206.191 41.3467 206.415 41.408 206.677 41.408C206.959 41.408 207.189 41.3467 207.365 41.224C207.541 41.1013 207.682 40.9173 207.789 40.672L208.485 40.912C208.351 41.2853 208.135 41.576 207.837 41.784C207.538 41.992 207.151 42.096 206.677 42.096ZM211.557 42V36.24H215.469V36.976H212.053L212.341 36.68V39L212.053 38.704H215.157V39.44H212.053L212.341 39.152V42H211.557ZM216.236 42V37.84H216.988V42H216.236ZM216.148 36.6C216.148 36.4667 216.19 36.3573 216.276 36.272C216.361 36.1867 216.473 36.144 216.612 36.144C216.75 36.144 216.862 36.1867 216.948 36.272C217.033 36.3573 217.076 36.4667 217.076 36.6C217.076 36.728 217.033 36.8373 216.948 36.928C216.862 37.0133 216.75 37.056 216.612 37.056C216.473 37.056 216.361 37.0133 216.276 36.928C216.19 36.8373 216.148 36.728 216.148 36.6ZM218.111 42V37.84H218.863V38.512H218.911C219.023 38.2933 219.185 38.112 219.399 37.968C219.612 37.8187 219.889 37.744 220.231 37.744H220.463V38.512H220.119C219.729 38.512 219.423 38.6427 219.199 38.904C218.975 39.16 218.863 39.5493 218.863 40.072V42H218.111ZM222.833 42.096C222.444 42.096 222.097 42.008 221.793 41.832C221.489 41.6507 221.252 41.3973 221.081 41.072C220.91 40.7413 220.825 40.3573 220.825 39.92C220.825 39.488 220.913 39.1093 221.089 38.784C221.265 38.4533 221.505 38.1973 221.809 38.016C222.113 37.8347 222.457 37.744 222.841 37.744C223.214 37.744 223.542 37.8293 223.825 38C224.113 38.1653 224.337 38.4107 224.497 38.736C224.662 39.056 224.745 39.448 224.745 39.912V40.136H221.313V39.52H224.057L223.953 39.632C223.953 39.408 223.908 39.2053 223.817 39.024C223.726 38.8427 223.598 38.6987 223.433 38.592C223.268 38.4853 223.07 38.432 222.841 38.432C222.612 38.432 222.401 38.4853 222.209 38.592C222.022 38.6987 221.87 38.864 221.753 39.088C221.641 39.3067 221.585 39.584 221.585 39.92C221.585 40.224 221.633 40.488 221.729 40.712C221.83 40.9307 221.974 41.1013 222.161 41.224C222.348 41.3467 222.572 41.408 222.833 41.408C223.116 41.408 223.345 41.3467 223.521 41.224C223.697 41.1013 223.838 40.9173 223.945 40.672L224.641 40.912C224.508 41.2853 224.292 41.576 223.993 41.784C223.694 41.992 223.308 42.096 222.833 42.096ZM227.177 42.096C226.665 42.096 226.26 41.9867 225.961 41.768C225.668 41.5493 225.46 41.2453 225.337 40.856L226.081 40.64C226.156 40.8853 226.276 41.0747 226.441 41.208C226.612 41.3413 226.857 41.408 227.177 41.408C227.513 41.408 227.753 41.3573 227.897 41.256C228.041 41.1493 228.113 41.0133 228.113 40.848C228.113 40.6987 228.062 40.5733 227.961 40.472C227.865 40.3653 227.726 40.3013 227.545 40.28L226.689 40.168C226.3 40.1147 226.001 39.992 225.793 39.8C225.585 39.6027 225.481 39.328 225.481 38.976C225.481 38.752 225.54 38.5467 225.657 38.36C225.774 38.1733 225.948 38.024 226.177 37.912C226.406 37.8 226.692 37.744 227.033 37.744C227.481 37.744 227.849 37.8427 228.137 38.04C228.425 38.2373 228.62 38.504 228.721 38.84L228.001 39.072C227.921 38.8693 227.806 38.712 227.657 38.6C227.508 38.488 227.3 38.432 227.033 38.432C226.74 38.432 226.529 38.488 226.401 38.6C226.273 38.7067 226.209 38.832 226.209 38.976C226.209 39.1253 226.26 39.2427 226.361 39.328C226.462 39.4133 226.604 39.4693 226.785 39.496L227.633 39.616C228.044 39.6693 228.348 39.8053 228.545 40.024C228.742 40.2427 228.841 40.5173 228.841 40.848C228.841 41.088 228.777 41.304 228.649 41.496C228.521 41.6827 228.332 41.8293 228.081 41.936C227.836 42.0427 227.534 42.096 227.177 42.096ZM230.97 42.016C230.613 42.016 230.341 41.9253 230.154 41.744C229.973 41.5573 229.882 41.304 229.882 40.984V36.704H230.634V40.912C230.634 41.1893 230.781 41.328 231.074 41.328H231.722V42.016H230.97ZM229.106 38.496V37.84H231.642V38.496H229.106ZM234.201 42.096C233.806 42.096 233.454 42.008 233.145 41.832C232.835 41.6507 232.593 41.3973 232.417 41.072C232.246 40.7413 232.161 40.3573 232.161 39.92C232.161 39.4773 232.246 39.0933 232.417 38.768C232.593 38.4427 232.835 38.192 233.145 38.016C233.454 37.8347 233.806 37.744 234.201 37.744C234.595 37.744 234.945 37.8347 235.249 38.016C235.558 38.192 235.801 38.4427 235.977 38.768C236.153 39.0933 236.241 39.4773 236.241 39.92C236.241 40.3573 236.153 40.7413 235.977 41.072C235.801 41.3973 235.558 41.6507 235.249 41.832C234.945 42.008 234.595 42.096 234.201 42.096ZM234.201 41.408C234.606 41.408 234.915 41.2747 235.129 41.008C235.347 40.7413 235.457 40.3787 235.457 39.92C235.457 39.4613 235.347 39.0987 235.129 38.832C234.915 38.5653 234.606 38.432 234.201 38.432C233.79 38.432 233.478 38.5653 233.265 38.832C233.051 39.0987 232.945 39.4613 232.945 39.92C232.945 40.3787 233.051 40.7413 233.265 41.008C233.478 41.2747 233.79 41.408 234.201 41.408ZM237.158 42V37.84H237.91V38.512H237.958C238.07 38.2933 238.232 38.112 238.446 37.968C238.659 37.8187 238.936 37.744 239.278 37.744H239.51V38.512H239.166C238.776 38.512 238.47 38.6427 238.246 38.904C238.022 39.16 237.91 39.5493 237.91 40.072V42H237.158ZM241.88 42.096C241.49 42.096 241.144 42.008 240.84 41.832C240.536 41.6507 240.298 41.3973 240.128 41.072C239.957 40.7413 239.872 40.3573 239.872 39.92C239.872 39.488 239.96 39.1093 240.136 38.784C240.312 38.4533 240.552 38.1973 240.856 38.016C241.16 37.8347 241.504 37.744 241.888 37.744C242.261 37.744 242.589 37.8293 242.872 38C243.16 38.1653 243.384 38.4107 243.544 38.736C243.709 39.056 243.792 39.448 243.792 39.912V40.136H240.36V39.52H243.104L243 39.632C243 39.408 242.954 39.2053 242.864 39.024C242.773 38.8427 242.645 38.6987 242.48 38.592C242.314 38.4853 242.117 38.432 241.888 38.432C241.658 38.432 241.448 38.4853 241.256 38.592C241.069 38.6987 240.917 38.864 240.8 39.088C240.688 39.3067 240.632 39.584 240.632 39.92C240.632 40.224 240.68 40.488 240.776 40.712C240.877 40.9307 241.021 41.1013 241.208 41.224C241.394 41.3467 241.618 41.408 241.88 41.408C242.162 41.408 242.392 41.3467 242.568 41.224C242.744 41.1013 242.885 40.9173 242.992 40.672L243.688 40.912C243.554 41.2853 243.338 41.576 243.04 41.784C242.741 41.992 242.354 42.096 241.88 42.096ZM246.264 39.776C246.264 40.2667 246.208 40.72 246.096 41.136C245.989 41.552 245.843 41.9387 245.656 42.296C245.469 42.6587 245.261 42.9973 245.032 43.312H244.328C244.701 42.7413 244.984 42.1707 245.176 41.6C245.368 41.0293 245.464 40.4213 245.464 39.776C245.464 39.1307 245.368 38.5253 245.176 37.96C244.984 37.3893 244.701 36.816 244.328 36.24H245.032C245.261 36.5547 245.469 36.8933 245.656 37.256C245.843 37.6133 245.989 38 246.096 38.416C246.208 38.832 246.264 39.2853 246.264 39.776Z" fill="#DCDCDC"/>
<path d="M187.934 191.776C187.934 191.285 187.988 190.832 188.094 190.416C188.206 189.995 188.356 189.605 188.542 189.248C188.729 188.891 188.937 188.555 189.166 188.24H189.87C189.497 188.811 189.214 189.381 189.022 189.952C188.83 190.523 188.734 191.131 188.734 191.776C188.734 192.421 188.83 193.029 189.022 193.6C189.214 194.165 189.497 194.736 189.87 195.312H189.166C188.937 194.992 188.729 194.653 188.542 194.296C188.356 193.939 188.206 193.552 188.094 193.136C187.988 192.72 187.934 192.267 187.934 191.776ZM190.063 194L192.279 188.24H193.215L195.431 194H194.551L192.775 189.184H192.679L190.911 194H190.063ZM191.111 192.56V191.824H194.311V192.56H191.111ZM198.133 189.744C198.501 189.744 198.826 189.835 199.109 190.016C199.392 190.197 199.613 190.451 199.773 190.776C199.938 191.101 200.021 191.483 200.021 191.92C200.021 192.357 199.938 192.739 199.773 193.064C199.613 193.389 199.392 193.643 199.109 193.824C198.832 194.005 198.514 194.096 198.157 194.096C197.848 194.096 197.584 194.037 197.365 193.92C197.152 193.803 196.97 193.648 196.821 193.456H196.773V195.6H196.021V189.84H196.773V190.384H196.821C196.96 190.192 197.138 190.037 197.357 189.92C197.581 189.803 197.84 189.744 198.133 189.744ZM197.997 190.432C197.608 190.432 197.301 190.563 197.077 190.824C196.858 191.085 196.749 191.451 196.749 191.92C196.749 192.395 196.858 192.763 197.077 193.024C197.301 193.28 197.608 193.408 197.997 193.408C198.376 193.408 198.677 193.277 198.901 193.016C199.125 192.749 199.237 192.384 199.237 191.92C199.237 191.456 199.125 191.093 198.901 190.832C198.677 190.565 198.376 190.432 197.997 190.432ZM203.055 189.744C203.423 189.744 203.748 189.835 204.031 190.016C204.313 190.197 204.535 190.451 204.695 190.776C204.86 191.101 204.943 191.483 204.943 191.92C204.943 192.357 204.86 192.739 204.695 193.064C204.535 193.389 204.313 193.643 204.031 193.824C203.753 194.005 203.436 194.096 203.079 194.096C202.769 194.096 202.505 194.037 202.287 193.92C202.073 193.803 201.892 193.648 201.743 193.456H201.695V195.6H200.943V189.84H201.695V190.384H201.743C201.881 190.192 202.06 190.037 202.279 189.92C202.503 189.803 202.761 189.744 203.055 189.744ZM202.919 190.432C202.529 190.432 202.223 190.563 201.999 190.824C201.78 191.085 201.671 191.451 201.671 191.92C201.671 192.395 201.78 192.763 201.999 193.024C202.223 193.28 202.529 193.408 202.919 193.408C203.297 193.408 203.599 193.277 203.823 193.016C204.047 192.749 204.159 192.384 204.159 191.92C204.159 191.456 204.047 191.093 203.823 190.832C203.599 190.565 203.297 190.432 202.919 190.432ZM205.865 194V188.24H206.617V194H205.865ZM209.548 194.096C209.158 194.096 208.812 194.008 208.508 193.832C208.204 193.651 207.966 193.397 207.796 193.072C207.625 192.741 207.54 192.357 207.54 191.92C207.54 191.488 207.628 191.109 207.804 190.784C207.98 190.453 208.22 190.197 208.524 190.016C208.828 189.835 209.172 189.744 209.556 189.744C209.929 189.744 210.257 189.829 210.54 190C210.828 190.165 211.052 190.411 211.212 190.736C211.377 191.056 211.46 191.448 211.46 191.912V192.136H208.028V191.52H210.772L210.668 191.632C210.668 191.408 210.622 191.205 210.532 191.024C210.441 190.843 210.313 190.699 210.148 190.592C209.982 190.485 209.785 190.432 209.556 190.432C209.326 190.432 209.116 190.485 208.924 190.592C208.737 190.699 208.585 190.864 208.468 191.088C208.356 191.307 208.3 191.584 208.3 191.92C208.3 192.224 208.348 192.488 208.444 192.712C208.545 192.931 208.689 193.101 208.876 193.224C209.062 193.347 209.286 193.408 209.548 193.408C209.83 193.408 210.06 193.347 210.236 193.224C210.412 193.101 210.553 192.917 210.66 192.672L211.356 192.912C211.222 193.285 211.006 193.576 210.708 193.784C210.409 193.992 210.022 194.096 209.548 194.096ZM214.428 194V188.24H215.524L218.42 193.168H218.492V188.24H219.244V194H218.076L215.252 189.144H215.18V194H214.428ZM222.236 194.096C221.841 194.096 221.489 194.008 221.18 193.832C220.871 193.651 220.628 193.397 220.452 193.072C220.281 192.741 220.196 192.357 220.196 191.92C220.196 191.477 220.281 191.093 220.452 190.768C220.628 190.443 220.871 190.192 221.18 190.016C221.489 189.835 221.841 189.744 222.236 189.744C222.631 189.744 222.98 189.835 223.284 190.016C223.593 190.192 223.836 190.443 224.012 190.768C224.188 191.093 224.276 191.477 224.276 191.92C224.276 192.357 224.188 192.741 224.012 193.072C223.836 193.397 223.593 193.651 223.284 193.832C222.98 194.008 222.631 194.096 222.236 194.096ZM222.236 193.408C222.641 193.408 222.951 193.275 223.164 193.008C223.383 192.741 223.492 192.379 223.492 191.92C223.492 191.461 223.383 191.099 223.164 190.832C222.951 190.565 222.641 190.432 222.236 190.432C221.825 190.432 221.513 190.565 221.3 190.832C221.087 191.099 220.98 191.461 220.98 191.92C220.98 192.379 221.087 192.741 221.3 193.008C221.513 193.275 221.825 193.408 222.236 193.408ZM226.537 194.016C226.179 194.016 225.907 193.925 225.721 193.744C225.539 193.557 225.449 193.304 225.449 192.984V188.704H226.201V192.912C226.201 193.189 226.347 193.328 226.641 193.328H227.289V194.016H226.537ZM224.673 190.496V189.84H227.209V190.496H224.673ZM229.735 194.096C229.346 194.096 228.999 194.008 228.695 193.832C228.391 193.651 228.154 193.397 227.983 193.072C227.813 192.741 227.727 192.357 227.727 191.92C227.727 191.488 227.815 191.109 227.991 190.784C228.167 190.453 228.407 190.197 228.711 190.016C229.015 189.835 229.359 189.744 229.743 189.744C230.117 189.744 230.445 189.829 230.727 190C231.015 190.165 231.239 190.411 231.399 190.736C231.565 191.056 231.647 191.448 231.647 191.912V192.136H228.215V191.52H230.959L230.855 191.632C230.855 191.408 230.81 191.205 230.719 191.024C230.629 190.843 230.501 190.699 230.335 190.592C230.17 190.485 229.973 190.432 229.743 190.432C229.514 190.432 229.303 190.485 229.111 190.592C228.925 190.699 228.773 190.864 228.655 191.088C228.543 191.307 228.487 191.584 228.487 191.92C228.487 192.224 228.535 192.488 228.631 192.712C228.733 192.931 228.877 193.101 229.063 193.224C229.25 193.347 229.474 193.408 229.735 193.408C230.018 193.408 230.247 193.347 230.423 193.224C230.599 193.101 230.741 192.917 230.847 192.672L231.543 192.912C231.41 193.285 231.194 193.576 230.895 193.784C230.597 193.992 230.21 194.096 229.735 194.096ZM234.079 194.096C233.567 194.096 233.162 193.987 232.863 193.768C232.57 193.549 232.362 193.245 232.239 192.856L232.983 192.64C233.058 192.885 233.178 193.075 233.343 193.208C233.514 193.341 233.759 193.408 234.079 193.408C234.415 193.408 234.655 193.357 234.799 193.256C234.943 193.149 235.015 193.013 235.015 192.848C235.015 192.699 234.965 192.573 234.863 192.472C234.767 192.365 234.629 192.301 234.447 192.28L233.591 192.168C233.202 192.115 232.903 191.992 232.695 191.8C232.487 191.603 232.383 191.328 232.383 190.976C232.383 190.752 232.442 190.547 232.559 190.36C232.677 190.173 232.85 190.024 233.079 189.912C233.309 189.8 233.594 189.744 233.935 189.744C234.383 189.744 234.751 189.843 235.039 190.04C235.327 190.237 235.522 190.504 235.623 190.84L234.903 191.072C234.823 190.869 234.709 190.712 234.559 190.6C234.41 190.488 234.202 190.432 233.935 190.432C233.642 190.432 233.431 190.488 233.303 190.6C233.175 190.707 233.111 190.832 233.111 190.976C233.111 191.125 233.162 191.243 233.263 191.328C233.365 191.413 233.506 191.469 233.687 191.496L234.535 191.616C234.946 191.669 235.25 191.805 235.447 192.024C235.645 192.243 235.743 192.517 235.743 192.848C235.743 193.088 235.679 193.304 235.551 193.496C235.423 193.683 235.234 193.829 234.983 193.936C234.738 194.043 234.437 194.096 234.079 194.096ZM238.065 191.776C238.065 192.267 238.009 192.72 237.897 193.136C237.79 193.552 237.643 193.939 237.457 194.296C237.27 194.659 237.062 194.997 236.833 195.312H236.129C236.502 194.741 236.785 194.171 236.977 193.6C237.169 193.029 237.265 192.421 237.265 191.776C237.265 191.131 237.169 190.525 236.977 189.96C236.785 189.389 236.502 188.816 236.129 188.24H236.833C237.062 188.555 237.27 188.893 237.457 189.256C237.643 189.613 237.79 190 237.897 190.416C238.009 190.832 238.065 191.285 238.065 191.776Z" fill="#DCDCDC"/>
<path d="M195.657 267.776C195.657 267.285 195.71 266.832 195.817 266.416C195.929 265.995 196.078 265.605 196.265 265.248C196.452 264.891 196.66 264.555 196.889 264.24H197.593C197.22 264.811 196.937 265.381 196.745 265.952C196.553 266.523 196.457 267.131 196.457 267.776C196.457 268.421 196.553 269.029 196.745 269.6C196.937 270.165 197.22 270.736 197.593 271.312H196.889C196.66 270.992 196.452 270.653 196.265 270.296C196.078 269.939 195.929 269.552 195.817 269.136C195.71 268.72 195.657 268.267 195.657 267.776ZM198.346 270V264.24H199.698L201.314 269.056H201.402L203.01 264.24H204.354V270H203.57V265.144H203.474L201.834 270H200.842L199.194 265.144H199.098V270H198.346ZM206.669 270.096C206.259 270.096 205.931 269.981 205.685 269.752C205.44 269.523 205.317 269.227 205.317 268.864C205.317 268.496 205.432 268.197 205.661 267.968C205.891 267.739 206.24 267.605 206.709 267.568L208.205 267.44V268.032L206.853 268.16C206.571 268.187 206.365 268.261 206.237 268.384C206.115 268.507 206.053 268.656 206.053 268.832C206.053 269.019 206.115 269.171 206.237 269.288C206.365 269.4 206.552 269.456 206.797 269.456C207.016 269.456 207.221 269.4 207.413 269.288C207.605 269.171 207.76 268.995 207.877 268.76C207.995 268.52 208.053 268.216 208.053 267.848V267.28C208.053 267.013 207.976 266.803 207.821 266.648C207.667 266.493 207.437 266.416 207.133 266.416C206.808 266.416 206.568 266.483 206.413 266.616C206.264 266.744 206.179 266.917 206.157 267.136H205.437C205.448 266.864 205.523 266.624 205.661 266.416C205.8 266.208 205.992 266.045 206.237 265.928C206.488 265.805 206.787 265.744 207.133 265.744C207.661 265.744 208.072 265.883 208.365 266.16C208.659 266.437 208.805 266.805 208.805 267.264V269.112L208.821 270H208.093L208.085 269.416H208.037C207.899 269.645 207.704 269.816 207.453 269.928C207.208 270.04 206.947 270.096 206.669 270.096ZM209.861 270V265.84H210.613V270H209.861ZM209.773 264.6C209.773 264.467 209.815 264.357 209.901 264.272C209.986 264.187 210.098 264.144 210.237 264.144C210.375 264.144 210.487 264.187 210.573 264.272C210.658 264.357 210.701 264.467 210.701 264.6C210.701 264.728 210.658 264.837 210.573 264.928C210.487 265.013 210.375 265.056 210.237 265.056C210.098 265.056 209.986 265.013 209.901 264.928C209.815 264.837 209.773 264.728 209.773 264.6ZM211.736 270V264.24H212.488V270H211.736ZM213.539 269.592C213.539 269.453 213.587 269.336 213.683 269.24C213.779 269.144 213.901 269.096 214.051 269.096C214.205 269.096 214.328 269.144 214.419 269.24C214.515 269.336 214.563 269.453 214.563 269.592C214.563 269.736 214.515 269.856 214.419 269.952C214.328 270.048 214.205 270.096 214.051 270.096C213.901 270.096 213.779 270.048 213.683 269.952C213.587 269.856 213.539 269.736 213.539 269.592ZM216.771 270.096C216.36 270.096 216.032 269.981 215.787 269.752C215.541 269.523 215.419 269.227 215.419 268.864C215.419 268.496 215.533 268.197 215.763 267.968C215.992 267.739 216.341 267.605 216.811 267.568L218.307 267.44V268.032L216.955 268.16C216.672 268.187 216.467 268.261 216.339 268.384C216.216 268.507 216.155 268.656 216.155 268.832C216.155 269.019 216.216 269.171 216.339 269.288C216.467 269.4 216.653 269.456 216.899 269.456C217.117 269.456 217.323 269.4 217.515 269.288C217.707 269.171 217.861 268.995 217.979 268.76C218.096 268.52 218.155 268.216 218.155 267.848V267.28C218.155 267.013 218.077 266.803 217.923 266.648C217.768 266.493 217.539 266.416 217.235 266.416C216.909 266.416 216.669 266.483 216.515 266.616C216.365 266.744 216.28 266.917 216.259 267.136H215.539C215.549 266.864 215.624 266.624 215.763 266.416C215.901 266.208 216.093 266.045 216.339 265.928C216.589 265.805 216.888 265.744 217.235 265.744C217.763 265.744 218.173 265.883 218.467 266.16C218.76 266.437 218.907 266.805 218.907 267.264V269.112L218.923 270H218.195L218.187 269.416H218.139C218 269.645 217.805 269.816 217.555 269.928C217.309 270.04 217.048 270.096 216.771 270.096ZM222.074 265.744C222.442 265.744 222.768 265.835 223.05 266.016C223.333 266.197 223.554 266.451 223.714 266.776C223.88 267.101 223.962 267.483 223.962 267.92C223.962 268.357 223.88 268.739 223.714 269.064C223.554 269.389 223.333 269.643 223.05 269.824C222.773 270.005 222.456 270.096 222.098 270.096C221.789 270.096 221.525 270.037 221.306 269.92C221.093 269.803 220.912 269.648 220.762 269.456H220.714V271.6H219.962V265.84H220.714V266.384H220.762C220.901 266.192 221.08 266.037 221.298 265.92C221.522 265.803 221.781 265.744 222.074 265.744ZM221.938 266.432C221.549 266.432 221.242 266.563 221.018 266.824C220.8 267.085 220.69 267.451 220.69 267.92C220.69 268.395 220.8 268.763 221.018 269.024C221.242 269.28 221.549 269.408 221.938 269.408C222.317 269.408 222.618 269.277 222.842 269.016C223.066 268.749 223.178 268.384 223.178 267.92C223.178 267.456 223.066 267.093 222.842 266.832C222.618 266.565 222.317 266.432 221.938 266.432ZM226.996 265.744C227.364 265.744 227.69 265.835 227.972 266.016C228.255 266.197 228.476 266.451 228.636 266.776C228.802 267.101 228.884 267.483 228.884 267.92C228.884 268.357 228.802 268.739 228.636 269.064C228.476 269.389 228.255 269.643 227.972 269.824C227.695 270.005 227.378 270.096 227.02 270.096C226.711 270.096 226.447 270.037 226.228 269.92C226.015 269.803 225.834 269.648 225.684 269.456H225.636V271.6H224.884V265.84H225.636V266.384H225.684C225.823 266.192 226.002 266.037 226.22 265.92C226.444 265.803 226.703 265.744 226.996 265.744ZM226.86 266.432C226.471 266.432 226.164 266.563 225.94 266.824C225.722 267.085 225.612 267.451 225.612 267.92C225.612 268.395 225.722 268.763 225.94 269.024C226.164 269.28 226.471 269.408 226.86 269.408C227.239 269.408 227.54 269.277 227.764 269.016C227.988 268.749 228.1 268.384 228.1 267.92C228.1 267.456 227.988 267.093 227.764 266.832C227.54 266.565 227.239 266.432 226.86 266.432ZM231.342 267.776C231.342 268.267 231.286 268.72 231.174 269.136C231.067 269.552 230.921 269.939 230.734 270.296C230.547 270.659 230.339 270.997 230.11 271.312H229.406C229.779 270.741 230.062 270.171 230.254 269.6C230.446 269.029 230.542 268.421 230.542 267.776C230.542 267.131 230.446 266.525 230.254 265.96C230.062 265.389 229.779 264.816 229.406 264.24H230.11C230.339 264.555 230.547 264.893 230.734 265.256C230.921 265.613 231.067 266 231.174 266.416C231.286 266.832 231.342 267.285 231.342 267.776Z" fill="#DCDCDC"/>
</svg>
