<svg width="722" height="355" viewBox="0 0 722 355" fill="none" xmlns="http://www.w3.org/2000/svg">
<path d="M145 225.5C149.694 225.5 153.5 229.306 153.5 234V282.024C153.336 282.008 153.169 282 153 282C152.831 282 152.664 282.008 152.5 282.024V234C152.5 229.858 149.142 226.5 145 226.5H9C4.85786 226.5 1.5 229.858 1.5 234V346C1.5 350.142 4.85786 353.5 9 353.5H145C149.142 353.5 152.5 350.142 152.5 346V297.975C152.664 297.991 152.831 298 153 298C153.169 298 153.336 297.991 153.5 297.975V346C153.5 350.694 149.694 354.5 145 354.5H9C4.30558 354.5 0.5 350.694 0.5 346V234C0.5 229.306 4.30558 225.5 9 225.5H145Z" fill="#969696" fill-opacity="0.9"/>
<rect x="9" y="234" width="136" height="32" rx="6" fill="#1E1E1E"/>
<path d="M49.5207 254L52.7487 245.36H54.5487L57.7647 254H56.1087L53.6727 247.28H53.5527L51.1407 254H49.5207ZM51.0567 252.128V250.736H56.1207V252.128H51.0567ZM62.0644 247.616C62.5764 247.616 63.0364 247.748 63.4444 248.012C63.8604 248.276 64.1884 248.652 64.4284 249.14C64.6764 249.628 64.8004 250.208 64.8004 250.88C64.8004 251.552 64.6764 252.132 64.4284 252.62C64.1884 253.108 63.8604 253.484 63.4444 253.748C63.0364 254.012 62.5764 254.144 62.0644 254.144C61.6084 254.144 61.2284 254.052 60.9244 253.868C60.6204 253.684 60.3604 253.44 60.1444 253.136H60.0724V256.4H58.6324V247.76H60.0364V248.624H60.1084C60.3244 248.296 60.5924 248.048 60.9124 247.88C61.2324 247.704 61.6164 247.616 62.0644 247.616ZM61.6804 248.936C61.1684 248.936 60.7644 249.108 60.4684 249.452C60.1724 249.796 60.0244 250.272 60.0244 250.88C60.0244 251.488 60.1724 251.964 60.4684 252.308C60.7644 252.652 61.1684 252.824 61.6804 252.824C62.1604 252.824 62.5524 252.652 62.8564 252.308C63.1604 251.956 63.3124 251.48 63.3124 250.88C63.3124 250.28 63.1604 249.808 62.8564 249.464C62.5524 249.112 62.1604 248.936 61.6804 248.936ZM69.5644 247.616C70.0764 247.616 70.5364 247.748 70.9444 248.012C71.3604 248.276 71.6884 248.652 71.9284 249.14C72.1764 249.628 72.3004 250.208 72.3004 250.88C72.3004 251.552 72.1764 252.132 71.9284 252.62C71.6884 253.108 71.3604 253.484 70.9444 253.748C70.5364 254.012 70.0764 254.144 69.5644 254.144C69.1084 254.144 68.7284 254.052 68.4244 253.868C68.1204 253.684 67.8604 253.44 67.6444 253.136H67.5724V256.4H66.1324V247.76H67.5364V248.624H67.6084C67.8244 248.296 68.0924 248.048 68.4124 247.88C68.7324 247.704 69.1164 247.616 69.5644 247.616ZM69.1804 248.936C68.6684 248.936 68.2644 249.108 67.9684 249.452C67.6724 249.796 67.5244 250.272 67.5244 250.88C67.5244 251.488 67.6724 251.964 67.9684 252.308C68.2644 252.652 68.6684 252.824 69.1804 252.824C69.6604 252.824 70.0524 252.652 70.3564 252.308C70.6604 251.956 70.8124 251.48 70.8124 250.88C70.8124 250.28 70.6604 249.808 70.3564 249.464C70.0524 249.112 69.6604 248.936 69.1804 248.936ZM79.5004 254.144C78.9004 254.144 78.3604 254.012 77.8804 253.748C77.4084 253.484 77.0324 253.108 76.7524 252.62C76.4724 252.132 76.3324 251.552 76.3324 250.88C76.3324 250.208 76.4724 249.628 76.7524 249.14C77.0324 248.652 77.4084 248.276 77.8804 248.012C78.3604 247.748 78.9004 247.616 79.5004 247.616C80.2764 247.616 80.9164 247.82 81.4204 248.228C81.9324 248.628 82.2524 249.168 82.3804 249.848L80.9524 250.16C80.8724 249.816 80.7084 249.532 80.4604 249.308C80.2204 249.076 79.9004 248.96 79.5004 248.96C79.1564 248.96 78.8604 249.04 78.6124 249.2C78.3644 249.352 78.1724 249.572 78.0364 249.86C77.9084 250.14 77.8444 250.48 77.8444 250.88C77.8444 251.272 77.9084 251.612 78.0364 251.9C78.1724 252.188 78.3644 252.412 78.6124 252.572C78.8604 252.724 79.1564 252.8 79.5004 252.8C79.8844 252.8 80.1964 252.7 80.4364 252.5C80.6844 252.292 80.8604 251.984 80.9644 251.576L82.3684 252.008C82.2804 252.416 82.1124 252.78 81.8644 253.1C81.6244 253.42 81.3084 253.676 80.9164 253.868C80.5244 254.052 80.0524 254.144 79.5004 254.144ZM86.3788 254.144C85.7788 254.144 85.2428 254.012 84.7708 253.748C84.2988 253.484 83.9228 253.108 83.6428 252.62C83.3708 252.132 83.2348 251.552 83.2348 250.88C83.2348 250.208 83.3708 249.628 83.6428 249.14C83.9228 248.652 84.2988 248.276 84.7708 248.012C85.2428 247.748 85.7788 247.616 86.3788 247.616C86.9788 247.616 87.5148 247.748 87.9868 248.012C88.4588 248.276 88.8308 248.652 89.1028 249.14C89.3828 249.628 89.5228 250.208 89.5228 250.88C89.5228 251.552 89.3828 252.132 89.1028 252.62C88.8308 253.108 88.4588 253.484 87.9868 253.748C87.5148 254.012 86.9788 254.144 86.3788 254.144ZM86.3788 252.8C86.8988 252.8 87.2988 252.628 87.5788 252.284C87.8668 251.94 88.0108 251.472 88.0108 250.88C88.0108 250.288 87.8668 249.82 87.5788 249.476C87.2988 249.132 86.8988 248.96 86.3788 248.96C85.8588 248.96 85.4548 249.132 85.1668 249.476C84.8868 249.82 84.7468 250.288 84.7468 250.88C84.7468 251.472 84.8868 251.94 85.1668 252.284C85.4548 252.628 85.8588 252.8 86.3788 252.8ZM93.295 254.144C92.791 254.144 92.331 254.012 91.915 253.748C91.499 253.484 91.167 253.108 90.919 252.62C90.679 252.132 90.559 251.552 90.559 250.88C90.559 250.208 90.679 249.628 90.919 249.14C91.167 248.652 91.499 248.276 91.915 248.012C92.331 247.748 92.791 247.616 93.295 247.616C93.751 247.616 94.131 247.708 94.435 247.892C94.739 248.076 94.999 248.32 95.215 248.624H95.287V245.36H96.727V254H95.323V253.136H95.251C95.035 253.464 94.767 253.716 94.447 253.892C94.127 254.06 93.743 254.144 93.295 254.144ZM93.679 252.824C94.191 252.824 94.595 252.652 94.891 252.308C95.187 251.964 95.335 251.488 95.335 250.88C95.335 250.264 95.187 249.788 94.891 249.452C94.595 249.108 94.191 248.936 93.679 248.936C93.199 248.936 92.807 249.112 92.503 249.464C92.199 249.808 92.047 250.28 92.047 250.88C92.047 251.48 92.199 251.956 92.503 252.308C92.807 252.652 93.199 252.824 93.679 252.824ZM101.119 254.144C100.527 254.144 99.999 254.012 99.535 253.748C99.071 253.484 98.707 253.108 98.443 252.62C98.187 252.124 98.059 251.544 98.059 250.88C98.059 250.256 98.191 249.7 98.455 249.212C98.719 248.716 99.083 248.328 99.547 248.048C100.011 247.76 100.539 247.616 101.131 247.616C101.715 247.616 102.223 247.744 102.655 248C103.095 248.256 103.435 248.64 103.675 249.152C103.915 249.664 104.035 250.304 104.035 251.072V251.36H98.899V250.304H102.799L102.523 250.52C102.523 250.224 102.471 249.956 102.367 249.716C102.263 249.476 102.107 249.284 101.899 249.14C101.691 248.988 101.431 248.912 101.119 248.912C100.815 248.912 100.543 248.984 100.303 249.128C100.063 249.272 99.875 249.488 99.739 249.776C99.603 250.064 99.535 250.432 99.535 250.88C99.535 251.312 99.599 251.676 99.727 251.972C99.855 252.26 100.039 252.48 100.279 252.632C100.519 252.776 100.799 252.848 101.119 252.848C101.487 252.848 101.771 252.772 101.971 252.62C102.179 252.46 102.351 252.244 102.487 251.972L103.819 252.488C103.619 252.976 103.311 253.376 102.895 253.688C102.487 253.992 101.895 254.144 101.119 254.144Z" fill="white"/>
<rect x="9" y="274" width="136" height="32" rx="6" fill="#1E1E1E"/>
<path d="M50.3456 294.144C49.3776 294.144 48.5976 293.956 48.0056 293.58C47.4136 293.196 46.9776 292.636 46.6976 291.9L48.2576 291.36C48.4096 291.792 48.6616 292.128 49.0136 292.368C49.3656 292.608 49.8096 292.728 50.3456 292.728C50.9776 292.728 51.4456 292.624 51.7496 292.416C52.0536 292.208 52.2056 291.936 52.2056 291.6C52.2056 291.256 52.1056 290.996 51.9056 290.82C51.7056 290.636 51.4176 290.524 51.0416 290.484L49.3376 290.304C48.5936 290.224 47.9936 289.972 47.5376 289.548C47.0816 289.124 46.8536 288.54 46.8536 287.796C46.8536 287.324 46.9856 286.892 47.2496 286.5C47.5136 286.108 47.8816 285.796 48.3536 285.564C48.8336 285.332 49.3856 285.216 50.0096 285.216C50.8976 285.216 51.6256 285.412 52.1936 285.804C52.7696 286.188 53.1696 286.708 53.3936 287.364L51.9176 287.88C51.7656 287.48 51.5296 287.172 51.2096 286.956C50.8896 286.74 50.4896 286.632 50.0096 286.632C49.4896 286.632 49.0936 286.74 48.8216 286.956C48.5496 287.172 48.4136 287.44 48.4136 287.76C48.4136 288.032 48.5056 288.264 48.6896 288.456C48.8736 288.64 49.1696 288.752 49.5776 288.792L51.1136 288.96C51.9696 289.056 52.6216 289.328 53.0696 289.776C53.5256 290.224 53.7536 290.832 53.7536 291.6C53.7536 292.12 53.6176 292.572 53.3456 292.956C53.0816 293.332 52.6936 293.624 52.1816 293.832C51.6776 294.04 51.0656 294.144 50.3456 294.144ZM55.4286 296.4L56.5566 293.772V294.348L53.9406 287.76H55.5606L57.1446 292.176H57.2406L58.9326 287.76H60.4926L56.9526 296.4H55.4286ZM61.3531 294V287.76H62.7571V288.624H62.8291C63.0291 288.312 63.2771 288.068 63.5731 287.892C63.8771 287.708 64.2251 287.616 64.6171 287.616C65.0411 287.616 65.4131 287.708 65.7331 287.892C66.0531 288.068 66.3011 288.332 66.4771 288.684C66.6531 289.028 66.7411 289.452 66.7411 289.956V294H65.3011V290.22C65.3011 289.796 65.2051 289.484 65.0131 289.284C64.8211 289.076 64.5571 288.972 64.2211 288.972C63.9491 288.972 63.7051 289.044 63.4891 289.188C63.2731 289.324 63.1011 289.528 62.9731 289.8C62.8531 290.072 62.7931 290.408 62.7931 290.808V294H61.3531ZM71.1703 294.144C70.5703 294.144 70.0303 294.012 69.5503 293.748C69.0783 293.484 68.7023 293.108 68.4223 292.62C68.1423 292.132 68.0023 291.552 68.0023 290.88C68.0023 290.208 68.1423 289.628 68.4223 289.14C68.7023 288.652 69.0783 288.276 69.5503 288.012C70.0303 287.748 70.5703 287.616 71.1703 287.616C71.9463 287.616 72.5863 287.82 73.0903 288.228C73.6023 288.628 73.9223 289.168 74.0503 289.848L72.6223 290.16C72.5423 289.816 72.3783 289.532 72.1303 289.308C71.8903 289.076 71.5703 288.96 71.1703 288.96C70.8263 288.96 70.5303 289.04 70.2823 289.2C70.0343 289.352 69.8423 289.572 69.7063 289.86C69.5783 290.14 69.5143 290.48 69.5143 290.88C69.5143 291.272 69.5783 291.612 69.7063 291.9C69.8423 292.188 70.0343 292.412 70.2823 292.572C70.5303 292.724 70.8263 292.8 71.1703 292.8C71.5543 292.8 71.8663 292.7 72.1063 292.5C72.3543 292.292 72.5303 291.984 72.6343 291.576L74.0383 292.008C73.9503 292.416 73.7823 292.78 73.5343 293.1C73.2943 293.42 72.9783 293.676 72.5863 293.868C72.1943 294.052 71.7223 294.144 71.1703 294.144ZM81.0727 294.144C80.4727 294.144 79.9327 294.012 79.4527 293.748C78.9807 293.484 78.6047 293.108 78.3247 292.62C78.0447 292.132 77.9047 291.552 77.9047 290.88C77.9047 290.208 78.0447 289.628 78.3247 289.14C78.6047 288.652 78.9807 288.276 79.4527 288.012C79.9327 287.748 80.4727 287.616 81.0727 287.616C81.8487 287.616 82.4887 287.82 82.9927 288.228C83.5047 288.628 83.8247 289.168 83.9527 289.848L82.5247 290.16C82.4447 289.816 82.2807 289.532 82.0327 289.308C81.7927 289.076 81.4727 288.96 81.0727 288.96C80.7287 288.96 80.4327 289.04 80.1847 289.2C79.9367 289.352 79.7447 289.572 79.6087 289.86C79.4807 290.14 79.4167 290.48 79.4167 290.88C79.4167 291.272 79.4807 291.612 79.6087 291.9C79.7447 292.188 79.9367 292.412 80.1847 292.572C80.4327 292.724 80.7287 292.8 81.0727 292.8C81.4567 292.8 81.7687 292.7 82.0087 292.5C82.2567 292.292 82.4327 291.984 82.5367 291.576L83.9407 292.008C83.8527 292.416 83.6847 292.78 83.4367 293.1C83.1967 293.42 82.8807 293.676 82.4887 293.868C82.0967 294.052 81.6247 294.144 81.0727 294.144ZM85.107 294V285.36H86.547V294H85.107ZM88.1773 294V287.76H89.6173V294H88.1773ZM88.0213 286.08C88.0213 285.824 88.1013 285.616 88.2613 285.456C88.4293 285.296 88.6413 285.216 88.8973 285.216C89.1533 285.216 89.3613 285.296 89.5213 285.456C89.6893 285.616 89.7733 285.824 89.7733 286.08C89.7733 286.32 89.6893 286.524 89.5213 286.692C89.3613 286.852 89.1533 286.932 88.8973 286.932C88.6413 286.932 88.4293 286.852 88.2613 286.692C88.1013 286.524 88.0213 286.32 88.0213 286.08ZM94.0076 294.144C93.4156 294.144 92.8876 294.012 92.4236 293.748C91.9596 293.484 91.5956 293.108 91.3316 292.62C91.0756 292.124 90.9476 291.544 90.9476 290.88C90.9476 290.256 91.0796 289.7 91.3436 289.212C91.6076 288.716 91.9716 288.328 92.4356 288.048C92.8996 287.76 93.4276 287.616 94.0196 287.616C94.6036 287.616 95.1116 287.744 95.5436 288C95.9836 288.256 96.3236 288.64 96.5636 289.152C96.8036 289.664 96.9236 290.304 96.9236 291.072V291.36H91.7876V290.304H95.6876L95.4116 290.52C95.4116 290.224 95.3596 289.956 95.2556 289.716C95.1516 289.476 94.9956 289.284 94.7876 289.14C94.5796 288.988 94.3196 288.912 94.0076 288.912C93.7036 288.912 93.4316 288.984 93.1916 289.128C92.9516 289.272 92.7636 289.488 92.6276 289.776C92.4916 290.064 92.4236 290.432 92.4236 290.88C92.4236 291.312 92.4876 291.676 92.6156 291.972C92.7436 292.26 92.9276 292.48 93.1676 292.632C93.4076 292.776 93.6876 292.848 94.0076 292.848C94.3756 292.848 94.6596 292.772 94.8596 292.62C95.0676 292.46 95.2396 292.244 95.3756 291.972L96.7076 292.488C96.5076 292.976 96.1996 293.376 95.7836 293.688C95.3756 293.992 94.7836 294.144 94.0076 294.144ZM98.232 294V287.76H99.636V288.624H99.708C99.908 288.312 100.156 288.068 100.452 287.892C100.756 287.708 101.104 287.616 101.496 287.616C101.92 287.616 102.292 287.708 102.612 287.892C102.932 288.068 103.18 288.332 103.356 288.684C103.532 289.028 103.62 289.452 103.62 289.956V294H102.18V290.22C102.18 289.796 102.084 289.484 101.892 289.284C101.7 289.076 101.436 288.972 101.1 288.972C100.828 288.972 100.584 289.044 100.368 289.188C100.152 289.324 99.98 289.528 99.852 289.8C99.732 290.072 99.672 290.408 99.672 290.808V294H98.232ZM107.353 294.024C106.753 294.024 106.301 293.868 105.997 293.556C105.701 293.236 105.553 292.788 105.553 292.212V286.056H106.993V292.116C106.993 292.492 107.185 292.68 107.569 292.68H108.565V294.024H107.353ZM104.449 288.96V287.76H108.445V288.96H104.449Z" fill="white"/>
<rect x="9" y="314" width="136" height="32" rx="6" fill="#1E1E1E"/>
<path d="M52.9109 334V325.36H54.4229V333.256L53.7749 332.608H58.5749V334H52.9109ZM62.5506 334.144C61.9506 334.144 61.4146 334.012 60.9426 333.748C60.4706 333.484 60.0946 333.108 59.8146 332.62C59.5426 332.132 59.4066 331.552 59.4066 330.88C59.4066 330.208 59.5426 329.628 59.8146 329.14C60.0946 328.652 60.4706 328.276 60.9426 328.012C61.4146 327.748 61.9506 327.616 62.5506 327.616C63.1506 327.616 63.6866 327.748 64.1586 328.012C64.6306 328.276 65.0026 328.652 65.2746 329.14C65.5546 329.628 65.6946 330.208 65.6946 330.88C65.6946 331.552 65.5546 332.132 65.2746 332.62C65.0026 333.108 64.6306 333.484 64.1586 333.748C63.6866 334.012 63.1506 334.144 62.5506 334.144ZM62.5506 332.8C63.0706 332.8 63.4706 332.628 63.7506 332.284C64.0386 331.94 64.1826 331.472 64.1826 330.88C64.1826 330.288 64.0386 329.82 63.7506 329.476C63.4706 329.132 63.0706 328.96 62.5506 328.96C62.0306 328.96 61.6266 329.132 61.3386 329.476C61.0586 329.82 60.9186 330.288 60.9186 330.88C60.9186 331.472 61.0586 331.94 61.3386 332.284C61.6266 332.628 62.0306 332.8 62.5506 332.8ZM69.8988 334.144C69.2988 334.144 68.7588 334.012 68.2788 333.748C67.8068 333.484 67.4308 333.108 67.1508 332.62C66.8708 332.132 66.7308 331.552 66.7308 330.88C66.7308 330.208 66.8708 329.628 67.1508 329.14C67.4308 328.652 67.8068 328.276 68.2788 328.012C68.7588 327.748 69.2988 327.616 69.8988 327.616C70.6748 327.616 71.3148 327.82 71.8188 328.228C72.3308 328.628 72.6508 329.168 72.7788 329.848L71.3508 330.16C71.2708 329.816 71.1068 329.532 70.8588 329.308C70.6188 329.076 70.2988 328.96 69.8988 328.96C69.5548 328.96 69.2588 329.04 69.0108 329.2C68.7628 329.352 68.5708 329.572 68.4348 329.86C68.3068 330.14 68.2428 330.48 68.2428 330.88C68.2428 331.272 68.3068 331.612 68.4348 331.9C68.5708 332.188 68.7628 332.412 69.0108 332.572C69.2588 332.724 69.5548 332.8 69.8988 332.8C70.2828 332.8 70.5948 332.7 70.8348 332.5C71.0828 332.292 71.2588 331.984 71.3628 331.576L72.7668 332.008C72.6788 332.416 72.5108 332.78 72.2628 333.1C72.0228 333.42 71.7068 333.676 71.3148 333.868C70.9228 334.052 70.4508 334.144 69.8988 334.144ZM75.6852 334.144C75.0532 334.144 74.5492 333.976 74.1732 333.64C73.8052 333.296 73.6212 332.844 73.6212 332.284C73.6212 331.732 73.8052 331.288 74.1732 330.952C74.5412 330.608 75.0652 330.408 75.7452 330.352L77.9772 330.148V331.156L75.9852 331.372C75.6732 331.404 75.4412 331.492 75.2892 331.636C75.1372 331.772 75.0612 331.956 75.0612 332.188C75.0612 332.412 75.1412 332.596 75.3012 332.74C75.4692 332.884 75.7012 332.956 75.9972 332.956C76.3012 332.956 76.5692 332.88 76.8012 332.728C77.0412 332.568 77.2252 332.324 77.3532 331.996C77.4892 331.66 77.5572 331.232 77.5572 330.712V329.956C77.5572 329.652 77.4652 329.4 77.2812 329.2C77.1052 329 76.8132 328.9 76.4052 328.9C75.9972 328.9 75.7012 328.984 75.5172 329.152C75.3332 329.32 75.2252 329.512 75.1932 329.728H73.7652C73.7892 329.32 73.9092 328.96 74.1252 328.648C74.3412 328.328 74.6452 328.076 75.0372 327.892C75.4292 327.708 75.8972 327.616 76.4412 327.616C77.2492 327.616 77.8772 327.832 78.3252 328.264C78.7732 328.688 78.9972 329.236 78.9972 329.908V332.632L79.0332 334H77.6772L77.6412 333.16H77.5452C77.3212 333.496 77.0532 333.744 76.7412 333.904C76.4372 334.064 76.0852 334.144 75.6852 334.144ZM80.5074 334V325.36H81.9474V334H80.5074ZM86.6257 334V325.36H89.7577C90.6777 325.36 91.4657 325.54 92.1217 325.9C92.7777 326.252 93.2777 326.752 93.6217 327.4C93.9737 328.04 94.1497 328.8 94.1497 329.68C94.1497 330.552 93.9737 331.312 93.6217 331.96C93.2697 332.608 92.7577 333.112 92.0857 333.472C91.4217 333.824 90.6137 334 89.6617 334H86.6257ZM88.1377 333.34L87.5257 332.608H89.6257C90.3057 332.608 90.8617 332.488 91.2937 332.248C91.7337 332 92.0577 331.656 92.2657 331.216C92.4817 330.776 92.5897 330.264 92.5897 329.68C92.5897 328.784 92.3537 328.072 91.8817 327.544C91.4177 327.016 90.6977 326.752 89.7217 326.752H87.5257L88.1377 326.02V333.34ZM95.5437 334V325.36H99.3597C100.192 325.36 100.844 325.56 101.316 325.96C101.796 326.36 102.036 326.9 102.036 327.58C102.036 328.084 101.908 328.464 101.652 328.72C101.404 328.976 101.1 329.184 100.74 329.344V329.416C101.052 329.488 101.336 329.616 101.592 329.8C101.848 329.976 102.052 330.216 102.204 330.52C102.364 330.816 102.444 331.176 102.444 331.6C102.444 332.064 102.336 332.476 102.12 332.836C101.912 333.196 101.592 333.48 101.16 333.688C100.736 333.896 100.2 334 99.5517 334H95.5437ZM97.0557 333.34L96.3357 332.596H99.5997C100.016 332.596 100.332 332.492 100.548 332.284C100.772 332.068 100.884 331.772 100.884 331.396C100.884 331.004 100.768 330.708 100.536 330.508C100.312 330.3 99.9997 330.196 99.5997 330.196H96.3837V328.804H99.3357C99.6877 328.804 99.9637 328.716 100.164 328.54C100.372 328.356 100.476 328.096 100.476 327.76C100.476 327.432 100.372 327.184 100.164 327.016C99.9637 326.84 99.6877 326.752 99.3357 326.752H96.6717L97.0557 326.38V333.34Z" fill="white"/>
<path d="M77.3536 262.646C77.1583 262.451 76.8417 262.451 76.6464 262.646L73.4645 265.828C73.2692 266.024 73.2692 266.34 73.4645 266.536C73.6597 266.731 73.9763 266.731 74.1716 266.536L77 263.707L79.8284 266.536C80.0237 266.731 80.3403 266.731 80.5355 266.536C80.7308 266.34 80.7308 266.024 80.5355 265.828L77.3536 262.646ZM76.6464 277.354C76.8417 277.549 77.1583 277.549 77.3536 277.354L80.5355 274.172C80.7308 273.976 80.7308 273.66 80.5355 273.464C80.3403 273.269 80.0237 273.269 79.8284 273.464L77 276.293L74.1716 273.464C73.9763 273.269 73.6597 273.269 73.4645 273.464C73.2692 273.66 73.2692 273.976 73.4645 274.172L76.6464 277.354ZM77 263L76.5 263L76.5 277L77 277L77.5 277L77.5 263L77 263Z" fill="white"/>
<path d="M77.3536 302.646C77.1583 302.451 76.8417 302.451 76.6464 302.646L73.4645 305.828C73.2692 306.024 73.2692 306.34 73.4645 306.536C73.6597 306.731 73.9763 306.731 74.1716 306.536L77 303.707L79.8284 306.536C80.0237 306.731 80.3403 306.731 80.5355 306.536C80.7308 306.34 80.7308 306.024 80.5355 305.828L77.3536 302.646ZM76.6464 317.354C76.8417 317.549 77.1583 317.549 77.3536 317.354L80.5355 314.172C80.7308 313.976 80.7308 313.66 80.5355 313.464C80.3403 313.269 80.0237 313.269 79.8284 313.464L77 316.293L74.1716 313.464C73.9763 313.269 73.6597 313.269 73.4645 313.464C73.2692 313.66 73.2692 313.976 73.4645 314.172L76.6464 317.354ZM77 303L76.5 303L76.5 317L77 317L77.5 317L77.5 303L77 303Z" fill="white"/>
<path d="M5.764 215.144C4.972 215.144 4.256 214.964 3.616 214.604C2.976 214.244 2.468 213.732 2.092 213.068C1.716 212.396 1.528 211.604 1.528 210.692C1.528 210.004 1.636 209.384 1.852 208.832C2.068 208.28 2.368 207.812 2.752 207.428C3.136 207.036 3.584 206.736 4.096 206.528C4.616 206.32 5.172 206.216 5.764 206.216C6.484 206.216 7.112 206.34 7.648 206.588C8.184 206.828 8.62 207.18 8.956 207.644C9.3 208.1 9.536 208.648 9.664 209.288L8.14 209.612C8.044 209.212 7.892 208.864 7.684 208.568C7.484 208.272 7.228 208.044 6.916 207.884C6.604 207.716 6.232 207.632 5.8 207.632C5.24 207.632 4.756 207.756 4.348 208.004C3.948 208.252 3.64 208.604 3.424 209.06C3.216 209.516 3.112 210.06 3.112 210.692C3.112 211.316 3.22 211.856 3.436 212.312C3.652 212.768 3.96 213.12 4.36 213.368C4.768 213.608 5.248 213.728 5.8 213.728C6.224 213.728 6.588 213.66 6.892 213.524C7.204 213.38 7.464 213.164 7.672 212.876C7.888 212.58 8.056 212.212 8.176 211.772L9.664 212.168C9.536 212.768 9.304 213.292 8.968 213.74C8.632 214.18 8.196 214.524 7.66 214.772C7.124 215.02 6.492 215.144 5.764 215.144ZM10.8629 215V206.36H12.3029V215H10.8629ZM13.9332 215V208.76H15.3732V215H13.9332ZM13.7772 207.08C13.7772 206.824 13.8572 206.616 14.0172 206.456C14.1852 206.296 14.3972 206.216 14.6532 206.216C14.9092 206.216 15.1172 206.296 15.2772 206.456C15.4452 206.616 15.5292 206.824 15.5292 207.08C15.5292 207.32 15.4452 207.524 15.2772 207.692C15.1172 207.852 14.9092 207.932 14.6532 207.932C14.3972 207.932 14.1852 207.852 14.0172 207.692C13.8572 207.524 13.7772 207.32 13.7772 207.08ZM19.7635 215.144C19.1715 215.144 18.6435 215.012 18.1795 214.748C17.7155 214.484 17.3515 214.108 17.0875 213.62C16.8315 213.124 16.7035 212.544 16.7035 211.88C16.7035 211.256 16.8355 210.7 17.0995 210.212C17.3635 209.716 17.7275 209.328 18.1915 209.048C18.6555 208.76 19.1835 208.616 19.7755 208.616C20.3595 208.616 20.8675 208.744 21.2995 209C21.7395 209.256 22.0795 209.64 22.3195 210.152C22.5595 210.664 22.6795 211.304 22.6795 212.072V212.36H17.5435V211.304H21.4435L21.1675 211.52C21.1675 211.224 21.1155 210.956 21.0115 210.716C20.9075 210.476 20.7515 210.284 20.5435 210.14C20.3355 209.988 20.0755 209.912 19.7635 209.912C19.4595 209.912 19.1875 209.984 18.9475 210.128C18.7075 210.272 18.5195 210.488 18.3835 210.776C18.2475 211.064 18.1795 211.432 18.1795 211.88C18.1795 212.312 18.2435 212.676 18.3715 212.972C18.4995 213.26 18.6835 213.48 18.9235 213.632C19.1635 213.776 19.4435 213.848 19.7635 213.848C20.1315 213.848 20.4155 213.772 20.6155 213.62C20.8235 213.46 20.9955 213.244 21.1315 212.972L22.4635 213.488C22.2635 213.976 21.9555 214.376 21.5395 214.688C21.1315 214.992 20.5395 215.144 19.7635 215.144ZM23.9879 215V208.76H25.3919V209.624H25.4639C25.6639 209.312 25.9119 209.068 26.2079 208.892C26.5119 208.708 26.8599 208.616 27.2519 208.616C27.6759 208.616 28.0479 208.708 28.3679 208.892C28.6879 209.068 28.9359 209.332 29.1119 209.684C29.2879 210.028 29.3759 210.452 29.3759 210.956V215H27.9359V211.22C27.9359 210.796 27.8399 210.484 27.6479 210.284C27.4559 210.076 27.1919 209.972 26.8559 209.972C26.5839 209.972 26.3399 210.044 26.1239 210.188C25.9079 210.324 25.7359 210.528 25.6079 210.8C25.4879 211.072 25.4279 211.408 25.4279 211.808V215H23.9879ZM33.1091 215.024C32.5091 215.024 32.0571 214.868 31.7531 214.556C31.4571 214.236 31.3091 213.788 31.3091 213.212V207.056H32.7491V213.116C32.7491 213.492 32.9411 213.68 33.3251 213.68H34.3211V215.024H33.1091ZM30.2051 209.96V208.76H34.2011V209.96H30.2051ZM38.4382 215V206.36H42.2542C43.0862 206.36 43.7382 206.56 44.2102 206.96C44.6902 207.36 44.9302 207.9 44.9302 208.58C44.9302 209.084 44.8022 209.464 44.5462 209.72C44.2982 209.976 43.9942 210.184 43.6342 210.344V210.416C43.9462 210.488 44.2302 210.616 44.4862 210.8C44.7422 210.976 44.9462 211.216 45.0982 211.52C45.2582 211.816 45.3382 212.176 45.3382 212.6C45.3382 213.064 45.2302 213.476 45.0142 213.836C44.8062 214.196 44.4862 214.48 44.0542 214.688C43.6302 214.896 43.0942 215 42.4462 215H38.4382ZM39.9502 214.34L39.2302 213.596H42.4942C42.9102 213.596 43.2262 213.492 43.4422 213.284C43.6662 213.068 43.7782 212.772 43.7782 212.396C43.7782 212.004 43.6622 211.708 43.4302 211.508C43.2062 211.3 42.8942 211.196 42.4942 211.196H39.2782V209.804H42.2302C42.5822 209.804 42.8582 209.716 43.0582 209.54C43.2662 209.356 43.3702 209.096 43.3702 208.76C43.3702 208.432 43.2662 208.184 43.0582 208.016C42.8582 207.84 42.5822 207.752 42.2302 207.752H39.5662L39.9502 207.38V214.34Z" fill="white" fill-opacity="0.6"/>
<path d="M145 21.5C149.694 21.5 153.5 25.3056 153.5 30V78.0244C153.336 78.0081 153.169 78 153 78C152.831 78 152.664 78.0081 152.5 78.0244V30C152.5 25.8579 149.142 22.5 145 22.5H9C4.85786 22.5 1.5 25.8579 1.5 30V142C1.5 146.142 4.85786 149.5 9 149.5H145C149.142 149.5 152.5 146.142 152.5 142V93.9746C152.664 93.9909 152.831 94 153 94C153.169 94 153.336 93.9909 153.5 93.9746V142C153.5 146.694 149.694 150.5 145 150.5H9C4.30558 150.5 0.5 146.694 0.5 142V30C0.5 25.3056 4.30558 21.5 9 21.5H145Z" fill="#969696" fill-opacity="0.9"/>
<rect x="9" y="30" width="136" height="32" rx="6" fill="#1E1E1E"/>
<path d="M49.5207 50L52.7487 41.36H54.5487L57.7647 50H56.1087L53.6727 43.28H53.5527L51.1407 50H49.5207ZM51.0567 48.128V46.736H56.1207V48.128H51.0567ZM62.0644 43.616C62.5764 43.616 63.0364 43.748 63.4444 44.012C63.8604 44.276 64.1884 44.652 64.4284 45.14C64.6764 45.628 64.8004 46.208 64.8004 46.88C64.8004 47.552 64.6764 48.132 64.4284 48.62C64.1884 49.108 63.8604 49.484 63.4444 49.748C63.0364 50.012 62.5764 50.144 62.0644 50.144C61.6084 50.144 61.2284 50.052 60.9244 49.868C60.6204 49.684 60.3604 49.44 60.1444 49.136H60.0724V52.4H58.6324V43.76H60.0364V44.624H60.1084C60.3244 44.296 60.5924 44.048 60.9124 43.88C61.2324 43.704 61.6164 43.616 62.0644 43.616ZM61.6804 44.936C61.1684 44.936 60.7644 45.108 60.4684 45.452C60.1724 45.796 60.0244 46.272 60.0244 46.88C60.0244 47.488 60.1724 47.964 60.4684 48.308C60.7644 48.652 61.1684 48.824 61.6804 48.824C62.1604 48.824 62.5524 48.652 62.8564 48.308C63.1604 47.956 63.3124 47.48 63.3124 46.88C63.3124 46.28 63.1604 45.808 62.8564 45.464C62.5524 45.112 62.1604 44.936 61.6804 44.936ZM69.5644 43.616C70.0764 43.616 70.5364 43.748 70.9444 44.012C71.3604 44.276 71.6884 44.652 71.9284 45.14C72.1764 45.628 72.3004 46.208 72.3004 46.88C72.3004 47.552 72.1764 48.132 71.9284 48.62C71.6884 49.108 71.3604 49.484 70.9444 49.748C70.5364 50.012 70.0764 50.144 69.5644 50.144C69.1084 50.144 68.7284 50.052 68.4244 49.868C68.1204 49.684 67.8604 49.44 67.6444 49.136H67.5724V52.4H66.1324V43.76H67.5364V44.624H67.6084C67.8244 44.296 68.0924 44.048 68.4124 43.88C68.7324 43.704 69.1164 43.616 69.5644 43.616ZM69.1804 44.936C68.6684 44.936 68.2644 45.108 67.9684 45.452C67.6724 45.796 67.5244 46.272 67.5244 46.88C67.5244 47.488 67.6724 47.964 67.9684 48.308C68.2644 48.652 68.6684 48.824 69.1804 48.824C69.6604 48.824 70.0524 48.652 70.3564 48.308C70.6604 47.956 70.8124 47.48 70.8124 46.88C70.8124 46.28 70.6604 45.808 70.3564 45.464C70.0524 45.112 69.6604 44.936 69.1804 44.936ZM79.5004 50.144C78.9004 50.144 78.3604 50.012 77.8804 49.748C77.4084 49.484 77.0324 49.108 76.7524 48.62C76.4724 48.132 76.3324 47.552 76.3324 46.88C76.3324 46.208 76.4724 45.628 76.7524 45.14C77.0324 44.652 77.4084 44.276 77.8804 44.012C78.3604 43.748 78.9004 43.616 79.5004 43.616C80.2764 43.616 80.9164 43.82 81.4204 44.228C81.9324 44.628 82.2524 45.168 82.3804 45.848L80.9524 46.16C80.8724 45.816 80.7084 45.532 80.4604 45.308C80.2204 45.076 79.9004 44.96 79.5004 44.96C79.1564 44.96 78.8604 45.04 78.6124 45.2C78.3644 45.352 78.1724 45.572 78.0364 45.86C77.9084 46.14 77.8444 46.48 77.8444 46.88C77.8444 47.272 77.9084 47.612 78.0364 47.9C78.1724 48.188 78.3644 48.412 78.6124 48.572C78.8604 48.724 79.1564 48.8 79.5004 48.8C79.8844 48.8 80.1964 48.7 80.4364 48.5C80.6844 48.292 80.8604 47.984 80.9644 47.576L82.3684 48.008C82.2804 48.416 82.1124 48.78 81.8644 49.1C81.6244 49.42 81.3084 49.676 80.9164 49.868C80.5244 50.052 80.0524 50.144 79.5004 50.144ZM86.3788 50.144C85.7788 50.144 85.2428 50.012 84.7708 49.748C84.2988 49.484 83.9228 49.108 83.6428 48.62C83.3708 48.132 83.2348 47.552 83.2348 46.88C83.2348 46.208 83.3708 45.628 83.6428 45.14C83.9228 44.652 84.2988 44.276 84.7708 44.012C85.2428 43.748 85.7788 43.616 86.3788 43.616C86.9788 43.616 87.5148 43.748 87.9868 44.012C88.4588 44.276 88.8308 44.652 89.1028 45.14C89.3828 45.628 89.5228 46.208 89.5228 46.88C89.5228 47.552 89.3828 48.132 89.1028 48.62C88.8308 49.108 88.4588 49.484 87.9868 49.748C87.5148 50.012 86.9788 50.144 86.3788 50.144ZM86.3788 48.8C86.8988 48.8 87.2988 48.628 87.5788 48.284C87.8668 47.94 88.0108 47.472 88.0108 46.88C88.0108 46.288 87.8668 45.82 87.5788 45.476C87.2988 45.132 86.8988 44.96 86.3788 44.96C85.8588 44.96 85.4548 45.132 85.1668 45.476C84.8868 45.82 84.7468 46.288 84.7468 46.88C84.7468 47.472 84.8868 47.94 85.1668 48.284C85.4548 48.628 85.8588 48.8 86.3788 48.8ZM93.295 50.144C92.791 50.144 92.331 50.012 91.915 49.748C91.499 49.484 91.167 49.108 90.919 48.62C90.679 48.132 90.559 47.552 90.559 46.88C90.559 46.208 90.679 45.628 90.919 45.14C91.167 44.652 91.499 44.276 91.915 44.012C92.331 43.748 92.791 43.616 93.295 43.616C93.751 43.616 94.131 43.708 94.435 43.892C94.739 44.076 94.999 44.32 95.215 44.624H95.287V41.36H96.727V50H95.323V49.136H95.251C95.035 49.464 94.767 49.716 94.447 49.892C94.127 50.06 93.743 50.144 93.295 50.144ZM93.679 48.824C94.191 48.824 94.595 48.652 94.891 48.308C95.187 47.964 95.335 47.488 95.335 46.88C95.335 46.264 95.187 45.788 94.891 45.452C94.595 45.108 94.191 44.936 93.679 44.936C93.199 44.936 92.807 45.112 92.503 45.464C92.199 45.808 92.047 46.28 92.047 46.88C92.047 47.48 92.199 47.956 92.503 48.308C92.807 48.652 93.199 48.824 93.679 48.824ZM101.119 50.144C100.527 50.144 99.999 50.012 99.535 49.748C99.071 49.484 98.707 49.108 98.443 48.62C98.187 48.124 98.059 47.544 98.059 46.88C98.059 46.256 98.191 45.7 98.455 45.212C98.719 44.716 99.083 44.328 99.547 44.048C100.011 43.76 100.539 43.616 101.131 43.616C101.715 43.616 102.223 43.744 102.655 44C103.095 44.256 103.435 44.64 103.675 45.152C103.915 45.664 104.035 46.304 104.035 47.072V47.36H98.899V46.304H102.799L102.523 46.52C102.523 46.224 102.471 45.956 102.367 45.716C102.263 45.476 102.107 45.284 101.899 45.14C101.691 44.988 101.431 44.912 101.119 44.912C100.815 44.912 100.543 44.984 100.303 45.128C100.063 45.272 99.875 45.488 99.739 45.776C99.603 46.064 99.535 46.432 99.535 46.88C99.535 47.312 99.599 47.676 99.727 47.972C99.855 48.26 100.039 48.48 100.279 48.632C100.519 48.776 100.799 48.848 101.119 48.848C101.487 48.848 101.771 48.772 101.971 48.62C102.179 48.46 102.351 48.244 102.487 47.972L103.819 48.488C103.619 48.976 103.311 49.376 102.895 49.688C102.487 49.992 101.895 50.144 101.119 50.144Z" fill="white"/>
<rect x="9" y="70" width="136" height="32" rx="6" fill="#1E1E1E"/>
<path d="M50.3456 90.144C49.3776 90.144 48.5976 89.956 48.0056 89.58C47.4136 89.196 46.9776 88.636 46.6976 87.9L48.2576 87.36C48.4096 87.792 48.6616 88.128 49.0136 88.368C49.3656 88.608 49.8096 88.728 50.3456 88.728C50.9776 88.728 51.4456 88.624 51.7496 88.416C52.0536 88.208 52.2056 87.936 52.2056 87.6C52.2056 87.256 52.1056 86.996 51.9056 86.82C51.7056 86.636 51.4176 86.524 51.0416 86.484L49.3376 86.304C48.5936 86.224 47.9936 85.972 47.5376 85.548C47.0816 85.124 46.8536 84.54 46.8536 83.796C46.8536 83.324 46.9856 82.892 47.2496 82.5C47.5136 82.108 47.8816 81.796 48.3536 81.564C48.8336 81.332 49.3856 81.216 50.0096 81.216C50.8976 81.216 51.6256 81.412 52.1936 81.804C52.7696 82.188 53.1696 82.708 53.3936 83.364L51.9176 83.88C51.7656 83.48 51.5296 83.172 51.2096 82.956C50.8896 82.74 50.4896 82.632 50.0096 82.632C49.4896 82.632 49.0936 82.74 48.8216 82.956C48.5496 83.172 48.4136 83.44 48.4136 83.76C48.4136 84.032 48.5056 84.264 48.6896 84.456C48.8736 84.64 49.1696 84.752 49.5776 84.792L51.1136 84.96C51.9696 85.056 52.6216 85.328 53.0696 85.776C53.5256 86.224 53.7536 86.832 53.7536 87.6C53.7536 88.12 53.6176 88.572 53.3456 88.956C53.0816 89.332 52.6936 89.624 52.1816 89.832C51.6776 90.04 51.0656 90.144 50.3456 90.144ZM55.4286 92.4L56.5566 89.772V90.348L53.9406 83.76H55.5606L57.1446 88.176H57.2406L58.9326 83.76H60.4926L56.9526 92.4H55.4286ZM61.3531 90V83.76H62.7571V84.624H62.8291C63.0291 84.312 63.2771 84.068 63.5731 83.892C63.8771 83.708 64.2251 83.616 64.6171 83.616C65.0411 83.616 65.4131 83.708 65.7331 83.892C66.0531 84.068 66.3011 84.332 66.4771 84.684C66.6531 85.028 66.7411 85.452 66.7411 85.956V90H65.3011V86.22C65.3011 85.796 65.2051 85.484 65.0131 85.284C64.8211 85.076 64.5571 84.972 64.2211 84.972C63.9491 84.972 63.7051 85.044 63.4891 85.188C63.2731 85.324 63.1011 85.528 62.9731 85.8C62.8531 86.072 62.7931 86.408 62.7931 86.808V90H61.3531ZM71.1703 90.144C70.5703 90.144 70.0303 90.012 69.5503 89.748C69.0783 89.484 68.7023 89.108 68.4223 88.62C68.1423 88.132 68.0023 87.552 68.0023 86.88C68.0023 86.208 68.1423 85.628 68.4223 85.14C68.7023 84.652 69.0783 84.276 69.5503 84.012C70.0303 83.748 70.5703 83.616 71.1703 83.616C71.9463 83.616 72.5863 83.82 73.0903 84.228C73.6023 84.628 73.9223 85.168 74.0503 85.848L72.6223 86.16C72.5423 85.816 72.3783 85.532 72.1303 85.308C71.8903 85.076 71.5703 84.96 71.1703 84.96C70.8263 84.96 70.5303 85.04 70.2823 85.2C70.0343 85.352 69.8423 85.572 69.7063 85.86C69.5783 86.14 69.5143 86.48 69.5143 86.88C69.5143 87.272 69.5783 87.612 69.7063 87.9C69.8423 88.188 70.0343 88.412 70.2823 88.572C70.5303 88.724 70.8263 88.8 71.1703 88.8C71.5543 88.8 71.8663 88.7 72.1063 88.5C72.3543 88.292 72.5303 87.984 72.6343 87.576L74.0383 88.008C73.9503 88.416 73.7823 88.78 73.5343 89.1C73.2943 89.42 72.9783 89.676 72.5863 89.868C72.1943 90.052 71.7223 90.144 71.1703 90.144ZM81.0727 90.144C80.4727 90.144 79.9327 90.012 79.4527 89.748C78.9807 89.484 78.6047 89.108 78.3247 88.62C78.0447 88.132 77.9047 87.552 77.9047 86.88C77.9047 86.208 78.0447 85.628 78.3247 85.14C78.6047 84.652 78.9807 84.276 79.4527 84.012C79.9327 83.748 80.4727 83.616 81.0727 83.616C81.8487 83.616 82.4887 83.82 82.9927 84.228C83.5047 84.628 83.8247 85.168 83.9527 85.848L82.5247 86.16C82.4447 85.816 82.2807 85.532 82.0327 85.308C81.7927 85.076 81.4727 84.96 81.0727 84.96C80.7287 84.96 80.4327 85.04 80.1847 85.2C79.9367 85.352 79.7447 85.572 79.6087 85.86C79.4807 86.14 79.4167 86.48 79.4167 86.88C79.4167 87.272 79.4807 87.612 79.6087 87.9C79.7447 88.188 79.9367 88.412 80.1847 88.572C80.4327 88.724 80.7287 88.8 81.0727 88.8C81.4567 88.8 81.7687 88.7 82.0087 88.5C82.2567 88.292 82.4327 87.984 82.5367 87.576L83.9407 88.008C83.8527 88.416 83.6847 88.78 83.4367 89.1C83.1967 89.42 82.8807 89.676 82.4887 89.868C82.0967 90.052 81.6247 90.144 81.0727 90.144ZM85.107 90V81.36H86.547V90H85.107ZM88.1773 90V83.76H89.6173V90H88.1773ZM88.0213 82.08C88.0213 81.824 88.1013 81.616 88.2613 81.456C88.4293 81.296 88.6413 81.216 88.8973 81.216C89.1533 81.216 89.3613 81.296 89.5213 81.456C89.6893 81.616 89.7733 81.824 89.7733 82.08C89.7733 82.32 89.6893 82.524 89.5213 82.692C89.3613 82.852 89.1533 82.932 88.8973 82.932C88.6413 82.932 88.4293 82.852 88.2613 82.692C88.1013 82.524 88.0213 82.32 88.0213 82.08ZM94.0076 90.144C93.4156 90.144 92.8876 90.012 92.4236 89.748C91.9596 89.484 91.5956 89.108 91.3316 88.62C91.0756 88.124 90.9476 87.544 90.9476 86.88C90.9476 86.256 91.0796 85.7 91.3436 85.212C91.6076 84.716 91.9716 84.328 92.4356 84.048C92.8996 83.76 93.4276 83.616 94.0196 83.616C94.6036 83.616 95.1116 83.744 95.5436 84C95.9836 84.256 96.3236 84.64 96.5636 85.152C96.8036 85.664 96.9236 86.304 96.9236 87.072V87.36H91.7876V86.304H95.6876L95.4116 86.52C95.4116 86.224 95.3596 85.956 95.2556 85.716C95.1516 85.476 94.9956 85.284 94.7876 85.14C94.5796 84.988 94.3196 84.912 94.0076 84.912C93.7036 84.912 93.4316 84.984 93.1916 85.128C92.9516 85.272 92.7636 85.488 92.6276 85.776C92.4916 86.064 92.4236 86.432 92.4236 86.88C92.4236 87.312 92.4876 87.676 92.6156 87.972C92.7436 88.26 92.9276 88.48 93.1676 88.632C93.4076 88.776 93.6876 88.848 94.0076 88.848C94.3756 88.848 94.6596 88.772 94.8596 88.62C95.0676 88.46 95.2396 88.244 95.3756 87.972L96.7076 88.488C96.5076 88.976 96.1996 89.376 95.7836 89.688C95.3756 89.992 94.7836 90.144 94.0076 90.144ZM98.232 90V83.76H99.636V84.624H99.708C99.908 84.312 100.156 84.068 100.452 83.892C100.756 83.708 101.104 83.616 101.496 83.616C101.92 83.616 102.292 83.708 102.612 83.892C102.932 84.068 103.18 84.332 103.356 84.684C103.532 85.028 103.62 85.452 103.62 85.956V90H102.18V86.22C102.18 85.796 102.084 85.484 101.892 85.284C101.7 85.076 101.436 84.972 101.1 84.972C100.828 84.972 100.584 85.044 100.368 85.188C100.152 85.324 99.98 85.528 99.852 85.8C99.732 86.072 99.672 86.408 99.672 86.808V90H98.232ZM107.353 90.024C106.753 90.024 106.301 89.868 105.997 89.556C105.701 89.236 105.553 88.788 105.553 88.212V82.056H106.993V88.116C106.993 88.492 107.185 88.68 107.569 88.68H108.565V90.024H107.353ZM104.449 84.96V83.76H108.445V84.96H104.449Z" fill="white"/>
<rect x="9" y="110" width="136" height="32" rx="6" fill="#1E1E1E"/>
<path d="M52.9109 130V121.36H54.4229V129.256L53.7749 128.608H58.5749V130H52.9109ZM62.5506 130.144C61.9506 130.144 61.4146 130.012 60.9426 129.748C60.4706 129.484 60.0946 129.108 59.8146 128.62C59.5426 128.132 59.4066 127.552 59.4066 126.88C59.4066 126.208 59.5426 125.628 59.8146 125.14C60.0946 124.652 60.4706 124.276 60.9426 124.012C61.4146 123.748 61.9506 123.616 62.5506 123.616C63.1506 123.616 63.6866 123.748 64.1586 124.012C64.6306 124.276 65.0026 124.652 65.2746 125.14C65.5546 125.628 65.6946 126.208 65.6946 126.88C65.6946 127.552 65.5546 128.132 65.2746 128.62C65.0026 129.108 64.6306 129.484 64.1586 129.748C63.6866 130.012 63.1506 130.144 62.5506 130.144ZM62.5506 128.8C63.0706 128.8 63.4706 128.628 63.7506 128.284C64.0386 127.94 64.1826 127.472 64.1826 126.88C64.1826 126.288 64.0386 125.82 63.7506 125.476C63.4706 125.132 63.0706 124.96 62.5506 124.96C62.0306 124.96 61.6266 125.132 61.3386 125.476C61.0586 125.82 60.9186 126.288 60.9186 126.88C60.9186 127.472 61.0586 127.94 61.3386 128.284C61.6266 128.628 62.0306 128.8 62.5506 128.8ZM69.8988 130.144C69.2988 130.144 68.7588 130.012 68.2788 129.748C67.8068 129.484 67.4308 129.108 67.1508 128.62C66.8708 128.132 66.7308 127.552 66.7308 126.88C66.7308 126.208 66.8708 125.628 67.1508 125.14C67.4308 124.652 67.8068 124.276 68.2788 124.012C68.7588 123.748 69.2988 123.616 69.8988 123.616C70.6748 123.616 71.3148 123.82 71.8188 124.228C72.3308 124.628 72.6508 125.168 72.7788 125.848L71.3508 126.16C71.2708 125.816 71.1068 125.532 70.8588 125.308C70.6188 125.076 70.2988 124.96 69.8988 124.96C69.5548 124.96 69.2588 125.04 69.0108 125.2C68.7628 125.352 68.5708 125.572 68.4348 125.86C68.3068 126.14 68.2428 126.48 68.2428 126.88C68.2428 127.272 68.3068 127.612 68.4348 127.9C68.5708 128.188 68.7628 128.412 69.0108 128.572C69.2588 128.724 69.5548 128.8 69.8988 128.8C70.2828 128.8 70.5948 128.7 70.8348 128.5C71.0828 128.292 71.2588 127.984 71.3628 127.576L72.7668 128.008C72.6788 128.416 72.5108 128.78 72.2628 129.1C72.0228 129.42 71.7068 129.676 71.3148 129.868C70.9228 130.052 70.4508 130.144 69.8988 130.144ZM75.6852 130.144C75.0532 130.144 74.5492 129.976 74.1732 129.64C73.8052 129.296 73.6212 128.844 73.6212 128.284C73.6212 127.732 73.8052 127.288 74.1732 126.952C74.5412 126.608 75.0652 126.408 75.7452 126.352L77.9772 126.148V127.156L75.9852 127.372C75.6732 127.404 75.4412 127.492 75.2892 127.636C75.1372 127.772 75.0612 127.956 75.0612 128.188C75.0612 128.412 75.1412 128.596 75.3012 128.74C75.4692 128.884 75.7012 128.956 75.9972 128.956C76.3012 128.956 76.5692 128.88 76.8012 128.728C77.0412 128.568 77.2252 128.324 77.3532 127.996C77.4892 127.66 77.5572 127.232 77.5572 126.712V125.956C77.5572 125.652 77.4652 125.4 77.2812 125.2C77.1052 125 76.8132 124.9 76.4052 124.9C75.9972 124.9 75.7012 124.984 75.5172 125.152C75.3332 125.32 75.2252 125.512 75.1932 125.728H73.7652C73.7892 125.32 73.9092 124.96 74.1252 124.648C74.3412 124.328 74.6452 124.076 75.0372 123.892C75.4292 123.708 75.8972 123.616 76.4412 123.616C77.2492 123.616 77.8772 123.832 78.3252 124.264C78.7732 124.688 78.9972 125.236 78.9972 125.908V128.632L79.0332 130H77.6772L77.6412 129.16H77.5452C77.3212 129.496 77.0532 129.744 76.7412 129.904C76.4372 130.064 76.0852 130.144 75.6852 130.144ZM80.5074 130V121.36H81.9474V130H80.5074ZM86.6257 130V121.36H89.7577C90.6777 121.36 91.4657 121.54 92.1217 121.9C92.7777 122.252 93.2777 122.752 93.6217 123.4C93.9737 124.04 94.1497 124.8 94.1497 125.68C94.1497 126.552 93.9737 127.312 93.6217 127.96C93.2697 128.608 92.7577 129.112 92.0857 129.472C91.4217 129.824 90.6137 130 89.6617 130H86.6257ZM88.1377 129.34L87.5257 128.608H89.6257C90.3057 128.608 90.8617 128.488 91.2937 128.248C91.7337 128 92.0577 127.656 92.2657 127.216C92.4817 126.776 92.5897 126.264 92.5897 125.68C92.5897 124.784 92.3537 124.072 91.8817 123.544C91.4177 123.016 90.6977 122.752 89.7217 122.752H87.5257L88.1377 122.02V129.34ZM95.5437 130V121.36H99.3597C100.192 121.36 100.844 121.56 101.316 121.96C101.796 122.36 102.036 122.9 102.036 123.58C102.036 124.084 101.908 124.464 101.652 124.72C101.404 124.976 101.1 125.184 100.74 125.344V125.416C101.052 125.488 101.336 125.616 101.592 125.8C101.848 125.976 102.052 126.216 102.204 126.52C102.364 126.816 102.444 127.176 102.444 127.6C102.444 128.064 102.336 128.476 102.12 128.836C101.912 129.196 101.592 129.48 101.16 129.688C100.736 129.896 100.2 130 99.5517 130H95.5437ZM97.0557 129.34L96.3357 128.596H99.5997C100.016 128.596 100.332 128.492 100.548 128.284C100.772 128.068 100.884 127.772 100.884 127.396C100.884 127.004 100.768 126.708 100.536 126.508C100.312 126.3 99.9997 126.196 99.5997 126.196H96.3837V124.804H99.3357C99.6877 124.804 99.9637 124.716 100.164 124.54C100.372 124.356 100.476 124.096 100.476 123.76C100.476 123.432 100.372 123.184 100.164 123.016C99.9637 122.84 99.6877 122.752 99.3357 122.752H96.6717L97.0557 122.38V129.34Z" fill="white"/>
<path d="M77.3536 58.6464C77.1583 58.4512 76.8417 58.4512 76.6464 58.6464L73.4645 61.8284C73.2692 62.0237 73.2692 62.3403 73.4645 62.5355C73.6597 62.7308 73.9763 62.7308 74.1716 62.5355L77 59.7071L79.8284 62.5355C80.0237 62.7308 80.3403 62.7308 80.5355 62.5355C80.7308 62.3403 80.7308 62.0237 80.5355 61.8284L77.3536 58.6464ZM76.6464 73.3536C76.8417 73.5488 77.1583 73.5488 77.3536 73.3536L80.5355 70.1716C80.7308 69.9763 80.7308 69.6597 80.5355 69.4645C80.3403 69.2692 80.0237 69.2692 79.8284 69.4645L77 72.2929L74.1716 69.4645C73.9763 69.2692 73.6597 69.2692 73.4645 69.4645C73.2692 69.6597 73.2692 69.9763 73.4645 70.1716L76.6464 73.3536ZM77 59L76.5 59L76.5 73L77 73L77.5 73L77.5 59L77 59Z" fill="white"/>
<path d="M77.3536 98.6464C77.1583 98.4512 76.8417 98.4512 76.6464 98.6464L73.4645 101.828C73.2692 102.024 73.2692 102.34 73.4645 102.536C73.6597 102.731 73.9763 102.731 74.1716 102.536L77 99.7071L79.8284 102.536C80.0237 102.731 80.3403 102.731 80.5355 102.536C80.7308 102.34 80.7308 102.024 80.5355 101.828L77.3536 98.6464ZM76.6464 113.354C76.8417 113.549 77.1583 113.549 77.3536 113.354L80.5355 110.172C80.7308 109.976 80.7308 109.66 80.5355 109.464C80.3403 109.269 80.0237 109.269 79.8284 109.464L77 112.293L74.1716 109.464C73.9763 109.269 73.6597 109.269 73.4645 109.464C73.2692 109.66 73.2692 109.976 73.4645 110.172L76.6464 113.354ZM77 99L76.5 99L76.5 113L77 113L77.5 113L77.5 99L77 99Z" fill="white"/>
<path d="M5.764 11.144C4.972 11.144 4.256 10.964 3.616 10.604C2.976 10.244 2.468 9.732 2.092 9.068C1.716 8.396 1.528 7.604 1.528 6.692C1.528 6.004 1.636 5.384 1.852 4.832C2.068 4.28 2.368 3.812 2.752 3.428C3.136 3.036 3.584 2.736 4.096 2.528C4.616 2.32 5.172 2.216 5.764 2.216C6.484 2.216 7.112 2.34 7.648 2.588C8.184 2.828 8.62 3.18 8.956 3.644C9.3 4.1 9.536 4.648 9.664 5.288L8.14 5.612C8.044 5.212 7.892 4.864 7.684 4.568C7.484 4.272 7.228 4.044 6.916 3.884C6.604 3.716 6.232 3.632 5.8 3.632C5.24 3.632 4.756 3.756 4.348 4.004C3.948 4.252 3.64 4.604 3.424 5.06C3.216 5.516 3.112 6.06 3.112 6.692C3.112 7.316 3.22 7.856 3.436 8.312C3.652 8.768 3.96 9.12 4.36 9.368C4.768 9.608 5.248 9.728 5.8 9.728C6.224 9.728 6.588 9.66 6.892 9.524C7.204 9.38 7.464 9.164 7.672 8.876C7.888 8.58 8.056 8.212 8.176 7.772L9.664 8.168C9.536 8.768 9.304 9.292 8.968 9.74C8.632 10.18 8.196 10.524 7.66 10.772C7.124 11.02 6.492 11.144 5.764 11.144ZM10.8629 11V2.36H12.3029V11H10.8629ZM13.9332 11V4.76H15.3732V11H13.9332ZM13.7772 3.08C13.7772 2.824 13.8572 2.616 14.0172 2.456C14.1852 2.296 14.3972 2.216 14.6532 2.216C14.9092 2.216 15.1172 2.296 15.2772 2.456C15.4452 2.616 15.5292 2.824 15.5292 3.08C15.5292 3.32 15.4452 3.524 15.2772 3.692C15.1172 3.852 14.9092 3.932 14.6532 3.932C14.3972 3.932 14.1852 3.852 14.0172 3.692C13.8572 3.524 13.7772 3.32 13.7772 3.08ZM19.7635 11.144C19.1715 11.144 18.6435 11.012 18.1795 10.748C17.7155 10.484 17.3515 10.108 17.0875 9.62C16.8315 9.124 16.7035 8.544 16.7035 7.88C16.7035 7.256 16.8355 6.7 17.0995 6.212C17.3635 5.716 17.7275 5.328 18.1915 5.048C18.6555 4.76 19.1835 4.616 19.7755 4.616C20.3595 4.616 20.8675 4.744 21.2995 5C21.7395 5.256 22.0795 5.64 22.3195 6.152C22.5595 6.664 22.6795 7.304 22.6795 8.072V8.36H17.5435V7.304H21.4435L21.1675 7.52C21.1675 7.224 21.1155 6.956 21.0115 6.716C20.9075 6.476 20.7515 6.284 20.5435 6.14C20.3355 5.988 20.0755 5.912 19.7635 5.912C19.4595 5.912 19.1875 5.984 18.9475 6.128C18.7075 6.272 18.5195 6.488 18.3835 6.776C18.2475 7.064 18.1795 7.432 18.1795 7.88C18.1795 8.312 18.2435 8.676 18.3715 8.972C18.4995 9.26 18.6835 9.48 18.9235 9.632C19.1635 9.776 19.4435 9.848 19.7635 9.848C20.1315 9.848 20.4155 9.772 20.6155 9.62C20.8235 9.46 20.9955 9.244 21.1315 8.972L22.4635 9.488C22.2635 9.976 21.9555 10.376 21.5395 10.688C21.1315 10.992 20.5395 11.144 19.7635 11.144ZM23.9879 11V4.76H25.3919V5.624H25.4639C25.6639 5.312 25.9119 5.068 26.2079 4.892C26.5119 4.708 26.8599 4.616 27.2519 4.616C27.6759 4.616 28.0479 4.708 28.3679 4.892C28.6879 5.068 28.9359 5.332 29.1119 5.684C29.2879 6.028 29.3759 6.452 29.3759 6.956V11H27.9359V7.22C27.9359 6.796 27.8399 6.484 27.6479 6.284C27.4559 6.076 27.1919 5.972 26.8559 5.972C26.5839 5.972 26.3399 6.044 26.1239 6.188C25.9079 6.324 25.7359 6.528 25.6079 6.8C25.4879 7.072 25.4279 7.408 25.4279 7.808V11H23.9879ZM33.1091 11.024C32.5091 11.024 32.0571 10.868 31.7531 10.556C31.4571 10.236 31.3091 9.788 31.3091 9.212V3.056H32.7491V9.116C32.7491 9.492 32.9411 9.68 33.3251 9.68H34.3211V11.024H33.1091ZM30.2051 5.96V4.76H34.2011V5.96H30.2051ZM37.6222 11L40.8502 2.36H42.6502L45.8662 11H44.2102L41.7742 4.28H41.6542L39.2422 11H37.6222ZM39.1582 9.128V7.736H44.2222V9.128H39.1582Z" fill="white" fill-opacity="0.6"/>
<rect x="304" y="127" width="136" height="122" rx="6" fill="#1E1E1E"/>
<path d="M362.56 184.156C361.592 184.156 360.812 183.968 360.22 183.592C359.628 183.208 359.192 182.648 358.912 181.912L360.472 181.372C360.624 181.804 360.876 182.14 361.228 182.38C361.58 182.62 362.024 182.74 362.56 182.74C363.192 182.74 363.66 182.636 363.964 182.428C364.268 182.22 364.42 181.948 364.42 181.612C364.42 181.268 364.32 181.008 364.12 180.832C363.92 180.648 363.632 180.536 363.256 180.496L361.552 180.316C360.808 180.236 360.208 179.984 359.752 179.56C359.296 179.136 359.068 178.552 359.068 177.808C359.068 177.336 359.2 176.904 359.464 176.512C359.728 176.12 360.096 175.808 360.568 175.576C361.048 175.344 361.6 175.228 362.224 175.228C363.112 175.228 363.84 175.424 364.408 175.816C364.984 176.2 365.384 176.72 365.608 177.376L364.132 177.892C363.98 177.492 363.744 177.184 363.424 176.968C363.104 176.752 362.704 176.644 362.224 176.644C361.704 176.644 361.308 176.752 361.036 176.968C360.764 177.184 360.628 177.452 360.628 177.772C360.628 178.044 360.72 178.276 360.904 178.468C361.088 178.652 361.384 178.764 361.792 178.804L363.328 178.972C364.184 179.068 364.836 179.34 365.284 179.788C365.74 180.236 365.968 180.844 365.968 181.612C365.968 182.132 365.832 182.584 365.56 182.968C365.296 183.344 364.908 183.636 364.396 183.844C363.892 184.052 363.28 184.156 362.56 184.156ZM367.643 186.412L368.771 183.784V184.36L366.155 177.772H367.775L369.359 182.188H369.455L371.147 177.772H372.707L369.167 186.412H367.643ZM373.568 184.012V177.772H374.972V178.636H375.044C375.244 178.324 375.492 178.08 375.788 177.904C376.092 177.72 376.44 177.628 376.832 177.628C377.256 177.628 377.628 177.72 377.948 177.904C378.268 178.08 378.516 178.344 378.692 178.696C378.868 179.04 378.956 179.464 378.956 179.968V184.012H377.516V180.232C377.516 179.808 377.42 179.496 377.228 179.296C377.036 179.088 376.772 178.984 376.436 178.984C376.164 178.984 375.92 179.056 375.704 179.2C375.488 179.336 375.316 179.54 375.188 179.812C375.068 180.084 375.008 180.42 375.008 180.82V184.012H373.568ZM383.385 184.156C382.785 184.156 382.245 184.024 381.765 183.76C381.293 183.496 380.917 183.12 380.637 182.632C380.357 182.144 380.217 181.564 380.217 180.892C380.217 180.22 380.357 179.64 380.637 179.152C380.917 178.664 381.293 178.288 381.765 178.024C382.245 177.76 382.785 177.628 383.385 177.628C384.161 177.628 384.801 177.832 385.305 178.24C385.817 178.64 386.137 179.18 386.265 179.86L384.837 180.172C384.757 179.828 384.593 179.544 384.345 179.32C384.105 179.088 383.785 178.972 383.385 178.972C383.041 178.972 382.745 179.052 382.497 179.212C382.249 179.364 382.057 179.584 381.921 179.872C381.793 180.152 381.729 180.492 381.729 180.892C381.729 181.284 381.793 181.624 381.921 181.912C382.057 182.2 382.249 182.424 382.497 182.584C382.745 182.736 383.041 182.812 383.385 182.812C383.769 182.812 384.081 182.712 384.321 182.512C384.569 182.304 384.745 181.996 384.849 181.588L386.253 182.02C386.165 182.428 385.997 182.792 385.749 183.112C385.509 183.432 385.193 183.688 384.801 183.88C384.409 184.064 383.937 184.156 383.385 184.156ZM357.41 201.156C356.666 201.156 356.058 201.02 355.586 200.748C355.122 200.476 354.774 200.088 354.542 199.584L355.874 198.972C356.01 199.268 356.21 199.492 356.474 199.644C356.746 199.796 357.058 199.872 357.41 199.872C357.762 199.872 358.038 199.812 358.238 199.692C358.438 199.572 358.538 199.412 358.538 199.212C358.538 199.028 358.478 198.884 358.358 198.78C358.238 198.668 358.05 198.6 357.794 198.576L356.63 198.456C356.022 198.392 355.538 198.208 355.178 197.904C354.818 197.6 354.638 197.164 354.638 196.596C354.638 196.228 354.734 195.896 354.926 195.6C355.126 195.304 355.406 195.068 355.766 194.892C356.126 194.716 356.55 194.628 357.038 194.628C357.702 194.628 358.246 194.756 358.67 195.012C359.094 195.268 359.418 195.608 359.642 196.032L358.346 196.656C358.21 196.4 358.026 196.212 357.794 196.092C357.57 195.972 357.318 195.912 357.038 195.912C356.694 195.912 356.446 195.972 356.294 196.092C356.142 196.212 356.066 196.364 356.066 196.548C356.066 196.708 356.122 196.844 356.234 196.956C356.346 197.06 356.514 197.124 356.738 197.148L357.95 197.268C358.614 197.332 359.114 197.528 359.45 197.856C359.794 198.184 359.966 198.632 359.966 199.2C359.966 199.6 359.862 199.948 359.654 200.244C359.454 200.54 359.162 200.768 358.778 200.928C358.402 201.08 357.946 201.156 357.41 201.156ZM363.853 201.156C363.261 201.156 362.733 201.024 362.269 200.76C361.805 200.496 361.441 200.12 361.177 199.632C360.921 199.136 360.793 198.556 360.793 197.892C360.793 197.268 360.925 196.712 361.189 196.224C361.453 195.728 361.817 195.34 362.281 195.06C362.745 194.772 363.273 194.628 363.865 194.628C364.449 194.628 364.957 194.756 365.389 195.012C365.829 195.268 366.169 195.652 366.409 196.164C366.649 196.676 366.769 197.316 366.769 198.084V198.372H361.633V197.316H365.533L365.257 197.532C365.257 197.236 365.205 196.968 365.101 196.728C364.997 196.488 364.841 196.296 364.633 196.152C364.425 196 364.165 195.924 363.853 195.924C363.549 195.924 363.277 195.996 363.037 196.14C362.797 196.284 362.609 196.5 362.473 196.788C362.337 197.076 362.269 197.444 362.269 197.892C362.269 198.324 362.333 198.688 362.461 198.984C362.589 199.272 362.773 199.492 363.013 199.644C363.253 199.788 363.533 199.86 363.853 199.86C364.221 199.86 364.505 199.784 364.705 199.632C364.913 199.472 365.085 199.256 365.221 198.984L366.553 199.5C366.353 199.988 366.045 200.388 365.629 200.7C365.221 201.004 364.629 201.156 363.853 201.156ZM368.078 201.012V194.772H369.482V195.876H369.554C369.722 195.508 369.97 195.208 370.298 194.976C370.626 194.744 371.03 194.628 371.51 194.628H371.918V196.092H371.39C370.806 196.092 370.346 196.26 370.01 196.596C369.682 196.932 369.518 197.456 369.518 198.168V201.012H368.078ZM374.923 201.012L372.571 194.772H374.191L375.691 199.128H375.811L377.359 194.772H378.919L376.519 201.012H374.923ZM382.451 201.156C381.859 201.156 381.331 201.024 380.867 200.76C380.403 200.496 380.039 200.12 379.775 199.632C379.519 199.136 379.391 198.556 379.391 197.892C379.391 197.268 379.523 196.712 379.787 196.224C380.051 195.728 380.415 195.34 380.879 195.06C381.343 194.772 381.871 194.628 382.463 194.628C383.047 194.628 383.555 194.756 383.987 195.012C384.427 195.268 384.767 195.652 385.007 196.164C385.247 196.676 385.367 197.316 385.367 198.084V198.372H380.231V197.316H384.131L383.855 197.532C383.855 197.236 383.803 196.968 383.699 196.728C383.595 196.488 383.439 196.296 383.231 196.152C383.023 196 382.763 195.924 382.451 195.924C382.147 195.924 381.875 195.996 381.635 196.14C381.395 196.284 381.207 196.5 381.071 196.788C380.935 197.076 380.867 197.444 380.867 197.892C380.867 198.324 380.931 198.688 381.059 198.984C381.187 199.272 381.371 199.492 381.611 199.644C381.851 199.788 382.131 199.86 382.451 199.86C382.819 199.86 383.103 199.784 383.303 199.632C383.511 199.472 383.683 199.256 383.819 198.984L385.151 199.5C384.951 199.988 384.643 200.388 384.227 200.7C383.819 201.004 383.227 201.156 382.451 201.156ZM386.675 201.012V194.772H388.079V195.876H388.151C388.319 195.508 388.567 195.208 388.895 194.976C389.223 194.744 389.627 194.628 390.107 194.628H390.515V196.092H389.987C389.403 196.092 388.943 196.26 388.607 196.596C388.279 196.932 388.115 197.456 388.115 198.168V201.012H386.675Z" fill="white"/>
<rect x="586" y="127" width="136" height="122" rx="6" fill="#1E1E1E"/>
<path d="M628.557 192.012V183.372H631.689C632.609 183.372 633.397 183.552 634.053 183.912C634.709 184.264 635.209 184.764 635.553 185.412C635.905 186.052 636.081 186.812 636.081 187.692C636.081 188.564 635.905 189.324 635.553 189.972C635.201 190.62 634.689 191.124 634.017 191.484C633.353 191.836 632.545 192.012 631.593 192.012H628.557ZM630.069 191.352L629.457 190.62H631.557C632.237 190.62 632.793 190.5 633.225 190.26C633.665 190.012 633.989 189.668 634.197 189.228C634.413 188.788 634.521 188.276 634.521 187.692C634.521 186.796 634.285 186.084 633.813 185.556C633.349 185.028 632.629 184.764 631.653 184.764H629.457L630.069 184.032V191.352ZM639.179 192.156C638.547 192.156 638.043 191.988 637.667 191.652C637.299 191.308 637.115 190.856 637.115 190.296C637.115 189.744 637.299 189.3 637.667 188.964C638.035 188.62 638.559 188.42 639.239 188.364L641.471 188.16V189.168L639.479 189.384C639.167 189.416 638.935 189.504 638.783 189.648C638.631 189.784 638.555 189.968 638.555 190.2C638.555 190.424 638.635 190.608 638.795 190.752C638.963 190.896 639.195 190.968 639.491 190.968C639.795 190.968 640.063 190.892 640.295 190.74C640.535 190.58 640.719 190.336 640.847 190.008C640.983 189.672 641.051 189.244 641.051 188.724V187.968C641.051 187.664 640.959 187.412 640.775 187.212C640.599 187.012 640.307 186.912 639.899 186.912C639.491 186.912 639.195 186.996 639.011 187.164C638.827 187.332 638.719 187.524 638.687 187.74H637.259C637.283 187.332 637.403 186.972 637.619 186.66C637.835 186.34 638.139 186.088 638.531 185.904C638.923 185.72 639.391 185.628 639.935 185.628C640.743 185.628 641.371 185.844 641.819 186.276C642.267 186.7 642.491 187.248 642.491 187.92V190.644L642.527 192.012H641.171L641.135 191.172H641.039C640.815 191.508 640.547 191.756 640.235 191.916C639.931 192.076 639.579 192.156 639.179 192.156ZM646.174 192.036C645.574 192.036 645.122 191.88 644.818 191.568C644.522 191.248 644.374 190.8 644.374 190.224V184.068H645.814V190.128C645.814 190.504 646.006 190.692 646.39 190.692H647.386V192.036H646.174ZM643.27 186.972V185.772H647.266V186.972H643.27ZM650.207 192.156C649.575 192.156 649.071 191.988 648.695 191.652C648.327 191.308 648.143 190.856 648.143 190.296C648.143 189.744 648.327 189.3 648.695 188.964C649.063 188.62 649.587 188.42 650.267 188.364L652.499 188.16V189.168L650.507 189.384C650.195 189.416 649.963 189.504 649.811 189.648C649.659 189.784 649.583 189.968 649.583 190.2C649.583 190.424 649.663 190.608 649.823 190.752C649.991 190.896 650.223 190.968 650.519 190.968C650.823 190.968 651.091 190.892 651.323 190.74C651.563 190.58 651.747 190.336 651.875 190.008C652.011 189.672 652.079 189.244 652.079 188.724V187.968C652.079 187.664 651.987 187.412 651.803 187.212C651.627 187.012 651.335 186.912 650.927 186.912C650.519 186.912 650.223 186.996 650.039 187.164C649.855 187.332 649.747 187.524 649.715 187.74H648.287C648.311 187.332 648.431 186.972 648.647 186.66C648.863 186.34 649.167 186.088 649.559 185.904C649.951 185.72 650.419 185.628 650.963 185.628C651.771 185.628 652.399 185.844 652.847 186.276C653.295 186.7 653.519 187.248 653.519 187.92V190.644L653.555 192.012H652.199L652.163 191.172H652.067C651.843 191.508 651.575 191.756 651.263 191.916C650.959 192.076 650.607 192.156 650.207 192.156ZM658.461 192.156C658.013 192.156 657.629 192.072 657.309 191.904C656.989 191.728 656.721 191.476 656.505 191.148H656.433V192.012H655.029V183.372H656.469V186.636H656.541C656.757 186.332 657.017 186.088 657.321 185.904C657.625 185.72 658.005 185.628 658.461 185.628C658.973 185.628 659.433 185.76 659.841 186.024C660.257 186.288 660.585 186.664 660.825 187.152C661.073 187.64 661.197 188.22 661.197 188.892C661.197 189.564 661.073 190.144 660.825 190.632C660.585 191.12 660.257 191.496 659.841 191.76C659.433 192.024 658.973 192.156 658.461 192.156ZM658.077 190.836C658.557 190.836 658.949 190.664 659.253 190.32C659.557 189.968 659.709 189.492 659.709 188.892C659.709 188.292 659.557 187.82 659.253 187.476C658.949 187.124 658.557 186.948 658.077 186.948C657.565 186.948 657.161 187.12 656.865 187.464C656.569 187.8 656.421 188.276 656.421 188.892C656.421 189.5 656.569 189.976 656.865 190.32C657.161 190.664 657.565 190.836 658.077 190.836ZM664.281 192.156C663.649 192.156 663.145 191.988 662.769 191.652C662.401 191.308 662.217 190.856 662.217 190.296C662.217 189.744 662.401 189.3 662.769 188.964C663.137 188.62 663.661 188.42 664.341 188.364L666.573 188.16V189.168L664.581 189.384C664.269 189.416 664.037 189.504 663.885 189.648C663.733 189.784 663.657 189.968 663.657 190.2C663.657 190.424 663.737 190.608 663.897 190.752C664.065 190.896 664.297 190.968 664.593 190.968C664.897 190.968 665.165 190.892 665.397 190.74C665.637 190.58 665.821 190.336 665.949 190.008C666.085 189.672 666.153 189.244 666.153 188.724V187.968C666.153 187.664 666.061 187.412 665.877 187.212C665.701 187.012 665.409 186.912 665.001 186.912C664.593 186.912 664.297 186.996 664.113 187.164C663.929 187.332 663.821 187.524 663.789 187.74H662.361C662.385 187.332 662.505 186.972 662.721 186.66C662.937 186.34 663.241 186.088 663.633 185.904C664.025 185.72 664.493 185.628 665.037 185.628C665.845 185.628 666.473 185.844 666.921 186.276C667.369 186.7 667.593 187.248 667.593 187.92V190.644L667.629 192.012H666.273L666.237 191.172H666.141C665.917 191.508 665.649 191.756 665.337 191.916C665.033 192.076 664.681 192.156 664.281 192.156ZM671.455 192.156C670.711 192.156 670.103 192.02 669.631 191.748C669.167 191.476 668.819 191.088 668.587 190.584L669.919 189.972C670.055 190.268 670.255 190.492 670.519 190.644C670.791 190.796 671.103 190.872 671.455 190.872C671.807 190.872 672.083 190.812 672.283 190.692C672.483 190.572 672.583 190.412 672.583 190.212C672.583 190.028 672.523 189.884 672.403 189.78C672.283 189.668 672.095 189.6 671.839 189.576L670.675 189.456C670.067 189.392 669.583 189.208 669.223 188.904C668.863 188.6 668.683 188.164 668.683 187.596C668.683 187.228 668.779 186.896 668.971 186.6C669.171 186.304 669.451 186.068 669.811 185.892C670.171 185.716 670.595 185.628 671.083 185.628C671.747 185.628 672.291 185.756 672.715 186.012C673.139 186.268 673.463 186.608 673.687 187.032L672.391 187.656C672.255 187.4 672.071 187.212 671.839 187.092C671.615 186.972 671.363 186.912 671.083 186.912C670.739 186.912 670.491 186.972 670.339 187.092C670.187 187.212 670.111 187.364 670.111 187.548C670.111 187.708 670.167 187.844 670.279 187.956C670.391 188.06 670.559 188.124 670.783 188.148L671.995 188.268C672.659 188.332 673.159 188.528 673.495 188.856C673.839 189.184 674.011 189.632 674.011 190.2C674.011 190.6 673.907 190.948 673.699 191.244C673.499 191.54 673.207 191.768 672.823 191.928C672.447 192.08 671.991 192.156 671.455 192.156ZM677.898 192.156C677.306 192.156 676.778 192.024 676.314 191.76C675.85 191.496 675.486 191.12 675.222 190.632C674.966 190.136 674.838 189.556 674.838 188.892C674.838 188.268 674.97 187.712 675.234 187.224C675.498 186.728 675.862 186.34 676.326 186.06C676.79 185.772 677.318 185.628 677.91 185.628C678.494 185.628 679.002 185.756 679.434 186.012C679.874 186.268 680.214 186.652 680.454 187.164C680.694 187.676 680.814 188.316 680.814 189.084V189.372H675.678V188.316H679.578L679.302 188.532C679.302 188.236 679.25 187.968 679.146 187.728C679.042 187.488 678.886 187.296 678.678 187.152C678.47 187 678.21 186.924 677.898 186.924C677.594 186.924 677.322 186.996 677.082 187.14C676.842 187.284 676.654 187.5 676.518 187.788C676.382 188.076 676.314 188.444 676.314 188.892C676.314 189.324 676.378 189.688 676.506 189.984C676.634 190.272 676.818 190.492 677.058 190.644C677.298 190.788 677.578 190.86 677.898 190.86C678.266 190.86 678.55 190.784 678.75 190.632C678.958 190.472 679.13 190.256 679.266 189.984L680.598 190.5C680.398 190.988 680.09 191.388 679.674 191.7C679.266 192.004 678.674 192.156 677.898 192.156Z" fill="white"/>
<path d="M504.283 192.144C503.315 192.144 502.535 191.956 501.943 191.58C501.351 191.196 500.915 190.636 500.635 189.9L502.195 189.36C502.347 189.792 502.599 190.128 502.951 190.368C503.303 190.608 503.747 190.728 504.283 190.728C504.915 190.728 505.383 190.624 505.687 190.416C505.991 190.208 506.143 189.936 506.143 189.6C506.143 189.256 506.043 188.996 505.843 188.82C505.643 188.636 505.355 188.524 504.979 188.484L503.275 188.304C502.531 188.224 501.931 187.972 501.475 187.548C501.019 187.124 500.791 186.54 500.791 185.796C500.791 185.324 500.923 184.892 501.187 184.5C501.451 184.108 501.819 183.796 502.291 183.564C502.771 183.332 503.323 183.216 503.947 183.216C504.835 183.216 505.563 183.412 506.131 183.804C506.707 184.188 507.107 184.708 507.331 185.364L505.855 185.88C505.703 185.48 505.467 185.172 505.147 184.956C504.827 184.74 504.427 184.632 503.947 184.632C503.427 184.632 503.031 184.74 502.759 184.956C502.487 185.172 502.351 185.44 502.351 185.76C502.351 186.032 502.443 186.264 502.627 186.456C502.811 186.64 503.107 186.752 503.515 186.792L505.051 186.96C505.907 187.056 506.559 187.328 507.007 187.776C507.463 188.224 507.691 188.832 507.691 189.6C507.691 190.12 507.555 190.572 507.283 190.956C507.019 191.332 506.631 191.624 506.119 191.832C505.615 192.04 505.003 192.144 504.283 192.144ZM516.185 192.42L512.873 188.544L513.929 187.644L517.253 191.532L516.185 192.42ZM513.113 192.144C512.273 192.144 511.521 191.964 510.857 191.604C510.193 191.244 509.669 190.732 509.285 190.068C508.909 189.396 508.721 188.6 508.721 187.68C508.721 186.992 508.829 186.376 509.045 185.832C509.269 185.28 509.577 184.812 509.969 184.428C510.361 184.036 510.825 183.736 511.361 183.528C511.897 183.32 512.481 183.216 513.113 183.216C513.753 183.216 514.337 183.32 514.865 183.528C515.401 183.736 515.865 184.036 516.257 184.428C516.657 184.812 516.965 185.28 517.181 185.832C517.397 186.376 517.505 186.992 517.505 187.68C517.505 188.368 517.397 188.988 517.181 189.54C516.965 190.092 516.657 190.564 516.257 190.956C515.865 191.34 515.401 191.636 514.865 191.844C514.337 192.044 513.753 192.144 513.113 192.144ZM513.113 190.74C513.713 190.74 514.221 190.612 514.637 190.356C515.053 190.092 515.369 189.732 515.585 189.276C515.809 188.812 515.921 188.28 515.921 187.68C515.921 187.072 515.809 186.54 515.585 186.084C515.369 185.628 515.053 185.272 514.637 185.016C514.221 184.752 513.713 184.62 513.113 184.62C512.521 184.62 512.013 184.752 511.589 185.016C511.173 185.272 510.853 185.628 510.629 186.084C510.413 186.54 510.305 187.072 510.305 187.68C510.305 188.28 510.413 188.812 510.629 189.276C510.853 189.732 511.173 190.092 511.589 190.356C512.013 190.612 512.521 190.74 513.113 190.74ZM518.901 192V183.36H520.413V191.256L519.765 190.608H524.565V192H518.901Z" fill="white"/>
<path d="M447.328 184.464C447.523 184.269 447.84 184.269 448.035 184.464C448.23 184.659 448.23 184.976 448.035 185.171L445.707 187.499H494V188.499H445.707L448.035 190.828C448.23 191.023 448.23 191.339 448.035 191.535C447.84 191.73 447.523 191.73 447.328 191.535L444.146 188.353C443.951 188.158 443.951 187.841 444.146 187.646L447.328 184.464ZM577.965 184.464C578.16 184.269 578.477 184.269 578.672 184.464L581.853 187.646C582.049 187.841 582.049 188.158 581.853 188.353L578.672 191.535C578.477 191.73 578.16 191.73 577.965 191.535C577.77 191.339 577.77 191.023 577.965 190.828L580.293 188.499H530V187.499H580.293L577.965 185.171C577.77 184.976 577.77 184.659 577.965 184.464Z" fill="white"/>
<path d="M195.442 150.985C195.545 152.607 195.681 154.209 195.865 155.785C196.569 161.796 197.96 167.449 200.747 172.312C206.353 182.09 217.503 188.5 239.474 188.5V187.5C217.695 187.5 206.972 181.16 201.614 171.814C198.92 167.114 197.554 161.61 196.858 155.668C196.68 154.145 196.548 152.596 196.446 151.026L195.442 150.985ZM154.534 82.4644C154.339 82.2697 154.022 82.2693 153.827 82.4644L150.646 85.647C150.451 85.8422 150.451 86.1588 150.646 86.354L153.827 89.5356C154.022 89.7308 154.339 89.7305 154.534 89.5356C154.729 89.3404 154.729 89.0239 154.534 88.8286L152.212 86.5073C173.432 86.7368 184.043 93.0153 189.423 102.191C193.824 109.697 194.783 119.217 195.022 129.244L196.025 129.285C195.789 119.196 194.823 109.423 190.286 101.685C184.658 92.0865 173.627 85.7357 152.198 85.5083L154.534 83.1714C154.729 82.9761 154.729 82.6596 154.534 82.4644Z" fill="white"/>
<path d="M195.306 227.616C195.413 225.104 195.583 222.628 195.866 220.216C196.569 214.204 197.96 208.551 200.748 203.688C206.353 193.91 217.504 187.5 239.474 187.5V188.5C217.695 188.5 206.973 194.84 201.615 204.187C198.921 208.886 197.554 214.391 196.859 220.332C196.58 222.717 196.411 225.167 196.305 227.657L195.306 227.616ZM154.535 293.536C154.339 293.731 154.023 293.731 153.828 293.536L150.646 290.354C150.451 290.158 150.451 289.842 150.646 289.646L153.828 286.465C154.023 286.27 154.339 286.27 154.535 286.465C154.73 286.66 154.73 286.977 154.535 287.172L152.212 289.493C173.433 289.264 184.043 282.985 189.423 273.81C193.447 266.948 194.596 258.403 194.946 249.326L195.947 249.367C195.594 258.506 194.425 267.258 190.287 274.315C184.658 283.914 173.628 290.265 152.199 290.492L154.535 292.829C154.73 293.024 154.73 293.341 154.535 293.536Z" fill="white"/>
<path d="M185.56 143.144C184.592 143.144 183.812 142.956 183.22 142.58C182.628 142.196 182.192 141.636 181.912 140.9L183.472 140.36C183.624 140.792 183.876 141.128 184.228 141.368C184.58 141.608 185.024 141.728 185.56 141.728C186.192 141.728 186.66 141.624 186.964 141.416C187.268 141.208 187.42 140.936 187.42 140.6C187.42 140.256 187.32 139.996 187.12 139.82C186.92 139.636 186.632 139.524 186.256 139.484L184.552 139.304C183.808 139.224 183.208 138.972 182.752 138.548C182.296 138.124 182.068 137.54 182.068 136.796C182.068 136.324 182.2 135.892 182.464 135.5C182.728 135.108 183.096 134.796 183.568 134.564C184.048 134.332 184.6 134.216 185.224 134.216C186.112 134.216 186.84 134.412 187.408 134.804C187.984 135.188 188.384 135.708 188.608 136.364L187.132 136.88C186.98 136.48 186.744 136.172 186.424 135.956C186.104 135.74 185.704 135.632 185.224 135.632C184.704 135.632 184.308 135.74 184.036 135.956C183.764 136.172 183.628 136.44 183.628 136.76C183.628 137.032 183.72 137.264 183.904 137.456C184.088 137.64 184.384 137.752 184.792 137.792L186.328 137.96C187.184 138.056 187.836 138.328 188.284 138.776C188.74 139.224 188.968 139.832 188.968 140.6C188.968 141.12 188.832 141.572 188.56 141.956C188.296 142.332 187.908 142.624 187.396 142.832C186.892 143.04 186.28 143.144 185.56 143.144ZM190.643 145.4L191.771 142.772V143.348L189.155 136.76H190.775L192.359 141.176H192.455L194.147 136.76H195.707L192.167 145.4H190.643ZM196.568 143V136.76H197.972V137.624H198.044C198.244 137.312 198.492 137.068 198.788 136.892C199.092 136.708 199.44 136.616 199.832 136.616C200.256 136.616 200.628 136.708 200.948 136.892C201.268 137.068 201.516 137.332 201.692 137.684C201.868 138.028 201.956 138.452 201.956 138.956V143H200.516V139.22C200.516 138.796 200.42 138.484 200.228 138.284C200.036 138.076 199.772 137.972 199.436 137.972C199.164 137.972 198.92 138.044 198.704 138.188C198.488 138.324 198.316 138.528 198.188 138.8C198.068 139.072 198.008 139.408 198.008 139.808V143H196.568ZM206.385 143.144C205.785 143.144 205.245 143.012 204.765 142.748C204.293 142.484 203.917 142.108 203.637 141.62C203.357 141.132 203.217 140.552 203.217 139.88C203.217 139.208 203.357 138.628 203.637 138.14C203.917 137.652 204.293 137.276 204.765 137.012C205.245 136.748 205.785 136.616 206.385 136.616C207.161 136.616 207.801 136.82 208.305 137.228C208.817 137.628 209.137 138.168 209.265 138.848L207.837 139.16C207.757 138.816 207.593 138.532 207.345 138.308C207.105 138.076 206.785 137.96 206.385 137.96C206.041 137.96 205.745 138.04 205.497 138.2C205.249 138.352 205.057 138.572 204.921 138.86C204.793 139.14 204.729 139.48 204.729 139.88C204.729 140.272 204.793 140.612 204.921 140.9C205.057 141.188 205.249 141.412 205.497 141.572C205.745 141.724 206.041 141.8 206.385 141.8C206.769 141.8 207.081 141.7 207.321 141.5C207.569 141.292 207.745 140.984 207.849 140.576L209.253 141.008C209.165 141.416 208.997 141.78 208.749 142.1C208.509 142.42 208.193 142.676 207.801 142.868C207.409 143.052 206.937 143.144 206.385 143.144Z" fill="white"/>
<path d="M185.56 241.144C184.592 241.144 183.812 240.956 183.22 240.58C182.628 240.196 182.192 239.636 181.912 238.9L183.472 238.36C183.624 238.792 183.876 239.128 184.228 239.368C184.58 239.608 185.024 239.728 185.56 239.728C186.192 239.728 186.66 239.624 186.964 239.416C187.268 239.208 187.42 238.936 187.42 238.6C187.42 238.256 187.32 237.996 187.12 237.82C186.92 237.636 186.632 237.524 186.256 237.484L184.552 237.304C183.808 237.224 183.208 236.972 182.752 236.548C182.296 236.124 182.068 235.54 182.068 234.796C182.068 234.324 182.2 233.892 182.464 233.5C182.728 233.108 183.096 232.796 183.568 232.564C184.048 232.332 184.6 232.216 185.224 232.216C186.112 232.216 186.84 232.412 187.408 232.804C187.984 233.188 188.384 233.708 188.608 234.364L187.132 234.88C186.98 234.48 186.744 234.172 186.424 233.956C186.104 233.74 185.704 233.632 185.224 233.632C184.704 233.632 184.308 233.74 184.036 233.956C183.764 234.172 183.628 234.44 183.628 234.76C183.628 235.032 183.72 235.264 183.904 235.456C184.088 235.64 184.384 235.752 184.792 235.792L186.328 235.96C187.184 236.056 187.836 236.328 188.284 236.776C188.74 237.224 188.968 237.832 188.968 238.6C188.968 239.12 188.832 239.572 188.56 239.956C188.296 240.332 187.908 240.624 187.396 240.832C186.892 241.04 186.28 241.144 185.56 241.144ZM190.643 243.4L191.771 240.772V241.348L189.155 234.76H190.775L192.359 239.176H192.455L194.147 234.76H195.707L192.167 243.4H190.643ZM196.568 241V234.76H197.972V235.624H198.044C198.244 235.312 198.492 235.068 198.788 234.892C199.092 234.708 199.44 234.616 199.832 234.616C200.256 234.616 200.628 234.708 200.948 234.892C201.268 235.068 201.516 235.332 201.692 235.684C201.868 236.028 201.956 236.452 201.956 236.956V241H200.516V237.22C200.516 236.796 200.42 236.484 200.228 236.284C200.036 236.076 199.772 235.972 199.436 235.972C199.164 235.972 198.92 236.044 198.704 236.188C198.488 236.324 198.316 236.528 198.188 236.8C198.068 237.072 198.008 237.408 198.008 237.808V241H196.568ZM206.385 241.144C205.785 241.144 205.245 241.012 204.765 240.748C204.293 240.484 203.917 240.108 203.637 239.62C203.357 239.132 203.217 238.552 203.217 237.88C203.217 237.208 203.357 236.628 203.637 236.14C203.917 235.652 204.293 235.276 204.765 235.012C205.245 234.748 205.785 234.616 206.385 234.616C207.161 234.616 207.801 234.82 208.305 235.228C208.817 235.628 209.137 236.168 209.265 236.848L207.837 237.16C207.757 236.816 207.593 236.532 207.345 236.308C207.105 236.076 206.785 235.96 206.385 235.96C206.041 235.96 205.745 236.04 205.497 236.2C205.249 236.352 205.057 236.572 204.921 236.86C204.793 237.14 204.729 237.48 204.729 237.88C204.729 238.272 204.793 238.612 204.921 238.9C205.057 239.188 205.249 239.412 205.497 239.572C205.745 239.724 206.041 239.8 206.385 239.8C206.769 239.8 207.081 239.7 207.321 239.5C207.569 239.292 207.745 238.984 207.849 238.576L209.253 239.008C209.165 239.416 208.997 239.78 208.749 240.1C208.509 240.42 208.193 240.676 207.801 240.868C207.409 241.052 206.937 241.144 206.385 241.144Z" fill="white"/>
<path d="M301.854 188.354C302.049 188.158 302.049 187.842 301.854 187.646L298.672 184.464C298.476 184.269 298.16 184.269 297.964 184.464C297.769 184.66 297.769 184.976 297.964 185.172L300.793 188L297.964 190.828C297.769 191.024 297.769 191.34 297.964 191.536C298.16 191.731 298.476 191.731 298.672 191.536L301.854 188.354ZM236.5 188V188.5H301.5V188V187.5H236.5V188Z" fill="white"/>
</svg>
